<mxfile host="Electron" agent="Mozilla/5.0 (Windows NT 10.0; Win64; x64) AppleWebKit/537.36 (KHTML, like Gecko) draw.io/25.0.2 Chrome/128.0.6613.186 Electron/32.2.5 Safari/537.36" version="25.0.2">
  <diagram name="AWS" id="lxb3djZXRwftfunRzS4g">
    <mxGraphModel dx="4555" dy="2005" grid="1" gridSize="10" guides="1" tooltips="1" connect="1" arrows="1" fold="1" page="1" pageScale="1" pageWidth="827" pageHeight="1169" math="0" shadow="0">
      <root>
        <mxCell id="_9igIO5fBCOPrin5odHY-0" />
        <mxCell id="_9igIO5fBCOPrin5odHY-1" parent="_9igIO5fBCOPrin5odHY-0" />
        <mxCell id="_9igIO5fBCOPrin5odHY-2" value="" style="rounded=0;whiteSpace=wrap;html=1;" parent="_9igIO5fBCOPrin5odHY-1" vertex="1">
          <mxGeometry x="-2290" y="-670" width="1850" height="1600" as="geometry" />
        </mxCell>
        <mxCell id="_9igIO5fBCOPrin5odHY-3" value="On-Premise" style="sketch=0;outlineConnect=0;gradientColor=none;html=1;whiteSpace=wrap;fontSize=12;fontStyle=0;shape=mxgraph.aws4.group;grIcon=mxgraph.aws4.group_on_premise;strokeColor=#858B94;fillColor=none;verticalAlign=top;align=left;spacingLeft=30;fontColor=#858B94;dashed=0;" parent="_9igIO5fBCOPrin5odHY-1" vertex="1">
          <mxGeometry x="-1510" y="317" width="770" height="563" as="geometry" />
        </mxCell>
        <mxCell id="_9igIO5fBCOPrin5odHY-4" value="" style="rounded=0;whiteSpace=wrap;html=1;fillColor=#dae8fc;strokeColor=#6c8ebf;" parent="_9igIO5fBCOPrin5odHY-1" vertex="1">
          <mxGeometry x="-2240" y="187" width="1500" height="130" as="geometry" />
        </mxCell>
        <mxCell id="_9igIO5fBCOPrin5odHY-5" value="" style="rounded=0;whiteSpace=wrap;html=1;fillColor=#f5f5f5;fontColor=#333333;strokeColor=#666666;" parent="_9igIO5fBCOPrin5odHY-1" vertex="1">
          <mxGeometry x="-2240" y="330" width="220" height="250" as="geometry" />
        </mxCell>
        <mxCell id="_9igIO5fBCOPrin5odHY-6" value="" style="rounded=0;whiteSpace=wrap;html=1;fillColor=#f5f5f5;fontColor=#333333;strokeColor=#666666;" parent="_9igIO5fBCOPrin5odHY-1" vertex="1">
          <mxGeometry x="-1500" y="350" width="700" height="520" as="geometry" />
        </mxCell>
        <mxCell id="_9igIO5fBCOPrin5odHY-7" value="" style="rounded=0;whiteSpace=wrap;html=1;" parent="_9igIO5fBCOPrin5odHY-1" vertex="1">
          <mxGeometry x="-1020" y="360" width="189" height="140" as="geometry" />
        </mxCell>
        <mxCell id="_9igIO5fBCOPrin5odHY-8" value="" style="rounded=0;whiteSpace=wrap;html=1;" parent="_9igIO5fBCOPrin5odHY-1" vertex="1">
          <mxGeometry x="-2213" y="350.75" width="160" height="200" as="geometry" />
        </mxCell>
        <mxCell id="_9igIO5fBCOPrin5odHY-9" value="&lt;b&gt;Corretor&lt;/b&gt;" style="shape=umlActor;verticalLabelPosition=bottom;verticalAlign=top;html=1;outlineConnect=0;" parent="_9igIO5fBCOPrin5odHY-1" vertex="1">
          <mxGeometry x="-2196" y="433" width="30" height="57" as="geometry" />
        </mxCell>
        <mxCell id="_9igIO5fBCOPrin5odHY-10" value="" style="rounded=0;whiteSpace=wrap;html=1;" parent="_9igIO5fBCOPrin5odHY-1" vertex="1">
          <mxGeometry x="-1020" y="510" width="189" height="340" as="geometry" />
        </mxCell>
        <mxCell id="_9igIO5fBCOPrin5odHY-11" value="Mainframe" style="image;html=1;image=img/lib/clip_art/computers/Mainframe_128x128.png" parent="_9igIO5fBCOPrin5odHY-1" vertex="1">
          <mxGeometry x="-910" y="740" width="80" height="80" as="geometry" />
        </mxCell>
        <mxCell id="_9igIO5fBCOPrin5odHY-12" value="ibm mq" style="sketch=0;points=[[0,0,0],[0.25,0,0],[0.5,0,0],[0.75,0,0],[1,0,0],[0,1,0],[0.25,1,0],[0.5,1,0],[0.75,1,0],[1,1,0],[0,0.25,0],[0,0.5,0],[0,0.75,0],[1,0.25,0],[1,0.5,0],[1,0.75,0]];outlineConnect=0;fontColor=#232F3E;fillColor=#E7157B;strokeColor=#ffffff;dashed=0;verticalLabelPosition=bottom;verticalAlign=top;align=center;html=1;fontSize=12;fontStyle=0;aspect=fixed;shape=mxgraph.aws4.resourceIcon;resIcon=mxgraph.aws4.mq;" parent="_9igIO5fBCOPrin5odHY-1" vertex="1">
          <mxGeometry x="-970" y="400" width="60" height="60" as="geometry" />
        </mxCell>
        <mxCell id="_9igIO5fBCOPrin5odHY-13" style="edgeStyle=orthogonalEdgeStyle;rounded=1;orthogonalLoop=1;jettySize=auto;html=1;entryX=0.5;entryY=1;entryDx=0;entryDy=0;entryPerimeter=0;flowAnimation=1;curved=0;" parent="_9igIO5fBCOPrin5odHY-1" source="_9igIO5fBCOPrin5odHY-11" target="_9igIO5fBCOPrin5odHY-12" edge="1">
          <mxGeometry relative="1" as="geometry">
            <Array as="points">
              <mxPoint x="-870" y="480" />
              <mxPoint x="-940" y="480" />
            </Array>
          </mxGeometry>
        </mxCell>
        <mxCell id="_9igIO5fBCOPrin5odHY-14" value="" style="rounded=0;whiteSpace=wrap;html=1;" parent="_9igIO5fBCOPrin5odHY-1" vertex="1">
          <mxGeometry x="-1250" y="360" width="189" height="140" as="geometry" />
        </mxCell>
        <mxCell id="_9igIO5fBCOPrin5odHY-15" value="Atualiza dados&amp;nbsp;" style="sketch=0;points=[[0,0,0],[0.25,0,0],[0.5,0,0],[0.75,0,0],[1,0,0],[0,1,0],[0.25,1,0],[0.5,1,0],[0.75,1,0],[1,1,0],[0,0.25,0],[0,0.5,0],[0,0.75,0],[1,0.25,0],[1,0.5,0],[1,0.75,0]];outlineConnect=0;fontColor=#232F3E;fillColor=#8C4FFF;strokeColor=#ffffff;dashed=0;verticalLabelPosition=bottom;verticalAlign=top;align=center;html=1;fontSize=12;fontStyle=0;aspect=fixed;shape=mxgraph.aws4.resourceIcon;resIcon=mxgraph.aws4.managed_streaming_for_kafka;" parent="_9igIO5fBCOPrin5odHY-1" vertex="1">
          <mxGeometry x="-1194.5" y="397.75" width="64.5" height="64.5" as="geometry" />
        </mxCell>
        <mxCell id="_9igIO5fBCOPrin5odHY-16" style="edgeStyle=orthogonalEdgeStyle;rounded=0;orthogonalLoop=1;jettySize=auto;html=1;flowAnimation=1;" parent="_9igIO5fBCOPrin5odHY-1" source="_9igIO5fBCOPrin5odHY-12" target="_9igIO5fBCOPrin5odHY-15" edge="1">
          <mxGeometry relative="1" as="geometry" />
        </mxCell>
        <mxCell id="_9igIO5fBCOPrin5odHY-17" value="Direct connect&amp;nbsp;" style="outlineConnect=0;dashed=0;verticalLabelPosition=bottom;verticalAlign=top;align=center;html=1;shape=mxgraph.aws3.direct_connect;fillColor=#F58536;gradientColor=none;" parent="_9igIO5fBCOPrin5odHY-1" vertex="1">
          <mxGeometry x="-1363.5" y="200" width="67.5" height="81" as="geometry" />
        </mxCell>
        <mxCell id="_9igIO5fBCOPrin5odHY-18" value="Subnet Privada" style="text;html=1;strokeColor=none;fillColor=none;align=center;verticalAlign=middle;whiteSpace=wrap;rounded=0;" parent="_9igIO5fBCOPrin5odHY-1" vertex="1">
          <mxGeometry x="-1490" y="360" width="90" height="30" as="geometry" />
        </mxCell>
        <mxCell id="_9igIO5fBCOPrin5odHY-19" value="" style="outlineConnect=0;dashed=0;verticalLabelPosition=bottom;verticalAlign=top;align=center;html=1;shape=mxgraph.aws3.management_console;fillColor=#D2D3D3;gradientColor=none;" parent="_9igIO5fBCOPrin5odHY-1" vertex="1">
          <mxGeometry x="-2130" y="433" width="63" height="63" as="geometry" />
        </mxCell>
        <mxCell id="_9igIO5fBCOPrin5odHY-20" value="AWS Account" style="points=[[0,0],[0.25,0],[0.5,0],[0.75,0],[1,0],[1,0.25],[1,0.5],[1,0.75],[1,1],[0.75,1],[0.5,1],[0.25,1],[0,1],[0,0.75],[0,0.5],[0,0.25]];outlineConnect=0;html=1;whiteSpace=wrap;fontSize=12;fontStyle=0;container=1;pointerEvents=0;collapsible=0;recursiveResize=0;shape=mxgraph.aws4.group;grIcon=mxgraph.aws4.group_account;strokeColor=#666666;fillColor=#f5f5f5;verticalAlign=top;align=left;spacingLeft=30;fontColor=#333333;dashed=0;" parent="_9igIO5fBCOPrin5odHY-1" vertex="1">
          <mxGeometry x="-2240" y="-620" width="1500" height="790" as="geometry" />
        </mxCell>
        <mxCell id="_9igIO5fBCOPrin5odHY-21" value="IAM" style="outlineConnect=0;dashed=0;verticalLabelPosition=bottom;verticalAlign=top;align=center;html=1;shape=mxgraph.aws3.iam;fillColor=#759C3E;gradientColor=none;" parent="_9igIO5fBCOPrin5odHY-20" vertex="1">
          <mxGeometry x="1450" y="14" width="33" height="50" as="geometry" />
        </mxCell>
        <mxCell id="_9igIO5fBCOPrin5odHY-22" value="ROLES" style="sketch=0;outlineConnect=0;fontColor=#232F3E;gradientColor=none;fillColor=#DD344C;strokeColor=none;dashed=0;verticalLabelPosition=bottom;verticalAlign=top;align=center;html=1;fontSize=12;fontStyle=0;aspect=fixed;pointerEvents=1;shape=mxgraph.aws4.role;" parent="_9igIO5fBCOPrin5odHY-20" vertex="1">
          <mxGeometry x="1360" y="20" width="78" height="44" as="geometry" />
        </mxCell>
        <mxCell id="_9igIO5fBCOPrin5odHY-23" value="Region&amp;nbsp;" style="points=[[0,0],[0.25,0],[0.5,0],[0.75,0],[1,0],[1,0.25],[1,0.5],[1,0.75],[1,1],[0.75,1],[0.5,1],[0.25,1],[0,1],[0,0.75],[0,0.5],[0,0.25]];outlineConnect=0;gradientColor=none;html=1;whiteSpace=wrap;fontSize=12;fontStyle=0;container=1;pointerEvents=0;collapsible=0;recursiveResize=0;shape=mxgraph.aws4.group;grIcon=mxgraph.aws4.group_region;strokeColor=#00A4A6;fillColor=none;verticalAlign=top;align=left;spacingLeft=30;fontColor=#147EBA;dashed=1;" parent="_9igIO5fBCOPrin5odHY-1" vertex="1">
          <mxGeometry x="-2220" y="-530" width="1470" height="690" as="geometry" />
        </mxCell>
        <mxCell id="_9igIO5fBCOPrin5odHY-24" value="VPC" style="points=[[0,0],[0.25,0],[0.5,0],[0.75,0],[1,0],[1,0.25],[1,0.5],[1,0.75],[1,1],[0.75,1],[0.5,1],[0.25,1],[0,1],[0,0.75],[0,0.5],[0,0.25]];outlineConnect=0;gradientColor=none;html=1;whiteSpace=wrap;fontSize=12;fontStyle=0;container=1;pointerEvents=0;collapsible=0;recursiveResize=0;shape=mxgraph.aws4.group;grIcon=mxgraph.aws4.group_vpc2;strokeColor=#8C4FFF;fillColor=none;verticalAlign=top;align=left;spacingLeft=30;fontColor=#AAB7B8;dashed=0;" parent="_9igIO5fBCOPrin5odHY-23" vertex="1">
          <mxGeometry x="660" y="50" width="520" height="600" as="geometry" />
        </mxCell>
        <mxCell id="_9igIO5fBCOPrin5odHY-25" value="Private subnet" style="points=[[0,0],[0.25,0],[0.5,0],[0.75,0],[1,0],[1,0.25],[1,0.5],[1,0.75],[1,1],[0.75,1],[0.5,1],[0.25,1],[0,1],[0,0.75],[0,0.5],[0,0.25]];outlineConnect=0;gradientColor=none;html=1;whiteSpace=wrap;fontSize=12;fontStyle=0;container=1;pointerEvents=0;collapsible=0;recursiveResize=0;shape=mxgraph.aws4.group;grIcon=mxgraph.aws4.group_security_group;grStroke=0;strokeColor=#00A4A6;fillColor=#E6F6F7;verticalAlign=top;align=left;spacingLeft=30;fontColor=#147EBA;dashed=0;" parent="_9igIO5fBCOPrin5odHY-24" vertex="1">
          <mxGeometry x="10" y="50" width="500" height="540" as="geometry" />
        </mxCell>
        <mxCell id="_9igIO5fBCOPrin5odHY-26" style="edgeStyle=orthogonalEdgeStyle;rounded=0;orthogonalLoop=1;jettySize=auto;html=1;flowAnimation=1;" parent="_9igIO5fBCOPrin5odHY-25" source="_9igIO5fBCOPrin5odHY-28" target="_9igIO5fBCOPrin5odHY-30" edge="1">
          <mxGeometry relative="1" as="geometry" />
        </mxCell>
        <mxCell id="_9igIO5fBCOPrin5odHY-27" style="edgeStyle=orthogonalEdgeStyle;rounded=0;orthogonalLoop=1;jettySize=auto;html=1;flowAnimation=1;startArrow=classic;startFill=1;" parent="_9igIO5fBCOPrin5odHY-25" source="_9igIO5fBCOPrin5odHY-28" target="_9igIO5fBCOPrin5odHY-33" edge="1">
          <mxGeometry relative="1" as="geometry" />
        </mxCell>
        <mxCell id="_9igIO5fBCOPrin5odHY-28" value="Gera Cotação&amp;nbsp;" style="outlineConnect=0;dashed=0;verticalLabelPosition=bottom;verticalAlign=top;align=center;html=1;shape=mxgraph.aws3.lambda;fillColor=#F58534;gradientColor=none;" parent="_9igIO5fBCOPrin5odHY-25" vertex="1">
          <mxGeometry x="70" y="435" width="60" height="60" as="geometry" />
        </mxCell>
        <mxCell id="LD5Ol6cWUQSVc5vYyNdD-2" style="edgeStyle=orthogonalEdgeStyle;rounded=0;orthogonalLoop=1;jettySize=auto;html=1;entryX=0.25;entryY=1;entryDx=0;entryDy=0;flowAnimation=1;" parent="_9igIO5fBCOPrin5odHY-25" source="_9igIO5fBCOPrin5odHY-30" target="GUIoMzabyHf0ShyfHkNu-2" edge="1">
          <mxGeometry relative="1" as="geometry">
            <Array as="points">
              <mxPoint x="100" y="170" />
              <mxPoint x="373" y="170" />
            </Array>
          </mxGeometry>
        </mxCell>
        <mxCell id="_9igIO5fBCOPrin5odHY-30" value="Gera Proposta&amp;nbsp;" style="outlineConnect=0;dashed=0;verticalLabelPosition=bottom;verticalAlign=top;align=center;html=1;shape=mxgraph.aws3.lambda;fillColor=#F58534;gradientColor=none;" parent="_9igIO5fBCOPrin5odHY-25" vertex="1">
          <mxGeometry x="70" y="210" width="60" height="60" as="geometry" />
        </mxCell>
        <mxCell id="_9igIO5fBCOPrin5odHY-33" value="Bucket - S3&amp;nbsp;" style="sketch=0;outlineConnect=0;fontColor=#232F3E;gradientColor=none;fillColor=#7AA116;strokeColor=none;dashed=0;verticalLabelPosition=bottom;verticalAlign=top;align=center;html=1;fontSize=12;fontStyle=0;aspect=fixed;pointerEvents=1;shape=mxgraph.aws4.bucket;" parent="_9igIO5fBCOPrin5odHY-25" vertex="1">
          <mxGeometry x="221.54" y="480" width="38.46" height="40" as="geometry" />
        </mxCell>
        <mxCell id="_9igIO5fBCOPrin5odHY-35" value="Lambda&amp;nbsp;" style="outlineConnect=0;dashed=0;verticalLabelPosition=bottom;verticalAlign=top;align=center;html=1;shape=mxgraph.aws3.lambda;fillColor=#F58534;gradientColor=none;" parent="_9igIO5fBCOPrin5odHY-25" vertex="1">
          <mxGeometry x="360" y="270" width="60" height="60" as="geometry" />
        </mxCell>
        <mxCell id="GUIoMzabyHf0ShyfHkNu-4" style="edgeStyle=orthogonalEdgeStyle;rounded=0;orthogonalLoop=1;jettySize=auto;html=1;startArrow=classic;startFill=1;flowAnimation=1;" parent="_9igIO5fBCOPrin5odHY-25" source="GUIoMzabyHf0ShyfHkNu-2" target="_9igIO5fBCOPrin5odHY-35" edge="1">
          <mxGeometry relative="1" as="geometry" />
        </mxCell>
        <mxCell id="GUIoMzabyHf0ShyfHkNu-2" value="" style="shape=image;verticalLabelPosition=bottom;labelBackgroundColor=default;verticalAlign=top;aspect=fixed;imageAspect=0;image=data:image/png,iVBORw0KGgoAAAANSUhEUgAAAYEAAAHMCAYAAAAznxSWAAAAAXNSR0IArs4c6QAAAARnQU1BAACxjwv8YQUAAAAJcEhZcwAADsMAAA7DAcdvqGQAAP+lSURBVHhe7P15gCXXWR6MP6fu7b2np2d69rVnJI32xRpZisxi2ZYIBNkBYxwMCRKJNxJCfp8hhEDykw0Yh4Q4BPiCLRZLscGsBlvCxossyZssWxKSrXW09azSLD3T03tPd9/6/njf95z3nFpvLzPdPfXM3D5VZ3nfU3VvPc9Zqk6ZOI5jpGB0dBQzMzNhtId6vW7z1Ot1dHd3h1kKMTk5icnJyTDaQ61Ww+zsrN3v7e310stgZmYGo6OjYbSHer2ORqOBRqMBAOju7ka9Xg+zFWJoaCiM8lCr1RDHsfXT3t6O9vb2MFshqu+o+o4E1XdUfUeCZr+jKExsBjMzM6jVamH0gmN2dvas+JmZmUEURYiieZ2WQszOzsIYs+h+UH1Hc0b1Hc0d1Xc0d5yL78jMpycAwH4JxphFU0eBqORiqaNAVLKzs3NRWjAC+bJbWloWrQWDZfQdDQ6N4ZXjJ3F69AxGJ85geOwMTo9OYWRiGtMzs2g0Ysw2YjTiGHEMTM80EEURGjBozDYw24gx22hgdpbDRozZIL5ei9DaUgPiWbTUI7S11NFSj9Bap/jWlhrqtQgtnK+ttY7Wlho62lvR1dGO1pYIba11dLa1oLuzFd0drejubEV7a/rvZKV9R9V1tPK+o3mLAPjktLa2oqOjI0wqRDMnBnxyVq1aFUYXopkTAz457e3ti/rjBR9Pa2sr2trawqRCLOXvaGq2huND4zg5PIGhkUkMjU7i9OgUfcamMDQyiZHxKZwakfiS9mMABojjGMbtIvVHrBHHgDEUpkDbMSD7Nn8JBzFirOnuQFdHC1Z1tTlxaInQ2VZDZ3sLVnW2oqu9BV0d9Fnd1YYNazqxcW0XcA6+o+o6Iizl6+hsfEdmeno69ed95swZO9ZWFq2trU13zWZmZkp/AYKWlpamu0yNRgNnzpwJo3NRq9XQ0tISRheimS8aAKIoQktLC4wxYVIuzsV3NHlmFsdOjeH40ASOnRrH4OkJHB+awPGhcRwfmsCJ0xMYPD2B6Vmul2PVsnQNMAkbY5jsDeKich5pO7Iv9FogDgJnh+tTUhwsOH+attQig/W9JAYb+7qwdX0PNq9bhU193RSu7ULvqvwWbnUdLa/rqCzOxndkTp06lfozbnYyZ2ZmBuPj4zDGeBMbRZjLZM7Q0JA3UVMGc5nMETXVk1xl0GwXbnJyEtPT0wCPCZbFYnxHQyNTOHhsBAOvDuPIiVEcG5rAyZEpnDg9iWOnxjA+SfVMaTrn0q3ORiSYMBAW8cEFtSjklko6TE9OeOeYAlEIQaLVTDHlJxCFtONqa4mwcW03Nq3twoa1ndjU14UNvZ3YvK4bOzb2YOeWvuo6WkLXURqWKtctqAiMjo7aMbOyJ2euJwbBjH0Rmj0xUN3EenC3QxHm8uOdnJxELbjboQhz/Y5iGLwyOIaBV05j/6vDOHBshMKjIxgeD1oQmkxzaCoRm1ouG1ocpAdQCp6flOgs7xniIEiU1/lTDYbwLZQfvuIcGaqQqBdvdbW3YPfWNbhg21pcsG0tLty2Fru3rcH2jasRZbSMq+uIMNfraKVw3YKLANRETZmTM58TY4xBrVYrdXKaPTEIxgqb+QHP9ccLPndlf8BF39H45DRePHwKA6+cxstHhvDSkVN48dBJHDkx5oZrBAl2CUhMtbw9EsvIn0VzOnuyR5CDoGB5UmVkkL0gYadJ0tfDRDnaohCcr8BPkKrcp+RPqZ9Et7TUsHvLGuzeugYXbl+LC7auxQXb16J/cy/GRkcAVNdR0XUUYqVx3aKIAPjkGGMKKz2fEwM+OVEUFX4JzZ4YpEwY1Wo1NBqNwlbqfH68aOIHrL+jqTMzePLlE3jqpeP47ovH8eRLx3HkBF3kHhKkQRHlh1d0RHqycHV2RA44W+lhH4Em7TzRCuGVy4azs/BzAumwJyI1Y+L0hkdafODYvnE1dm1ejV1bVuOSnX244oINWN+bP+G50q+jMlhpXLdoIgCeqImiKPfkzPfEoOTJafbEIOXHi5I/4Pn+eFHwA55txHjx8BAGjk3gqZcH8dTLx/HioVNoxHEqdziSyEGCNCgik4QTLJQw4EFnS/YAsstZcMH5iYOKzvTOMRnkmwXdA0hxlwLfT/L7ChGkZGcEACdWaaKVU25NTzsu6+/DZbvW4fJd63H57nXo6XJ33Kyk60hwvnPdoooASpychTgx4JOT111q9sQg48eLEj/ghfjxQv2A9796Gs8dGMIz+0/imQMn8fyhIZyZbgRko6/ulKs8SPbJNOfum4S5REQi1kBrQnr+EJo8nUg0gcBPoj5p+Us0yV153irP8gwq54lEtjvnMYO0s48rJUMOfJFInD4Pm/u6cNnu9bi0vw9XXrAR11/Zj8728nf7LJXrKEsIzneuM6dPn47TTs5CnRgUnJyFOjEoODnNnhjk/HhR8AOe74/3yOAYHn3uGB7bdwz/+PxxDI1OpXBOzlWLNC4pl9+FfkTh8IqNyMwBBOYt2TdDqva4CuoTosBP8vDLiYRAt7ibmth2B+T5SdQnzJ+WMQUuOchQUC7MoE9HFBns2rIGV124EVdeuBFXXrgJl+1ej5Z6+q2M5+o60sgTgvOd68zw8HCcdnIW8sSAT07aTPpCnhjknJxmTwwKfrzgY4rjOPEDbvbH++qJ0/jGdw7isX3H8Mhzx/DqyXGVmn61ehzlcVt6fouM5FIk7yUEJJFFWjYikcJ7BsbQnjFqP6bvMubv1NpRhcWsgQGMyFwMmAhxg1veMIgM0GCOFUhu9oA4bjB5uxz0n0hdysdoIIJBoxEDJgYabC1WNBs3EMcGgISxJfny2hKcryCjTqUwJb+fIYCfQfcI0rUy32BLrYbXXLIZr7tqB1539Q5cccFG1CI642frOsoTAeQIwfnOdebUqVNxLWWGe6FPDDJOzkKfGGScnGZPDEr8eJHRkin68U5MzeCRZ1/Bw08dwcNPH8ELPJ7vXWLp11rmRRheo5pkHEnkIGEuGC7wkxP+vAobA2OIzImgDQCKa8QxIhOlWSwA2S+sl0J7e2sYlYrJSX1brDqBTSDjW3Fo0DcQowHEhoQCQNyIAcyi0QBMTEtipNsJPBQ49M9TmTkBnVBGFEL4Gbo723DDFdvwPVftwDUXrcO29fnX3lyuoxBFIgD2g4rrPNg5gfDkLMaJQcrJWYwTg5RuWbMnBiVFACk/4LQf76PPvoqHnz6Cbz3zCp54/qhP8oUXZUpsoiWZnt8iSE6QRGE53jAgEjecbgyVN9Tipnppuw0YRBxSfEd7m01vb2+BgUFbWyuMAdraaD9GjPb2NrS3t9pqdwSkbgC0lST6ucIXCIeJySkYABMTLp3yxpicmkaMGFMTFBoYjE1OIoLB+OQU9SSUiHkh/4biRgOIgThuUGeDf19xTL0KVy7xxeb+DARaRPXXm10ux09qz8bP0NfTjtdetgXfc9U2vPayzVjbk7wLqcx1lIcyIoCK6xLwJob1yVmsE4Pg5CzWiUFwcpo9MWhCBMDnTr7s3t5eTE3P4qtPHMR9jwzgK48fxNjEdHiVBPAT9MWZ3hLLv2p1uVSyCKEu5oi78QZM9tyyz0N7ews62tsAxOhdvcr66e2ltU/a21sTJH4+Y2JyygrMxMQZTE5OYXLK7U9M8H4cwxgaLnE/CKAx2wB4aCOOY8SNWe5VENy3HYh8wc/AIfg9Jn5PITIMB9Gy279lNW64fAuuv2wrrrt0MzraiGvC66gZlBUBVFznIXF3kFS6o6Nj0U4MlJ+5rPxX9sRAnRyw4jeDZkQAAKZngQcfP4iHnj6Or3/3EKbO6DFB+vn7LXB1ySSuKn31JC8u76L0RCI9v4VNNnANetowNH7D9aRNGVLpXd2NjvYWIKbWt5B62SGXCnODFYrJKUxyr2Po9KjtaZwcGra/pxhAHDcQN2LEjQb1ImYb1IsI7Ia/r1g/5Jb68ynxe0xNTcYkog1ww2Vb8Mbr+vGm1/ZjTU8nZuewgmYzIoCK6yxSF5BrNLkAEbgCra3NEUIcx5iZmUlMoBSh2RMJANPT0037KbNI1NjENB58/CC+9Mh+fPWJQ8mWlyBxlgV8EeZ1z71rKBHhg5PDixJM8gYGJooQG1ekvb0ViIE1vd1ob2PS7+3Gml73Q7J2MlCln7v0yUnqOUxMnsHQED0gOD45iaFTY/Z3EjdiFoVZNDjkpADiicvJXmpejSCDNpPye8zrmf6TK7bjja/dhZuu3YH1vZ1hcibq9XpTZI6K6wAgeynp8fFxTE9PJ2bss9BsF0QwNTWFM2fONFXpZlsIYPWenJxsqmWf1U0cHjuDLz86gC89sh/fevoILcGQ/ZsG+Eef2QNILZeeYGNzegDGUMuDWvZ8100MdLS3oXd1F9rbW9HW3oLOtlasVkRfYeVhcpKGmsYnpjA1eQYTk2cwOXkGp04NIwbQmJ1F3GhgdnaWh5WSt1AS0n+P5Ug+u5xE63L2OjEGV12wHm+8bhduvr4fG9bQkttZmMtwCyquyxaB0dFRxGrMsQhzPTGTc1j5b64nZnx83I6blYEWgaGRSXzpkf340iMDeOTZVzE72yj8EXsouCbCCJstQfZ+Dn0HjokobG+joZre1V2IeShHt+orVJCJ7ZOnRjA0NIqJySmcOjVihaAxO4O4EZNIgF7ikz78KMj4gWfu6usk5YJIMXfZ7nV4496duOWGC7BlXfL3PFcRON+5LlcEZviVamUqPJ8TM9nkyn9zPTGjvPJf2ZPT3d2NR547hr/88rO4/7EDwW8y5VeK5K4DJcy3R2BMBEQ8rMOE397Rit6eLqxZ3VW17CvMC5OTZ3BqaASIgVNDIzh1agQTE5NozM7Q29tmZ1gA/B+qJxKJVCRjMi4fl5xxnTCu2L0eb3vjpXjTa/vtW93mIwLnM9cVigD4oIsMzffEIOdhjhDzOTFIuXUrxOjEND738H7c+839OHB0mCKb+NGWEwUBZdA/dgO6mGIDREz2MAbt7W3o6Gglsg9a91Ku2q/2F3p/cnKK7lianMLQqVEcOnKM5hZmZzHbmKUn8RCr0soAR+tdCoMMGeXChPA66WhvwQ/deAF+5PUX4zWXbJuXCOA85DqgpAigxMlZiBODkidnvicGoEnSKFiI6YXDp/F3X3sJ9z12CJNnZoMfrSAZkxctCH+8cfKqAAAa2olomKe9ow2bN6wBYLBp45rqTpwKSwaTPHx0amgUE+OTOHHiFImC11NI+YELEru65d/McKqLuHjnOrzjB6/GW15/KVZ1ln/N5PnIdRqlRQDBPbwhFurEgNULPHOfhoU4MeCTM9OIcd+jB/Hpr72Mp/ef9NIJwa8u8SMMo0v8iBUMAEQRYGJ0tLdj88Y1AID+nZv8jBUqLGHQnMIohk4NY3xiEieOn0KjMYPGdAOx4dVtM6+TlAsjEa0jkj0Cna29rY4fet0e/IsfuArXXbbVmszC+cJ1WULQlAgg5+Qs5IlBwclZiBNz9NQ4Pv31l/HZhw9geIye9PQQ/LoSP7Ywxv+NJszpH688cdvR0Y5NG9ZgTS8N71SosFJAdyCN4NTQMCbGpnDs+CBmZ2YQx3w9F1wvmSTvMqREuJyyt3vrWrz9livxY2+6IvM9zSud6wRZQtC0CCDj5Cz0iQGfnHgBFpaCOjH/+Pxx/MX9L+DhZ46WmMhSP0OdMaVAUXfWwKC9ow0dHW1Ys7or0dIXs1mo0l361NS0d3b115G1zAO4nKCtLXsp5I721kz77Rnlmql/GlZ6utx9dPLkaRzc/ypmZqf5CWd9phUS0eQhUxx0hEHqeOut33cJbrv1Wrzmki2e5ZXKdWmQW8e14MxJBMCV1oYW48Qg4+TM5cTc/+gA/uje7+CZ/aeClODnxLsFnJ+MScloDBH/5k1rsXp1F9ac5619IeHJyTOI9T4vl0Db0x5ZTzCp67ilAC0ishyGjhOxkIfvaE0k+nl0tLfmitBKh0w0v/LKcRw/dgqjI6OYbTT4/KQ3oiwS11kiIhFrNYFx3WVb8d63XY+b9u4GViDX5YkAmJd0j2DOIoCg0ot1YpCiXmVPTCOO8aVH9uNP7v0O9h086f8smOXjzPueBek/sjBadmFidHR0YPPGNdi0ce2Kn8ydnJqGYbKempq2hK7JfOj0WFCqApRoaFHo7aEHotraWs4bsZicnMLhw8cxODiEY8cG3dPMqa0wiijVI0iPsLh453q858eux+tfsw1xIznso7HUuU6jSAQQCMG8RADq5NRqtUU7MeBKA0Acx4UnptGI8fcPvYiPffZJDLxyuoDkBeVI3oVuq6OjHWt6u9HR3oqdOzb6dpY5pqam6alTJnghdyH9CouPLLFob2vB6tX5T9EuN0xOTuHkyREMDp7C/pcPoxFLDyFAgtsTEX5s4gJ2EVvWrcJP/7Or8Jbv34PWlvQX42CJcl0ayogAlBDMWwTAJ6dWq6Grq/kfZNkTA3VyVq9eHSYBAM7MzOLvvvI87v7cU3hlMDwJPpuXG+7JVgETG3R0tmHTxrXo37nRJoell8O+kPrpYWqxE+FP43TVgl8WsMLAgtDb04W2tha0t7faYam873+p7k9OTuHk4GkcPPAqjh09wfFz6QF4CX6qHQmIsXZ1J97xA5fj7Tdfhu6O9B78UuG6PJQVAcGCiAD45HR3dyMqWHAtRDMnRtAdrOkzMTWDv77/OXziC0/j+Onx4Mv1iioEP5JAFbJEoqOjFZs39qF/5/Jr8U9NTWPo9Bgmp87g9PB41Zo/D5AmEMuxBzE5OYVDh47h+LGTOH58MIPsHRISUJBfo7O9BW9746X4yR+8EutWJ997cC65rgyaFoFwKWlBs85nmly0SDCXR72HhoZ4PKuBf/jWAfzx557ByeGik+t/+VokisSivb0NWzatXVZj/JNT0zh6jCbBTw+PV+PyFTzoOQfpOYhQLHVMTkzh4KFXsX/gMMbGJrI7AOkRqdA9Asnf1lrHO3/ktXjv225AZ7ubmzkXXJd2+2gWmp2zWFARGB0dRS3lNXF5mOuJef7wafyPP/9HvHiEl3WwoC/RdhsLSV7gZ2hva8XmTWuxprd7Sd/DL2P2QzyUUxF+hblC9xqWS49hYmIK+54bwP6BQ34jL60nkBmRgxhYv6YL7/tX34u3vekKGGPOOteFk8VFOOcigJTXxOWh2RNzcngS//0T38AXH6W1+0sKfSKD1xNQqe3trdjVvwmbN67187ObLJytdBmrlyGdivArLDakl9Db04WNG9InKsv+frMw3/SJiSkMDg5h/8ARnDhxMo31vfw2NqUHkJYfAC7dtQH/9V1vxN5LNp8VroN6qUwzQrAkRABckVleozwPZU/MzGwDn/j80/jjv/8OxifTumH05dn7jAvflCSgDLt2blySwz1TU9N4lYd19h88HiZXqHDWoUVhKQ4jTUxM4dlnX8bB/Yc9sveRiPDBBdNE4pYbLsS///G92LqhB1gErtPQbxYrKwRLRgRQcoGkMifmK08cwof//Ns4eIzemgQgeEI37UsOodWAvt32jlZs2rAWu/qXzjo9MpZftfIrLBcsVVGYmJjCwQNH8MzTLxWSfnJkID9/vRbhJ265HO/6kWvR3dm6YFwXIny9ZNoDZSGWlAiAK9RoNDJPTt6JOXB0GL/1p9/CN59+xR+3KdGyz5sTaG9vxWa+tfNcQ1r6RP7l3ydaocJSRZnho7OJyYkpHD9+CgcOHMGJ46dU16AEodg2Y/qyML3d7fjZt12Ht73x0nlxXRZCEUDBWkOYiwgMDQ2l3iW6UCKAAiFIOzHjk9P4yKefwF/c9yxmZqmM+6rccE+Z79AhxprebvTv2ITe3m5bzKWevf2qtV/hfEJbWws2bejF6p4u20vIuz4Wc398fBLPPfsS9u8/AoP04R4X5sBmo43+LavxCz/1Onz/tf1NcV0R0kQAyB8aaloERkZG4rTxrIUUAeQIQXhivvvScfzH//dBHD89TmdZk30u6MtI6wGc6/F+/TBWNa5f4XzGUuklTIxP4sCBI3j2mZfCJCDgDycSxbjlht349fe+EW0tNGGsEXJdGWSJAHJ6BE2LwKlTp+K0iY2FFgHwHAGC92vKiWnEMf7k75/ERz/9OBqxW388C2XmBDZvXIudOzfaBb7OJqrWfoUK+dCCsHo13ZJ6tjE+PomD+4/gmWdeSukR5CDoONBwEe1uWb8Kv/Xvb8FVF25M5bpmkCcCyODUOYkAUlrqiyECSKl0e3s7xs8Av/QHD+Lx54+F59at0dNEj6B39SpcsmfbWW/5y/h+RfwVKjSP3tVd2Li+95z0ECbGJ/HYo0/hxIlglWGP5JNzAlmIjMF73roX7/rRvYiZUxdDBMA9AqNeITlnEUAgBIslAgjuGnr6wDD+6598E0Mjk7kkr0XB+xKUarS3t+KSPdu9d+8KJFsW5pM+dHoMR48PVRO7FSosANKGjPKuPyxg+okTp/DsMy/hxPG0twwqWN6hDTsioRqxAPCaizfjv/3czVjf27FoIoBACOYlAlBC0NnZuWgiAAAwBn/098/gz+9/Hgie+fJ6AHI6vVr6aG9vRf+ODdgUPOC1mJBWfzXGX6HC4kEEYeP63rN66+mB/Ufw3LMv07IUcxomcvm7O1vxgfe8AT/4uosXTQSgRlmMMc2JwMTEROKo5D7UZhdIKotjp8bxy3d+Hc8d1AfIJ63ksE+MGB3tbdi0oTfxlq7FghD/q8eGqoXXKlQ4y0i7y2gxMTE+if37D+PA/lcwPj7hJwatVn+4KJ2+fvSmS/Ff3nkTOhZx7kN6A81wd+YqouPj45ieni49K162C/L0wCD+/e/ch9OjU2ESkDy36XMCBujfvvGs3ee//+CxivgrVFhCaGtrQf/2DWdl/kDE4LlnXk4OR2chpUcAABdsW4vf/48/hA1ry4nYXN4nMD09jcnJycRrMbOQKQKjo6MwxmB6uhzxlRGBh59+Bf/P792PqWlduRSST4Gcyrb2Fly6ZztWr+6GSUlfqH25u6ca7qlQYelCegc7tm/IvZ4XYn/w+Ck89uhT1CuQDClzAqlQ+df1duEP/vMP44Kta8JcCcxFBGZmZjAxQT2XMkKQKwIzMzNoaWkpJQRFIvC5b76MO/7kG3T3UcrZsufIhrylxGHTxjW4ZM92v+ACoxrrr1Bh+eFszR1MjE9g//7s5wtCcRCiC/mts70Fv/0fbsENV2wLLXiYqwiMjo4m7hrKQqEIACglBHki8Mf3fhf/5+8eD0g+QDDcozPQXT/b0LuISzoPnR7DgUPHq1s7K1RY5jgbQ0UHWAjGxya4rZp+d1ACSiRqtQi/9p434Ided2GYy2I+IoCU20fTUEoEwCSv90OkiUAcA79x90P49NdfdEcfpyzmoxAq5urVXbjmyt1htgVBNdFbocLKhQwV7dy+IUxaEIyPT1gxSECRfV6PIAbw3rfuxbt/dG9oAVgAEUAJISgtAigQglAEzszM4j9/9Kt48B8PAhkHT9Di4BLC1r+Uy0Kz6fsPHquGfCpUOA9QRgxCfgiRl35g/xE8+siTGfzGsAnpjeAfet2F+LX3vhG1yPeyECKAAiFoSgSQMzSkRWB0Yho//7/vw3depJdDA8HBp5wlffLWrO7C1YvU+q/u9KlQ4fxEGTGYK8bHJ/C1rzxqh4fK9AA8xDFuuGIb/uf/7we8V1kulAggRwiaFgFkCIGIwPjkNN75W1/AvoMnvaMtPAmc0tvThWuuWngBGDo9hudeOFyRf4UK5zna2lpw8YVbF3wCeXx8AgcGjuDZZ15M4TeGJcB0Jry4fx3++L+8xQrBQooAMoRgTiKAlKGher2OtvZO/OyHv4QneA0gH4EMpLjdtHENLr4of7a8WUxNTeO5Fw5XE74VKlTw0NbWgksu3Lqg71G28wRPv5RK9pmNYSUOV1+0CR/9lVvR2lJbcBFAihDMWQQQCEFUq+H9dz+Krzx+MHXMK3HQQcolF23Dpo3uvlnJP9f9yalp7D94rFrPp0KFCrnYyENEehXTkE+a3X/26RfxzDMvJjNkzAlofjQA/smV2/C7v/hDWNfX/FI4RSKAYCHPeYkAlBB8+K+/i88+vD9MdtBzAYEaXHPl7gVV42rSt0KFCs1gMeYLDuw/gsceeRJIIfkE6aaIw5uu3407/+vbYIyWl2KUEQHotYbmKwIA8JmHDuB3P/Ud3uPDDCaA005Ce3srLrlo24KNzVVDPxUqVJgP2tpacM0Vu9C2QOv7jI1P4GsPPuLWHrIEmCkHgMr2b99+I37xp78/TM5FWREAC8G8ReD5w6fxc7/7dcw2GgmS96HFwaC9rQVXX7Frwdb8r1r/FSpUWAgsdK9gXAlBWmMYCMQh6BH8wa/8KP7p6/bY/SI0IwIAv14yjASA1tbWwpXohsem8FO/8Q84PjSRIPm8Ma+O9lZcHPQAJD0LWemTU9PYV7X+K1SosMBok4ZqW0sm/wiK0sfGJvC1rzyC8bHxQn4MxaGjvY6/+NDbsWtL8VpD4Inf1tbyjevE+wQERS+VacQx3vvbX8Jj+45mtPwDKHFYqDmAqvVfoUKFxcRC9grGxyfw+c99NZ0vvcZzMse2DT34s9/4MXR3FpN7+OBuEfKb+jn4xBeewWP7jgKJ6jLimFJi+sQcd/UCCcB3nhqoBKBChQqLiqmpaew/eBzfeWogTGoanZ0duHbvFZYLEUvIDGp7B26hagkPHj2NX/ujB3lvYTEnETh4bAR/8HdPwBgDA3qRAVR3yACkajAUGgNjgIv3zH8SeGpqGt95aqAa/qlQocJZw9DpMTz86L55P2y6s38LLr30AsuJwo+WK0FxHpcyx37pWy/h899Ut50uEJoWgTgG/ssffR3TM7P0BjKAXzzjWvtO6dxn44Y12LTBfw5Ao8z+5NQ0Hn50XyUAFSpUOOuYmprG40++jMmp6VR+Krt/yWUX4NJLdxNv2pESf8SEGFV3GOhtjx/62Fdx8nTwlrN5omkR+OsH9uHpgUFAGvtWrZyK2ZA/vb3duCR4ElgUruz+6dNj+Naj+4LYChUqVDh7mJqaxhNPvowDB4958SFfFe3v7N+G9Rv63EgJkj0AIzTKPQFjDE6PTeGOOx/wjc0TTYnAsaFx/N7fPGZfOWmHsrxcEklaJreCzgdHjw0tyJhchQoVKswXtAT9EPYHQtAMOjrbce11l6Ozs10RqWNS2bKh6iV87fH9uPdrC9cgjlpayj8U8bt//Y+YODPrzQWIWsGqnVM18HIQ88FzLxzGcy8cDqMrVKhQ4ZxBJoznIwSdnR247rorLVcWzQnoHsH//MRDmJpuiKl5IZqens69FVRw8NgIvvDtATs2ZceprIAl5wR6ezrtnUB+byGJtPRq7Z8KFSosZYgQpPGXRlZ63/o1WL9ubek5AfkMjUzg43//uF36YT6IwE+YFQnBRz/9HcSxU6K0HgAFLrx4j+sFiKJlIUwfOj1W3QJaoUKFJY/9B48n5ghChPymcd31V9rRE+FS7hsk5gQgIQz+798/gdMjE4XcXQQ7J5AnBNILAKuQVSqWtzSV69++Hu1txQ82pGHo9Fg1B1ChQoVlg1ePDc35rsX2jjZcdsVFak6AewSKW/WcgIy8jIxP4a57/xEzMzO0BpA0wJuENzGcJQSf+MIzVAGtRqJOHEKpXXtbK3bu2KhNlIY8B1ChQoUKywWyeOVcnyPo37UNnV2dtFM4J+C4+M/+4UmcmZ7F7OysfU9As4jq9Tr0B/zmsNnZWczMzGB8cgqf/eZLiTEpO07FoZ4TuPiirYneQdn9h6vbQCtUqLAMIc8RIIffsvZb21px3Q1XutY+58maE5BRmYmpafzDN19EvV6HMcauGTQzM1P6k7mK6NjYGKanp/GFRw7hf/zlEyolBmAQxzFMcsVobNqwBhdftFXlL4/qSeAKFSosd2zc0IuLL5wbB37tq4/g+FF6DisNxL7c8GYCvuqizfj079xm85w5cwaTk5NoNMrdPZT5nEAcx6jVavjswwfsvoxHiW6kzQmsXs1dmiYxdHqsEoAKFSosexydx/zABRfuBBSn2tCbExDipfA7z7+C5wbcTTQyLFS0CrQgN9fJ4Qk8tf8UIOP+cmdQYk6A8htgzmsDVc8CVKhQYaVgrnzWt7YXra2tBXMC6i4hDv/mvu8qK/zaSGNK3UKaKwLfeOqoavXnzQkAAK0PlHVHUOqYE2P/wWNznlCpUKFChaUGepjM3Taax39Q6a1tLdi6k+ZUhVst16bMCUj45W8lF5aTF8kXCUGuCDyy77idbbY9AK8nQPk4R+5QUN6cdfU8QIUKFVYaXj02ZBu3efyHIH3b1o2IFMem9gAgIWV68dAg9r+SfLBWegR5Q0OZKY1GjIefOWo1KqE+bkjKqtjmjWuCiheH83nsukKFChWWKmiNoVOpvJcXrl7diY5OalALt/pzApQSzg3c/+0XOLePmZkZRFGUKQTpsQCe2n+K16YgtUmMQ4k6cbhl41rUa1HTn2pZiAoVKqxUHD02lOC8ok9nRxu2bqfnrLit73EtdQTCngFw/7eTQ0KCPCFIxjCe4uWiSW2C+YDEnECMtWu6UDMGtQioRRwW7B89NoTJai6gQoUKKxSTU9MYPj2Wyn95+9u2bkQU1UrPCQDAI08fCt17yBKCTBE4dJxucdLjT6JCojwcwADo6WpDvW5YzTjk/ZZgX9LnehtVhQoVKiwXvCK9gSb4sbuzDR1dnWqoKNnydwRM4fjkNF4dHFGek5iZmUnMEWSKwMFjo7Sh7g6S8ShRHj0n0N3Vjnpk7KcWbOt9iTv0yknrr0KFChVWIgZPjabyXx4/dnW2oq29LWNOwJ8LsCGAFw5mP2gmCCeLM0Xg0AlupdtWv1Mhb3yKs6zqbGM1o3GtFhnjytmvUKFChZWOickzqfyXt1+vRf7zAt6cQDA/Kz0CAC+WEAEEQpDKxI04xiC/x9K1+vPmBODGtowa44oMj3PpfQoHh7inUaFChQorHIND1Bsoy4/dHa2I6vWm5gQA4NUT+cNBGlYIwgQAmJiicSPYOQGnQH5PgPJvXLfKjmWJirl9Hee2q4fDKlSocL6gHoVcmM+P9VqEDetXoxZl9ACC5wQEoxNTzmkJzM7OIpqcnET4Oem10sM5geRzAt2d7ajVeHyrZlCPULg/3mRlK1SoUGG54vjJkVw+TNs3AOq8AoM/JwCkPScAAEPDE5iZmUF7e3vpT6oInBrWd+0k5wQQzAlEEax6ydhWGIbpUeTUq0KFChVWMqJI7gQqx48ttQirulrR0tIGJOYEqPXv9wwIw6NzEAFVT4vJMzPeXEDRcwKjY1Ooy1iXjHEF+2G6qneFChUqrGis7mpvih9rBkDDoFavNTUnMDZxxvNbBqki0Gj4cwFFzwlERt//Goxx2Xtf/fTtG3q1ywoVKlRYsaCeQHl+rNciHD81gihzTkARsGpRzzacIJRFqgh40D0CHo9yvQTKMjI2hVqNFazGM92yHwX7nJ7y9HKFChUqrEhs30STvGX5sVYzGBmbssPxMuritfzDEMWrlaahmIp1jyBxdxCFI+NTifGsonBtT/aKoxUqVKiwkrCmpyOVB/NCE/kjMqk9gmBOwG2VR6YIuNa+C72PUqc4jjE5Na2ULeVj74+lT29Pe+CxQoUKFVYmQv5LfIL08YkpxDH3AlL4N2tOgPsLTSGSl8uH0AokoffRQ1K8bCqpmMyCB6F9Ms7FX3EhrZRXoUKFCisVV1y4MZX/8vjx1ROjMIaGzVN7ABnPCRAzN4dodnYWWUJACOcEks8JxADGp2b8FfFKhFfv2eS7qlChQoUVhtfv3ZXKf3lhFBHnyrviZdRF5mWznhNovh8ARHEcY2ZmJkcIVI9Aq1EwTvXS4VOo21nucp8Ltq1F/5bqLqEKFSqsTPRv6UXf6o4E9xV9nn2Z3uooN9BorqWOQNgz4HzOdWnYOYHZ2VnvXZSiMhQG8wEpcwKj41PemFbZz2su3mx9VqhQocJKwmsu3pzgvDKf/a8OUU8gNos/JyAbcRyj0WhYIRB10eNPokIujcoaACPjZ/DykVOo1wzPbpcLL9y+VqpQoUKFCisKF25fm8p7eeEzLx3jdwzT4m6uB1D8nMCc5gT0ThzHSMwR6B4Bj0eJ8ug5AQB47uAgr49NCyaVCdet7sDbb75cvFWoUKHCisDbb74c61Z3pPJeXvjEC0cttzbUnGxMG67lH4bwBaEsot7eXoSftjZarwJwRrUKeeNTNovB6DjdIdTsZ8+OPlywreoRVKhQYWXggm1rccMVWxNcV+Zz4JUhHvcHIjUnm9ojCOYE6rUaWlpaMDQ0VPqT+pxAFEWqta+UKHNOAABiDI9N4dvPHEmMbxV91vV24Kd+8Aq/EhUqVKiwTPFDN16Q4Lkyn8f3vUqc2mgAMfUELNeWnBOo1Wo5N/okkSoCkJZ/EHofPSQlZWBw6MSIHdsiZXNjXXn7G9Z04oYrtor7ChUqVFiWuOGKrbikvy+X77L2739kgLhVvfoxtQdQ8JyA3PGpewlZyBQBB9Uj0OqTMicQI8bBoyM4fJzWzpZPLef9mnr/Ld+7B32rO5zrChUqVFhG6FvdgZ/54atT+a1o/x+ffQUnR8a5JxADiMGPCdhRF5mXLfOcwMzMDGq1WqEQlBAB1SPQahSMU5EGGUQw+Ow3X7Iq10y4cW0nfulf3lgJQYUKFZYd+lZ34Jf+5Y0JXisbfvHbLzOLAiYinpXXrmiuJboNewacz1UHYCGIoihXCDJFQM8FlHlOgPoBMRqIMTQ6iXu+8UJivKvMZ8OaTvznn35dWJ0KFSpUWNJ451uuwYY1nQlOK/P5sy88iROnx5hTY8QN+jRiat2H/Js3JxBidnY2VwgyRUAK6PEnUSGXxnmljPQaYLD/6DAOHhtJqF2ZcOPaLrz7n1/DVitUqFBhaeNXbnsdrti9PpXPisKXjgzhW08fpmcDDI+pRMSvkcmaE9AErHsC6UQvDwOnCUGmCFjoHgGPR7leAmeRrDJ/gBhDI5N44PEDqHnjXrQ2Rpn9m67dgR97w8VsuUKFChWWJv7r7d+DK3avy+WzvP3PfuN5y6txzGMqDQAwkHfEyKiL1/IPQ8XFaciaIygWAd0jsL2BcE4ArEHuHxBh4JVhPPHCcdTtDLislV1u/yfedCl+/I2XhDWqUKFChSWBf/fWa3HVhetT+avM/sNPHcFzB07ZERbqCdA72KUnAI9rgx5BwZxAiDQhyBQB19p3ofdR6kRZeCyL/wENNOIGvvDIgB33msvnHTdfire/qRKCChUqLC382ju/F2+6bmeCs8p+To1M4I/ueRyIG4gb9FrfODZAHKMRN9CIOS6Ff5uZEwghQhCp21BTIUqhQ++jh6SkjJoToHmECEOjk/jNP304dSyMQvmE8S79X/7A5fijX/5BbFhTvY2sQoUK5xYb1nTig+/+flxz0cZS/JUeb/DH93yHODSKYCJaMdQQdSJChMjQu4lTewA8TwsoIlYcXAS5ayiKomwRcFA9Aq0+ekjK5uS8lIo4JhkbHJ7AJ+97NqGE9JE1tLM+lL65rwu/9bOvr4SgQoUK5wwb1nTit372Jlxz0fqm+Cv8fPDuh/D0wAlq+Td4LqAhPMvjKjHQ4EkBGXUhDgbzqxCw7gmUhxWCMCEJ1SPQaiTqZHsLNBcQ2VmBCJGJcHl/Hy7vX4fvvjyIz3/rZdTT3qpTMty6rhv/8+fegKsv3BBWskKFChUWFVdfuAEf/68/jK3rulL5qWz40c88gaf3DxKPRjTwbww9G0D8ChgjvQPHv65HQK1/v2dAKNcPcJiZmUE0MzOD8DM7O2tVhsJgPiAxJ8B5+DkB2WrEDTw5MIg4buC6i9bjy48fxGe/+VJCFZv5bO7rwi/95PX46R+8LDyeChUqVFgU/MD1/fjwz92U4KNmPw8+fgD3PzqAOG6gEceIGw33TAC/RiwGaE6gEaPRUFxbYk6AyjVQr9dLf8ypU6cSPYhnDwzh3//+18NoRgzAII5jGJrDgAGwdfMatNRriBEjgkGMmManTAMGBj94/U50t7fg8OAY3nDNdly0dXWgW2S3mf2Pfe5J3PXZp1RchQoVKiwcNq3twi//yxvwmovWJ/in2f3vvHQCv/LRr8AY4k+oEA3OruNjg9HRYZw8diJh1ZbTIYBr9mzCx3/9beju7la+81E8HKR7BDweJcojAiQqkpgTAM0JxIjx1e8cwdjkNLb2deH5Q6dwfGiC1TEcMyu//84fvgp//etvwb/+4WoF0goVKiwsXrNnA/7619+M6y7emMo/zew/9dJx/Mof3M+cSGMlNAkAmAaPnvDISoN5tgESAjD/xrThWv5hqLi4GRSLAI836fEnb3zKZpG5APoHGESGHlWOEGFschoHjo2QzTjG4ZOjmJmdRT1j5rxsuG19N9795qvwzluv9KpdoUKFCnPB5r4uvPPWK/EH77s5wTdzCQeHJ/CfPvIAjfWDbgGikJdy0HcAAfbJ4YhoFPC4NpgLmOecAPJEwLX2Xeh9lDpRFlYz/ic9gFjejhPHeGrgJJ56+QRiAOOT0/juwEkcGxoPlHNun/e85Sp85kM/gne9uRKDChUqzA17L96Iz3zoR/Cet1yV4Ji5fJ586Tj+1a99hkgyjhHHbtZUuNQb95eeAHMnU2mCf22PQPcMmIWbRaYIiLro0Pu4ToJVH61UJpIeATthdXvm0BDGJ6cRmQiT0zM4cHwU+48Os4X5YXNfF9795qsqIahQoUJT2NzXhXe9+Up85BduDpPmjM9/6yX8wu/fRztpIylwLX7hU8N86djT51XX8lc9AK8n0HxfIFMEHFSPQKuPHpKCKIFxyuW0jNbEjmmcy8QxvvLdI5iYngFiYHJqBgPHRhZMCADg3W+uegUVKlQoh3e9+Up85kM/gne/+aowac74v//wXfyPP3vYDdfHPDqi+RPEiQAN/XMWNCx/OkgvQXgU3JOwtiWf3SqPSB4dzobrCXjjUKJONiRVc2rGcbIdRTzWFWF8cgavnhwnAWPhGjg2gv3HFk4IpFfwmQ/9CG593e4wuUKFCuc5ZOhnIckfAH7x//0yPv4PTwLSSCeSBIzmUeZFadUrPg17AmRH5WF7fs+A86kyZREZY+waEhqiMhQG8wG2J6DCRoOUjJ9+azQa9NRADMSG0htxg8bE4gZePnoaA0eHvSfiBo6O4JvPvuL5ny8293XhjttvxGc+9CPYe/HGMLlChQrnGYT8P/ILN2NzX1eYPGccPTmGX/z9+/DE80dti5xa/txa12P6DX6mKm5Q2KDtOJZ41eIXjtXlw1D8zaEvEM3OzsIYg1qt5iWIuujxJ1Ehl8Z5wetfcKQx9I5MA3rqzYAGviITWTU0MNh/fBQHT4xaPwbAmekGvvXcq5ianpWqLAg293XhI79wMz7yCzdXYlChwnkIzQELSf5gAfjtTz6M77x4zG+OW5JUcwLMp9ITiJgfhWMjE9l9eD2AoOUfhsTUdrssIvALBwAkhABw401OdXQvgbMAtBKe26O8IMWLaTDMPjcAmjoAYmDg6DCGxqaoDJefPDOD77x8YkGHhwR7L96Ij/zCzbjj9hsX/IdQoUKFpYfFHg34+Oe/i3/165/BEy9wD0A3xl2XAESDxId+KM8OUPYGYlAU8SYV13MCjmO9MHBdFnYcKFMIdI/A9gb8MSxjgMjQGtU6LTLuLiFKq7keghVHg+++PIjJMzPiEIDB1JkZHDg2jG/ve1WlLRxufd1ufPQXb8Edt9+4KD+MChUqnFvIHT+LNS949OQYfun/fBl/+vmniCaZ+2wo9GnJTjjT0NpAMDBRDcbUENmegcyhAoYmB9hORo9A9wxc9qaQWDYiiiI8d/A0fvZ3HoThx5clzMP2zWtQr5OmGONLEgmBizAALtjRi9Z6HQAtP9HRWsOV/evQ3kIPUMRxjIjDjvY6NqzuxM6Nq7366HC+eGVwDHfe8x3c+42XwqQKFSosI7zrzVfiza+7YFF7+p/4/Hfxic8/6TX0vTARzy16XhgOMTNizITIUwe2bEwJYyMjGDx+wmvt5+Gaizfh47/W3LIRZnp6OmH9yZdO4F2/zfe3ZiGmRYM4wLYta9FSrwGgtYJixG4FPHWsQEwisH0NWlpq3O6n+I42EYI6iYaoILtc3d2Gi7asQXtrnWMWHq8MjuGeb7yIP7znu2FShQoVlig293Xh1tftXvA7fUIcPTmG//UXD+OJF44BHunHtCy0TM1qUlfbQAQT0RprxJMNABHiuAHDt4caAHFMLf+Rkay1g6ixHbsNAMDeS7fi47/+NjuyUwYmTmniP/XyIG7/0D/wHrmNYyJvJVwetm9eg3pLBMTU8lccDkT0fIDAALhgxxq01muW7EUM2lsjXLVrPdpYIKSAbLe31rChtws7NvRYe4uBVwbH8OhzR3HvQy/h0eeOhskVKlRYAjhb5A8AX/z2y/hff/5NxNzIhRYBKwbBvg2ZRw0NAdlGtGV9KctMF5NMjI2M4OTx4wHZpzEwYe9l2/DnH/oJTE5OYmam3DB6CRHIgK5UZLB90xq0tNStlqW15AEa0wKAC7atRmsLzT9QDA0LGQCru9qwZ2sv2lt1OpfncOOaTmxf34O2RewVCKqhogoVlhb2XrwRt964e1HG+kMcPUWt/+++cCyb5IWWmbwpVGmWZaknICSu85jArjHA6PAIBo8dl8IWWgqoHBW87rJt+OSHfgLj4+OIoqiUEGSKwG2/+Tk15q4PIgUG2L5pLeotfJsoQKQu1TRuTsDwnwu296K1ziSvWvqGxaC9tYYr+9ejrS5jaDIH0HBzBW0tWL+6Azs29ibmCMJwIVD1DipUOHc4m61+MPnf9+2X8adffNK15L0wp+Vv44P8fIMMeECI4IuGLjc2PIrBE8cLCNhh72Vb8ecfegdGR0ft6yOLhCBTBLJ7Au6gRByMoTkBInV3FojcieHjGIgiPksGuGBbb2JOQLia4mISgl3r0c49BoHkZ9Noa6WJ4+0bVnv5FhMyd/DYvmOVIFSosEgQ4l/sid4Qf/bFJ/HJLz6ZQ+5hvD8n4OXXcwJ8F6XwZkMNqBhDL5anfWpEj474PQFiXxYJXZAdSk9gdJSev4oiutEmb46gWATYCVVKHYyGAbZvXouWemSrSYQuPQDDE8Yu/wXbaU5AyD9LDDpaa7hiF00Wq+K2JuwG4PmC9au7zqoYoJpMrlBhQXGuiB8APvnFJ3HfIy/j6MkxR/j8h0JqwefOCQSTwhQyD0bUE7A9BMWoIRPHAMZOj+DkiRM+6edA5gREBAAago+iKFMIikUgC7pSkYhAzbbO4biZ8/N9r1wua05A9mVYCADaW5wQaJuU7qov+dtaarhwy1r0dLXbtLMBGS56dN/Rav6gQoUm8a43X4ktfd1nZZw/xJMvHcP//stv4eipMUCRtjfsk0ruHMrwTsGcAL07OLItftcToGHrRkMNYwMYHRmd05yAFgEUCEGmCPhzAu5kpMIAOzavTT4noEhdTp/hhx52b1/tPSfghMMXA0lvb6njil3r0Fanheh0vaKIQ4mPDOK4gY7WFuzevAaruzu8/HnhQqEShAoV8iEt/nNF/ABw7NQYfvcvH8Z3X3K3fCYI35Ks8CC34HNFIYznjSiCMZHzIwj2ZXtsuLnnBPScQIgsIcgUgXI9AQ4MsH1zH1patAhQgpFQHaIxwO4ScwJIGSa6cMsabOzt4n1RG2fXbtutGBt6u7BudddZ7xloVHMIFSo44t+7Z+M5fVL/2Kkx/MV9T+G+R14GPPLWZF+G3CW+5HMChiZrqcUfIUYDBhEaMb9knmjPicDICAabeE4gqycgMPyEsbzUHuVEwJ0UqZxPvRSR6Am4JEvmOm433x2URfaSj9JJRMTGjg09WN/biXZ5lkDld45cfolua61j67oerO8t/zTdYqDqJVQ4X7C5rwtb1nXj2j0bztpdPXn4iy89ifsfG8DRk6PMLo7fEJC7JXH+Q2GJOYG0+JiZU+YEJKcKfCaOESPC2PAwTh4P5wQSDGyRNicQIuwRlBCBDOhKRQY7Nq1FvTVyLf8Y9MqcuAFjInoqgusuPYG0OQEh7qxhIUnv7WrDhVvXoK2F5iHErsBt+j0GA6C1pY71q7uwdf3ZnUBOgxYE2a5QYTljqbT2BcdPjeH+x17GX9z3FKCJmf9oAhYy9Id//LyUHoQ2T5k5gRoaQaOa9g0aPKwtz5CNDg97PQGBlLMhOyjqCQi0EGSKQLPPCezYvBZ1/ZSvbokbfmKYydiYCLu39eQ+J8DFOH96entLHZf3r0d7K822G66ozAnouQMk5hAaaG9twaqONqxf043ujrbUOYKscLFQiUKF5QYhffBb/ZYKhPz/8r6nUkictnS8l6doTkCXR7oo0L6fX88JMPsjNoYKMKvHht7LgjmsHZQ3JxBChCBTBLJ7Au6gRByMAbZv6UMrDwfBEjgA4xQvUuS5e9vqOc0JpKVfuGUN1vd2ZfcEgkiVjbYN0NPRhi3rV2NV57mbN0hDJQoVlhqWWks/xPFTY/irLz+F+x8bAMIxek34qeRNLNz0cE8wJ+Dl9+YEaMVQWnhfmEiJBEPqMTY8TCJg46lULMSrwyZ6AhrFIsBOYtV9ScAAO+wCcgIhX2r5u33Kv3ubPDHsWvouv82WIgYy7EP2hMQ39PIyEi11jkzOCUiEH++OyBgaKlq3ugtb1vWqXEsHrwyO4ciJUTy672g1yVxh0SH36S9l0geA40NjeOCxl/HAPw7g+KmxFJIO9mOi00WZE0gdNiI/1BOQlr+hFj/zKwyXNbT6TgxgbGQ0Ze2gbJSZEwiRWEoaAJ49MIR///tfD6N96EpFwI7NffywGB2riam74U6HkDdhdxPPCeh0MWGsPUf27a11XLZzHdpa9fMEzg4SAqA3fNFoa6mjp7MN3Z3t6Ft9bieS8/DKIN3XXPUWKswXehIXwJImfcGD/ziAZwaO4YHHBoCQjBX5xnqMPoWw88qFeSk9CKHnArLnBGBqiCIaDjJq1dCGzcBzA7w31uTaQdfs2YSP/3qTS0lnicDP/d7XEmPhmTDAji1rUK/TEtDU8le3IMHVliaMWQSaeE4gO13mFByJb9/Qg3WrO9HeWrf1R8qcAI3NubkDed7A5jOUr721Bd0dbejrXdX03IH1zwj3FwtaDCpxqBBic18X9l68kcJlQPYax4fG8JV/HMBf3/+UJV2PrFNJmv64dCIkGnbxyyXy6vw55bwwEc8bUY3WQuOWvrZBkLEJ8jMqw0F5/Ktw9Z6N+MSv//jCiEC5ngAHBtixpQ8tXsue4IZbmPwMKd2urfOfE5CehhYD2V/d1Yat63vQ09nm6qPK65A2UoaPZJvTwXcW9fV0Y1VnO7qX2PxBEWQo6ZXBMSsMsl9hZWI5tu7TcHxoDF99fAB/c3/KHT4e2Uq8HqNXLXNp+eeUgxaVRHqwn+rP+ZE8sg1+uyIVNPZ9ApLDs2uSPQGOtrwbuw1goXsCTgS4smpOQEILA+zcuhZ1adnbcorEFasaA+zaOvfnBDTZi22bbnsNZIduBe2htYeUXYETKX+4Cqo+yFgau62ljrU93Vi7uhutam2j5QY9pATVc6gEYnkgjejByy0vZ5wYGsNXHh/AVx+ncX4o3rHEagmWSDgxVu/l0STLvMbXdxrp2zL8h0LueYR+tL+0eGH1iN8n0ODyio18G5R/tMnnBK7eswmfWHgRyICuVGSwc0sf6nW9lDSTJbf8AZ9Ed21NnxOQ8tTSV3YS6UoMxDyLARKiYrBr8xqs7mzz3j9g6yp2bIpKU35gF8Tz87S11tFar6Orsx3dHcuvh5AHEQHdg5D4SiTODoTkAXhEv2Vd91lfYG2xcWJoDF99YgDPDhzHMwPHFanS9Zcga5sehDbelUvk5T9xGJfmT+Wl9CC0eUrOCbAx8pJu10TA6OklMyegDiINBti5eS3qrTWAyRh8EFJLek6Ajs5EhnsC7gljIdRi8g/TFflznBWHIL2thZ8YXtPNcwJ0fN7zBCwaLp7ySb3D/F4+fu9Be2sLOtvbsHb1KnR1tKfOEZQNlwNCoQD3JnRaNR/hQ8hbiNzu99H+SiT4LJwYGsPXnhjA157Yj+On6K6WNFL04zTZ0vWSVc7GezZUfj1ElOhhcFocE/t4YYG/RDkA/LCYsx+kg0iswXQ52uTaQXOaExgaGkrcJZrfE3CVFnEwBti5tQ/1YHhHYLcVOe/augYt/BIaTfaSLb1Fn5deMEzE6T2dbbhkJ7WmxBYMfXuac9WmtZuapiIooHySp7Wlju7OdnR1tGNNzyqOPT+hew1HTtDF7sUN+j2LMP9S6XVocpYWusR5aX1+Wpj3fMWJ02P4+hMDOHF6HF9/fIBIFvQnSarMN0KZNp7DRH4JWSTCMXpN+GnlEC/ycwK0iqjcFsSHZzPYfFyP0RH/iWGbXYhXh3PtCYyMjMSzs7OeEnkiwE5iNSeQgAF2bnELyElGblgTGce0diqRpu4JuJa+kOhCkL1Nt7bIbk9neyAC7oi0CEDVx26revl54NVbEOajeYMYa3qoh9DV2aFyVJgrisRBBCcNQsxpON/JeiFx4vQYvvHEAJ7dfxzP7edhnkTLXLW0OSVJtlwmQeq04ewly/nx2o9q2atytgz/oZB7Hjn1S68H+YF+x7Dyz0fgwDZGh0dS5gSyMec5gXq9Di0E+T0Bhq5UJCLg3iwWEqAVAAbNCfBwEACkkL/el3SxYcgkxUucDAsZeU7BlZMyuidg6xPY8dKUn0R8sCH19NJsed62WzQ81dnRga6OdrS01NHVUYlChZWBwdNj+MZ39gMA7vnq04okmfyCu3V40+4nSdWVQ5iu9xPxgb8wT5q/oFyYl9KDECQOKJwTUD2ByIgWqIliiaB9esdw+bWD5tQTkDmBer2ORqOBRqORMicQjFmF4J5AvSWyzwGAX44AgEN6bkBIcFfKE8OUXkT+Ybojf72PNHHg9YauvmhLU88JlJ0TSC/P54HnDJLxLmzluYSuzk7U6zV0d3Z69poJK1Q4mxg8PYaHvrsf+/Yfw3MHuOVqqSyFNCW06URneeVsHP+hkFvmOeUSZbQ/jtTlEnkT9Usv54WJeN4wEaJaJJxvM+pdA3nNpMEI3x1kDRVgTnMCemJYhODpgZMlewIcGIOdW+XNYjHfDURHo+mItmkwbNfW3nnPCRDZpZO/4YyhOLS11HD1hVusHbdRrieg0/zyrp5emi2v9oGUeus0AIjR2tKClnodnR3t6OzoQGfVU6iwRDB4egzffHI/nj9wHPsOHM8hWwm5hey1mJN5k+U45JRkfLCv8i/N5wQiRLWaXSDOPicg7xPQzBEjZ06AeCN2G8B8ewKCer2OpwdO4t/97lc5xp0UOkSuhC5kgJ1b1qKltQ6oli5kWCaiysrhRcZgJ88JlCF7zOM5AVuGRUOLgMTbbXX+oeqDjOcE/G1Xb0Ein6q3jmcty0yXiNZ6HS0sDB0d7Wipt1TCUGHRcfL0OJ4/eAyDp8fx/MHjeD4kfSYlj/yCidkkaaq8YDKzLWwOs8ql+WMSTpTz8mh7yl8G6dsy/IdCOq6EH+0vLZ79wRgSgcAfjHHb4FVEjeE3i4VrBwlhJHHNxZvx8V/7seZEYGJiImHt6YGTeM+H7w+jfehKRZHtCWSTaqwWkjPo39KTOicgRYi0ZTstXYkBnxNKTxMVymB4OOiqCzcru7KRQr6yzenIeE5ANsSflxacB7cZilZKuk4IbfKflnqdPi0t6GgnYeiohKHCHHFyeBzfepLW4Xn+0Am8cCBtEhcBeZYYjpFQlUvYVfsuv5QP/CTSg9DGB/7CPGX9qbyUHoQ2D4tfzpyAFYFYX+2+PwHNCZR/TuDaS7bg47/+NkSRW9G5CJmriDb7PgF9d1DAXTApr5fs37r6rD8ngMScAB3fQj8nkGo3Y05A9p397Pcg+PZVvohuLBb7rS0tiOMYXZ2daGtrR2tLK9rb5/a8giDcr7C8cXJ4HKeGx/DCweM4OTyOk6fH8cLBnIez+I9LD+M0+QXlFAkmQpue4i/I78c16Y//+P78eC9PIE5+/Ur6S5SDmxNoGOZVar1Sy5/KGwN6/SQMRufwPoFP/uZPYHJyMvEu4SxkikCz7xPYua0PLfU6gIZ9QlhIgzmZl8igcv1b5j8n4Kf75G84ownEIDkcxH+4Xl68bLPd1DQVQQHlS5ZX+4CtJ0qk+/aDbX5fg4Zv19W7pd6Cer2Oer0F7e0daKm3AEDVc1jBOMVk/+IhGld+8dAJvHiIhxfgD4fEoJ+LF/IvyJGcLpdBfgnCpnL0Sw1aymkE3Ky/tPhgOMra1v7SyoFa6E37Q9nnBGQV0ZivVApDf5TEC8ilrh2kRmIkVO8TmJiYAIBSQlAsAuwkjuWUpoAfFpOlpD3yt6EraQzQf46eEwCA6y/dwTnZvmyLAdkHbL3FjwqCbV9EkJZP1cuLL0pP8evlSx1SStbb+zFKFEfUW+osEjTPEMdAS0sdnR2dQYkKSwmnhscBAC8fPo5Tw+OIAbx8mIke6jsvGqOXkIJkyzcgqTSSa8qfztukP9+PxNGGs5cs58drP6plr8rZMvyHQjquvPql14P8INIvmnc9breUNF3MPE+csXZQNvT7BCJ+d0GREBSLQBZ0pSISAXkYCmlj5zH1BISU+jefm+cEDIDXXrrd7ruNFPKVbU5PxAcbFKTkUztuMxQt3rZbnJ6axttcr0S8bOsd+T78wEL/CnRazGIgAgHATkZLfEsLxVdYWAyNEMEPjYzj1PA4hkboobhTI+MYGh7HS4dPQAjHb8HmD+N4ocoveSVII7a0cgl/aX5Symm7vJniR+ICPzo91Y/sB/7CPGn+gnJhXkoPQpA4oHBOwL1PQMPtsl+OGT09v3cMlxGCTBHw5wTcychC/7Z1bgE5rp0jTwNjqLyk929ZfU6eEzAArr9sx5J8TqBoTsC3H8wJJPwG9eaWR0PlM8aktkiMSctPT3xLfByrHqIxqNXqMMagXqujrbUFjThGa0srWuo1tLa2Io5jtLa2oqVO+ezxMfR50/ErDaeZ2MHkTh8i96FRInchfShyiD1SkjCPlGSbW66lyUz2A39cSJdL2OKEhL80P7n+0sv5fpr0p8tofxypyyXyJuqXXs4LE/G8YXsCxEXCUpJfQD0Dd3eQNVSAtHcMFwlBpgiU6wlwYID+reu8ZSMMHUOKKNB+/+bV854TILJIJ3/xmyYOMhwk8bRR1KJ2p8naCyIooHzJ8mofSKm3ToNfH89+sN3EnADUro6NgwgvLa24l5e/aM4Y/pjCi0K2W7lXEdvlNEA9Cs7Y0tKCeq1mH2BsbW0FAMw26Ifc2U4rteqfr2yt6pr7ENbwqCPpEDotVvunR8cBJoTh0QnEAE6PjAEwjuCZ/MPz4ZOEkAuFscoYJ0gpp3xaOgUZ+YncxJ8XZvlT5fz4oKzyR79UDkN/nDdZjkNOScYH+yr/0nxOgHoCFJPsuQlkN7w7iHJTOrXx0ucEwtdL5glBCRFwlaRD5EroAiIC6m4fUQEiYTpYTU47t5yb5wSgREDi7bZkln3AHrHU08WH267egkQ+VW8dz9XKTE/zq/Ol+6Xj0uX1D1MQfvt2lzdcsvsdkEG5LF2y3pftVPsqbiH8nTkzjanpaYqOgTPTM5g6cwYAMHVmGiPjE5iaculc3LNhSSroxkuevHKunjo+CBPxihTTJhRzykHII5c03X7MG46EM/Kn2lP+ssp5fubqT/kpOTHr21gmzwlEBlFUQ8x0IquFymsmXXnizZHhkZR3DOucPvLeMZwlBCVuJiUGMcYQGUvIcV4YAVFkYCIDgwiRMXSnEIcmCsvTH9ojV0TUYbqrihMIsSVxzq7YkZLiU8pNTc+IOWfUOiG4XbqVSwzrbLpeKpOfFiTxkbk8kjEt3TfpQc5rmK5r4I7bGlfWOUqdU87iNjzzYkMi5fy6jPrsqBTfn/2j9mVDxZ+ZnsGZM9MYG5/A2Pg4Tg4N49TQME4ODePo8ZN49cQgDh45igNHXsWBV47i1eMnceDwURzguFePn8Qrx0/i5NAIzpyZYdPyXcqxOH/ut8PnTY5PfrvqdNsQoN+ZoVDyWj9QBUJwOZ2X/MiHbYsfW0yda+XPr5jyZ7+uwE/oTxcXE/a42B/n9/yJE/lL1crx547L1g3hcYk1NpZ2XKE/sZ16XOxPmfCPS6z5/uhYlR824PlR/mD9BP6k7gZMuXxujKHl9tVcqc1qDMWr+lKaKis+JZPUNQONRgNxHKNWo/e4CDJ7Ak09JwCgf3sfLRthK5LRcuaD2bml55w8J2AAXH3hFrS2kCrG4Rg99xhcfPk5gfSxebabMScg+85+9pxA2ecEdL1jmUtIjPHz/hzmBGZmSETlJ3GGRRXcKqc0arFMnTkDYyKc4Za5lJk6Mw1jjMsfg1vz3IIMu+/q96f3XQssowXJf6S4Lsc50/3llJNSSGtBZuUv4y+tnM1T7E/bc3m45SrlUvOk2Qv88Z9sf/q4gnJpfsr4C/L7cU364z++Pz/ey6Pz2vzip6S/RDmaEzCGeJL8UP3dL9f5xxzeJ5A2JxAi7BFkikD2nIA7KBEHY4D+bev94SDOZ0ATsO60EBHv3DL/OQE/3Sd/wxlNIAZAjKsv2GLfMCb5wMcjUJvqeFLSVAQFlC9ZXu0Dtp4oke7bD7Zz5gRmZqZxamjQS49jYGZmhn7YEscJ09NuJVmbFgPTM9MFF1P6RZHMy2FBuTAv7ev86cMhCX9qv9DPXP0ltnW5HH/8J70c+fPyJEhJyunyBf4S+f3hkHL+dLkMP2nfecGcQF65Qn9p8cFwlLWt/aWVQ5zemCjyh4xhPf4j5WBoYhgxXah0eK6VHdZjdCRrTkAND6nyWXMCIaQ3MDs7W2I4yFYuBuIYFAQVjoEYDf7hun90KO4HHX7AtuSEu7PHMbzvp7tN2acoqp9L531bRBX24PIFsXaLjt1L9sH19EupZC/J7UhUUXoa7BnNrFqM6ZlpjIyMYGR0BMOjIxgeGcHw6DDGJycwPjGOiYlxjI+PY2J8HOMTE5ieOYPpmWn6TPNnhlrq1ov60h3xqPr6X4NLs9+rPt+q5u6wbQTZU360P/YRc5VS/dnfToqfMv7EFvh37/lTfrhc4XFJVrAf3qNrgP0of/COi0N7sOJPO/B3vbJ87YoX7SeWtMzzGBiWjJ4Dly3LH+xx8b7yZ89dCX+eWz4NdCziK/QXlEHoR0J9blWVVA45Lu2JfFMOz6RXmGxKg0zKxOwoRoyGhJJm+PyDvyO24/3mdBi4zoP0Amq1WgkR4GaqMW78yQRjbSYCDKiLQZ8IESIYE8HY8TM6Ad6Hx77sCJpESn7+o9Ndb0DGxOTESv14U9KVHVsT5c4a5TiB23V+/Hi1rewn0oIkdyZcntx0bUiBjkMfv8TrHHLC3PmUs+m+K/d9Anz+xKjnWyooaXJ+3Tm1oSqu/UG+y9CfLqD8UVWUn9Cfq4rzp36b1p/Y4nKp/qRO4XHJVsKf9pP0x8ZcAd61gfxW+bjsP/udBMdlq8n+yGmuPx3l+dP/uO58yM6f2ND+9Ef5SfjjtFx/um7ajxy09ZP0Z8sof2Rb+9Hnkf15VdbHJdbEmKqL9sMGrL/guGCPK/AndVeRli954N/A8BwqmDt5W+rA+3JcVA8Vimm7VQwRgkwRSLS+WIHsR6lT3ADrlytLatZAHIO3VRmjlJDVj8rZP5w3mU71oTiqi6gfKyol++lsTOpOWam+jbhBafJSBz5eeYKPjsGlu3iqVUPsNRpUr0R5rgOnN2KXj6ol6VIuSG+I/bB+rt5ix/dLPTPw+XPnSvtVHypE54pOoJxYDrmkPYdyrGJfzjn8beXPK8uGyYT255xqf/Lx/OmP8uP5s+dAHxeFsT0uivP8wZ2XIn9SxtoQP9qfDZQ/Vdb+s8dqq2nrQMWk7iX9qfPhH5dsS5oqLn60P3Jqa+PqoPLa4wr86X8p/tKOy/kJ/ImfIn/eeYw5L5vLPS4qF/oTG9am+FDHJXWB+KNNMWCd07XZQIND4Ri61I3Hl9Q7UMdn6xeE4s96LofZ2Vl6vWSY8OyBIfzs7zwYRvuIqW8T85DUru1uTgBKPemwOM4YPiPAznP4nMDVF25BW0vdxof1tFGyzelhml/e1dNLs+XVPpBSb50Gvz6e/WA7Z05gcnICR1495KXbiyDYph+uG6uVo7V5vLw6PQZKjoH721yOjeWVo33tJ71czAVsnNr3yqX5KeMvyJ/mp7Q/KRsDRw/vx6uH9uPk8VcxOTGGM1NTODM1QeGZSUxPTeHM1CTOTE1i+swkzpyZwplJWhsGADo6u9Ha3oHW9k60trWjrb0TrW0daG1vR2tbJ9o7u9G7bhP6Nm3H+i397FfXr5k5AYlz5fz4oKwtx78v+L+zMG+yHIeckowP9lX+pficgLEvmmc/aMha+549uWV0bHgYJ5p4n8BrLt6MT/zGj9vnasog8T4BJF4v6U4KHSJXIiiza8c67+4g+crBXRp7lw2T+Y7N5+45gUt2bEBPFz1sZNSRZJE1QP7FmM7mtv2JZaTlU/XW8VytzPQ0vzpfut8YE5MTeOWVw/QboSj1w3TfKydxfBCm5lekIXlCErTldPm0egShjdd+6AR5eTIusqaOKyjnkUWQJ69cWX+nThzFq4cO4NXD+3H08AEcPbwfJ44eTty3vZgwUYTevk3o27QNfRu3Y+3GbejbtB1rNmxFrdaSUn8+Pk5JOy7Z986NR/oZ5dLOI+LSE7O+DSLhRDkvT9ZxpZO+LcN/KKTjSvjR/tLi2Z+JIiBi0jfGpnt5ZccYjJ5OWztICCOJOb9jOIxs/h3DBru2uYfFwNVMkJPa37n53LxPwAC4eOcG9HS2WVu0kUK+ss3pEDEI8/CG+PPSguN2m6FopaTrhNCm/ZNd75mZaRw4tN+rV96PlXOktmjyynGpwotX27MhNxcSF6GXJ81eDGSV432xMTo6grGRYYyOjmL6zBlEtRo6OrvQ2dWNnt61rlyaPxsf+MnxFwN49dAAXtr3NA4feAlHD+3H0SMHcWZqknMvTWzZdQl2XHQVduy5Cpv7L/HPSXBu/PNfQgTt+XL5E3bVfvL8Bn4S6UFo4wN/YZ6y/lReSg9Cm4d+zxSqNN4xJqKHxcD2JVdgTy7k0dN+T0BApVXIBRfkzWJgEfDfMawql4Fd2/pQb63DqPvbaeloaemSASGvnVvOzfsEDIBLdm7Aqs5We3zL6TmBifFxnDx5EoODJzA6PIyRkRGMj49jbHQUY+O0NEFHezva2trQ2tqCkbERtLW1or2tDV3d3VjbtxZ9fX3ux61/g2k/chsfXLTBxZu4KOQi4p9pqr+gHOfwL6LgIuUoxDEwPX0GLz3/PAZefB6Dg8cxPjKK0dFhjI6MYGxUPvm3ygl6Vq9BR1cXurpWoaOLBKKjsxtdPT1Yt34T1q7fhE1bt6O1jRbPC49r4Plnsf/F5/Dy88/g5eefxvjoSOBheaG1rQPbLrwC2y64AtsvugprNm7zv/PE70B/b+r7VvlTQ5vun8+0cn5ck/74j+/Pj/fyJH7fsapfSX+JcoCJajC8gFxs5JFhes4nhiM1sTM6PNrU2kHzfsewIL8n4A5KuN4A2LVjPQ8H+S1Ytykk24BBhB2be+Y9J+Cn++RvOKMJxACJ4SD+s4SeEzh86CBeeH4fnnvmWex77lkcOXIEx48fx8nBQUxOLkxrcu3atVi3fh3WrOnF2r4+rFvXhx07d2LL1q3Y2b8z/8eduJjSL4pkXg4LyoV5aT/G8WPH8OK+5/DCc8/ihX3PYODFFzj17KGrexU2bN6Gtes3YmZmGodefgGDx4+G2VYc1mzYhkuvuwmX7L0JHd29+T2jtO+8YE4grxxdxTn+0uKD4ShrW/tLKwdi56b9we9BZ50P6glEdszfLhfBPOqWj4hhYlo2opnnBBa0J2BFgJ3Eak4ghIGhJ4Zb6CEI+2yYcUs6x9ySBe/v2Cw9AdfSt+TIpEhxcyd7Y7c5nbebnxNwflQQbPsigrR8ql46/rvfeQJfffABPPzQQ3j6qSftCyHOJbZu3YrtO3dg2/bt2LFzB3bt3o0dO3d65G0vCP6jQ5um8ifyIu1iIpw5M4UXn38eLzz3HF58/jnse+ZpjAyf5tQK5xK7LnstLn3tG9F/6XXJ79z+DnwSTv2eMxsT+STs+5E42nD2kuX8eO0npaeqbfEfCum48uqXXg/yY2oGxvDrJQ31AIRfpQwVIBujw6Mpawdl49zNCRiDXdvXoaWFewKUge/BjVOfGN6RMScg+8lhHycWNk9AqpTOosHVS9oFdm1Zi3WruxwZB3ZslGxzeiI+2KAgJZ/aMQBGR0bw4P334cH7v4yvf+2rGD69PMitp6cHV1x1Fa646kpcfuWVLAqUVqYF5V0gQctQLsLjx47h3r/9G3zlvi9hepqWmqiwNNG5ag0uvvb7celrb0ZP3yZAXeWJ71//TnQjIoNsk6Tqyvn2OEz4kf3AX5gnzV9QLsxL6UHIv2P7u86aE4hqNNzrMQTdCmpAt9PTzCPtj54exYkm3jE8p57A6OhoPM0rMAqScwLuZKQhtSfQAA//UC29FjeAHVt6ztn7BHZvWYu+1Z1n9X0CU5MT+OqD9+Mzf/cpPPjlL3PNljd6enpwOQvCFVddjW3bt/sXe9pLTmw6h7wx8NJL+Mzf/BUe/sbXOOX8QX9/v/3s3LkzES/bOhQMDNBL4dP2BwYGMDAwgP3792NgYAAPPPCAl3chsevy6/HaH/hJrFm/xRP18HtOhDY9+J3YeBfaOP5Dod+ISCuXKKP9caQul8ibqF96OS9MxNOGiSI7JyAZtR8B56aXyjSxdtCc5wTq9bpdFAxN9QQkMNi1g98xbGjMX1rkUGTNBUkEzuFzAru39M25J6DT/PKunjrt2aefwp99/G584XOfxcRE9lr1KwHr1q/HdTfcgNdcey0uv+pqtLW1eReFvx0DMHjskW/hc5/+Ozz13e94tlYihNRf//rXAwBuuukm3HTTTWG2RYWIxAMPPICBgQE8+OCDCyoOe659PV5780+gq3cdoL/zgjkByau3vZBTkvHBvsq/JJ8TiOjuIGr5G8Q8R9poNEBtTXr6uEHVwOjprDkBGYjxh4nm1BOQ4SAtBM0+JyA9gdbWGqBHiSTdwE55UKvcYPtmWkW0DNljgZ8T2L15LfpWd1k/XIzh+6GWfESPRXNC+t071BMQfO3BB3DXH92JR771TRt3PqGltRWXXXEFXrP3Orzmutdi4yY1XBADr776Cv7gd/4X9j37TFh0wZHWig5bzAuN/v5+3HTTTdi5c+c5IftmID2GBx54YEFEIarVcMl1N+PaN/04Orp6EDNpQYf8xxEl8wziwmFF2fdtLJfnBAxMxHMCqkBsaL5URSHmW0TP6nMCIgTlewLC9hF275ClpMmcELLeVpyLHZvS5wR80pbttHQlBnxOKD1NVCiDxPVvXov1q93bp3LFIKi3xLnAfRkGwD1/9zf42B/diZdeeN7GLxTCYYNwaCALMiQg2xIuBvllYfvOnfi+m96AG7/3+/Dgl+/DX3/yz8Isc8JNN91kW9eaaMueG4E+LxJKS7nMudKt/Ntvv71p/0sJWhTuvvvuwmPPQq3egstv/CFc8/ofRWs7kZIm3ZgiPNKT/SSpunK0H6YHoY0P/IV5yvpTeSk9CG2eoOchabxjewKIEcXG3SUkjckG8Zm8bGZkZBiDR8/ycwL1eh1PvnSiqecEDGhiuN7CLXuunoGhZQ1UbYVQd3BPABDyFltF5B+mK/LnOCsOGek0MaxEwG75giAHre1Qfei86B7Bdx9/DL/6S+/DoYMHlIHmoVuQUCS3GKQiF7e0/ITw5tsSXCzcfvvtAGAJfzHOSRY0Mcp5AoDbbrttybf05wM57rvvvht33XVXmFwKLW0duPJ734IrvueHUW+R14JSmiXKNNLV+RIErMk2v5yNT/Q8/HgvTyBOfv1K+kuUkzkBGjHR9qkgEWXMfw0ijDQ5J3DNxZvw8V9rUgSaXzvIHZSIg4HB7p2ybAQfLDO+tMyhhk9gDHZsOnfPCezaRHcHSYLYF2jRkX0vXaVNTozjf//2f8NfffJP7RfdLPr7+5ccmcjFL63huRLAQuBjH/vYWSf9Ckno3sFcGgqdq9bgTT/5i1i/fQ+TN11WRHpuG8KJUCTKKdlkG4YsEuEYvfaXVg5x6eEoP76J5wRqNV4QUg1HSY6YCEfqMTp8GoOpawfpkRjXSr/2ki24+wNvRTu/g7sMil8qw05iNScQwk0M15h4Dc8BMEnzcJcjY4Ptm6Qn4Fr6QsYLRfbim7I4u1v6erBlXQ/HO1iyt9+YlEu2/OM4xvPPPY3/+PP/FocPHVRWykGI//3vf3+YtGQRtoTnQgRlcfvtt1thrLD0MDAwgLvuugsf+MAHwqRcRFEN177pX+DK7/vncnUDQmq6pc0pSbINiNWSOm04e8lyfrz2o1r2qpwtw38oJHHJq196PciP3B1ECaEICAO6Co+kzglkY+9l2/BnH3w7Jicn0WgQBxehWASyoCtlDHbvVE8Mgw6CHg9QPQE+eGMMtm9clTonIPuatHW6JXr4ZA/et6LB1UvaBTav68GWvlVcygmF5KHQnRa/HrTxN5/8U3zo1/6rzVMGy5H48xAOkcxXFG666SbcdtttdtjnfMORwWEAwCscHhkcsdsSf2QwuRyF/i1v7qPGzeY+9xvfu2ebTV9oDAwM4AMf+EDTPcWtF1yF7//xn0d7J00cIyDQJKkyWYZkLWVlPxHvyiXy8p+Ev6BcmJfSgxAkDiiaEzA1RLXI3mfSYH7hleIt5HhHT/s9AZdO5W3IDuTNYhMTE4jjuJQQZIqA/45hdzLSYHsCLcE7hiVdvWSB9oHtm1ads+cEtqzrwea+VbTHSzHLCfXK2fJ8F1BkMDY6gt+841fxhc/dy6nF6O/vxx133LHiyU0LQjOk0N/fb4d8zgccGRzGK4PDeHTfYQDAo/sO49F9h8JsC4otfT1WGK7dsw1b+lYtqDgMDAzgZ37mZ5pqCHR0r8b3v+0/YPPuK9JJNyBbG8d/KOSWeU65RBkokudIXS6RV+fPKeeFiXjaoLWDaGhE7ggSf0JCek2hkdMjTa0dpN8xrF8hmYdMESjXE5CAewItNVoozZIm3VpphGEVeW9fgDkBfdcP4JO/4Yxp4rBl3WpsXrvKxks+u6v8OMQ4dXIQ/+7f/Cu8sO85LyULK63l3wx0LyHvDpM77rjjvDk/+w4ex//8q69yi9618M8VRBj27tnKn/mLwl133dXUnIExBq/75+/FRde+wSf6BKnSRjI+2Ff5l+RzAqYGU0sZDhJDUob/jGauHUQ8FbsNIOUdw2WEoIQIuErSIXIlVH4Dg1075RZRvo8+pUUtiAywjecEypA9Fvg5gc3845d8cgKtX5kD4FU9jYnwyqED+Nl//S/xyuHiFttik7+0JNOGBkLIkAC1Ammo4FwgHDa4/fbbcccddyzYZO8Rblk/xi1qOTd6OEUTr5wLGT7Z0rcqMZSyWOfsyOAw/vDeh/HovsNLQgwEWhTefesNYXJpzGW+4OrX/xiueeO/4Ba2kGMa2bp9IUrOuUyeE4hYBMJ0R6x+TyBtToAzpmDvZdvw58GL5uv1OhqNRubQUAkRyICuFD8n0Npat/EmVnMBNh8VNTA0HJQyJ+CTtmynpSsx4HNC6WmiQhkkbu3qTuzc2Mvp8i5UOg1iX/IDwMDAi3jvT78Dp04O2tQsLFTLVg8ZSLhQhCHEtnfPVgBYlOGBLBw6dAj1eh2b+OGxueKeh57BY/sOLeh5SYOcE2ktL6QwLFUxAP9G9u7Zimv3bMObb7w0TC6FgYEBvOENb8jsBYbYfdX34Xvf+nOAMSmkSuSXIGubHoQ23pVL5OU/cRiX5k/lpfQgtHmCnoek8Y6dE4Avdpzq+0PyiWEB1U6FXC7sCQjyhCBTBPw5AXcQaZBbROv1miJR9yYxyiEtesKOzT1oqTENN0X+Yboif46z4pCR3re6Ezs2ruGT6PJRujtQA+CZp7+L//Cu2zAyUnyR3n///XMe1z4yOIx7H6KnZ++89+Ew+awhHDveu2frgpHefHHPQ8/g3oeeWfTx8zLYu2cb3n3r9QsiCo/uO4Q77/3WkjiuNGzp68GtN146pyGjZnsFWy96DV7/9v8HtZY2ICBbS6ox3JU7rzkBP97LE/QEfFEo6S9RDkBEt4ii4fK4fL49A9BS0k08J6DnBEJkCUGmCGT3BNxBiTgYGFywU71jWJE2bEtcx5EI1OskCprsJV96iz4vvWCYSKX39bAIKHsaxgAmjvHKkUP46R9/S+ESxnOd2BTiPxsTg/OBbhWerR6DQFr897BALkXsZbG89cZL5yUI9zz0DP7w3oeXXK9A4803Xop33XpD08fZTK+gb8sFeNO/+lW0dXQ7EmV6zCbbMJTmHZcMyD2zHPwWejI92Fflyj0nUIOp0YSwOy4q59nj4x4dHm7qOYGsnoAgTQiKRYCdxAXPCbiHxYRV9UJyVFKT7Y7Nq7kn4Fr6lL5wZG/sNqfzdl9PJ7Zv6FXxeg6AngcYGx3FO3/qxzDwUv6LS/r7+/Hyyy+H0bkQ8j+XLf75YDEmFEPcee/DuPehZ5Y0IaZh755tttXcLFEKPnD3F5fkEJFAGgXNikEzvYJVazfhlp/+L+hcvR4ISNUjVkvqtCH8lCTpMJ7oVEjYtsRVOVuG/1DIPQ9OTfWTWg/yY2r0UpnwYTEgeIc2s5lMDHukn4O0OYEQtRqtXSRCUCwCWdCVMgYX7FhPS0nToVLIZCygWDroHZt70FLnfBwfkr/fUg+HhXyyB+9b0RDtSdgF1vZ0YoedExAokTLAL/7bf4NvfDX/DoebbroJ999/fxidiSODw/jA3V9a0q3+uWAhxo8FS31opBnMtdUM/q2898OfWrJCADVM1EwPqBkh6F6zAf/03/wGOrrkTWYpZM15U8lYkS/1DFLyiIjklAvzUnoQBsNTFEqay2eiGolA4I+23HAT8SoPBx2d/5xACC0EtfenzGIeH5rA3371+aaeE1jT24moxsNBoKOmLpKrbSxkbICe7lZE8rKZjDF/NuSlI5FO9r2eAOCdXopz+53tLVjV2WbryGeRezwN/P5v/yY+d8/feuVD3H777fjbv83PIzgyOIxPfvlx/OJH/t67W2WlYGRiCvsOncCDT7xkW/AwwJ5t61DXv4kcHBkcxi9+5O9x570Pr5hztO/QCXzyy4/j0X2HsaVvVWmiBIBVnW14x5uuwSuDw9h3KPmw0FLAyMQUHt13GA8+8RJGJqZK9Qh7e3vtsOmDD2YtTUM4MzmGV1/8DnZf/f2IorpHqjac15wAt8Q1VQQ9DN4MRMGVy/Wn9u1GZOjV63EMOOmgZLZn+OUygMGZyTMYHx9XhvKxef0qvO3mK3HmTP4LmeI4RhRFMMZki8Cnv/YiALjxfGP8D5M5WATWrulGLYpg5J8BrZNhYhgYRJGUpYNc3d2BqCa2xAf9sTGG/Waka3sA2SJBoDohI71ei7C2p9PZtnaBh7/+FfzP30ycEg933HEHfud3fieMTsU9Dz2D9374U/bBoPMBIxNTuP2f7rVDbkW4896HV6xAgm9TlbmfZsXgpmsuwOa+Hjx/6ARGJqbC5CUBEYN7H3oGr79mNzWwClBWCCbHTuPUqwPov+p7vR69Dfkat9e3sIONc9e2jeZyLpLKSQbHecqP5aQy/pwfsUH+mO94ATkT0Y00JnLL5wiE485Mn8HE2LjlXbHh/GsnwNb1q/G2m68oFAEoIcgUgb/7moyFOwU0ds8XTwODNb0d3nr6VtrkZMfS4iYDPd1tqBnjhm/Yrj4ZFEc2XLp3zHLuXU/AfgHh8BH1aACgtVZDb3cHDLf8KXuMsbFR/D/vuQ3j42NcKombbrqp1NOw0rL95JcfD5NWPD76vreWahWOjE/h53/vM/auqJUOLQZ792wtRZYAcPH29Xj9Nbtti3upYmRiqqlegSwK+OlPfzpM8jBy8lVMjJzCtj17vfiY/xAXlXxOgENviMKGKkNKGbLFPQ/rldOSxb146y8yiBAxMbmxKLKtaxMDiHBmcgoT4+PUczDFzwlsXt9TWgQAFoLJyUmEH98AEaenQkLKVmENTwJTV8dwy5+6G6A4bnXbUMic98WVU1ed7qriBEK1/KkSLi/bkZJSZymHiF7uQGlUYxiD3/sfH8SJ48fEWwJl5wCODA7jLb9614oY124W7771hlIEcGRwGD/1wU+el+fo0X2H8JZfvQt3NnEn0Ja+Hnzmg7fPe85lsXFkcBh33vtw6Zsebr/9drz88suFDw2+8Nh9eOrrvlioy56ubMO8IDwT8pRwiuUEYRqxxsYsrwhncBIb8Pwof46rAn9UCc8G7US0Hfn1pLoTd0JuuPTSpB7sUw4KQNxoYGZmBu3t7aU/qSIwNTXlxthk7CoOPpxGuRqIGw07BxAjRqMBxI0YcYMefosbDS7L+bRNUdVY+VP76elSXtTW7UPK2XTKJHHgCZFYhd/+xtdw79/+lT2ZIfr7+0sJgFzg5yPefOOlpZ40lXNUlgBXKu6892G898Ofwj1N3AV1x2234N1znGw+m7jz3odLf8dlr63H7/szDDz5NXe9g0jB8gRzhcctlkOEF8iW5QQb6bYpTbhGGuvCSdn+pC5kV/ux5MX1IA5E3CA+bDhbMDQf0Gg00IhjoKH9+hzmhYzZxmzzImBLB7AqyKpllVUrJAuQAbWsI0g6ELHImYiWiUBEt0bJZIRh1bXbViDZHxkukc7qatXY1YnsZ6fHfHyTE+P40Pt/mRIy8LGPfSyMSuDRfYfwng9/Kow+L7B3zzbccdstYXQC9zz0zHl7jtJAd4x9ER+4+0ulCBPc27rjtpuXvBDIHU5lenvyrE0RvvGp38Ox/U8rDnCcJFyhGEPowvGFGBKiEhKRUka4g6Mph7WpOdDzxw7EpIU1wnzEFl395OPmUyMZSeFKOL/CacqmDpXlZpApAhaihkrprEKKqoLjbUivS4vBvQHwLVMNrXqizKyAvM9SatNJPXW625R9rg2rraTzvi2iCnP9JOf/+V//DcePvmrTQtxxxx2FD4KdzwKwpa8HH33fW8PoBO6892F84O4vhtEVVO+o7ENxJLrLQwg+cPeXSg0PyXpSRfjaX38YZybHLAc47iGucIwhLXN35VsGsFyhU1Scow+/rHBg+I/LeSa9wmyTI+PEXUG0Yf81+A4hy7ViW7X8wzBwXRa1X/7lX05MDJ84PYnPfYtflMIqo1WIFJDVCYCJDNb2dqFeo3Esw4vIRWFee4eQweruVtQK7g7S+5Lu1FmUUYRXbMOquSimb5eMrF/dBQA4uH8AH/r//ycymoL+/n783d/9XRjtQca3z1f86X95R+Ek56P7DuEDd38pjK4Q4MEnXgJ4Ebuic7qlrwd7tq/DY/sOL/kJ41cGR0pNGJe5a2h2+gymxk9j28WvVS12ud7dNe6ufyYN4QKJY57gGCYORzK2PP+hkDnGsRT7E45RofhTBiJDL5WxObge4t/+5WqcmVJ3B3GdqO4pPQMAm/u68dY3XobW1lYbV4TMnoBr7Ssl0h+lThLXaMTuSbiYWtsNW4YeVaa5ATV/oFr6pIqiiCyeQTrVh9XSqjJIA3lflNWmszGpJ9RcwJ9+7KNsMx1FXVRp6ZyvKDM+fT73kuYC6jGVGx7au2cbPvK+txZ+B+cazUwYv//97y/sEbz0+AM4duBZe807XtLcoDnGUgQgvCYtcCENyyGcxpmJPjTXKX6x/oRjOOR6OtPKNpdtgPjScSSVJ97kuVTPr/u4eopN9mc9l0emCIQqKgpkP6JyomGG7waS3gC3+iPDZaHuFpLWvUojH046rXjmpFNdWEhFOm2dRCVdOikn2TDG4MSJY/jCvdkPfJV55+9KfAK4LLb09RROBB8ZHK4EYA5oZnhoS1/PshACsMCVEYLbb7+98Nr79r0fRYPfV+J4if8xgQhnWD6RwpYYmDeIGCzn2GibEnJOnj/nR2xwJck254tgeM6UQnWzkP04yhL+0jakgvaouJbNIarX62FcAFbDUH1E5WwO+DPdStlIzXifewmxFOQ0a0iU0ksXB84ZJYmac0xCEW2KKwhn8y/+7x/nvmyhqBdwzxJZ0fJc4Y7bbg6jEjife0kLgQ/c/cVSpLnShKDMRPHw4BEMPPEVvuyZa3TL3PKI4xDHJZqEJOQ44RVO8soKp4X/tD9dRm/ExJFS1zCMG5RNegCNGHaZBekRiH8qIxUUJ85vM4hmZ2eRLwRUCU+FWFlJCZ1KmSjyngymOQHQXUFWQbW60R+rXqLCVnUl3VXFip8ooY1z9RI7UlLqLOVgDEZHhnHP32SP499+++259y7LXR3nK2jlzPzx3feUvDOkQj7KkCaWmRCUWUCxjBC8+I/32euf6EBa5vxRPAXhFMsJuuVMvENGhFeEMziJDXh+lD/HVYE/qgTb5CepuJlvQyOjJ9IDkFEUsaOOhe1Zn5JJ6tokojiOMTMzkxACURkKw9Y9t7N12KC7f2ReIJYeQAw04gbvs4LaUGyJL+VP7aenS3kRQrdPiqvTKZPEIY7x+Xv/FpMTE/qQPdx2221hlIfzuYVb5m6gO+99uBKABUQzQrBc7hoq826IomGhwcPPY+jYQY9LPG6xHCK8QOUsJ9hIt01pwjXUuhYbns3AH5UlomI31pYQVRzL81I8F6A5U55dUn4atrg+Jl1PDsWf9Vwedk5gdnbWvo8SopQ2VMqqFVJUiv+QevFdQLYMPyfASkoprJVWrZU98ads5qeL+okySp2Uwgbp0zOzuO9z91DGFBT98B7dd6jwx7uScWvBU6syCVhhYSFCUDRhLMtZL3XITRVFx1PYG3j0i46f7D/wNe+4x4ZgHrGJwimUwYaWS2yqx4GeP3YgJi2sESErzYv8fBU3+aOIJgYiyQfuDVi/rnzCtrjznJeDFYFYlhVVQsAJNl2UTpRHBCiGO3Areqpl3ogpxaqj4TU9RVElRQpLDO/76W5T9imKFd2m874t4gqfOHoEzzz5BGVMQVEv4M57vxVGnTcoMxl8vqwFdC5wZ8n3LLz71hsKv6elAHmgLA/9/f25jbKB734Vs7NnLJc4xpCWuaUFGzqu0CkqztGHX1Y4MPzH5TyTXmG2HbToZVUFY59doh4CVYG3ITzpylubOgxcl4V3d1Acx0jMEbDKaBUiBWR1EpGDjpeZb1E8wEDmBTiPFUfRWBVpVZf+6HQrfuwPrJSSyMVdurLDsfj2V75ARlJQdEfQ+d4LeFcBsVS9gMXHnSVvIV1OQlA0v5bXMJueGsexgaeDlrlrcQvnQGgAwmfCNBDyEVLiTcssjmfEZvjPcpUKHe1YmwCvmGAi+kQ1u44Z3TVJoVQlshxGaXJcVA8VMiR/M4h6e3sRftra2lRrXymR/ih1irlFT08Jc+sffKeQFUF1P6xST9knH/aPZ1enU32kvKgySAN5X1TUprMxqfvD93/OnoAQeT82VL2AwgXMilp1FRYGj+47VKrHVXZBv3ONoles5jXMAODEwecCbtHXPzOIbt0zccQ2UoiDytGmZRZrw3FOkssc/whjadO+nziOaa6Un52CWmWBegIx4tjQswTWr/u4enLIiGoRWlpaMDQ0VPqT+pyArO8DUUylQPajVZUy8Dqiklaj9wnYGHe3kM1lVVp8OOkkm/npVBf2L9Jp6yQq6dKNMTj40nM4cfQIZUpB3o/tyOBw7g91paNonLnMeHWFhUPZyeKPLoM7hmSiOAtFQ0Inj7xgucKAW+YSMl8x5RAsMTBvEKNYzrHRNiXkHOHBNH/Oj9igQmyJ7xCSJaVp3w3L0BpsESLIKIr4FU4TO1JBe1QwMKjVaokbffKQKgI+WA1D9RGVszlkdVCpVAP8TJzEWhWFvGeZjVjdtEY5xqYzKEllFTXnGKWIXEObV/4+8tXsbmfRbaF/WOKCW6komguohoHODcoKwXK4dbToxUuvf/3rwyiLwcPPU2Nbt8wtjzgOcVwixKFTOE54RXGNDZnDrJ80f7qM3pA8luMa7Id7Aiw34qcBQN4HLz0R8e/saCfOr9zxaYUiByVEgIx4KmR7Ai6MUKNQ4hDB9QMiiosid+eQaIVq6ZMqssp56a4qVvxECW2cq5fYkZJSZwB46tGHxFoCeT8ylPiRrmQU9QLyWnEVFhdlbsfdwu8DXsoo6mnn9QSmpyYwfOIQcwu30gOegnCK5QRhGhBpCJlYXmH+4D8Uqp6A/qd40bPKZsUmvLy0LXcD8dSA9RPxasy0q46F7Vk7clBSljEzM4NajXg5D5kiICpjVSsYk4qVOlHI97hKeqOBBmhN7NjEAL+dLG4oFbW2xJfyp/bT06W8CKHbJ3XV6ZRpdHgIR48c0IfpIe9H1sya7ysReb0AMBFVOHd4T4mX0pdZ5+lcI6+hlddLB4ATh55LcovlEOEFyiucENtIt01pwjXUuhYbnk0uL/6oLBEVu7G2HFHF1PKP6S3CoP4AwGsISZ3k+YEGdRbU8WhfKhR/1jNhZmbGG95PQ6YIWBVkKbPKqhVSKxcroi0TGV4xj942JiLLw2CU16q1sif+bJmidOXf7Sj7Lv2lZ79LiRnI+5E9ltNCWemoBGB54L0lhGCpDwvlvWe6v78/9xodHXyFWcgyhtCF4wvJTETmSERKGeEOn9/EpuZA4SYjfpQ/C2sk8GOpl/mRV1qwefjth5HwZVrLPwzZeojZ2dlcIcgUAQtRQ6V0ViFFVfmvqBAvd8HKClI6EUK5Y8jGuXJWMSWG9/10tyn74p8qJ+ni0KW/9Ox3KDEFt99+exjlIa+FstJRNIxQDQUtDZR5+GqpDwsdGRwJozzkicDk2GnXMgeIBTyOcKHjCp2i4hx9+GWFA8N/XM4z6RV2tsWOxAtXCcc6/zEaDSJT4knx78p6YeBaQx4GThOCYhHgQlqFSAFZnUTkeJXQiN+XKSuFGkNOROTCOQHd0reRKh1BuhU/uJY/15Drx5uSruy89OyTVDgFRfMBeRfWSsaWvp7cluOj+w6dt+dmKaLMraNLeVgoryeAAhGYGh9mblE8ZTmGYPnDcodNcQQjacIf/IdCthn+s1ylQss9vMGGvDzCb+JP6sTVSJ8ToEQvFH92K4msOYJMEXCtfRd6H6VOImC0FgapUcO+c1ivhSGKd/bfJ9CYmcH+F562xxeiaD7gfEVRq/F8fm5iqaLMrbpLdVioqN47d+4Moywmx4eFGRRXOZ5iigCE15gnLGlYDuE0zuxznXCO8KD4I4KyIdfJmWY/hvI7PzwXwO9kF7/ip9HkO4ad53SkCUGmCLhWtAu9j6icaFvExmQMi9+eY3gFUUQRIl4wm8o79RPdFDV1apmfTnUR9WPp1HVS6QPPP4NGzrLReS2Maj4gHUV3c1Q4dyiaH1jKw0J59c6D3xMAsQBzhuUTyWy5gnmDGMVyjo22KSHnOB5L+nN+xAYVUn7k1p+IRkco1NUIuTZs+UuonVC5IogQRNzNyBQBB1bDUH1E5SQHiZgd87dq2BDlozeKiQ0pQ/mUIZZOP51BSSorK6fEJBTRpuDw/udtWohqPiAdRS3FomGHCucORQ9fYRk9TayR11ibHB3yW+aWRxyHOC4R4tApHCe8orjGhtxCt37S/OkyekP8Gdlv0ISp9ADoVQOsBJyFDTjOVL5sBcWJ81sEuWsoiuihtAJQhTwV0upkVYoEKeK7gYysh+2tKKrWzRABUy19iApb1ZV0VxUrfqKENs7VS+xISWMMTrya/ZRwXhcT82iZLHcUtRSru4KWNsoMCy2HZafLojE7g9kzU+mtaM7jGs/MHS7FEYzlFeYP/kMhc134T/GiZ5XNik2bKi8LiPgD8FsZpTfBbxuTOgRcS/Vgn3JQUteSsEIQJgi0AonqeB+lTtIip3djujx0nyvvN3itDKuY2pb4Uv7Ufnq6lBchdPuQcjY9xuDR7NZ8XuvifJ4P2LtnaxhlUUQuFZYGlvOwUBryrlUAtJqox1e6Fe0azTETR2wj3TalCddQ61pseDa5vPijskRU7MbaUkRFIyINeY0Yv2sF9Hiw2KJ1hcSH8mfrF4Tiz3ouh5mZGUQzMzMIP7Ozs54CQSurVkirbLRDY/6BevF7M42hrocVW94ghVP2xB8bLk4X9XM9A95j+xSVt15Q0Q/rfMSWvp7coYKioYYKSwNlh4WWUm8g7w6hgYGBMMpDrdbCbXMwJzBP0K7Qg5CSIxEpZbmJoymHtak5ULjJiB/lz8Ia0QbZIr9YWGxBWvtQKy9wnb08nh0VghSr0WigXq+X/kSjo6MIP+Pj48qoqJdTOquQoqq8Q2P+Oj0GYoM4NqRRdvZbyrDCiXqJYkoM7/vp2ifbkBhrmC1IPQAMzlEEztdJ4aLW4fk6T7IcUWZYqOj7Xi6otbZLm55YwOMIF3okZFM0MQX8ZjmHOTD8x+U8k15hvxIGcJMANrS1pk157wqEJ8W/VCwIAczMzuLMmTPo7u4u/ckcDrJgldEqRArI6uSEjcf8OZ7fmGPskJd+n6ZSOVZTcqJU0m766Vb84Fr+XEO2zZuSDmB0+BSmJrNfJZknAkUPr6xUbM5pGVZ3BS0/FA0LLaXeQN5vrwiuZS4fx1MQTmHuEp6QkpZgJI0zG/5DIdsM/1muUqHlMN7wIuV2IAld5Qy/c4C2JYlsynFRPVQo+exWeWSKgNeaFyXSH6VOoraNuEEtfxa5mFv69GYxXjdbnhFgtdM9AbJDxmQzTKf6SHlRZVAFeB+i1LyfNymcJwAo6JquZOS9N6BoeKHC0kOZYaHl3huIanXFLYofbCua6UV4jXnCkoblEE7jzMRFwknCOcKD4o8IyoZcJ2ea/cRgDqS7JW1oOwOG7dHyoa64PiZdTw7Fn/VcHpkiYJVIhd7HCZdVv5qdE3Af8HsyAZoTsM8PsLSSLfFh/zj1zUmnuoj6OQWnPVFJYOTUIEWmoEgEzkcUtQiroaDliaLXUi6V3kBeHfLmBKJa3W+ZJ1roqqVsuUKIij/MOTbapoScIzyY5s/5ERtUSIw6DhSbMmoi1ZJ3DNiaJVr+qgdgnVC9mkWmCDiwGobqIyrncigFFaXkeICelLNlnTLLvjXE0umnMyhJZWV/EpNQRNqfmBiz8SGKRCDvolmpKGoRVkNByxMrvTcQ1Vr8lrnlEcchjkuEOHSKtNQdj4U5iAPJsvdP+9Nl9IbY5jJWhIQzY+I0yqby8b72D6gegMd7zaOECJCyeCpkewIuBNw7hUnNSN3kvcJWuUQ9WVFlX1zZvCJwouI2XTbFnsS5eokdKTk1oSa6m8D5KAAoeEq4EoDljeXSG8jC/v37wyiL1vZO18Jm3tE8BeEUy2e65Uy8owjMtrQtp7AB4Tfvn+U2yuz5o0rY0OZPcyt1tvOn3CPQxyJ2xKfYkro2iUgeHQ4hKmMVKRiTErWyqhU3aL0gUTzEaDT4fQI8QeCtl61tWrXTCqiVMS1dyosQun1SVrc/MT6qjqw8zsf5gCICqIaCljeWem+g6PeXh45Va5PcolrX0uKG5SzmFsUp1NImDiOukQa8cJKyGXAZlSWiYjfWliUqHvyPZU21BpeTZ6rkfYwNvptygdcOSkNkDK3+GcKqIEuZVVatkErMYCJEpkb3vbK80Sw366LcJaTeRSwqZvWT062SWmXMSxf1cz0D3mP7wOR49nBQ0dPCFXxUTwkvfyzl3kDRnUEPPPBAGGXRsWoNM4tlDKELxxeSmVvRlkQsJwl3+PwmNjUHCjcZ8aP8WVgjYtC17COoFn9Eqy0Yo97FztmdX+E0ZVOHXM9mEcmDYbVaLUwjiBoqpbMKKaoK8Op4rHKkXe4dmohhjEHMFaRU+iNq6hKkrNv305VP3ufasNJKOu8jXwQq+MhrBeYRR4Xlg6XcG9jStyqMKo2ObtUTAIgFPI5woeMKnaLiHH34ZYUDw39czjPpFRbbfNcP8ykaMUyDytOoiQvj2GZnnhT/UrEgDFyXRQR+4QCAdCFgldEqRArI6mSzRPKOHNFMeoKY5wUonk3KRxRVUqwxZTdIt+IH1/K31llBKc4p5uQcJ4bP12cEKqx8FPUGbr3x0nPSGyjqCeTdHdTRo3oClqscT8FylfCZbjkLcciH83CK5RmxGf6zXKVCy2G8YaB6Avy0cBQBEY2YSA9AlhWSxwgoP9mU46J6qFD82a3ysONAoRC41r4LvY9SpzgGzQmIyrEexaB1sunNYkrJOI3UjpSUk+SPtRumU31EfUWVyRupJG+q9Mk5Tgyfj8hbL6iaD1g5KOoN0LIh2b+FxUKeCOQJAMKegOUqx1NMEQCYR5gnLGlYDuE04T7Ob0PNL9YfEZQNuU7ONNk2/D6BmFdVpncJ0/pBrifAfhqG3jNg/bqPqyeH4s96Lg9vMmB2dhZxHHsvHdCh9xGVs0pJY/2iTFax5D0DNjOXZWklW+LDSSfZzE8nH6J+TsFpT+oCzM7MUGSFQuStF3Q+TpSvZBT1Bq7N+S0sFvKGg/LmA8ATw17LPNFCVy1lyxXMG8QolnNstE0JOUd4MM2f8yM2qBBb4nlTsWXfxsh+Is4jvOn8CqeJHamgPSoafWkSUbiORGdnJ1paWlQWVsNQfUTlOIeBfrewUy40aKZAJNHEMWLjlJlsKUOcz09nUJLnA/SfYhKKSPu1et3GV8hGUfe/6gmsLBwZHM4V9jefgyGhvJ5AETpWrfFb5pZHVMtcMjN3uBjmC+YcTSdeWW6tWz9p/nQZvSH+mPNsr6IRIzZAA/y0MOdvSH3AfMrx1petoDihl3nVarXEenB5nyhcUa5erwciQMzuqZBWJ0kTpZSP7QlID4HfLBbR3AHlEaUTRQts2XRXFSt+ooQ2ztVL7EjJWq0SgYVA9YzAykPekBAKhgcXA3miUzQc1LV6nbTLLf9YLuI8rvHM3OFSHMFYXqE0yylsgJKDf4oXPatsVmyKIVu/KKL3CNiVQ12dI1vGHQOVk3qwTzkout3T8ne4OnTWJ7PvICpDoT8eJarkQlkTSOJiO95Fwhfb5who/Wy3brbkJ1/Kn9pPT1dKqpSRk1VdgShtwrtCAnl3hOQNG1RYOnjzjZd6n3ffeoP3ueO2W+z23j3bCm9+OJtDQnkCgIIHxTp61gImEmbwrn/hKW6EA8Jrwi2KU6ilTS1w4hpqjIsNz6ZwHfuzrXTxZ/1Y8nI8Rd4Qq+erGmpdtUaDZlh9v+7j6smh+GPPspx0GZhYW2A89fIgbv/QP4TRjBiAQRzHMIaOKzIGF+3ehJYW0hQay6I/Bg0Y7uaQYJG7LetXoV5jdWO7VqXJg1Xfcumi8nQjKruHQYz/+zvvx6Nf+xLn8vGxj30s8/WS9zz0DD5w9xfD6BULIYc0HBkcxlt+9a4wek6QeQc9/itk9MrgcCU4TeDNN16KzTyJmzefMx9c997fDaMWBW++8VLccdstYbTFrl27MnsDmy+4Bt//jv/skTwxAdMic7GEjqSDEDEvgkkRyfRgX5WzS+aH+cU3gCiqIYpqaCB2vAiDRkw82YhjRCai9BgYPj2MwWPHuTTZMaDjswQsIYDrLtuGT37oJ2iYh18fOVMwJ1osAuwkjuWUJmEMsGfXRrS01mBimgwG5xeCFnIG6AGJTeu70RKRRen1UPrcyT413QCf+L3fwLcfTBe1O+64A+9///vDaICHP97z4U+F0SsWH33fWzOJZK6C+OYbL8W1e7bZYYWi1p7g0X2H8Oi+w4WTl+cj3nzjpbj1xkszv6uFxlt+9a6z8h3kNUIAGgrJwiWvewuuesNP5pB0GE90SpRN/BaWs2X4D4VE27kiocsG/qJaBBPVbHkbxExWpEF0V5ABRodOY/D4CZ/0c7D3sm34cxYBALRopzH27s80ZA4HWfCJ1+NP4Vib4bF+eS7A8BiZ96YxY2BqESDv0WTTtK1Zn6jdbfrpTiDUnIBK5OIuHSjdLTrfkUcqeROIGnv3bMO7b70Bn/ng7XjkIz+PO267xU4wlhUABHbyxOl8wt492/DR970Vd9x2y1k9H/OZrG0GeX7uuiu/F9q7YaflErn26eN4Co7OFHfYFEcwkibcx38ozJoTEK5SoeUw3mBDlMpzo8bwMwNSlkmZqNSrL5kJ5gIkFH92i9DgW1BTnwFjZIqAU0YXeh+JA0jVeO0LpLxTmDRQ1sKg8S/qPokNpar0h+0n06k+Up5tUCrA+6TELj2qJoYLUUTQeXcGSTdeCHuhlx0Q8vvo+966oHaXC7b09djjP5vkL+jr6QyjFgXzmYRevWGH4xV77WuOsRQBCK8xT1jSsBzCacJ9muss5wgPij8iKBtyvZxp55xWUuDx/wY9H+CqQe9foecHZA0G8es+rp4cij/r2SGOaY4hSwgyRcCqoAq9j6icqA+/S1hCY2RVUVZJLW2iwJKP9UvUlFML08U2p1rbtCcqCbS2tVNkk8hrmZxvSOsJvPnGS/GZD97utfYXE3v3bMNnPnh77pDBSoMc87kg/7ONvN/Pgw8+GEZ56N2ww3KFkZZ5ooWuWsqWK6S5zR/mHBttU0LOER5M8+f8iA0qxEzF7xXWLX5xL5xleBiHnh0Qv8JpXCNbQXFC9UpDnhBkioADq1eoPqJykkMUT6QLbpvyNeRROFtejFj1skbDdIb4sEmsoBKTUETa7169xsaHKPpxnS8oEjw9JqzJP+/CXSwUjR2vFEgP6FzjyZdfDaMWHHlvskPBg2KrN+ygK15a6NIytzyiWuZSiLnDxTBfMOdoOvHK6p6A/qf96TJ6w9pTvMVvYLTp0pvgERVeOsj2RGw6VA/A471siBCEC4aWEAFRL6VCtifAoShoRKvhsZDS2hf2HcMRr5gXwZiaiB7bEkVjP1Z1Jd1VxYqfKKGNc/USO1Kyp3etWGgK54LgzhXyntQUvPvWG+w4/7k+NytdCOYrADSx7n/ueegZ3PPQM3h03yEcWWZ3YWXdFQQAvRt3ECMY5gXmBstPikNc45m5w6U4grG8QmmWU9iA50f5c1wV+KNKsAEOeHVQO3LC72SH4TcxGn5Pu7WjjkXSxacclNjOgQwn6R5B5t1Bt/3m52DkrqCCSWkTGVy8ayNaWmoA3/JEoWQATBzzpDFh0/ouvjvIOz90l48+WeruofR0KU8V5PPj+X/m8W/iox/8Rd7z0d/fj5dffjmMtjhbd0aca+TdnjcyPoVVnW1h9LwRnte5CMud9z684pa33tLXg898MP225TQcGRzGo/sO4zG+oyo8r0X4gev24Dff+YNhtMXZuAZkSDENd911F37mZ34mjLa46o0/iUtufAugWsJhI5kbzyqdtnS8l0fntfnlLiJ1N5G1F4Q23s9vanSLKPQIBxdI8zdy+jQGjw/mE7DC3su24s8/9A57d1AWDL9CYHZ2NrsnYFWQpcwqq1ZIj4xZQcEqSnTMSuWeFLb2bRopqbUn/qzJonTnX9Tdtw/0rJ5bTwAlhklWCvKOcyEEQG4xfcuv3oW3/OpduO69v2u3ddx7Pvwp3Hnvw6VJZ6EnoZcC7rjt5jAqFXIL81t+9S584O4v4p453k57NoZ7ijCfSeG+rRc4frL/wJxgKcmFYB6xicIpirskmnJYm5oDPX/sQExaWCPMR6oy9NYwQ0Mmht8tYLOSvyiS1RVSWv5hyPUsAxkaqtVq2SJgIYoX0yAZBRLHWeQvvzWHVM7d3+90Vka4lNqWmhPQ6X55WAUlvy6d9wGs6s2eExgYGMjtas7nx3k+Q5P+de/9XY+k8ojq0X2HcOe9D1tiy8sryHvSeblhS19P4STwkcFhvOfDn8J7PvypBVnKI68BgJQe20Jj755tuUKeN29nohr6tl7M4/J2hN5yAtOJ0IINHVfoFL8bkGjVczkqGvzjcp5JrzDbBK2fRjvCl7z6coNrHYPFwdAdlxCeFP9SsSAMXBchjuP8noAFq4xWIVEpG1IOOwkgM9vSMne53IfKiw1RNPHn0q16igu7qe27RFFimw6gt299YjJEI08EzhcUEUEZPLrvkCX++bRMBfc89EypoYiV1Bso6gUc4Se3Q/KX4byP/ae34/P//Z34/H9/Jx75yM/jsx/610v+1tqi+ai8SeG1m3ah3tJir3f7z3KV4ykIp0D4TJgGjpuY52jTMovjGbEZ/rNcpULLYbxhbagegA2lbmRPENneAcU6Xk3pGUhdm0Q0NDSE8DMyMqJa+0qJ9EepE+cA5Kli1WMQ1YS06GWOgdVT9wRIIMmibIbpVB9RX7Hv/FuR1ekxsHFr9msk80Sg6gkU456HnrEt0/kSfxrKCEEReS4H7N2zLbcXIAKgccdtt3gP5V25axP6ejrtvf0b1nTj0p0b8bH/9PZMIcj7jRed94VA3vpEDzzwQO71uW77xYprmBfsta85xlIEILymuIlYRDiE0zizx3WK03x/RFA25Po505qf+A2MqidAyW4VUUmj9w6r47P1C0LG9Mw0Jicn0dvbW/qT2Ty2KqhC72OVSymknfJ2CmjziGKJsrEski3x4QqSzfx0sikunYI7+y59w5YdlJCCvB/ZQrSQVyqkpf6Bu7+YaJnmYUtfj324TD6PfOTn8chHfh4ffd9bU585KBKCoiGF5YA8MgaAPwwmwO+47RbcdPVuLy4NnW0t6OvpzD1/WUh7PmShkXfcedcmAGzYeRld45aX+B8TiHCG5RMpaLlCSIo/bMtG25SQc/L8OT9igytp3yksFsmejJxoP9RLiNiW5U8JuazvhMo3i0wRcGA1DNVHVM7l4JteVZwTKFZCuv/VS2c1tZEsnX662HA2KUnUnGOUInINbd4NW7NFIG/McbkTS1l0tunlw/Ohyb9ZYpFnDPRSEvoc792zzXv6WKcttWWPFxp5t7weGRzGPcHxv/nGS0tP2g8OZ79dL6+hU7TK6EIg7xrLuzYBYP32S/iyVy10aZlbHlEtcykofOSlcJzwiuIaG+qegP6n/ekyeiN2nCWaY/15NqR1T08PU3F1LJLPVlCcOL/NoIQIkLJ4KsTKSkoo6sMKx8pF78vksirN9QREEEX7xISyaNNdVaz4iRLaOFcvsSMljTHYmCMCRa2NvC76SsGlOzeEUQnI3ShzIX9BHuGEkKdlhSSK7hpazhPEeUSIDAE8dir/NkCNX/mj9AUUUTAmv9g9gazbQgV58wE9fVvQ2tltr3+iA/7H/EMU4jjENZ6Fq2yKIxjLK8wf/IfCwI/y57gq8EeVcDblo/2JDQ6jiPIyXfrHwvasT64nV7NpZIqAqIwoUjgmRQLGIdyaQCRFht4lwI/DxeA0XluI4rQt8aX8qf30dCkvQuj2RXFdeowNm7ero2sOeRfJSkFbS/76Snfe+/CC3I0yF1J5l2ohp5GhYDkPCRWJY9qzEO/87b/GsVOjmJrOXyq46Hs7l42cvPkAFDTQ1u+4xLaMNZd43GI5RHiBysZMHLGNdNuUJlwjjXXhpGx/Uheyq/1Y8mKbseXHWN6v0ojte1YQx6BXr/A6Qtav+7h6ik32Zz2XR6YIWBVU6iQq5NI4L+ghCFkND4bWvpDH4UgpqRdgnxpmFSSFU/bEHxsuThf1cz0D3mP7FLVp+y5KSMHAwEBui6PoAl0JOHhsKIyyuO+xF1JJaC6Yy8NMepgnbyE7LOMhobx6Z52vI4PDeOdv/zX2HTqBkfEpjIxPYWp6xorCsVOjhQJQhKLzPV/k9QSKVg5dv/0Sd40rLlGMIXTh+EIKUyFHIlLKCHcE/MY2NQd6/tiBmLSwRpiPxJoxvIoCaE6gxo8LcPnIX2rN+qPjVTZ1yPVsFpE1mAVRQ6V0ViFFVQHvGQFK0z2BmKpHIuiUUhRV1EsUU2JsXp2ufbINiRHVFQtSFwDtHZ3o7VtPiU0i7wJdKTh4/HQYZTE+NR1GzRlHBodzW/Np0PllyYMsFLUslyryGhp5vacjg8P4md/6S/ziR/4en/zy47j784/i7s8/ivd8+FP4Z//5TwoF4Fz2nPIEAADuvvvuMMrDuh2XqMs+aJkDxAIeR7jQcYVOUXGOPvyywoHhPy7nmfQKs03E1AOIJYQNY7uOED0zQIMmZICOTfxLxYIwcF0WUa1Wc8qSBk7TKkQKyOokwicyZu9rpZ4ArSTKdw2pD5UXG6Jo4k/s0x+dbsVP1JRtSaIoqU1XdrbuvJAKp+B87wnkYaGHw2SphzwyF6QtC5HXOl3oui4FlJmclYfs5FNE/oKi33ZZO3NBkWDnXZNdveuxas1Gywlyvdt/lqscT0G4ABQnPMExjmAkTfiD/1DINsN/lqtUaLmHN6w/uhvID/2egDERIl6FWepLZoIegYTiz26VRzQzM4M0IdAKJKH3UepEokbvD5ZBLNtzoBdlktKxyokiUpzSbWvM2Q3TqT6ivqLKYKNa+VU6G9vSny0CeXchbCnxFOdyR15rczFw570P4wN3fylTCGQSOhQAAHgsh5hW+ve00Mjr5WZ9NwuFPN9FQ0HbLr5etYyZJ5gr3LWvOcZSBKgY85SNFOLglrblGk7RnKf5xfpzdYH4Y85SZObeJRDHNAcg7xZu0DyAVKeBBhr2mNTx2foFofiznssjAr+VvlareU/VagWS0PuIykkY8ZPCPJBlDPUK7ENxOn/EishqK7pJKkhSaCCKmJ1OdRH1I78ihWTfT9+26yJKTEHeBFSFxcGj+w7hLb96lyV7+RQtiVDUMj6XQxwVyiHtWRCNvEYZAGy7+DrmCNXaZ64w0jJPtNBVS9kSA/MGMYrlHBttU0LOyfPn/IgNriSAGtdZPnInJbf8YRAZI+8dU1zLnCohp/lOqF7NwrL+zMyMfTGxD1bDUH1E5RJqJ4oodwOJCc5sRIFdGate1qhTbq2qtK+zKlsQRZd0l1n+buvPF4E8IchrtawE5PUEioYM5otmhzKK0he7vouBvPO/mMj7XecNu80X8xkKamnrwPodl1iOoMtetdClZW55RLXMxYhwlZfi+EvTiVc2Dvyk+dNl9EYM+yyV41NxS29ejBFTD4BmCpQddSziy1ZQcjm/zcBj/HQhIGXxVEirk0qz6spqaiJ6YSatJSQDXnLHEO+ymoorq3JeuquKFT9RQhvn6mX9B3XfsGV77lvGzmcRWG7IG6pYafMC5+p4FlOY8q6nu+66K/da3LrnOrqjBpoTVAtdWtABT0E4xXKCbjkT72gek5a29cMGPD/Kn+OqwB9Vgg3Q/GgURY4X5b3sEd01GbEdvoeS7dA2HZfUg33KQdGdPna7LKL29nboT71eR71etypDoT8eJarkheqDGPb9wjTDTffC0ns11fs1rS3xpfyp/fR0KS9C6PZFaV26qG5cTQ6vEOQRVFErs4LDuZpDmc9Q0NY911mOkJax5hKPWyyHCC+QDcsJNtJtU5pwDbWuxYZnM/AndSG72o8lL3tnUBw3mCPpRfBxTM8OxNwTsIMotrg+Jl1PDgUsMJOTk6U/CRFob29HW1ubU0GWMqusWiFZdKwyShgZRIbGvuTJYSrD6s3qKSpm9VMUU2LYV346CyzXUaTT2ffTt+3KFoG8H9/5MDmchbwL9lwhb17gXLWc54M8UVush+CKbC7WcFDRraF5jTFjImy7+FrFAY6ThCsUYwhdOL5whiyXOE6hDDa0XGJTPQ70/LEDMWlhjSg/3IuJ+K6giO+epGTmTH6rmPCX5VDLpYFtRi2qoaWlBdPTtJBcmU84AZCEqKFSOquQVlXBY11cGbvPzwmwYgINe4JjzufSrOTCqbyoqk5XLnifa+NkUyxIPVXh7RdcTBlSkNcFXenII9WliKI7hIoIbqlhKZ7/PGGaD4qW98i7DjftvgJRvRVQHECXfdAy5xxMJ0ILNnRcoVNUnKMPv6xwYPiPy3kmvcLONj0ZDF5JAYhj4kV5F2IDtMaa9ASouNhWLf8wZHciEmkvlU9DsQiwQa1CpICsTpD7WyOyJtIFGvOyZUDvFrZqaMVRNBYieV46gnQrfnAtf64h++JNSVd2AIP+iy4nAykoenI4bxxzpWOpkepSJM35oGiy+1z89vLmXeaDvB510a2hW/fwXUFMF8IJcr3bf5arHE9BaAAUJzzhrIkxThP+ED9swPrT/5hjbB7tT/iHDfF9P149ocg4At1tyYsrsB2yafOHIUO2ZmdnEQfvEs5Cpgi41r4LvY9SJ2rw0wSA6zHwuhggeSK1lCflYqWCSrfJKKezeAbprrzURcRW/Gp/nM7G4jjGpm070dJabuXFEOfiQqyQjiLSXI5zOHmkuxjzHOfiHBUNBRU9Jbz9Un4+gC5ze807XtLcoNK4ANMZ8xQzjZCG5RBO48xEH8JJwjmhP1cXiD/mLC5od4T7GtBPCcdosP9GzPMDvNaa8+s+rp4cij/rGXauoUgIMkXAtaJd6H1E5ZTQQRQRxj7tJg6c6sm+jIORIpIP+8epb0662ONUSrP2RSVdujE0A79rT3ZvIK8ncC4umgrZyCPN5TgvkDcGvxjHk2cz79zOB0Vilnf9rdnUj47uNba1SxzB17jlJWlhUw7hDMsnYswSA/MGMYrlHBttU0LOyfPn/IgNriQM3/0DunFSbpYE+NkAqDkBV8YdHyRk/74TqpdGGSHIFAEHVsNQfUTlbA7aonNB41kaorhOXUltyZYyZNXS7Vv7lKSyippzTEIRbYorCKD/osvsdohqcrjCucJKm+dIQ15PoGgoaNvF13n7whF02asWurTMLY+olrktLMShUxwnaTrxyuqegP6n/ekyeiOtTg3Xe2jE5LQR61uDyID0RMQ/oHoA1ok6PoUiISghAqQsngppdZI0UCubVYCmBzwrUr4GQ/PiVgGteokKW9WVdGvEip4osYtz9RI7UlLqLOX6c3oCeZNSOI+HhBarZTgf5E1cFrU4lyLCl8aEWO6/vTwBQEEDDAC2X/Jab19d9nRlG+YF5gbNT8IhrvHM3OFSnDHLK8IZnMQGPD/Kn+OqwB9VwhoyoDF/G0a0ukLE/BkZ7ibIHKs6BjouqQf7lIOSuqYgTwgyRcC22Emm7FiU/Sh1ojDmMX9WNR7LasQxHYjKI8/COVviS/lT++npUl6E0O2Tiut0yiRxuy7OF4G8LulyvxBXElba5DAKxLborpqljiJhzusJdHSvQe/GfsA2fP2WseYSj1sshwgvkD3LCTbSbVOacA21rsWGZzPwJ3Uhu9qPJS+7bhDd/cNleM21RoOeJqaegOsNOL/u4+rJofiznpPIEoJMEbAqyFJmlVUrJMsO5+B/FBFFFBtFdE8sPQ1H98VaNbRqreyJP7ZTnC7q53oG1oNVbT991eo1WLMu+01aeSJQzQssHeT1BPLGu5cy8pbZXu5DQnkNqDwBAIBtl7zW8U2CQ5gnmCsUYwhdOL4Qg1TIkYiUMsIdafwmflL8SZ3YpIWutDF8KyXdSWnvqOQXCbs7gSjN+XD+6HiVTR1yPfOQJgSZImAhaqiUTpRHBIh0lBYJihHDwHCaWw/D9gAknguKmjpDZE3SSQk9R3ZT9rk2rLSSzvu2iCo8z3mB5XwhriTkicByFeu8yWEUEOlCYqF/4/NdMG77xdf5177iALrsg5Y552A68csAiit0iopz9BH4Yw4M/3E5z6RXmG3zygl2u0HzAuBd2jDWlq2D9C50yz8MA9dZaDTIkQhBsQiwymgV8tRJlAukcPQeAaWUsi6GMYCsn81PzFlFFfWSSKu69EenW/ETm/TfJnJx5dPZsXpuDPr3ZItA0bzAciWYlYa84aA8wlnKKHppzkIOCeWdv4VGUb3zet+1eis27rrccRHHG/5DNBC2zOXjeApCA6A44QlnTYxxmvYnPCM2w3/MMTaP9if8Y6A4UvniURPDoTiUYmRH9oMegYTiz27lY3Z2FmAhyBQB19p3ofdR6hTb3oF6DiCmXkCDnx2QjxSgMmJDfNg/nl2dbu2LD6vyZJCT/XTrU+oQY/clV9pjDXG+ryha4dwirzdwNoeEFtJP3l11RQvGbdtzLaJIrWfG8TE0lwgvaW5QaVyATVguim2kEIfjKe1PbDjOCf25ukD80aYY4A+tFyRcaWIa+49j4kupQ4PXV1vMdwyLEGSKgGtFu9D7aJWCe6cwxbEyRgb80DCM4W0lghSSkpIP+0fEMDed6iLq5xSca8Aq6dJJOclG/wWXoqWVHj9PQ96PsqhVU6HCfJA3L4AF/P3lDactJO647ZYwykPRA2JbL77OcQZd6S6Ua9zykmqZJ1rorqwjBkVGnEF4QvsTFnKck+dP1VFvGH55sDEA6C5Jqr/7iEe7kqilLOEvyafy23JUr2YwOzuLaHR0FOFnYmJCZWM1DNVHVM4KXTDmH4NUzombXU7IF19SUmXI6ZlNV1XxsrJiS0xCEW2KKwiyaWo17L74ChcXIO+HuZAtpKWCvInUvOGJpYzl+j2VGRJaiGPL84EFHPYs6jnnDQXVW9qw49LrvWtfIByhOcdrmVseUS1zW1iIQ6fYZrey6+eA7gnof9qfLqM3xDYMkaE4YVJ0LfoYcUxrCTU4Tnoi4t/Lb8sBM7OzOHPmDLq7u0t/opmZGaR9HEhZPBVilSIlVCqFiIe33PsxSbQ4DHoCNk3US1TYqq6ku6pY8RMltHGuXmJHSkqdpZzUZ8/l14jlBPJ+mCjo3laoMF/k9QboocV8Yi2LPCHIaxiURdGE8Pvf//4wykP/ld+Demu7NIe9NHXZ05VtmBeYGzx+kjLCH8IdLsUZs7winMFJbMDzo/w5rgr8Sd21IUuEQopQdwRFvB4brzCqjsHnVOEy8UaC0Gg07CsBynwyh4NEZSj0x6NElbzQjv0bngugd2Ta92TKswNKvJwt8aX86Typ6WJXhNDtk8DqdMokcbJ94WVX2eMNkTcchBKtm+WGhWr1nU2creGMc4F7H3oml6AXakhosVFUz7weNwBctPdmvvDl2lfXO++EXOK4QaVREcU/zAM20m1TmvInHCdhhj+pC9nVfix5cSVoXTWA11eLG4hjfpaKbTcaDX5lu/ab5DAbij/ruTwyRcCqIEuZVVatkCxABkBUi/jdAXwbLKuaPBkcmQhRjeYMQjWz+imKKTGSNzedBdaqsdRJVDI7/aLLrrF3M6Uhrzew0kQgDyuZbJcqjgwO5573hZogzvNR9HBXGeT1mIsmhHs3bEfflgv4Qld8wxc/BY6ThCsUYwhdOL4Q41TIkYiUMsIdyp9L9TjQ8yd1YpMWutI2Uc2dyogJTanabFFEoyrZcwKBbXHnOS+HbAYUiBoqpbMKKarqpZPyNeQNYlynGNJbYKUUUWQ1VYacnkleL91tyj7XhsradFFelS6JvNXS2or+C7PfL5AnAsux5VxheSFvSAglWtllsJi3ic53Qvji6/8pb0lr2u650F72Qcucc1ie0WUAxRU6RcU5+gj8MQeG/7icZ9IrrP3Ru1cMR1OyuksoBo2m8N1Bku7820g/DFyXRbEIsMpoFSIFZHWyIkeyRavfAZGpwUQ1VknOF4lSipqKDVE08efsIki34sd2wUopiVzcpSs7HOvyAdhzRfa8QN4DLCttMbk8UVtMoqiQjXsKhoTefesNC9IbyMJ85wSKest5jax6Sxt2X/16e906QpDrnUPhEcsz/M9ylXAMlxH+sNyhrVlS4k3lT3hGbIb/uH42j/YndRdDkj+sT8R1Zd+RoXcKSDqZEd4LQvFnt8ojUwRca9+F3kepUxzT+hf0SLKUp3dokppxPu4JWLWTbdavmIxBFDUtneoj6iuqDNJA3oduGYiiq7q7bWDP5VdThVOQ11VFiR/5ckLeBZ83ZLCUkUegywWL3RvIW7k0r2FQhAWZEG5ptXxAl7e90l1or3HhJc0NKo0LsAnmAWYa8WE5JOlPbDjOCf25ukD80aYYSBwLvX9d3h/g5lUb/G4Bedew85vkMBuKP+u5PKKWlpYwDhBlCkLvo1UMBsZEtE6QlyeipTFYoUTZRBxFbUU3RU3JYnE6+RH1cwoudSKVdOmknGSDLMS4+IprqUAKzqfF5OZzwZ8rLMc6N4s77304V8wW6nbRNMzHbpE4FQ0F7dl7C7MEf/jyBsfYUK5xyzn8jwlEOIN3bVlHDGJY+0n6E8ZwnJPnT9VRbxjDA/9kh14ZwOurGR4pEZ4U3mRbcnx0vFwjW0F7VFzL5hBNT0+jXq+H8QqshqH6iMrZXIFKIaY36IAqGRvOI8IopjmvdcVq6adbJ1Idq45gpaQNVyHnyf9Lmy61u6cHm7fvdGkB8kRgJZFQ3gW/VHsCeb2XPOJcbsh7gni+t4sWDfXl/S6yUDRUWmpCeOtudcFLc9jPF/MfuuxVC11a5pZHHIdYE8wdLkb7YV7hJK8st/atnzR/uozeiMHzAcxdYL7kNzDSOmvujiB5pQAVV8civlwiO1HH1wQiAJiZmckRAlIWT4VYWUkJQfe1gpSMnhMgdawZumNIdNT/xwKmWvpWhRPpripW/EQJbZyrl9iRklJnKUfHQUcWx8Cey7KHhM6HeYGiC72IKM4VVpII5+EPC3oD75rH3ECRwM/lHL/r1hvCKA9FvYBLrv9Buojl4paLVbV4wTn09U/Z+J/tGQgXcBnhD+EOl5LwJy1t64cNeH6UP8s/2iqbtceAiFr8NbXWml1pmcrZHkLmnIDUg32q8+K2ysPOCYRCICqjFcv7KHWKY6dkNM5FafY5AfCcAfieWO4hOFviS/lT++npUhcRQrcvSuvSKZPEybbU7ZKr9trjDpHXYkGJbu9KQBFRLEUsxzpn4cjg8KL1BvLEBQW9rSwU1SWvd00Twt/HbVpLJqr1rK533rE8IVzj8ZVwiDNHxZgHbKTbpjTlj/PbMMOf1IXsaj9c6TjmVRXo+YAGryMkc6lxI0ZsgAYMPz+g5lPt8fgcZkPxZz2XhzcxrIXAqiBLmVVWrZCiUvwh5RI1i2DUGhiIInqfmDGc5tTM6icrnFVS9pWfLurnega8x/YL0mFw9fWvo8gUnA/zAkWtvSKiOFfIq/dS7b3MFYs5QbyQ32/RhPDP/MzPhFEedl31vfSEMOg6J9B1a/mGL34KHCcJVyjGELpwfMEWuZAjESllhBuUP5fqcaDnT+qkqy1+An/ybJJ7hopsyahJBOJLsev8Mmdpmzpk3m0WUfgIMQB/aEjUUCmdVUhRVVBFSE/pQ/cFObUEr4pHwsh6JYoq6iWKqdJJVXW68sn7FMVKa9NFeVW6JKqtOI7R3tGN7bsusmkh8rqvK2FIKK+1t5AEsdDIq/dK6gmA1xN6NOdOnr17thW+vvFsoEiM8hpUALBn783+xQ3eDq99xQGWU3TLnHMwnfhlAMUVOkXFOfoI/GkOU/+4nGfSK+xs0zprbCN2716R2AbozWLOrvCk+LeRfggnCOEyQHmfKFxMqLu7Gx0dHQmjWoVIAVmdRORYAOUTQZ4gpnuE6AliHg/DuX+fgDHu5BkDXP6a68lwCop+uBXODZa7+DaLO+/9VhjlYa5zA3mCmdfbCrF3z7bc76TMhPC6rRfwBS0Xsr2g7cXPFGCzEQ2ELXP5OJ6CM6G4Q1sTY5ym/QnPiM3wH9fP5tH+pO5siP7JmxaFp7gHIOxonxngOmjO5Tp6IaMWRWhtbcX4+HhiYdCsT2bfwbX2Xeh9lDrFsXvCTdTYPSMAF99o8L2wMicgNsSH/ZOZTvURlRRVBkS6OdlPZ2NSd9lu2KfyYlz+Gv8l1hpFQ0LvvjVbQCosDorILm8MfbmiaHXRuc4N5A2dNSMCRddBXo8aAC694Qft9UlXtdq2175qXEOua+YJ5gp37as0LsAm2A8zTeDPpil/YsNxTujP1QXijzbFAMeLHZ4j5bWDwOP/NpQXkMlLyBR/yTnyQvGH2N6qH0WZ9O4hM5dWIAm9j6gcCx0iWSeI5wH4jWKRobEvcBwpnFJXQ/nIh5POMulUF7bFPniHcgTppJxkg+pmYGLavviK16Ce8cwECiaIm7lQliLy6p/XSjyXKCK7vKGT5YwP3P2lMMrDXHsD80VRLwAFPWqaEP5+vobpGvc+Es0xNpRr3PIS/2MCEc7gXVvWEUPgj22F/oSFHOfk+VN11BsqPwzNkSIyNEdg/TJPqfcOO78qnf37Tqhe4PcEGGMSL5VPQ6YIOLAahuojKic5ROU4FJUlUeMyjRiG18mmMq6cNcTS6aerqnhZxQ/HBIqoUlxBOJsSH8cx6vWW3FtF81oxK2FeYLkhT7jyWsvLHYvVG8hC3ryLRlEvoGhCePdV34t6Sxtfx1AXO3/UtS+QbHTZqxY6b9Oeu95tGY5zfiQUP8wrnOSVjQM/af50Gb2hytEcaYPG/uMGIO9lF7/yugF+77D0RMQ/oHoAHu856FdI5qGECJCyeCrEykpK6FSKnhoWlXRPvEWgN49FNZ4TsOXoj6iXVUOrupLuqmLFT5TQxrl6iR0pKXWWcnQcdGQx78cGuCxnXiCvJ4ASLdMKC4t359yLvlR7LwuFhe4NzPd8FfUCBgYGcNddd4XRHvZcdzNdt/SHLmK5uOViVS1eyaGvf8rG/4ST+PqXkpY/hDtcSsKftLStHzbg+VH+LP9oq2xW2zTgddYQwdR42IZfOsZJVMa9aiDgWqkH+1TnxW0RpEeQNzSUmSIqQ6E/HiWq5IWxrB/E97uqZwbkvtdGQ62frcuxfsWx8qf209OlLiKEbp/UVKdTJonT23LPLhoxLrv6On0KPBTNCyxnEchvVWePF58rFBHcSpwP0CjTGyi6S2chUdQL+MAHPhBGeaAlo3fb69ZexNIsjmOXxjwgHEHXsrrePW5QaVSEyypOsJFum9KUP85vwwx/Uheyq/1wpW2d2D5o7L/RoLuBGvyIMPEmzRPIU8TueLQvFYo/69lhZmaGlqbOEIL0WFFKGypl1QrJsuMUktUuAvUKWKnc28bUOzVVGaufopgSo5UzM13Uz/nnPbafnU7LXFO+GMDOC/ags6ubMqQgTwTyiLTCwqKI4O689+EwasWhqDew2CuMChaiF3DV69+qyIQvasgHfI36WRwHOE4SrlCMYU3ZS50ten4sp7Cf0J9L9TjQ8yd10tUWP8qf5iA2zC8Z43cKsI1InhPgp4jFn7UR2rYmtXOHPCFIxoQQNVRKZxVSVJV34jiGgeH3YzpVpDWxucVtVZAKippaQ1TIppOq6nTtk21IjKiuWJB6hoWtafZlVT3/VtHzYQmJEGXHhM8m8npdeS3klYSi3gBKiOVCYL69gFVrNmLXFa9TZKLIwV6vHGevbRXayz5omXMOvsT9Mgj9SKiJKeA36485MPzH5TyTXmGxGVQmpt4AuP4wUg+xS5mFn8i/VCwIA9chsoSgWARYZbQKSUvehTzmL6vhsZqKwtH6FwYm6AlYRRX1kkiruvRHp1vxg1NVriHb5k1JV3Y41uYzMPRyB+Pe8JMnAnk9AZS4IJYq8pYTXmrCViS2RU/WriQsVG9grr3YhegF7L35J1Qrl/iALmi5kO0FbS9+pgCbzfINc4Xdluuc+QbOhOIObU2MqbpoP2zA+tP/uH42j/YndfeOT8XzJACVknqE9eZUe66CUJnMw8zMDEwwR5ApAlqBJPQ+Sp3iGIBdC0MpMk8KxIhhTGBLxJHTKd7+yUwnG04lYyus7IuS/XQ2JnVz26DnGWYbaMzScwOXX5s94Qh+4CULc72YzjWKxv3LEMnZQlHrdqXPB2g8uu8Q7ikQvaLzVYS830ZRo6eoF7B63Vb0X/k9gPCMbSnzRczXNF/Qjj+4fEwFHU8I79hrX6VxATbh/GkflkOS/sSGtSk+rD9XF4g/2hQDnM43/ovfmJ+fUv8Amh+wPq3fJIfZUPxZz9kIJ4szRcCqoAq9j6icqI+hp4JhFZl6Bybi5wQURO+c2okP+6dUOtVF1M8pOO2JSrp0Uk6yYVi9jeFeAD+/sKZvPfovuoSMpGAl3ipadE/9UhK3PFKjhdbyj2WloWiF0TK9gbwhv6w7hxaiF/CaN73dMoNtzdJFyQyhPhLNMTaUa9zykru26ZqX692aUX4kMvST9Ccs5Dgnz5+qo94whijXrpogzwfwCgr8AYCIn7Oy8Xx8dLxcI1tBKUX1KgMtBJki4MBqGKqPqJzNwU++iRIZWNWje4EcRN3EiFUva5RjbHpY0Kkj6D/FJBTRpriCcDbJBvde+GWecdzAa274Ppc3QNGtonkktZSRRyR5JHE2saWvJ5fQzqehIMGRweHC477jtpvDKA95ZJ6F+fYC1mzcjl2X32ivStealQvaXqEuTl3CkgP2slctdGmZWx5xHGJNMHe4GO2HeYWTvLJx4CfNny6jN2LQE1JxzA8CyOPAfLckYKXAPilsi6tjEV+2gpJLqu/282CFIExAwggpi6dC0tJXIRDRO4WVUtHdQa4nIBrlytEfq16iwlZ1Jd1VxYqfKKGNc/USO1JS6izl6Di4PtIFiOgOIWMiXH3994rHBFbqraJZLT4AuHYOJLEYKBLYIjJcqSh6+9jePdsyxTMrXpA2vLYgvYA3/Dhdp7xvr2UbSTxAFyrHycUvZfiPXP+Ujf8xD1ExxyGWP7Q/a833R1yk/LABz4/yZ/lHW2WzinBUpWX5BKmv6hHYJLaoj4XtWZ9yUBCR8IeI8jA7O4tocnIS+jMxMYGpqSlrhEJ/PEpUSYcAj23F9JwAGrwWNr8vk1bFo8lv0k4uH8sei6XYUvvp6VIXEUK3Dyln0ymTxOntRoPmBOLZmOcFGti2czd6167T58rDShwSyhv73btnayFZLDa29PXkPiB2ZHA4lwhXOooEsKg3kIW04bX59gJWr9+KnZf9E7pOOY6uS3et2naw7NtrX13vvGN5grnCcYNKoyJcVnGCjXTbXl2kJmzDsxn4k7qQXf+47HEg5jslY1ovVJLDdww3GmjwvvPrPq6eHDJmG7OYnp5GW1sb2tra0N7eXvjxRGBiYsKKgFYgaGX11Ikck8CJhonIqXKgx+GM0TPhTs2sfrLCuXRRwLx065WVUeokKlmUzmsaGXe/bmyAva+7iTKmIK8ngGXaG8i7Q4iE7dweU9ULyEeZ3kDaUtNF5zXEm2+8NLeRU6YXsPeWd1i64MtRkYm0kuUDm1Fn4SvYXeOKSxRj+H5CfzaRQuIEtqz9uVSPAz1/UiddbfET+oOU5bspoecl5Y1ivLaZ0X7JhvFPhAtZTLQItLa2FoqBHQ5KKI1LsOmidJIu2ZReuv24QXVjpbNK2KB8FMd+RTdJ8rx0UlWd7jZl33oVWRULUs+wsNqycwL2mOhZhquvp7sW0lA0JNTshbUUkNcTwBI4piL/58MDYkUoEsK05STyxD1NVIq+hzK9gP5Lr7fXr70iLZlYwtBXqberYikpputduMQxhrTMgzII/Uio4hx9BP6YA8N/XM4z6RV2tg2I98B1llD3BGIYfscwGaBjE/9SsSBkd9SLkDeWpXB6gAjiIEsEWGW0CnnqBHo3pqgbKaih+QGWU3oQjpVQ1hayUbInIsm27KafbsVP+1OJXNylKzvWs6g5wLP0nDcGrewHg0uufA06OrvIWQryRGA5DgmVeWlJSCBnC0UTwpUAEIp6A2GPruh3GorKQvQCXnvLOyxvuGuXeIAuTYmUC9le0Pbit2XEhrre7T/LVcIx4ifw51kTY6ou2g8bsP70P66fzaP9Sd3FEAy/XUyH7lklefOivGtY6ktmhPeCUPxl8HmC1xWiUC0kY1rofZQ6xSQ/iBG7Mf+UdbLpuQGQ8nE5siE+7J/MdKqPqG/sBBbsg5L9dDZmj89u0xvQaAyOvMxKzwAGV113I52lFOTNC6CghbVUEV70IYpagYuFoheXF9X7fELRA2S6N1B06284KVz0/RetFLp2007suPR6e+3RdUqg61JCTuRrWjLSta/KUEHHE8wV7tpXaVyATTh/2gdve3WRFLZhbYoP68/VBeKPNsWA3aHRB/eO4ThW7w+IQXzE72Jpdu0g71mtjE+IKLaTEH4XQiuQhN5HVE60jde6sGP+kbGLYVuVq8mSokpdDSkp+bB/SqVTXdgWZZYdyhGkk3KSDaveMeehPpHNE0XANTfM/S6hogtmKeKeh57JbUmWued8obGlryd1LFtwvk8IhyhaTkL3BvJ+o+EzF+++9YbcXsADDzyQez3APh3M1x9dxnK5utas4euYLlT3kWiOsaFc45aX1LUtIfOV9ueIIfDHtkJ/wkKOc/L8qTrqDU6ku4DoHn3hRrhXCDBF0ggKPS/gjo+OV+xIBe1RwcAkSD/toxGlJfqZVJzkiUWdVA6RPBnzj2OaF6BV2kTi3DrZhoZfyJYyJGqp9m1t2IVLEjXnGFVvrqHNawvC2SQbNAvfmI1ZrHkF1AZw5XU3JtbZ0Mj70Rd1tZcqilrVecSxGCjyV1Tf8xFlegPXXLglV1z1LcNFd2ahxFzA2k07seOSvXx5u+tbrkrHORJpr1AXpy5hyQF72fP1q1vmlkdUy9wW1n4kFD/MK5zklY0DP2n+dBm9EbOiIEbMKyjEMd9NCaLHmJ8gAL9zuDGH9wmEnJ71EUS1Ws2LDDOIpnkqxMpKSigCx0pn3ydAzw3QA3KSJnLnl6M9cmVVzkt3VbHiJ0po45xdsSMlpc5Sjo6DjswYpcZBeltbe+5aQkVDQkUEthRRNK5c1CJcSBSRz5HB4Wo+IAVlegM/+5Z/EkZ70OJadHtpmV7AdTf/BF+zcm3ydcrp9lq2kcQDXEAuVs+muuzpyuXywg2OnxyHWP7Q/qw135+0tL26Wu4I/nE5KeH5k7qrCls3xr09zPYEOH8k7xhQx0DHJfUQW+KNXTQpBNHMzIx980woBi5MFraKI0IUy5i/auHzO4UbvA35xKKeYkt8KX9qPz1dyrN/tU8qrtMpk8TpbbEjyh/zhti97nvfQGc1BUVDQstxXgApY8Eh7rjt5rMyLFQkolUvIBtFvYE8IT8yOGzXJCp6MAxlegGbd2L7JXv5WpNrk69TzuOuQbmg7YUsFyZf++p65x1nk69nywUqjYpwWedHrnfhFLIX+OP8NszwJ3Uhu/5x2eOAjNlzyz+O+V3C/I52enqA5lhjXkPI+nUfV08OxZ937OU+UaPRsEuM6gSrgixlVlm1QrLsGJB8ydiWr3hSJoIxNTcbrtNFP1nhrJKyr/x0UT9RRqmTUty8dIkX0zae9vfe+HoqkIG83sByHRIqWo9my1l6aUmRj6oXkI0yi8tloZlewF133ZXbEAKA197yk+oapAuLL2O5HBWZ8EVNV6Ak2mvdZRUOcJwkXKEYw/cT+rOJFBInsGXtz6V6HOj5kzrpaosfz59bSU3umoyMAWqywgLdr+ies2L/7I+OV9nUIUTokkSf97G3iM7OznpC4IyK+jqlk3TJJirrfSDvDoj5FY6kgpJBysQxK7C14adTeZ2e9ElRrLQ2XZRXpUtisOUdL5eT3G3t7XjNP8leS6joAigisqWIIyXWo3n3rTfkDtXMF9VtofNH0XeYBTm3ZW4EKLojaN2WXdh+8WvsNUiXt7r+JaMlE4nU1yvHSRYXK5erawHbf5TIdOKXQehHQhXn6CPwxxwY/uNynkmvsByDrKRGeenNK/5dlNQTEF+c254zxVdhyO5Cki/62InhRqPhCYEFq4xWIVJAVifJEn74/Zn0pDDt21uDWA3JpNNtbcxt+ulW/OBa9hQl9eNNSVd2ONbmk3JiR+yG6dd/3xspMQUrdUioaG4AJUlirigSz6Ihqwpz6w2IAOzds61Q5IsEAHouQP7Za16uU4K9lu2FJxeyvaDtxW/LiA11vTs/8lH+nAnFHdqaGFN10X7YgPUXHBfscQX+pO42j2EOlJDfMcx5qCdAz185DqPcclxUDxWKv/mIgAiBzBGIEOjQ+yh1imOa2o5ZyUQn5SXDlK/Bn5jGxVg9KU182D/WbphO9aE4qouIrfjiTZ3OxqTubtvlYyPkS9mNEeOq625ES2srZUjBShwSAoD3fvhThULwmQ/evijHlycC4e2LFbJRNLQXwvUCsm+IAPeAix4M23rBldh28WvkauVrja9pe50S5BrUHCLXtGSka1+VoYLKpvajr39mEDGn/Wkf9tpP+hMbIW/o45K6QPzRphiwH2r5Ex8ibqCBBuy7hqU6DZ4roBqq45H6BaH484693Cfq6elB+GltbfUUSELvIypnlZKfdGN1khluUlD9T1TNqa3opqgplSDDeelUF/ZPmWWH7fvpVDeyYaAUXZUTOzYrDNraO3BNzsqieT0BlLiglirKDAsBwEff99bc2w2bRdFQUJk6VSCU/Q6hBKDoyWCUmAwGgO/70fd41z1dg3z90cVlLzvbmmX+kKvPfiSaY2wo16rlJXdte/64gJR1xBD4Y1uhPzkGxzl5/lQd9QZ/qOVvaGSEbUnLX+pFc6i2Vvb4ICH7950A9VodtVoNQ0NDhZ9Tp07h1KlTyecEYjUpTGA1DNVHVM7lcI+8cTpts9pabSTblC6qqQyxdPrpDGWGksQ+xwSKqFJcQTibEi92OJGPU6cDr53XXULFd1gsVdx578Olxt/vuO2WwuGDssjrBaASgaZRZmgP6rzecdstYZKH97///bm/dwC47k1vx6o1G/lKlGuYriXHD+6yi+21K5FyhfLHXbAW1gZv0DXL/yQOyp82YS9wnSJ+mFc4yStruSH4p/3pMnqDbcfWuHppQEzvEPDy6XorTnXHKxWUXFQ0iiI7mpP3EbupImCNA5a0PRViZSUlFCGK6KZWjjBUCCRySv1ExaQcq6m4sirnpbuqWPETJbRxrl5iR0pKnaUcHYc9MmsnOx249sbvQ1t7B2VKQVHLqIjYljLKkshCTRbnnasj1RPCc8J7P/wpDA6Ph9EePvK+t+K33v3PwmgPAwMDhb/1nrUbce2bftxel94/e23ydcpl7LUMg4nRUzj5ygBOHH4RM9Nn6Nq1hOCgLnt7nTo/0lJX/pQJ7c9ZY2OSZjlD1dVyQ3hcVM5yhlhls/oYDOjuH2OYM/muSlmDzebjp4XJjjoWSRef+rwwf09PTydu/U/7AEDtl3/5l98fJpw4PYnPfesgjKFHkI3xxCYBY4D1fd2oyQNXLHQmMhQaQ08Ps3oZE6OjvU5DRlAnGAD4fcQOcUE6gV4JI9tgTXTITGdb1qShVf4sDOUzAI4ePoiDAy/qVA/XXHMN+vv7w2gAwKrONnzyy4+H0csGDz7xEl5/zW6s6mwLkzxQr2crHtt3GCMTU2FyIYoeEPvklx+vJoXngJGJKXS2teT2SFd1tmH35rVhtIcf/dEfLXy73i0/9R/R3bseUFeha9G6cHjwFbwy8DQGnnwITz/0WTxx/1/h4c/+CZ7+xr14/tEv4YXH7sOTX/1b7Pv2F3B432M4fuBZzJyZwOoNO6klDCKmmJdKyPJj41N6HhKfyKPz2vzip6Q/VU4SnDjpln1MyTHFGfvUsMHU5CTGxyfyCVhhY18Xbv3eizA9PY1Go4F6vW7rmoVMEfj8I3ShkcooZdUKyWwZmQgb+npQr7mnb+UJ3EgpmFbRzvYWWhdDlFHs8b4BnY3idCFwUUbaN5xYmC7x9nikTmLblWtra8dDD3wRaRgaGkJ/fz9uuin9PQSrOtvw6L7DuW/wWsoYmZgqLQRb+nrwjjdd8/+19+bxll11neh37X3OufOtuVJTUrcSUqnMCWEKoKkwCGpAwBbR120SB6CxQQVsfba+JPKw7ef00ffaBieKp6223R9bkfccwE6i2DxkEFAZQqAqZK5U1b1153vPOXu9P37D+q21h3NuVSVk+t27z9p7/cY17N9v77X2Xhu7t03jKw+c2FAw+J6XX9PoqN7yy3+cZj0LQ4IEz6b6bYK77rpr4F3AwWu/GVe99CY+9xyW5mdx8qGjeOir/4hjX/h73PPpv8Y/fuxD+Ls/fT+++Im/wLF/+jgeOfYFnD7xENaWq5cz73XXsHT6Mcw+chT3f+nvcewf/xbtzhi27jqg57ie38E7cB77CTpUDJ3cgjR8fM5rNlGIx6jXp3nKEPRI6hyvpECvAavfyTKA1y2jLcwHrK+tYWVpWXFSryXZDLu2TeLbX/IcdLtdgJeVljuCOnCzs7M+DQJf+vocfux9PA7sPSB3BCbCWcgyh8sv2YuRNilzvC6Gox1O6fsC3gNZ7rB1ehStjCRKgako4Uqf8sKdgBSV8GSPY0LHxyW8yorlCp3cIQTaWE6K//EfeCNOnTjOFDHMzMzg6NGjabbCp+954CnvxPZsm8b73vmGxonbFH7jw5/AhwcsTifw/ne+odZJPXRyHq/9d81PpDwLg+FD771lQ+0ncODAgYF3Adt2z6AzOo7u+ipmH70f/R45o8cDJjbtwHNfdQv2HHwej7MPc2UuKV1zy7W3XtkbPuXhH0r5zoOxlXoq7SA9WZ4hy3K1SPAFB5mUb372NE6dOEH84kAb4KqLz8N/+revwvJyCBzOueiOwOa79BvDEgQiYM9po5DTK2WbcugUR1uioQiY5Q7gApNIE7nVEwc8Enxw5BIZRaXYx7saqYMczlU64RM5IrcJ/9KXfyvtVMDTeYJYQBzx3OJKiqqFN9/0Qnzovbfg/e98g649VOeEmurn2QnhcwPDPPqbwu233z4wAADAyYeP4eGjX8CJB7/2uAYAAFg6/Rj+9o9+Acc+f5ee7/qnvir4IIgbAOWJn+Cc4GAEJ/6DfygV35D8sY9RGquPcUGQ4yeDwpZYEcyoXDtIfJRJBZILetlkVQgiiXH5T/zET+hwkMCJ06v4i089AKdzAiFSVoFzwI6tk8hzWjfI0YW/IaDEewp1DsDYaE4vR3BGqIR0zH+IOQHHfOHQxFTJC8cB76Ixf5Jr5gT42OK37zwPf/3h+qv5++67D7fcckuaHcHdn/tamvWUgusO7sN33XBVmj0Q5J2J11x/KQ/77MV1B/fh8DUX6XbJ+TSWXAW/8eG/f8oOpz2ZYGFlDVPjI40B18Jdd9011Ith3yh48Mufxuj4NLbsvrB0JV1/hU7nv9xBKAw7J8AEjfrMsezIJyRTPIulHedoSX8AaysbmxPYuXUc3/7ii3Q4yELdHEHl00EAGZqm0aZOkx1kRm++yQx3ljnK40I7XhGPlw6iCMzRVuKmU6ESUZvxIpexhFObJEoGPEVOkiHRm1IbZWK+FL/9vD04dOW1QlyCQSsqPlXfIBa47uA+vP+db0izzwgkINitDp59QezcwrCP/mKIJ9++8eDx6b/4bZx66F65LmfflF6h29NcDthv8NlOh5IyqfiByOeIH6zSF/SIDGJy9IYwX/mzaWET+fyYZ4bwhJD4XUgqfilSQnaJD0/9uuenhtI7gsogIEIIgkC51YCnETEb9bwvwnOvoK/joCj41QFPtPz1HBttSVYkCNCZc8EzEMqQ2mhMdgXSQGx/aTfGihxGcjktPmb/plc2P0b3dH2D+FwGgI1Cv/C47eZX4v3vfINuj+eyFU9nuO7gvqHf6/jYxz7WeFHzeMDhw4ejre6JuxQ+/ee/BfImfM7aJ3CYJpzm1glJynniVxgV8apvSP6sPstjdzx0/bQI79mXgVIP/qaJ55WZNT/oB4yfjvwe01p5ZgOgq0JIMHCPPfZYaWL4y/efxrt/81MquBJ8mKjIcofLL9mHkXZLi08Tui6a8tBoCWDr9AhaOUUw+g0TxMKvga4SLwGQ6VhdeSKZJ6aHnUhuxDs4eHS763jnLd+JpcXqpxkGTRA/FSc492ybxofe2zzMBQCrq6sYHR1Nsx93uOODH8Gn73lww2PdzyS47uA+vPmmF2z4IkSeCjp27NhQ8wLDwi233IL9+/frU3VNzl6GpAbpf9nN78H2fQeNk/XkTWwgEN/JP+Q4TV7Cl9ISPkmVxpPnSAKP0GVZC3nOw0Eij/1orI+O5+fmcPL4SZYUgLAmZb6rnrMTv/bOl2NlZUXvHuq2drsN7z3c8ePHS0Hgngfm8a7f+CTckO8JZJnD5Qf3otPJ1XGS06QU+rF5wjgAWzeN8NNB4VaIcIOcf4o3zp/zrFMfiI8CBuDMewKED8HB8v3Bb/9HfORD/40py3DnnXfWPi4KftTxqTK8MWwAuOuuu3DjjTfiAx/4wMCT+vGAh07O4zc//IkNL5r2TIBz9SKfDHfefffdkUNOnfPMzIxuAIZ29oNg0BNKl1z/Wlz1su+tdNKxExdnG/IjGkur9Gf+noDQuzynt3kLD5/pCwG1+hbmTuPkiZPNDtjAFRdtx//5zldgdXU1DCEBpQBgA4E7fvy4Tz82f88D8/jx3/p0Kp8hFEqCQy6PiHZalOF4vtWMd2kJ2aFu3TSCPOfxLpZrnXv1FX0TfiNX9BYv9hn5DnDJsfDJ8WOPPIifePP/wjllOHz4MO688840W+Gp8rjonm3TuO3mVwy8ejx27BgOHDigx4cPH8Ztt90WOYInCjYy3v10h2Hb76kETYFgatsefOtbf4V8GRygQ0LsgqzDp9M+TuFpCQemKOOTY8PnfdAX0RsHn2UcBODZi3HqCzjQN7eco7U3nXOYn53DycfCnQBRc5AQBywpgCsv2lF5JwDUB4Ks2+2i1+vpJsdBq1QGDZJRklSQFtZUuJPKYJ7SH9N5PWJBJE3wJDNVFCoXWsFkX8DzsbIY5mRPyqMYLofwUdljkh3n7cHVz7/eZMYweIL4qfG46DAO5NixY7jxxnhtJbkrOHDgAG688UZdb6bu5D2XcK6uep8OMEz7PdXg5ptvTrMUFk4+FPwLyPcEH2FOYz2nLcbkBfcR89b5M+aLREbMLBOeVlP2Ht7Tlxc9fz5MvidceLpMZZfL7CLb+Ks05bnYoihoYtlsOd+BpFur1YL78pe/zLLDncBXH17CHX/4ZRVcCT6ZEzjIdwJ6Zc1PAskVtdrp4VyGrdOdyjkBOS4P+6TDQtVX6HqHIFMSJbn0M/gOYRAe+KfPfBK/dPuPM1UZnup3A00vblm48cYbGwNeCocPH8YNN9wQ3SE0vW19pvBUGnJ7PODpGgzlAqMOXv/uD6A1Mg6wXwOPXFh/DHFJ7PdLDt/wpbSET1J48hByB2L1Gbq6OwG5BfAFH5IbozkBcycgwFwhZQWXzWzFL/6bb8Lk5GTpil+v/DNe2UGOwQKqNsFV0kieKaB+M9NTlCuKgiKT13jJBXhqfU+gjCc7rnju87Br7/mEqICn8t3A4xUAYCYab731Vt0++9lzv67SE/Ut5CcjDFqDKYU/+/gXcccHP/K0mFjvddeMHwp+ik9tgH2X+Al1Gnruh3Oc2VRG6jf0T30Mp2xLEM2y4ekOwHsUeidAfHRD4EEPBJGPJN8pesMW7OSUoWDZEW0CKb72EVE7jiRptOkVMkUiR+uEMk7oMmQO4CdeaR0hHcenHaEnHfoTrrgb8KSD5DGxHLD8GO9UudhIdJpv5Fg7y3hR5fDq171REJUw6BnrJ+O3Bm67+ZWPWwCogsOHD+NHf/RH0+wSfPqeB3DHBz/CTwI9MNBh7XmCvoX8ZIRhyi31+by3/hru+OBH8Gcf/yJe+++OPOmDwcA+p6MAdB7T+a6nLoGe03wy89lOh+EcZwryA7A+R/xg8CVBX9AjMohJaIlIvr+S8XcE6DkZWcbB0KhelsH8lFolZFcKqW9Pt2jZCGFIckK+RBYv0SlQhIgYoiPlOrnuZ6UaczVCEq2JmJKjeGNKRCrRnHOM7aJfaJURQabkixxGcjktPmYXVR4eh191E6Y3bTbIGJ5qS0m8+aYXNr60JXCuAsDMzEzjkJnAn338i3jLL/8x/uzjX9T9Oz740YHO6pn4LsEwdwG/8eFPaH2mYIPBMMH2bEHadNjg0/QezujEJoxObWZXIH4k+JBwmssJbjHinNivMCriVd+Q/Fl9lsfuePJZMtCsvrQg3QU7miJQ0PeGmdbqh/itSInVW3b26SaQ//AP/3C0iigAzC528Tf/fIpJyJwoCnFkpUhIb7edt20arVbGV/ucIoOD169pSjRzcBgfadHS03xMOliP0tOPxDZWzVaFK3TKE9lksugJtktslXJoyYbAs0yRmMgvfIEvfO4zZFgCc3NzcM7hda97XYpS2LNt6kmxLs51B/fh9gEfFAF/W/ZP/uRP0uwNgwSAzZvrgyjMUEUKD5+cxx/8j8/ipusvbVzZdGFl7Rm1/PSglViHfXrqngdO4MMf/6Iu322X7JClJ4aBh07O454HHsOn73kQ9zxwAn/4Pz6LX/6vf4tf+q9/g9/48Cdw9+e+hq88cAJvvumFjcuGgNcw+tM//dM0W2H3c67F+Zdez+ewOf8Z1H/oOa/eRU5sJVJ+/qHUXPWrxwh86jNEKosVAfSSFs04qq/jZSQyl8Gbbw0757C+uoYVWQyObSI244tN+XZsHsMrn38B2u225gkQb9g0/wtf+ELpPYGvPbKM9/zRV8i4Yd4TcA5XHNqLTqelhYf3OjEM5+B4MSEpyJan+HsCREvp6vISfuyW78LqavWiajMzM/rsfB18oycxrxvybeDbb7994BDXsDDoXQoMOXk+yPZhZDydoGlC+Fy/qCh3WbvN3ZYEi2Gu6jFE+wmkjyFXwTXfcgsufv6rw1W8pPxjr5TT/IjG0ir92b8nkOU5sjwzdwhGn2NGs/ba6bnTOLWB9wQO7d+MX3jbSzExMQFXMQlctWU2IthAIPmUWibJC06QSHhOgI9pzQuKVBkAl+W0hKoYxTjdN3JQc8VdjRcHLpGRbVL5A/AakaU8ki+yYz7FqxxgfGICL/u27xCCEhw7dqzxFhY8ifmNgj3bpoc6CY8cOfKkCwBguqphDYHrGlYtfTpC0/pU5/qO8yH+0tun73lAN8kbBmQJkGFg0CJ2eauNCy69ns5ZgM95PmXp0JzG7Dz4fOYznWk4Nee4yLQ+UHwT+YhYn4IKYYGO1lgj4G8Mu4x2DS+tuaYfHVN95HuMTJuynRbSC/x0A1lBCiSjBBLxPI9f8biWQVHqeZxdh9VoJsB5wDsKbZ6/Qew9jaNBx8hM+CRhGh1JrsWHXTlma4JykSB2pszJXlx2Lqfho7KXSMKhB171Hd9pCMow6Ekheqln8FDM4wHDBKC7zuFKksMEgIdOzg8VAAQGObfv/OYr06ynLTQNBT1ZVmF9zfWX4lPve0ejrRZuvfXWxvMHAJ5z3aswMrmJR+nB5671EeY01nPaYkyeOccjXvGB6R/zRSIjZpbtC3gU9Ai7rrVGqdgKT49aejh+Ukj8pOjXzDjl9wRSR586fQvee2T9fh/gcf1KYo4yNgpRBOTopFGLIyR/ZjiTeYFMloyg1fNIBs0SaETV8Cf6RD79WLwGP4QrdLaQZfOu4I0czlU64bNX+oPxoirY5Ryweet2vPKm1xNRBQxzNyBLKz+RMMyjoIOeyx4WZA5gUAAAgDs++NE0qxEGDaXt37UlzXpawqA7nodOVq939UTBa66/FB967y0buuC59dZbceRI8xBW3urg0Itfy2e48VN6rhKo/1DfoZjgYAQn/oN/KBXfkPyxj1Eaq49xlMl3AoLQ1GbRksucsBySKeUiO0wq+iRgVDh8GJzdMgCQQJB+oV6YKplNdPIF4IsCRcF8TFMUvHmf3AlQNCRSE7dJKCSiVuHJHom+XgOshFJGx3gWpuXS/UAnEdsbOaqphA92BZM9Xvvd/xKdTv1k2ZEjRxqvZuipjifukdFhAkDV28AbhVtuuQV33nknjh49OlQAONP5kfWuedM9gamxTpr1jIRv1J2Adf6DApWFG2+8cWAAAIBDL34tRsanxTMEP6XnqroIAOxH+PxXp6HnfjjHmU1lpH4j6BMfwynbFUSLHvJ9QQ8/1194WWAUXt4h8J58q+oNW+DnVPSp5jJPxG9A3xPo9Xrw3uv3KMNVdEijTaKcBLqMlybVCMXzAhnPdtvorPMFEuFEh/5wRG3GkzwOsBJK1SaJkgEvdoFl0qHJN3KUtBIvqkw9OIdNm7fi1a/7F0JYCYOGVK7jNfYfb5AvfA2CQfbWwS233IIPfOAD8N4PnBS3II8lngl02vTG+rPw5IHbbn7lGTl/ufhoumgS2H3R1bjim79LfYWc23TOy/mupy6BntN8MvPZTofhHGcKc67HfqNaX9AjMojJ6hG/wt9dIUepcnmsRGWJ71Q+pouVkF1NDl/A4qM3hnu9nq47YciVKYo+EuWEIhnzh4dGN3r+VSIiB0U9luvpcKzxTPEMzB9QrEdyShFRMYERQabkixxGchksPmYXVWIZ4Yno297wJkxMThniGI4dO4bbb789zY7ghx7nZ9uvO7iv9ukRC8OehIcPH1anf/ToUXX8g76wlsJvnMUKoI9nfT0LG4PXXH8p3v/ON+BT73sHXnP9pRtuGxl+HKbvTW7dhevf8KN6nkZX5upHzJW5MEZOSFLOE7/CqIhXfUPyZ/VZHrtj9cnjP55WjfPwPA/AzlmksQDJE/1gOpUtYAKCgHX46QYA7t5772XZAfGVBxdw+x98KZUVgzdrB2UZrji0DyOdnCY7eE2MTJ5/ZfIsC2xbptpo5eHdOAx8FDTFS3nD2kSET1cXlSed0rV/0kc9h8G7GvlMx3b/P3/8h/jDD/wGc5dhmEdGz/WjfALDPo436CS85ZZbcMMNN5z10sACwz4JVAeDhrb+4H98Fr/0R3+TZj/t4Jrn7MFvvbv+bvQfjz6C/+u//088vIEneJqAnryawnMP7sN1B/du2OGnMKjfWWiPjOFbfuDfY2rb7uCwJWUacnRPxNpBQuPJcySBR+iyLEfeysvyioImVGUNIXaUp2fncGqDawf9+7e8CJ6f8BxqO3r0aOk9gXsfWsRP/+4/wW3gPYErD+1Fm78nQD5RbpEIJDiIE90y3UFLvmyzIeef4o3zF0fsmG8YfOTQcUbvCRA+BIfe+jr+7b++GSeOP8qUZRi0uBwaXpI6U9gz5HcB6t4FeLy+EyBLFpwpND0XL3C2Op4qMGyQB19oPHxyPnqRrmrOQN4BkPRcOPsUjhw5sqGhx87YJA5/709h6+4L4VNnbZ2zpPwT8IZeAoGlsbRKf27eE8jzzDz1E6cAPU0pQWFhdhYnT5xqdsAGLjuwFb/wtpdifX0dRVGUHX7VVhUEvvLgAv63//yFVD5DKJQEh9w5uhMYyeH5il9rIXKwxO+cw5apNvI8fGuT8gP9MFfcMX4jV/QWz/kb/J5AOajEdv7DJ/4nfvk9P80c1TDMkMmwb3cOA4OullHzJNBtt902cAjrTOChk/O444MfPeM5AGzA6T1TgsBrrr90Q0/efKPhLl5McNirfwAYn96Gl/3Ln6E7AM5LnamXK3IdEmKXZB1+FR/84/89gVZOTh6iR/ypK/Glq4gSNQcXccCSArj8wDb8H297CVZXV5HnOfr9fuTwq14ei+YEZIuAj72n8SlKJI9JQJbZirE3Q7THU982j2UprRehAY8SPuzKMWWRfQHPx8pimJO9uMxcTsNHZS+RhEOvP4q/9gXX4+rnNT/pI5/sa4JhrnKHgTMJAIcPH8bRo0cflwBwxwc/gtf+uyNnFQCGfcntWXjygfS1jQz/AMDmnRfgVT/4cyEA6GnP/kv/CCmnpZyuetrqOW0xJs+c4xGv+MD0j/kikRGzla0rAgU/wstHe3p2iL4xbPBUNtGvmXHK6rz36Pf7KIoCrVb8sETq672sIppClMeXuc45wEYQzgtXwvTUD4hM5rYBOOQO+o4AEQc+kmEupRM8Eny46iY7wFfzgmT2gDdy1CqmEz6RI3Kb8aLKlDCSH/C3vPVHiKkGjh07NtQt8E3XX3pWTwwNEwDSR0FluOpcDv3I8Nbz3vprZ31Vft3BfUMNbT3TwC7f8GSEI0eOnJHzB4CdF1yKV37/z2JsktaaCudaON/1T32VnKsE6j/UdyjGCGOc+A/RwwJUn/1jH6A0Vp/4BxUkbw3zU0Esg9ynrLAQVl0mOSRTykV2mFT06R49+t/v96N3wKqg9k6gKo02E528B0U3+qCAofGArITneeMV8yR6BjqRI3hhifFkj/CzDMKybt61eBam5dP9QCcR2xs5qqmED3YFk4Pdgt+xaxfeePMPEGMN3HXXXQOvtPdsm8YPneEdwTABAMmjoMOu7DkMWMd/roZkhh0CeibCkzUI3HrrrThw4MBQb/5WwZU3/Au84pbb0e6MyanI55rxI3pOhnM9+BB1EcTL57Sc73K2i2+Qc1j0iIzUbwR9wRaIvuAWaMd7ek/Ae/reCij1IN8p71nR18Hk2Og3W7CTUwZ5v0CPC/quizz6X5Ij7wlUQbiKDmm0SZST6MMRjaIgjTvRW8IcbSUiyhtwnEeyRIf+hKDZgCdbJPqRbgmFJL/mip5lim2ab+QoaSVeVJl6YLuCCMK+9l98Dy46eIkwV8Idd9wxVCDYyNCQTAIPEwDSq7Kmz/c1gazhI0M959LxC8jjh89CNezZVv948hMJd911l171O+dw5MiRgUOfVbDlvP246W2/hKsOfxedYuEso1TOVfVL4dymc17Odz11mVkO+GTms13OXc1WTOpzmvQZG+2Oc/zGsKOVllUGrR1E3xWgB234tQE1U8pH5WWL1EAtFVtJII6+KAr0+30NBBa893Bf/epXvRAK070PLZpHRD0gExd6xFGYIXMOV15qPi+pfLzvzIfn+XjL9Ahy5yomeKsmgInO1idKE7zx0z4iR3l4Qlr4RE55grcKz/qNXdXyq/EPP/gA3v2WZsc6zGOjAg+dnMeHP/7FygnjPfwhlWGDRRoAAODo0aNDDQOJc//MgAXczgXQ2kpn/r3ccx2MnqzwoffeUvvkjjjhYdp2o3AXfz/67rvv1v2zhWte9t244pso4Mu1qvgduUKGpPDwVRO6EY3J9+zXjH+L8YaHfyj18MoX0yttVT7ry3KHLG/z0z+MJ7dUafPC7GmcOnmS+F3CUAGXzmzFf3jr9VhdXQUQgofjSeE8z/WpIZ0kvvfee0tPB8VBIAUywtung7IMV1y6FyPtNoCCoxEZqY9cSjTm/K3TI8gyjq6cX3b+sj8MfkBwqMVz/jl+Okh18PHffPQv8b5f+T9YQjVsJBCAg4E83vfwyfkNrz1UtyaLnBB18Gcf/yJ+88OfOCfPmQ8D5+KJlzNdiuKpBp963zvSLAVp78P8jWfw3A8GBAZx6Da977779OLhXDh8CzsvOIQX3vRD2Lzz/MRZVzhX5inls7OGcCZBo5YP/nF+OihDnrdQ+AIOGbyjlByzviYgo+ZYmJ/HyeMnmJvkkLuqfjrospmt+Pm3Xo+VlRW9U7AOXz48T/6bA4QNAnI38NWHl0IQYCXe3AmkkGUZ3Qm0eckJCB8oIGSA8zY40PcEcvK+lU5T5Jy1s1dZ6ZV6nTPfuLOnvFR+igf+4y/+HP7urr/mnGqQ8fimk/JcQF0AwJB3Ar/x4U/gwx//4uMaCF5z/aW46fpLNxTY6uDZIFB91/dkgk3b9+Lal78JF1z6wkYnHDlWdeq0I/6pii/OJz/0uNwJVNpBerKWOGEhCEkswwMuw/zsHE6dSO8E6kHuBNIgYLc8p4/d6x2BBIDaqz8jCFaYCFenhzDgD9B6GBmvk00Z7FV5fSEWTTKM93QkMezG+OBoZYxM9It9vGvGzEQO5yqd8IkckduMF1XBrlh+ig/8P/SOd2HXnvq13mGe0jnXV1cWbr/99toAAH6CYxC8+aYX4kPvvQXvf+cbdB2iumGIjYBc9X/qfe8Y+lvHeByuRp+KMKiunqx1NLFpO17yurfide/4Fey/7IXhJONzkVI5x/RUNOcanXlyzum+nMfsbxBEGN9hpYkwxll94gLUNyR/bJ/SWH1iOwuSVUSdow8GOP64lqzWk2WynhA9JURySKaUS/klFX0ccJp8uswRyPJA7itf+UrtcJDTN4ZDpKyCLMtw5SV70RnJ4TxXiKcoA9CVPOwVNsB3AvRWmdYPMMQVdYqX+q2+E7B44Ql4N8QbwVV4p3apzJJd1fj7vvZV/OTb30KIBpiZmcHNN988cMJ4o1D3NrCFs7kbkavtT9/zYDRUheRLU3u2TWP3tmns2TaF3bx/po/ByjPnTX30mXAnMGjYzDqLJwNs2r4Xh174Klz6wleHK3Nuw/KVtMnjH7li9gP4SjwIV+ZVdxAlWkvfwBelpXzayXJaaFPwYj+8p++uaDbpOT27sS+LXTqzBT//lnAnoIGs4kUxmSOIgoAdDrrjD7+cyo/Bk3P3PCdw5aX70GnnADtsB/lhp6pfK6N0y1TnrOcEVB5ll5w28VfgnRtqzL/EV8KzfmOXHKsNJTzwyf/5t/jl9w527ucyEMg7CcMOB9xyyy247bbbzigQPJFgg9qzQeDJHwTydgcXXfVSXHztYezcf6jkSMvOk1PGlPOTY0MfxujNWj6so4kPNqiU8Mlxpb6gR2hkP8tz5BkvG+FEAI3RixxGAB6Ynztd88Yw+SEfdgCeE/i5N78Qq6urpSBgnX90LAGg/gSSyvBUkZKmFSMlpdfeaEXRoqCV8WyNMSPxyL4R5L1WRUSrx5bURmOyK5AGYvtLuzFW5DCSy2nxMbuoijqmJfJkW4wPzC948Uvx9h//KcmohWPHjuGOO+7AgQMHzjgQHONVSw8cODB0AAAPCZ3pY31PFNx4440D72qeSdD0jsBG2v7xgB17L8JLX/cWfO9P/hZe+rq3VgQA3eNMOWl4S89BOdTTXs5Z/pM80AlopPOO1SNp8E9BbkwRfEPyZ/VZHrvDsimPvi5GebSaQsTN3xGo/rIY0UR+NXAGepNvIfX52fz8PGRbWFjAwsIClpeXDUuIJLDjUBJdAB5W4QlgfWs4o6/jZBkylxMNf28g8NOPjqA5uVpJ8cGUcFUttkhekCtyhFNsFj4qh5ZM5dTjSabYVZavPxX4avkvvfFleOuPvIsyB4ANBsOM1yNx/mfqKO+44w7ceuutT7pAcOTIkQ0HtWcCNAWBJ7oNO6PjuPCKF+Gl3/FD+J4f/3V8x7/+eRx63ivQGRlVv4FwWoRzWTP5pJNzV8+xAOFcox0i4z+50mXZQY+kRp9Ki/WRLzJ6WECkx+iD6kn0ie2cuszBuZyFylvDMN8eZl/q6C1ikmPKInJEp6mXot/H2toapqamMDU1hcnJSUxNTWF6erpym5qagvvUpz6lw0HgSYNjx1fxCx+6H27YVUQzhysP7cNIm5ZIzRDqU495OMXzEtObpzv8dFCoH2JLh0/C8Eo1XvjJQKlv0TcQL22jtIYPGGLOQPiHGb4Kx8J/90f/Er/+y7/AOcPBzMwMZmZmcMMNN+hwzczMjDpFeVb7XMHMzAxuu+22x2UF0Y3AEf7QfZ1Dq7vywTNkOKjp7fCNrtI5LLQ7o5jcvB2Tm7dhYtN2bNq6C7svugI79l4ERFemNaniPZ0ljKjii/O8GeZp5tP8ijsPmx/RWFqlN3MCw+gr8fGcQJ7Rlb7jzwvbddcAODh9hPT0HD0d1OiADVy8bwr/+w88HxMTEyEQJls6HBQFAdmOHV/FL/5Z3QkTCiXBIc8yXHloLzqdFjm8LJTKjq3TzrmbE4jxsZN2TFg3th/wnP84vycQ8IFfju/54j/jP9zxM1iYf/wetzwX8I0KBoOcP9i2o0ePptkKz4Qg0PSiWN0jwdNbduDyF9wY+RjPP1neQqvdQavdQd7uoNXqIG+30eqMYnRiGpObtqEzOkE81vmVHDY5w3AZWDNGX8NHZwtl1DvbNLX6jGyrr4oP/nF+TyBHluc8BCR6OEg4vmo2fBtdRfTgvmn87Pdfh4mJibKzrwsEn/zkJ71GtaogwEp843sCDldeug+j7RY86HVnaQKo8yuQuYzyncPmKbkTaHaaZ+3sVVa9M5Y8y1ePj+1U2pL8FN8s/8TxR/Hvb/tp3H9fvaN7PGDHjh0YnxjHfcfuS1GNIC8cSUA410HhyJEjuPvuuysdVxU8GwSa3xGoCwIHr74e3/5976pwcsY5DXLCVY48ccJNfJQ/vL5Yj+TRTpBX5ovzrZ7qiWDl4R9KqVxN9lXbQXroTsDRosoOFDgcfX3RafAJ9pyem8PsiVOx02+Ai/dN4z0cBCodfkUwCA/21wF7NuccYAVwngN0XIwffwVcyFM6lzO/rJrHTtAJFfGJgLAb44OjJTtIV0BG+tV2KzfQCZ/IEbnNeFEV7Irlp/iUv1r+jvPOw8/9yq/iuc9vXn76XMKrXv0t+I3feT/e95v/CS9/5ctTdCPcxevA33jjjThw4ABuvPFGdTSybEDTlbsFWWdGFhlzztU6rWehGuruAATqhgentuzg81POG9703JFzTDGGUDq19GTp+5RH2XQe6J+eG0FMpEdPDNFT1qc8Rh/JtnpkM/oik225RJoIM7ZYPSxA9SXlgpYr0Se2Sybo/QA48pmqi+cB1GZeSZTkkEwpF9lh0iC5BBJQqsB7X74TkDmBX/yzB+CGfE/AZQ5XHdqnawfRaJC98ueQ6HgNoQzYMtV5Rr4nEPD1dv3NX38Uv/s7v4XZU6eY8tzCxMQE3vXjP4brX3J9dAXzu0d+F3/4+3+Ykp811N0lDBskhoFn+p3AoJVVDxw4UFnfN77+B3DNS7+14orZXpHyFWpyheuZQfMY4e2VtaGvTBVv9VXzxXo2qM/yWH2caflKtCX7qvmitJRPOy7P0cpyWlnZ2i0Moo/350/N4dTJ4b8sdvG+Kbzn+59XOydQdVeQ2ShiHb3k2zTa1GlxMEvzHL0qTPmiLKMXhvnP4kmH/lDOADzZIk6VoqJ4WJIf450cqE1si+ETOUpaiRdVYkewK4jQUib4BrtY3w2veCXed+T/xv9yy60YGRkRxWcNW7Zsxvf/4C343d8/ghe/9MVGN9n5r275Prz9R9+esp01yF1Buj0L5w4GrR5aV99jE5N6HnHXBrgfAtSPaZc7vfbhgHOh22tfIplyDqg0PRdK+lRIoifSZ/RYfXK+WX2EDPqYQXiJSTJTPWV94VyO/Ua1PmOj3WF60eEcXUDT00K8D1qQMxO/KvOmXD4qL1ukBmqp4ExgqYIqXJbnOVzjlb5EKk9RV9Ik6nnwqnhML98Q8N7DQyadC3hPhfLKSPggiKTFeAZCGVIbjUlfIA3E9pd2Y6zIYSTbbfExu6gSywhviDzZFuNjZiuf8gRLx61OB9/5pu/BB/7wj/D2d70bV197rb7mvVHYv/8CvPPdP4rf+4P/G2980xsxPjFhrkBCewIer/rWV+M/vv/XccWVVyZSnoUnM5zp46Gt9ij31agbhlQ7qnRi01/N+aY8Ss7nDZ392r/kXCnpU1lN+pgkUBJK9PA56UWP+hHRb0RE5ZLUlEvlxhTh3E3+rD7LY3eYj2STAl/IN1boa2IeND/g5VuMhbCbsoguNVCUWL0hL4UUl/V6vQHOhaJMFIVstOfok4Gee6WvBtOq2ULvILch/J0Bjar0Q0ccQSvxwRQNfhIJNS/YJXKEU2wWPrJLS6Zy6vEkU+wqy9efCvwA+SJc8MwnIsfGx/Dyb/kW3PHz/wG/8/u/jx9861tx+ZVXYmKCnspIYWx8DNc+91p813d/F/63238aR37vA/jN33k/Xv2t34J2m5/eEj1iZ2QrsH9mBj//iz+Pn/2599QO5TwLTy5oCgJ18wEAouf2pU+a7hzOMduXpb867rTceak/h/OB0NKf+U/PjSAG3B9VjyBFmBom1MwjMkQP85Me6ddGnxERl0ukxfqorEYPC4j0GH1QPYk+sd0UjcrJfBl5zYz5eZqA7wREjikLy1Odpl7CXtnZW7A49/d///ceoPV/5LuU5TmBKNiUwGUOVx/ah85IDvAkNmTJIKk0Lxk0pr55uv3sewJGXp18a3cqf252Fvff/3Xc//WvY2xkBJdfeTn27NlTKYcakMcyK8YiPf+EK4mQ/7nPfBYf/chHcPed9c7kiYCRkVF8++u/E//wqU/i6L33RLhBcwJP9+8JnOk7Am96x89h9/6D5ate6S/ST/jH9o84z1OP85RGfLY/paniK/Ql9HHeBvXxT6wvzo9oLK3SmzmBYfSV+GhOIOe1g0SPMGp5ZGTGOcyfou8JqOABcPG+KfzsrWf4dJCsKqfRL0oto8URb5gTCF8So5XwHDL5Qk6WyECIYho/1RNyDutqxotTlMhINgX5A/CSr+WRfJEd8yle5QS7xE5rt8UzdWRXk/zU7pjEYevWrbj6mqvxmte+Bq941bdgz569SiRyVY+pd9EbZLPlUijWIbKufu41eOe//XH8wX/7I7zlh9+Gi55DLwI9EbB950687FXfhh/9X38G/+fv/B5e853fjc2bt6Rkz3houhNoGg5qd0a0b9g+Jn1Z+gd3OsXqoWaHPhT6m5wDKk3PhVSfyrb6jDVWfUkfnw/1+lhSqi8qAHM5lmz1BWw4j1J9YpM1W/QYfSqDR0tEFuTtYJqopZUWBK96WYaVaVO2c6MQjQOlgQAIoc17HsOS8SwT9QrGe3n9je8cvKcxLfr0cPhymbfR1tOYGgkUoTL+JRHS4sOuHLM1rFDwfKwshjnZk/IohsffhI/KXiIJh15/DD7YbVEq39gdyydim2VVC5B0IhI55oCwUX1I9UjZRE8ob6Qpspkyxicm8K3f/m34pV/7Nfzqr/863vLDP4xve81rcMmhQxgZHbXEZwWXXXEV3vR9t+K9v/J/4Zd+/bfwfT/0Vlxz3fPR7nQAQNNnIUDTI6L33Vf/Dki7w3MCcfcxfVcybYfgPHOoiZLbcfLQv+RciWiZXtMB+iK11H21v4c/QpbLJTtWj6Qmj+WmFOHcTf6YLxIZMbNsnjclbeIPSRkP/9N8akHfGg6+VmSHvKjOBKzvZoj9Wwzee7jPfe5zpTeGjz66gp//7/VXDwArduTts8zhqssuwEgnB9JhiJrAuHmyjVzWygaIz9CXh0/SYSGRVTF84uhRVMVHcunHlewMwzLD4WO7OLtiWKiOv0a+ymK8LbOUT3QZvnp8sBOmv9i+SalnSb76M321fJLv8fCDD+PrX78P9x09ipXlFaytrWF9fQ1ra2Er+v3oRJmcnsZ5u3Zj+46dOG/3bjznkksxOjraqO+3f/1X8bE7P8qYAE2d/ek+HNT0oljd46EA8Naf/W2MT242Tobyfdrm4odNe2MjwyMVfFYu71bokbxEj8VX6pHjRF9KU6Uv4UtpCZ+k4PNHziOrz9DlspS00efgUPDZV/CoOR07nJ6dwynzxrAA8ZmUBR66YDPuuPW5pSGg9DjavvSlL5WCwFcfXsLP/pd74DbwnsDVh85Hp5Oz85bXmRmfOG84YPNU+9n3BGrtasJzmi5z0WA3mUvdpfFkqurkmp+ctMnJW3VShNfva/TV8dmTNjlJAeCDv/mfcNdf/XnIYGjqoz/z/j/Bn//D19PspwWc6TsCAPBvfu730B6pCrq23bgdk/5h20d52QlGzrOqnRv1VfPFejaoz/JYfZxp+Uq0Jfuq+aK0lE87WYuDQCEX0WYNIeEx+ubn5nDqxPDvCRzavxnv/cEXYH19HZ5996Ct9rEgxx7GptGG4JTkeVYay3KUz/sZj3GBZ7/hoONocCyX3ZfwEQUG4skWCFa8IR/RscU7OWCZdGjyjRwlrcSLKlMPbFcQoaVM8A12DbKbZQNGvqEzB5HdpN6Ul4+DbMrTVPREOplT2sMxb8CwXDGjWZ8KtjpYj2RYPcRGuHaLXkp8FgjO9B0BOIfOKD8dxPVva59IJFPaLRBq/2ImIgvtrX00SGMRFfpUSKIn0mf0WH1sS6SPkEEfMwgvMUlmqqesz/ZjQjfpMzbaHUbSl8VyToEM/AVGfXvYlIdlyTGVl+WogVoqtQv8sM8wMAQVRSDvPUVdSU2UozkBHvMveHzMCR2NbQUZiK4qhUZVeQ+isHgGQhlSG41JXyANxPaXdmOsyGEkl9PiY3ZRJZYR3hB5si3Gx8xWPuUJlo4ti1Vt6bzhE7kRPjoOaNpn7Z7tUa4grlpxSFWGcsdmRBtXAtksgo39DfqCStrJW21D9yyc6aTwxOQmaqvkrot3KdU+lLQoNarKUh4ll3bTnkr7zFfSV+oTVfqYJFASSvT4oC3oNvqsiKhckppymW4a8eq5m/xZfZbH7rBsDw/4gr654hHSAnT37OkOIbJB68zoCkhWEvTKB8KGCQSDKTimRVHIRnud5c7g8gxZntEdAPi9APDbwyYYZo4KSQFNYqxEQYmWFh9M0eAnEU/zgl0iRzjFZuGjcmjJVE49nmSKXWX5+lOBHyBfhAue+YxItUP4RI6Va/FiSSh3kMciSY/YGdnK0mOzmMsKYflirWMtrFL1GH0QPak+y6Dqgr5gExG12xsPAnu2b06znjbQFASa3hEYn9pk2j/tH7QjfSy0lyBMG3HDcTNpm2q72T+WqbQiweoRpAhTw4SaeUSG6GF+0mPLxfqMiLhcIi3WR2U1elhApMfog+pJ9IntLNOBvy0s31tnIqffE+YfXkuI8kxZGK86pVBiK4PnC7XSwz4J1AaB6EqRo060mehUFAVFqKJAUdDdQMGRzgMo+Ms54fs5YeabZIguo88cV+OFXwJhOKYIavFEJHl2X+RI1KUoHeRavOhVfmMnzLHqN3aKYZF8qUOVn9rNciObK8oXKifIZb22jFqeSE+gEX6qS9bD5UnLrqmWUXSKKWV9Ea9YyWVk0SyPy230yQZ4tDsbDwJPZxg0HFQHYxPTpm61GUx7mXazbc8dI6Kx7cZ5nvmiP8WZ/lWhTy0xhpEeRg/SF5VLaIU36PGaGfbjcoX60LRGn9hCcuNySTmIVr64SH6zEB7aYdlEU/BbxKE8VpdJRZ9qDvr9gDuCWoyNQBRlZbM4ywD9Mo7QSDykuQCORhzRaDltidZJBJScRE41XqKfREYxR6LkALzka3mCjUQe8yle5QS7xE5rt8UzdWRXk/zU7phEbOd8ka8mmPYC00t5GB9ks+VSKNahCglJPFJObjuDYT2yic1Mw/aJPiNYdylbOSI9KhNAp3Pu1lN6OkDTncDdd9+dZimMT27Sek26T9xuijTtVsoOfYj6Abeb/jENIUv6VLbVZ6yx6kv6tAx1+lhSqi8qgPQ3lmz1BWzUFyN9YpM1W/QYfRld3hMvryRKcwFyPok83pcHVwSvdIlsURcpJ5BAkOd5igKagoCCREMT6STySADyXG550tXEVTh5voWjHgrC9PVbxEIpjMIdjmN82JVjtoZ4Fc/HymKYkz0bSUVOoJaIWyIJh15/DD7YbVEq39gdyydim2VVC5B0rkPOMQeEjepDqkfKJnpCeSNNkc0GJwU3VyARN9eNsIY6EK228pr1kTyjh9O69wSaxr+fztD0jkATjE1OU1txf0Rdu0nDGmx6qImSs8zQU2nfM87SMr2mA/RFarW/UT8Jf4Qsl0t2rB5JTZ7pprE+OTeTP+aLREbMLFt9tJRJ1g6Sfs7WewDOo6hcO0gMS9JEtYDjpzt9RSBw6SqilcB4G4UoAnJ0YhIdd+JI6pCZp4EQ7gSyjO4Y+BFHiaakRPQFuUjwGvwkWop8RjK7iaZBjlgmdMInckRuM15UBbti+Sk+5R8gX+RIVlX5WE5t+SN8sIvIZZ/b0bSn6FWhLEskUiI4li8SWTaboexWH6ROUn2WwegjU4weTsdGxyzhULBvz3lp1tMCBgWAxjmBmjsBbS9tN2kNs0m7EREl/CNtKn0p+hN9Qsu2qB7pC6qnrE95jD6SbfXIZvRFJttyiTQRZmyxeliA6kvKBS1Xok9st6lQiD5rk6O7A8efGxAcsfN5kKZCp3t8bHAyWSyBQHBZSiiQXn1JJNHNRCcfHnmF42jkfUHzAnzlD1+gKAo45u9JROXoTTr0R+WmeBstyRaJfhS6GR3jWZjYHvYDnYRQsjXIrcYHu4LJwe4YH3SK3VY+UvlqH2cZmyVf6GrLH9kdbCBasVnyeFNdIosSER3bblIto+hkU21eVC6xiWUS0ugLSq0+2QCP0fFxpnkWrju4N80aGuruBLS9tN2oNZSICRUntMRgZHLfsH8V+iI93D+CnkRf1EMa9GmfYRwzsIiGckkfjfWJDJUpOky5xBaIPtoVAeygWUeVnSIH9F2XogD6Bc2rBjqxL0lFn2qu9usSCFrmMWsdDkoZNAqaNNo4iIEdv9OXDgRHD77SjDevhZHlTMyVo1FadOiPBssmPNki0S9EcLUiwTs5YJl0aPKNHCWtxIsqUw9sVxDBOkr4BrsG2c2yASPf0JmDyG5Sb8rLx0E25WkqeiKdzCntwf3AYFiumNGsTwVbHaxHMqweYiPc+Hj1CqrPQhmahsimNm3VeuXmiWof0m7SLkLEhNq/mInIQntrHw3SWESFPhWS6In0GT1Wn5bB6CNk0McMwktMkpnqKeuz/ZjQTfqMjWbHZfwigMhi+iAz0GdZxh/nqpsTkNQqEclchhqQoCF3BNGcQDUjR8M0+kiUYwrHdwIcz3jmm1+Dc0wsxx7o9QsTNY0gDp3eHGtsY96AkmjOOaWIqJjAiCBT8kUOI7mcFh+ziyqxTMqhRJ5si/Exs5VPeYKlY8tiVVs6b/hEboSPjgOa9lm7Z3uUK4irVhxSlaHcsRnRxpVANotgY3+DvqCSdkbHq4eDmhzemT5B82SH59asHIoBQ0EAML11J7WVtH/SHJA6F6TdqFFVlvIoebiqNWcCnwsV+kp9okofkwRKQokeH7QF3UafFRGVS1JTLtNNI149d5M/q8/ymB16aZb0KD29ZEUyuS3g6dsChac7AWI3ZRFeNVCUkPRqP04guH6/D8gyFgkNnHO6pg/naL5GIRvtVbDGIDj+fkCW5UDGb8Qxn2wOQLfb532JaLEs2lUs42VXbJG8IFfkRFGRGZ3QceTViGrklvEkU+wqy9efCvwA+SJc8MxnRKodwidyrFyLF0tCuYM8Fkl6xM7IVpYem8VcVgjLF2sda2GVqsfog+hJ9VkGVRf0BZuIaHzs2TuBYaApKALAlu27Tfun/YN2pI+F9hKEaSNuOG4mbVNtN/vHMpVWJFg9ghRhaphQM4/IED3MT3psuVifERGXS6TF+qisRg8LiPQYfVA9iT6WleUZU9sREuZjGt0yWpFZoklUFtoJOk29tPKwn4KlgwkEpSAAAKMjeXylyFEn2kx08t6j2+3Sm8FETnMBRQEU/J4Aj0XJU0IeHmvrPZYhuow+c1yNF1skEIZjCJ/iiUjy7L7IIR7WbORavOhVfmOnlInJDD7ojPm5qtQmqvvYbpYb2VxRvlA5QS7rtWXU8kR6Ao3wU12yHi5PWnZNtYyiU0wp64t4xUouI4tmeVxuo082PDsnEEHTnEBTEBif2oys1TJ1q81g2su0m2177hgRjW03zvPMF/0pzvSvCn1qiTGM9DB6kL6oXEIrvEGP18ywH5cr1IemNfrEFpIbl8tl9DAMHRf0TpWXd6vCCsvw9GWxoijQ7xfo9XpGb9iCLE4ZxkfKS6qkzt9CURTIVlZWsLy8HG3or4UoyKEsRCkTIVm2A7C23kcr5zH/jNYSChEV5j2B8EZx3zteNc/IE30smCJgE54jtEZjsclE2Ca85Gt5JF9kx3yKVznBLo3/xm6LZ+rIrib5qd0xidjO+SJfTTDtBaaX8jA+yGbLpVCsQxUSkniknNwfDIb1yCY2Mw3bJ/qMYN2lbOWI9KhMAJOTGx/aaXqW/qkMTU8HNS0hvWnrTu4joW9QexFE7aZI026l7NCHqB9wu+kf0xCypE9lW33GGqu+pE/LUKePJaX6ogIwl2PJVl/ARn0x0ic2WbNFj6zjI+cMp7LWWsaf+M14BCYTOu9R9PpGb+C1sjUFMNJ26Ha7GB8fx8TEBCYmJqJ9u01OTmJiYoI+L9nv96OtnYXIIqHTRjqJPBKAPIDVtXW0W5kJ4BxhJdDKjsjh47X1nsR0CbkclcNxjA+7qktyWB8dqeKAF2SyZyOpyAnUIUInJOHQ64/BB7stSuUbu2P5RGyzrGoBuQLhf+ULJsRyxUSxSn+1PYSKIbLZ4KTg5gok4ua6EdZQB6LVVl6zPpJn9AifAzoV7wo0Xfk+E6GpPjZt28l9hPsq139lu0nDGmx6qImSs0xuc5bGeqRtgwjbrwbpi9Rqf6N+Ev4IWS6X7Fg9kpo8001jfXJuJn/MF4mUfQd6W6qAviWstnrQiAmAgr81LCMqvX6BXr9HYrTOwvkQ1RnDWIdGcVqtFvI8r9xarVaEL00MO+fQafEz/pSpOIlCFAGZnklW13tod2gOQKKp/ZoYTQ7wUnm8phCcQ7fHtQROOJSG3RDX4+gskVG4xT6jX223cgOd8IkckduMF1XBrlh+ik/5B8gXOZJVVT6WU1v+CB/sInLZJ7xuaotRyrJEIiWCY/kikWWzGcpu9UHqJNVnGYw+MsXoMfrGKp4QanJ6T0eo+5ykQFN9bNp6HtWkk74QNzvVtbSbtIbZpN2IiBL+kTaVvhT9iT6hZXtUj/QF1VPWpzxGH8m2emQz+iKTbblEmggztlg9LED1JeWClivWl7dyGg7KEJ6adLl+c52eGuIvMPIYvQcPp7ODlzJIucgOkzKMj5aHgwSUN4HKOQHnHDZPkDB7FRZtJjp5D6yudOEA/W5wgRDt4D08aBxMnhqip1+BfuGxstZlHfqjclWGOdY4rFEZFHL5GPbKQCK6sT3sBzqJ3movZ1Xjg13B5GB3jA86xW4rH6l8tY+zjM2SL3S15Y/sDjYQrdgsebypLpFFiYiObTepllF0sqk2LyqX2MQyCWn0BaVWn2ySPzq2sXmBpmGTpyoMeuKpKQhMb62/E9D20najWlciJlSc0BKDkcl9w/5V6Iv0cP8IehJ9UQ9p0Kd9hnHMwCIayiV9NNYnMlSm6DDlElsg+pjXwZHvK8SmAh78HpUPzp4WUfAo4NDr9Wk+gEwx5RH7kpRh+3R5SZU65y+Q1RHs20afC9RoqJFVIi5FOXCkXF3vwcGh06F5AbqToCipcZOjKJzTlUUz57C27tGXj6QoHwkmXWJDjBd5jCWc2iRRMuCdHLBMOjT5Ro6SVuJFlakHtiuIYB0lfINdg+xm2YCRb+jMQWQ3qTfl5eMgm/I0FT2RTuaU9uB+YDAsV8xo1qeCrQ7WIxlWD7EFfdObyk69aQwcT8NA0DTPMejx0G3n7Q1txPUbNwfXtfYpabdAqP2LmYgstLf20SCNRVToUyGJnkif0WP1aRmMPkIGfcwgvMQkmamesj4pg/ZFNOkLetrtFjLHKypn/HQQfzggi/TJd1cy+mSN9+j3emqmlI/KyxapgVoqnL9zkrPYPoOzYPGll8Uk3bddvhnL0TCNPhTwlGJpZQ1r3S5aOc+CS2LEaHYAAGHTSURBVGTlzeuXr+iXh7/ozgAeyys9CXlML6whqqo4RUk05xwTEYP++Jd2Y6zIYSSX0+JjdlEllkn0VyK+iojxMbOVT3mCpWPLYlVbOm/4RG6Ej44DmvZZu2d7lCuIq1YcUpWh3LEZ0caVQDaLYGN/g76gMujbvGWroX1mQlMQaLoLAICd+y7kPiJ9tdwckDoXpN2oUVWe8ii5tJv2VNpnvpK+Up+o0sckgZJQoscHbUG30WdFROWS1JTLdNOIV8/d5M/qY9osy/j7AHSuyOoJ8bkQVMtqov2C3qdaW1sL8rTOjC41UKiAC86bGMrxW6gdDtq7VYKACQ42GolQwXngkccWkGcOrTzX6Em8GV35mygm418SFfsFsN4rFE84+lGTo+gstkhesEuia9AfGJ3QabQOcurxJFPsKsvXnwr8APkiXPDMZ0SqHcIncqxcixdLQrmDPBZJesTOyFaWHpvFXFZIaEsqE2thlarH6IPoSfVZBlUX9AWbgr6qIDDI8TU5zacinOnjoVt37kG7PaJ9hNo/7R+0I30stJcgTBtxw3EzaZtqu9k/lqm0IsHqEaQIU8OEmnlEhuhh/nK5WJ8REZdLpMX6qKxGDwuI9Bh9UD2U5nlOtDo3KnxCE/LhyCfCOV5SGlhdXjZ2m7IwnepkO3dsHsVIu7xAnGx1kHU6nUqii3bTmKtGLYlmspnoJDQPPTIH74FOKzOr39H3OO1zsQB9b0DHxFj+8iq9NyAR1etVClWKHGsclqhsIiOjja3MY2y3+xqZWQ5F5yDX4kWv8hs7YY5Vv7FTDIvkSx2q/NRulhvZXFG+UDlBLuu1ZdTyRHoCjfBTXbIeLk9adk21jKJTTCnri3jFSi4ji2Z5XG6jTzaRuHnrNqqwZzA0DW81DY3t3HtAWs3UrTaDaS/TbrbtuWNENLbdOM8zX/SnONO/KvSpJcYw0sPoQfqicgmt8AY9XjPDflyuUB+a1ugTW+A9sjwL9PztAOIp6JvCorvgLy/KtwOKAv2iwMryEvq8qkLQG7ZgJ6cALt5L/WGQ47d45xyybreriwkJk3MOOzeNYNsUBQiKsiaaKR0L5d/5xVWsrHTRbufocERy9BlNWjvIha/n5C5HluX8HWJ5WghYXitIHx87Z2InR8AYH/S7cEAUYm8TXvK1PCGiE3nMp3iVE+wSO63dFs/UkV1N8lO7YxKxnfNFvppg2gtML+VhfJDNlkuhWIcqJCTxSDmdqTeVxnXG9pE5TMP2iT4jWHcpWzkiPSqTMVu2bvxOYNBE6lMJmgIABswJ7Nx3ofYBqdek+8TtpkjTbqXs0Icc84VzwLQpIUv6VLbVZ6yx6kv6tAx1+lhSqi8qAHM5lmz1BWzUFyN9YpMDf12RRkOg51ZGj//Ix11Et3w9jB+c7PXpvYDlpRXWx/rlfDPnXVIhuPbirQGXgNpbgc+cc+j1etGqcmCmqw9Ma+i0kU4jpERVw/fAo3OAvHUMGQcDfymHIpvjt+LorWKOjqCXidfWe1hd72vk1oipx2FXjtkaMkjxIeyH32Cp3ZPyKEaivsWXScKh1x+DD3ZblMo3dsfyidhmWdUCcgXC/8oXTIjliolilf76UN5IU2SzwWmjh3qLuLluhDXUgWi1ldesj+QZPUbf5i0bvxN4Og0HNQ0FDYKde2ek9amtuD+irt2kYQ02PdREyVkmt7m2nGecpWV6TQfoi9Rqf6N+Ev4IWS6X7Fg9kpo8001jfXJuJn/C52jJnEAPvfLXTYR7endAJkj7/OZwv9/H6spKrFvrLJwPts4cgGufE58TTY5fwMnEsHOOXhJrtyOGK/ZPaZSxUchxdAspCwTwEAeBPMsw2mnReBj4tWn95gDPCWTmXQLwXYPLsLpWoNsrOFiGuB5HZ4mMEt3FPt4VvNjHCGfohE/kiNxmvKgKdsXyU3zKP0C+yJGsqvKxnNryR/hgF5HLPte7aU/Rq0JZlkikRHAsXySybDZD2a0+SJ2k+iyD0UemGD1G3+Zt1XcCg+4GninQVA+79x/kWuR+Fp030rzcQtw23Iphk3YjIkr4R9pU+lL0J/qElm1SPdIXVE9Zn/IYfSTb6pHN6ItMtuUSaSLM2GL1sADVl5QLmUO71TLfVhefJgcV5cl5A1DwWj4rS2YuQFIug5SL7AjphXumMDkehvbF9hQsXmiiiWF7R+Ccw5X7N9FkhUQiu5noJFHQA1hd7eLhR0/De4+RTk6Ri6O0/a6wvRMovId3QOEdvU+AAosrPfR6IbqTDaRT47BGZdIvUZoCucGzkaI77Ac6CbneyFFNJbyU3ZRf7RJTBB90it1WPlL5ah9nGZslX+hqyx/ZHWwgWrFZ8nhTXSKLEhEd225SLaPoZFNtXlQusYllEtLoC0qtPtkkv+5OoNH5PY3uBJpWDz1y5EiapbBlx250Rsak1bi9pB1CM1BdS7tRrSsREypOaInByFQtjfoiPdw/gp5EX9RDGvRpn2EcM7CIhnJJH431iQyVKTpMuVp5Tr6MZXnISAc/+lOwLjFC8IVHv0ffD/DeY3F+QaxhXaZ8al+cXnVR9VBQldNPIWu327Cbcw7tdhv9fh+tzOPK/TSOmgqTQAaNVnLg8KWvHafJDucwNtJS+vBEED0N6zIgy2TNDHlelb88BmBxlRZPkmhNQZRoQ1Q0+sMBUSR4JwcuRG9KA5/IUdJKvKgy9cB2BRFyjZDiG+waZDfLBox8Q2cOIrtJvSkvHwfZlKep6Il0MifrJRvVQiVncca2an0q2OpgPZJh9RBb0Dc6OoqxDb8w9vSZEzjT4aALLr6K+45pI67fuDm4rrVPSbsFQu1fzERkob21jwZpLKJCnwpJ9ET6jB6rT8tg9BEy6GMG4SUmyUz1lPVJGbQvItbXbrfId9lygL8fDP5EWCZ6xcZgZ9/34RwwP3ca/X4h1qiZUj4qL8s2ug5fswdZlkEe9KGP0hSlJYGq8rLx8XFUbUVRYGVlBS+5hE6cUvThKAWJyAbW1nu4974TgPfotOgxqTiqAYWzEZykkFS6EwC/Tbyw1NV3CjQ8mugMlsmhmwlJmsHEVor9QimGCZ1Ge8HH7KKKpLBaSyTlivAxs5VPeYKlY8tiVVs6b/hEboSPjk39g+tOUq4P0RsY5EAyWAinKkO5YzOijSuBbBbBxv4GfUGl0eeBnbt2G3qCZ8qdQNPEcNPH5fcfvFJagfuI9NVyc0DqXJB289Q2FiIZyXmtLcd8JX2lPlGlj0kCJaFEjw/agm6jz4qIyiWpKZfpphGvnrvhL8szpuWVkoXZe/1eAI3989e0PMjH8TnU63YBD3TXe1icXwh2W91aZ6ZsbODVF23DRedvx/j4OEZHR9Fut7GysoKlpaXS4qBVefrGsN1EaZZluGzfBLZO8lyBjUYSnTgFRy5Jj95/CqvrPSADxkfaGtV05Tx5V0Bk8F/GdwLOOeRZhgIOSys9vrOw0VlskbxgF+2SPIh9aqOUQ+wNcurxUrg6+fpTgR8gX4QLnvmMSLVD+ESOlWvxYkkod5DHIkmP2BnZytJjs5jLCmH5Yq1jLaxS9Rh9ED2pPsug6oK+YFOsb+8F+w0DQVMQaHKcTyV4zfWXplkR1D4Z5Bz2H7yKa5D/tP3T/kE70sdCewnCtBE3HDeTtqm2W6SPZCqtmmb0CFKEqWFCzTwiQ/Qwf7lcrM+IiMsl0mJ9VFajhwVYPa28hTzjtYFkLSDII5H8NKTMB8hdgQOPdjgaAmIL5k7OinGRVZRlyiKy2dabXnwg0DhHi8JlWemj8gJaN7zVvizm+Jai1crx0kPTFInsZqJTuMrjSAVaGe+f73kE3gN57tBp5xwcaf2gAjQXIGNo3tNsgPcenu8S5LnZbr/AwnIPfRlf02jPUdlExhCILZ6jMm92X+Ro8OYdkWvxolf5ucykMxyrfmOnGBbJlzpU+andLDeyuaJ8XO+RXNZry6jlifQEGuGnumQ9XJ607JpqGUWnmFLWF/GKlVxGFs3yuNxGn2xW376KINB0FYwhFl17KkDTfAAaAuF5ew+gMzYe+gRs3WozmPYy7WbbnjtGRGPbjfMiPabdRB+LAbHF+tQSYxjpYfQgfVG5hFZ4gx6vmWE/LleoD00ZJ5/LpW+ph2+mkI+j4Y+Cv6miT0eC1k6TtYOKHr0btbSwhLW11VAm1Wv0m03s3D49ihdefp4GLIF+v48sy9Bq8XC82VKovRMQKIoCh6/YivERWvOagg9HSImq5teEWhw/uYiTc0twAMY6LbRbFLnoL0Q1idy5o6hJxzSGRhGW3iheXO6h70mXY5UctCkvHBCFym/AS76aLvkiO+ZTvCm74x+N31xHoZz6E/HTUb381O6YJNQTmS2yhYT4VI+ta8YH2Wy5FIp1qEJCEo+U05l6U2lcZ2wfmcM0bJ/oM4J1l7KVI9KjMgXjqoNAnQN8OkHTfEDTpPD+g1dy3YU+IPXKzWOa3LSbIk27lbJDH3LMp33UtikhS/pUttVnrLHqS/q0DHX6WFKqLyoAczmWbPUFLByv+99ut+l9AOd4XSCSKSMdqo/XSNPVQ0EriAIO/S69OOY9cHr2NJVFzJONbZbyUXnFMIfvetlz9PsD6dY3n5AUSGkc2azVUkkIAKNth5dfuYWjj4mQElUtsxxxdP3nL9PdAJzH+EhLlkfS6AZaaTtEabu+RgHI/ZLj3YWlPnp91sLhkq0JYRMwEd7gjaV2T8qjGBOJFV8mCYdefwxeShmjVL6xO5ZPxDbLqhbgWiJxnGMOQh0Gk1imlE30hPJGmiKbDU4KLlckKospuG6ENdSBaLWV16yP5Bk9Vp8H9l4wYxmAIYJAkwN9KsB1B/c1Dms13QldePnztQ20NaSvcv1Xtps0rMGmh5ooOcs0+sD6tL8ZfbZfDdIXqdX+Rv0k/BGyXC7ZsXokNXmmm6a8LuN3oMxbwPDkwD1AV/4qg+R6T5O9cB5AgX63z3cFwOlTsyiKvjkvyjqpbGS3nAc7N4/iW180E4KCAfHfRVHo0FAVHeQR0TQy2AAg8LIrNmNi1NxaCB9HK3Dk4jjKmQ5Lq1184d5HKT/LMDHeRgZ6e1i+WaBDZY4eIXLgCJU5IMt1RVJkFEAWV3ro90k/NLpLlORdlhFMIQRFeaJTe8PBEHhRJdcGqfwUn/IPkC9yJKuqfCyntvwRPthF5LLP7WjaU/SqUJYlEikRHMsXiSybzVB2qw9SJ6k+y2D0kSlGT6Jvy9atmKj4yljtmPjTIAjcdIbzAeOTm3D+hYe0/vTPSV+g+td2444U+lho0UDIDSa0/CNtKn2pUp/Qsn2qR/qC6inrUx6jj2RbPbIZfZHJtlwiTYQZW4yezDm02m1kuhYQrwya8RyA3AHwnCftOsBl4cticOj3eakIOKysrGBxccmUlYyMysj2UhXweeAcbv7WS5Gbb7bYzUKv14sCQbrVLiUNqxDAaCfHt1y9hSMfRaWQgqIdOFJxKtuxB07h/odn4b1H5oDxMfm2KYU6WT2vKDxd7nP8o6sQGjsD6HlaeFp36PRyD2vdsLaGhO4Q+dlOiehiN2cojukk5FIEF1wdXspuys+KuSoMPuhkaZF8pPLVPs4yNku+0IUyqNKAN3pln2jFZsnjTXWJLEpEdGy7SbWMopNNtXlRucQmlklIoy8otfpki/R54KKDh5g+QJ0jxNPgCaGmIHbXXXfV3gld/vwbuIqlvW09SjuEZqC6lnYjPiViQsUJLTEYmUZPg75IjzSs6kn0iZ5B+rTPMI4ZWERDubifVejL8pZ+F4BcEfki0QVeHw0FzXl6uikge3hlhKLoo9/vAfBYXV3DieMnSafoljKJRWSKKQ9tF+ycxA3XlPtC6uBl6/f75PBl2QpDqzkpU7oBwA2Xb8KuzSOUZ6Oq+bXRzG6f//IjODW3DDiglTuMdVoafGX1PJc7IJeIKbKcGVcDv3WcIXPA0mqBlbWCB5RCBCdr6DhkcTlEl1yV2Hyms3zVeFFl6oFtDSJYRwnfYNcgu1k2YOQbOnMQ2U3qTXn5OMimPE1FT6STOVkv2agWKjmLM7ZV61PBVgfrkQyrh9iMPma98prnMn2ApiGRPdumn7KTw6+5/tLGoaAPfvCDaZbCoee+1PQZaa9Qr9w8Ue1D2k3aRYiYUPsXMxFZaG/VF6SxiAp9KiTRE+kzeqw+LYPRR8igjxmEl5gkM9UT62vlLeStFuA8X/3Tlb5z/DSjngv8RUZHzzg6fQaIVkfwHuj1aG20Xq/AieMn1BYtC2WINWqm6uARkh974zWhzGZLweJkaCiTlRsYKieGq4QBQKeV419+884QqSSqpoQQJEdZjsif/McHsLi8DgDodHK09dsDIFrzVp1ERHBU14ZSnYRb7fYxt9TnNbiDJSGWxr+0G2Ml8jNS7Q34mF2LJRQ+2BrwHN0TVJV8yhMsHVsWq9rS0dWDQZhy+KRcnu0QuXqV4019q8XBrAAiKKThSknS2Ixo40ogm0Wwsb9BX1Bp9DHr5Vdfa3gI6q6GBd580wvSrKcEnOlQ0OZt52HXvgu5HrXncB+RvlpuDkidC9JuntrGQiRD2y3oA+vT/mb1lfpElT4mCZSEEj0+aAu6jT4rIiqXpKZcLDdvteAd4LyjRYA8Pftf8DsBlIb3A+gNJ/OVMBZZ9Av0enQHUBQFjj/yKIo++ywpu6mD1N7QRh6vfckBXHz+ZiBx8lVbCvLUkA0ElRPDqBEOABftGsdLDm0O0YlTcOTSVJw2Ry/ngF7f4xOfu5++GwBgYqyFdlsmLPjJIBLIMliH3K9EVwMaY1F4YH65wGqPP1wjfGyRYxsIFezRnHBQg9dC1cjXnwr8APlaT4xnPiNS7RA+kWPlWrxYEsod5LFIblNJra0sPTaLuawQli/WOtbCKlWP0QfRk+qzDKou6As2Jfqcw3m792Dr9h2GkYJAnUMET64+1e4GBtl85MiR2uB36XXfFNej/dP2T/sH7UgfC+0lCNNG3HAsXtu0Wh/JVFqRYPUIUoSpYULNPCJD9DB/uVysz4iIyyXSgr4sz9Bqd7gcTCvlysDvM8l7TTl/LyXTVQ9kdQRadsej1+fw4IHjjzyGXo/eENbyhYKQDmMVZVHeeVvH8X2vPqTlS0HL3bAVBX23RfgbJ4bTTeB1L9iGqTH6qj0FToqCUdSVCMcbkXgsr3Txyc/djz5Hz7GRHHkG4i8CXcFRudCoTFeeRVEA/IwtvaFH4dJ7j6WVPk4v9823PMOVDtkgV8cGD8ljU3lHTTd4Pgr8XGaxWY7VXvkTYRE/iQw2Ud3GdrPcyGYj38gRBpXLem0ZtTyRnkAj/IDRw+VJy66pllF0iillfRGvWMllZNEsj8tt9MkW6WMdV137PKo8A3fccUeaFcGgq+onGwy6e6kbAnPO4ZqXvKrcF7QeZdNmMO1l2s22PXeMiMa2m7aN0VPRbiwGxBbrU0uMYaSH0YP0ReUSWuENerxm8j7oJVk49m+sW8b+6Z0AugMI31Ev6J0mz+v/yLdTPNAv+uit92iJZF/gseMnsLa2znaH8okdWiapAVKvtrzrTddipFN+9j/10RZSGufoa2cyWVw7HFQlUPImRlv4/pfv0WP7a6OZ3RyTOACn5lfwic8+gF7hkTmHibG2Li9BMnl2Xb9VbAqSuXjsjVfpE1yv8DjNj5FSFA/2uXDAVxzhqiGYHuwl8phP8SqH+VhWIGHZBs/UkV1N8lO7YxKxnfNFvpog7ch6dJ9tkl/H+lRG0KEKCUk8Uk5uD4NhPbKJzUzD9ok+I1h3KVs5Ij0qUzBaLuDq5z0/yGEYfDewt/HK+skEb77phY22Hjt2rPb9gEuf+02Y2kSLi4U+E/qA1Cs3j2ly026KNO1WymYOkW312TblRkv1qWyrz1hj1Zf0aRnq9LGkVF9UAIc8ayFrtelbAI5XAGUOvfJ39JRj5vj7KKyTHhDilN8Z8L5An+8AAIcTj81iZXlV7bablkWpeWObnXN448suxmUzYfVcLfOALQXJ0zmCOkI0KAGAS/aM49XXkEESzQk01EaRXCMxp4/NLuPvPv11rK3TONn4aI6RVi7xjyNjkBOiJgkoPL9ToMNq9vsEDvPLPSwu9wOLxtbIyiDbYkwkDrpLJOHQ2BnwcmURo1S+sSuWT8Q2y6oWIOlEJHLMAWGNEDFRrNJfrtcggyGy2eCk4HIlo7KYgutGWEMdiFZbec36SJ7RY/WxDg/gymueh6npTZYZx44da5wo3bNteuDV9ZMBrju4D2++6YVpdgS33nprmqXwole83tQjtA20NaSvcmVWthvzWWx6qImSl/WB9Wl/M/psvxqkL1Kr/Y36SfgjZLlcsmP0OIcspw9cObHPs29hxR600jGhebUDo5PuBGSlZFoWut+nF5p84fHIw8exuLgcbBH91ADBpsROSS+b2YJ/+apLSn5YIPXRTZuFoiiQra2tYW1tDevr69HWarUwOjpau3U6Hbz++l24ePcER2aJsiGqaZR1jg/jiHd6YRV/+6mvY3W1BwAYG80x2mmxjMADibAiR9Yd4qhL0ZIef8ppwA4OGboFMLvUx1rPw7McxzZJhAW4YrQMg/BSLJalJor8FJ/yD5AvciTL0AmfyBG+Znywi8hln/C6qS1GKcsSiZQIjuWLRJbNZii71Qepk1SfZTD6yBSjJ9UXTMGLXnqDZQZ4orT5bqB5nP0bDXu2TeP973xDmh1BUxkvuvw6bN9zgalHaP3pn5O+QPWv7UbEpo8pxhBygwkt/0ibNuoTWrZV9Uijqp6yPuUx+ki21SOb0ReZTDLzjJ78oTd6WZh99h5OnwgKcmmEQp4QcqAndlxOuL4sIwGgKPp46OFHsba6FpdZ69yWUY2Lyrh1egT/9nuuQa/bLflp2cSPr62todfrYWRkpOSz7TY2NoaxsTGMjo4if9vb3nZ7urRov9/HyMgIOp0OWq0WWq0W8jyPtlarhXarhWsv3IyPfeEk1rp9MtnzkzwmqoEjmktSAFjv9fDAowvYtX0CnXYLrRzIc6DbowgM8O2VvWrg2AxPY1sUCSRiCxtHaU+yut0CLf7CG1UwW+JYh3YQnlyWTLEhwnMJlBBw8KENwXyNeFZfKb8GL9kOcf0yXYQ3fGQulZdqiOvNiJF6U6lGvNanpUmurtKLGW2fJn3mOFbsSvpscav0bdm+DXf91Z8HIgBzc3NwzuF1r3tdlG/huoN78Qf/47Np9jcc9mybxvve+QZMjY+kqAhuvfXW2gnhb/2eH8b0lu3wtv75J63/crtQO2hqmZiwJIsYy/oiuUmq+VafASOgJAsN+qr0iAw+KbKsBc+ug6WQHLmL4RPKO7qa11S+e+IR/A4l6HX79C4BgO56Fw89eBzdbo8Uy3m4Af/Yyhx+5vuuxfbpdrQ8tOxXbc45jI+Pq+9utVrR5wLSrXZiOIUUL9umiTbe/YaL0W7xIzwmmtmN6j2+AqDNYW29h7s/dT/mFlYA59Bp5Zgca/HbeBKB2YFLsIZDltPVPzl2XpeDZYKjNC3i59D3DgsrHgurBQq9WiBaRztSUrJTbazCsx2iKfwYEayjhI/li52BtRmvdCLf0JmDyG5Sb8rLx0E25WkqeiKdzMl6yUa1UMlZnLGtWp8KtjpYj2RYPcRm9Gm5aNu7bz9mLrqYeQM0vUAFdra33fzKNPsbCtcd3IcPvfeWxncCMOAu4MCha3D+RZdybUn7U51SauqR6zduDq5rqWhuC20oaQ/TnERWoS9IYxEV+lRIoifSZ/RYfVoGo4+QQR8zZM4hy1vIcvnqobyXlEG+B0DvIfHzh7z4pxzT90+AzGX0ti5ofsDBod/rk/t2wOrqGh586Di9pMW61V5bTt4iHNeXA/D2N1yK/TvHK1/y2siWgsXl73jHO25PCQBQhDCKm2DzRBsXbB/FJ+6Z0whGES+EtLpIJ1AUBe5/eAGbJzuYmujQIk25Q7fXpxX5lM8jcxl/t5N4KeFQrOBpEtnxq2S+AJxDv19gtUtXmW1+Xw0sm+qq6kqcG4URMV520yt9Xvo6kNbKd1wWxSsB87MclcV0gk/lVuE9Z0kNpVdems9pVJWaIVcw/Ly0wWgqV+4pzuqxslNCBauHSlZ5Vcf5HvRUxuc/8ymVAL4bOH36dOPdwCXn0yOmn77nwRT1hMObb3ohbh8iKN1111248cYb02wAQKvdwZt++DaMjNJHd6i+pB6p3WzdBZpyc0g/KTVQqb0SGRvVZ/XYk1tgkD7IFTofpXocrfkDXrzN86UgpWSlYz5JxQz5RrCH46d8+E6A/4rC6zsAHsDi4goeffix8l2NGCQKquqVwQO4+dWHcMNVO9WJ5zk9sWQduDzvHzn1PMfICL/UO8SWv/3tb78doMhgYSNBAAB2bupgrNXHP36dVg0lT2QinaM8TcVB6UZv1D14nD6ttmPzOPLc8ScqHQpf0Jt6jjxiBlmtj2fsAYrK8Dx7TzhH8R3QyE4F7xVAt0sjSe08I1PZDrGTakRsJhyVjeUIhZapCk/6auULneCNnKBX7GBbWI6Va/Gih/CJPBIZ2kLo1FbJs7qVi4QkfMF+Tq0eoy+UVS1iPQmD0HOa2hn0EI2Q7t53Pj7y4T+lxbgMfPazn8XMzAyuueaaKN/C7m3TmBof+YYFgjff9EK8/53fOfQcRdMw0Dff9L248DJ+k1qby9Sj1L20RVKPTBa3qbaXIgIDN5zwhfaq0hfaTcQAnGf0sQLtN0zE1HzIP5X6TLlozD+nsX7hYc1im0p0pEdz1RzhZT2e5Bd9GoKBI/918sQcTp06zfZEJS/LY128E5XzFdftww/cdBm63S6f13TB1m63S4Eg3TYcBOydgDOVPGwQkGhXFAV2b8qx1i3wteOrIRQLHVdCOe4xhkOw98CJ2WU8emoZu7aOo93K0G455JlDt8tjdiInivbCT7XsPT+a5en7BI5n8RX4CYD1nke3VyDXAGOu1IEh5gxkN8wBUDLcnIAUwsq3QHcikagg32Q4n9oV4+XKg+qgZow+ubq2+ZDa0ys9Q2vpNR1CnzkO8uSKK9Znu1OlPnjkeRvz83M4eu89gZjhc5/7HF73utdh82Z60zKFqfGRb0ggePNNL8RtN78Sh6+5KEXVwo033lg7DLR15x685l/9KBw7JanP9LxJ67/cLj5uN/7RZij1A9tu9XeYw+pTMAJiGYP0OVq6ma/8C3g4XpiYTofgb0SmlEd2ojsZ7Y9EWHiPfrfH7ysBa6s0/r+0vMoWJEDFI37XPCdwzXO24yf/1fOQZU6DAED+2Q8RCDLzmcmqO4V0y3/kR34kGg5yrLApCJQaivO63S4u3TeOEwtdPHhqPUQ5ZyMwZ3GhJUoSTYjgK2tdHHtwHtOTHWyaGEGeOYy0Hfqe7s9UjgNy4Weh9oqfjrnAGc0CObGH7yQK57C27tEtaKyvlRv5zCu2Q2TRgdKp/WoXHZfxgV/LXyPfHgd8Il/ytf5iuapHbVYrjWzOk0IFdNiX0qge5k0kMop3DI4qQfUZwbqb2lfSY/VpuWN9F8xciDv/6v9FwWupCwwzLDQ1PoLrDu7D7m3T+MoDJ7CwspaSnBPYs20a3/Pya/TKf9Dkr4WmANBqd/Cmf3MbJqdlSQGE+tR6TNrNhXrVOrWtoO2VtJs5LOmRVPRZqc7SBH2RMNFn+Br1ybFz9ER/Tm/wOkfP+xM7CSD1ZXme3+7la0jA0di/93xx6EUGAHj09W7TYW52AY88ehJF4am0oodtZPOCvaLUbJJ30Z5NeM8PvggdXkmh2+2yjXI+Dw4EdXcCdQEhf9e73nU7vYUbwPHH5rMsq3T4VeC9x/r6OpxzuGr/JJZW+7jvsRUNzTbSSZoIKBEUhcf9jyxgdb2HXdsmKBC0qDZ7/OFhZeEriRBp6QUC7cwUz5VHUh3z57uI9V4fa12q3DwXPNMyo/KbTly+0h9+TqCE10IxP6dWb1QWllOHl04Oj3Blzni9EmJehcoMuYIxV+qGNOiweazPXqmVZFflJXcEqa1Wj7lKHBkdxcrSMr56z5c4J8BnP0tPAR0+fDhFRXDJ+TtwwzUXntO7AnH8t938yoEvf1XBsWPH8PrXv742AADA67//3Tj/osv0OG6X5MpWcFKntm6VStpNOqQBe1jRLgP1WVpFmP7VoE9l8Y8HO2+X0bg/nF7xF3yHXIiTF+lhoIAzaEf8ATw/8ROpdij6PfT7Hh4evV4fDz70GOYXlskhM22F9QESfZbyigu34T0/+EKMj9LnfJ1z6lPTrSkQ1AWBqi3LMrijR4/6LMvQ7Xbploe3sbExnYgYZuv1elhcXISXk917/NVnT+JPPnkyLr066epqslUTupDD1HgbL7l2NzZP0FVTr+exvE4fYlB6RzIkpSdL6a1kcSXOE8J5njiWCdlkOMWhQCtzGOvQBu7STvG8nzh/GRYK+Nj5B/6y03a2DIK3gaQuaDTig52Qvme6XnAC5qStmmCr5ZN8ukNr4vO8Q6l1EhXDRcPoq8wHFufn8ZNv/0GsrVbfmt922224/fbK5yFK8NDJeXz6ngfxmXsewJ99/IspuhL2bJvG7m3T/Fby2b+ZfOzYMRw4QN+RrYMXvfw7cON33FwbdJvrkeiFVpKoDcTZVvCV9FXpqeCzcnm3Qo/kJXoE7+gO33ua1/M63sN4sS8MBFXIBjxfLmrwKAo4l+kjl0VRoN/rq60LC8t45NFZmg+oAlLLhgaD7JExEy+5Yhfe/aZrdS012RYWFkqO226tVktttHmTk5Ml2trt6NGj3vM6EjYQjI+Pn3EQCA3l8fEvz+H3/vY43yqVC6853twJVIAHkGcO116yAxdfwG+HemBxpY++L2TonhwhOz8Bx92AgNcG4acDlFGChien7vnbyN57ZADGORhkmXSXsvNPnW4zvs5pD+HUHQC209JZPpHjhFlPBk7Tk4l/tJZK+clJm5y8lSf7Bt4TiPgqnITgOauRD3D4k//ye/h///sfBSYDMzMzuPnmm4cOBAIPnZwHADzM6UMnFxS3Z9sUdm+bHvhY50bh9ttvH7gO0swlV+JNb7sNTucBbB35OMjyj1RnuR7lOK5Pas+YrySLESV9VXoa9VXzaZ4D6AH/jNs9owdHmM/RYgKBXxCRPNanUgPeg+gF0y8KHl6kpwuPH5/D/PxS6byy+mOpFlG+CP7OwxfhZrMonDNDN4OCgOMrf/JbdHzGQQAAnHPo8YePzzYIiEzvPT5/3wJ++68fQbfvuRLKtWQrj9KkOg39ji1jeMFlO7FpagTeF+j2gJX1gsjFubMep1f6/NIZ2GmKeE2YD3SHEIKG4CkYtNsO422HTqs6GMixS44DfjinXYcnnJFvJrJTOREfgz357L6cvJSG6rYnYaC1eKpIbW/NT9LSPvOxsCY+OrZ6qvk8M3gAa2uruOPH34ETxx9hihjONBA8UXDXXXc1PgEkcP5Fl+FNb/tptNojoV4a61FSU49cr7b+orqtlBf44vyE1+gTN2n7WUpb5uMUdCJ7fpbfF3QipOWjDMcvcxl9QsE65GznB3tMfdC9gPgwevaf8Kfnl/HYY6fRS+abIiAxaofotUeSZs7hh19/OV75/AvKjpm3xcXFUl7VZgPBRoNA/mM/9mPRWSDCOp1O7cRwFXieGE7BOYfzNnVw6d5xfOZrC+j2oyYxwNXjq4OEheXVHu69/zTWuj3s3DyGTjvDaJuYeixfQJ0hTwgDqfP22jNcRq5f2lA7B0duB/rg/VrX07sG3oVJ5JKzH35OgM0KeFMAp3RGltpdLbcK7zlLqjV2qiaf03L9m/bhNOWxOko4q8fKTgkVrB4qWZOjCWKIL89zXHzoMvzdXR9V3Rbm5uZw3333YW5ubuAcwRMJMvZ/xx13YG5uLkVHcNFlz8V3/+ufoiWPBcpF5fqyTjiuu0BTbg7pJyXBtXrOUJ/VY94ToP5PV/0ONN5PZw3RR73Qg1YfhqcPFJruqsHBs1RaGMhapjK89yh6/OgngOXVdTz44AnMnV7iz0IyuZjJfoIuHev8GwPTd1oZfur7rsM3XUULcdZtMicgdwYA+dR0khfGd29kTsA5B3ffffd5iXqy5XmOTqdz1ncCsoEb+ZG5Nfzq//MATi/HH1W2kNRtuCPwJjiYWh5p57j20DZcuGcTz+bTXEG36+kbxd7zjBA1DnUqTlljJl44wgf7HMiRSvCA4zkFnmsYbQGjbYeRFvPVOO1YP7s2tYXx9pgFWDlil9AKn8XHeoM8IDkJ7bGekN5cQRGhH8DHXBucEzD6NnRFKXgP1PHxsQfwlx/6Y/zx71evsCkwMzODO++8EzMz5Q/XP1Fw++2344Mf/ODAK3+Bg1e9AN/5gz+OzOVct7Y+znT4Z5j2krpt0FelR+UG+pJcc+whwz3cgcWp2xQcLyAKquyg/DhPyemTtTzRCh768QUtG93rFXj0+JyZ+BUnb4NPDYha1R/smhrv4PZbnoeLz99cdsjJNmg4yAYDAGi1WsiybEN3Au706dOlINDv97GwsICCKyN0kLKDly3Pc4yNjZXy0+3k/Bp+7r/eg0fn5PE7aY3mO4BQldwIlt4BWyY7uP7KXdi2aQTOAd0efXqyMGP84uslWGT8ybfMNpYzw0LgLNYtTlfAOlkHkjfWBsY7GTJXlPBVTl30WPkWb52+tQVWngalcJzK0ZOEK8xrmxKN5x8pXTk/OWmTk1fpNR1CX8LHFGS5j/UJHWeV9cFXBqHCe/zKe34a93zxn4S9Er4Rw0OyBPSgMX8LLstww7e/CS9+5Rvg+G142PortSHVp9Z/JU1Vu/i43finXp9ttypnXJMqnvXBAc7p0i70dE+VHbwopDhxngRI+1s4W1L7Y/uKgr9RUlAgOHFyAadOLYQr/xRIDRdEgkOQVwKm37l5FD/5PVdi19axyBELpA5606ZNpbyqzQaDbreL1dXVEk3tNj8/XwoC3nssLS2h1+uh3+9rHrjyqrYsyzA+Pl7Kr9qWVnv4zb88hk/fG253tU415T3fHBwCUGeZ2TuF512yHWMjOeA81tY9VrsUzBxHAXKuBA4hOEgmOdXgPOkpIpp4UiYNEvQmsjdPI7kMGMkdRnKP0TYFHWUT+amTrnD+zXiWZ+cEzLGr4AMVR1M9IThjqJOXfwKeKq6Kr0zL6QC+lJaOLT07+0anFI4XFxfwyz/7U3jw/vsYUw8SDG655ZZzfmdw7Ngx/c7BRq76BSY3bcEbf+gnsOfAwXI9DV2Pkpp65HqN6i+px2q+Gj1Vbc79C6Ug7+Cdg+cJOxYfP8JpIHXyVo/jCWFN5Qqfr/itXg/C9/sFUPR5Itlj7vQyHn3sNLpd+vKXZz8g+gYC268FkXoC8MJLd+AtNx3EaCd+AghsS9W2aRM9BJPm121ZlqHf72N9fV0/Lj9wW1hYqAwCi4uLOkk8zB3BRoKAbHf/0wn83p33Y7XLHwWQOgt1VwvUpCYCG/p2K8PVF2/FZfs3IcsdigJY6fbR63vTqOS0wXIAHsbhl81EnL0S5/aiYzPHADg4z1f+5o6DPkrh0W5lGG0BY23mUxlV8uM5AsfIuqAwDN45Lg9fQcGeRFxQKW84adN8y2echtAkzqOaL6EdoC9yFimN1TNEUFpcWMQv3v4TeOShBzinGWZmZnD48GHccMMNur9RECd/5MgR3H333Y3P+A+Ci6+4Dq+7+UcwMjZB5eNCl+rG1FFUN1Kf3ANK9IaPjm09Duf0h9dHjh+er/j5fCQ86SuYW5w65dKoEKBL+IRhIlnTR06CKjvNMfk0+Taww9LKGh55ZBbLK+usSThqQAzi1PNws80WGB9p4S2vvQwvvnwHer2evn9F/qPZwU9PT5fyBm1FUWB5eRntdpu+aQCU5hBkAwC3uLhYGwRkotcPEQjOJAh473H/8Xm8/y/vx9cfo2e6k7o9ozsC6bRTY21cfmAzDl4wjTx3KAqP1XVPTymlTtPxBK8qpmdv4enKHjKnoJ452GfvBICC3kw2+YHOodMCRtrAWMvz90cTp62y2T5711IXNBrxwi/tRnlSjfbk05O2Ylilnk/yfeVwjOXzvEOpdRIVQWkYfZX5QUeqb2F+Hr/0s//r0IHAwszMjG433FD+dgHY6d933316tX8uYN+Bg7jh296Iiy57bqgL/onLaut/I0E30AutJJV1WsFX0lelh1ZwIyduxuBh5Tty6t7cCYTeWwDIdDmYUv/gS7lwJ8BzduZ5f7Lfw/fpeX8PYHFxFY+dXMTi0ooojIGKB3+GcwKXz2zBu777GmzbNIr19XVdBiLP89Lz/VVb1XAQ0Bw4JAiAV36QCW5XMYfgnINbWlpqDAJy7JxrHBo60yCwurqK1dU1fOiTJ/DRf5xFIQ/4JsB1Wm6EgKiFkXaGyw9swqUzmzHSpsmm1fU+1ro87hM5zeBUCYJzdo56J6USHIhZJopFFiBj9NI9g1yZrx5pO4y2C4zk9A5Eqr/WqTuQfnPcdCdA6snQkpMw1YgqZ6H5wUmUaC298tU4JSu3ji9xSlY+ZzXyRfqMDACYP30av/KenzqjQPBEwgUXXYobvu2NOHDp1QDoXKstX2V9yD6dMXX1UcVHx4k+ZrJ8JVmMEH2Un8G7rEIPnRd0xS9j/+bKn9SGVB7mifQwbVo+syP66NvA9A0A7z1mTy/jxMlFrKyug07nIC2kDaBktEPlCdl5nuF7X/EcvOGbL1THa4MA2EEPGrKpCgKDtn6/j6WlJT1utVpaPymtcw5ueXl5qCDg2dHLEJFWusENGwQs3+rqKtbW1uC9x5cfXMIH7nwECyt9PalDa0rt14FtDOoU7KtVTLvlcMkFm3Dlc7ZgokPX7atdT18e404IJacreThHcuwVvwNd8SODR4FcX1ohOxzHFnHWop+eQhInbSagnUMr9xjNHUZaHq0cyGqe/wffGcj27HsCgd4zg+aZY8u3sryM//77R/B3d/6V2v1kgHZnBFe94JvxwsPfjp17L1D7YcuX1qWmpl6q8JTU0JeDblqPZXmBL+TTcIz3GTlmoweeJ3IlNRd71jbalxPX2mD1AL6g85LnhXkC1/ZDT3cfRY/sKOjx8ZOzizhxagHdbsOz/mDFbEY5SDSAB/btmMC733Q1ZnbHQzkSBIDgjAcFgjMJAr1eD8vLy1FeGghgh4hWVlaGDgK+4Y6gKQgITdVmg4D3Hktrffzu3Y/g88cWtV6rQJ29ROABbaOtym8MP2fPJK66eDO2TLbhQV8fW+169PnNZvBYJa1CktEdAEcBce76TVI+ncTbUsK3evCgJezsnQGDOHTubHKHkGce7RYw2gJGWgCtdD28s6/Ce8oyJ1x60kh+klbS2yu9RLY4XeWz/FV2JKnmWz0OgI9pqgJAwqe0NXru/dIX8Lvv/9XaF8qeCHDOYf/Fl+GaFx3G5de9BO3OKFBZH5Jy+bgCynhOTb7nHa3HOvpKeUZfJR+N69P4PstwPKzDshB8uuEja3hIn+8AZLVPbj9zEUdP/9DZJAi1VSTqnaeH7/PwNehrX4+eWMCpuSXz4fcYvDp7sidIrwG2S1Lv6VHzm168Hze/+hK0WzT5C25jx0Ggai2gpkBwJkGg3+9rELD6ZYkJydMgsLq6uqEg4GsCQVUQAHeipo2Gg3g+wOT/w9cW8Md/fwKnFruhF5lKr28j6SwhOEjjpuDgsH/3OK69eAt2bO7AAej16e4geunMUaeg75aFCWFy7YUuTEWkZCfdCRCCgoc89CZRhJ42koaCOG0zByA7rQzo5MBI22Mkp7kEoRU+KG8aDESMtAfl6Qkkx+oA/NPqPYGgzzrBmO//+5u/xl996L/h+CMPMffjC+MTUzhwyRW48JIrcclVz8OmrTsq7C+XT3H8Y9O4PpIg2FiPchz0SH61HgcvDt/xBCcP5xAZ6RdQeTqBS/1fHunkM4Y5jXNP7RNa0VPQeShj/4X3xCtzlwBWVrt49LF5zM6v8PsALMiJYVEGa0qA0VJOsjL0c4EtkyN415uuxhUHtpacsmzr/C3gNN81BIKzDQJ2Q8UcgXMObm1tbcNBwFcMDeV5jvFx/pJRBX3dJkHAayekfICe9f/zfziJj3x+Vp2yNoJPG1XbowZMr6qIKTu3jODS/dO4eN8kWrlD4enN4LVeoZNU9qUywDphuoYBzxuInXZiGN7z+wl8xc+NABQcTIzzNvIjR85zD50WDRt1Wh7tjN5PePY9AV8dhPhnGH2f/8wn8Ncf/hN87SvDLRS3EThw8eU4eNV1uPjya7Br34Fy+ZiuXC6h8QPrsbqsVD7lq6Spkif6KK9g5+9B/VAnbpN+QMAfgUrG/GH0wNOVDKsJV/p2BTi7FpLRI4Xw0r8KenAF8OgXBWbnVnBidglLy+tMHJ+3IkJOCyfBSenK9CVgslbu8JoX78d3Hb4oWv2zakvvBADjiGsWgztXQcDqKgWC9fX1MwoCnh2/BAIJAinNoK0qCEgq2+xSH3/4sUfwT19f0jYoA3ciud5ruAMgSBrdU1RotzJcsm8KVxyYwtbpDjzfHax0C+iSIeyMKZU1icj5g/XT6eJ4WEjZAOdKV+wEfCzDTGCnzvI9P9IqUsFPI7nMo50D7Qxo5xQYWrSgYikYsHhNpWo8Z5ScRUIfaC2e672Cr0zL6QC+lJaOLT2f/Inskj5zPFCP0Xd69hS+ds8XcN/X7sXRr3wRR79SXpa6CbZs24Edu/bhvL0X4IKLDuLiy65BRz71aMtVW49UvogmKVfJ7kHlK+UHPaKX6lCGdWhcX4drlF/49NKe841TR1AY9BW87o+nyyNPT+tIuQrQuVTwxZas6VPoFT9Z4PkOW6/4PS3stri0hhOnlnHq9LI+CWTO7mBXhKkH0mPTMv1Lr9yFm199CXZsphe/gNipp1saBGSzfOlicOciCFTZJctQe+/hut1uZRBYWFiIrvTtBu4M3twRnEkQABAFgRRnj51z+ML9C/iDjx3HyYUeO/vY6TdD3PjlRk7pgfO2jOCymSlcIncH8Fjr0h2CdE55zBPitFVLfCfg4NiZ03AOpXR6iVVypyHOHzI0pEEjIOR9A8FD7gQ8zSG0c48Ozy2MtDggeLIL1vlyuaX44aRN8y0fOw3B8Y9Nq/kS2gH65Aq9RMs/qqfWmTboGUYf/3gAp2dnMT93CvPzczh98iQWFubQbo9gZGwMo2MTGBkdw+TUJuzZf2Esv9Zm7bnwQ9WHpJ7Kx8LKeE4TnZE+pqMrexrTp8fs+UofgPfhwQd9NFPuAOydAPXAqFxU/0QotSmXIiU7iZwf5czLfCV6GoaGB7r9AidPLeGxU0tYWeN1y1ieFqScUQm+8o6gGg7smsTbXn8FnrO33kEDZcdbFwTSzb5HcLZBoMoO2eSOwPV6vaGCAEAVlG6iBMDQQcDKqgsClk5S5xzWuz387ZeX8Wd//wjWutoTDVAj2uBQ5+RjSAhMX+i0M1y8bwJXXTiN7dMdeAf0esBaz6Pbk1eFyUnLtZOcTlThQb7jH3sn4BydVc4xnx4znrn5hkP5dFgJoPKyXBpeYsfP+Nx5tHIaPmplDu1WHDy9t06p4SSkpCLfVw/HGD7PO5Rap1QRlIbRV5kfdFTpI74KfZY2ksv0DfpiPZJn66NGX408Oi7rUxz/DKWPfwruE4XPADh6AEJODEeraQq99DfVwfJDOwlFfFEAOc9cuHUIzt9aby4ifAg+tj+GOwDuJUUPnj/rOL+wiuMnlzC3sGrmFiLLoyOVW5vRAEzmvcf2TaP47sP78eLLd2J8fLzkVJs2AEMHAWfeIzibIADUBwDHNrVaLbh+v18ZBOwbw4M28ITDyMhICWdp0jzfEAQsvd13zmF8fByzi+v4z3fdj7+/Z26otkwJvL0TKGFR7kZMeN7mEVx5YAoHz59Eu0Unk9wdCJk85aNrFIHPCqp3SUoL10mwIDwZKKdHhmCoy1icyGM+vZMQfaKLO7GM0WaO5jxyx8Eho7uHPKN5i9wETc8/5ARk36RMo/TKV+OUrNw6vtRJGDxnNfJF+oyMiF7zyLkh1dfAJ1wbK5fsN+ir4aNjq6/uTsehzxl973SCn8bzmc4yRfriEyI8jWNS1gGYRzItnuXQHID0O2aRoGDtN3ceQhjq0wPg8997rK338ejJJZyYXcL6Oj32Gc4e3pEMF+TFiACWjIpdTz/ayfGaF+3Fq5+/G512C51OB6Ojo5EzTR1s1dY0MWw3kddqtTA1NVWJa9rS9wSqNguu2+16eRsYXPnee6ytrUVPAKX4qq3VasHx24DD0HtefVSCzTD0nvXILdNXHlrEB/76ATwyu0qdiJ2g5+GRqG0rISHgQ2+CQxV7uwVcuGsCF++bwIFdY8gzh37hsNbro1vQ7TVVdRgmEsgcLTMhBuowEeOdAzw8cj5JaFiJ78OdeUoJnMUGllK5Q3GSxs6Dd+OycYFz55FnDpnzaLkQHKQyhIfk1TmlWEe8z3wsrImPjq2eaj7PDJpnjiO+Kj3D6Evoq/QMrU94Nd/Qc/AUeUInPIUHCnbyHkDhqL9F+gqeS+IH6dOXsaKHZRhv9cHTmQS1g8f8ZTgoqp/ARgfGDs7SheBIo5Fj5PH5DXj4ghz/ybllnJpbwcLSmjHYKixllHK5+ydQyoiBz58br96F77rhAkyN03Ld4kRlleUq55rmydbv96MngJpoZTsTPZ6X9U/zLa8FNzs76wFqBLtNTExsaCnpbreLlRV69brqDqJKh+fvFjTdQVTxz8/PR08n9YsCn/naIv7iH07hkbl1Wz4DSbfw4cpdg0UlVHcym91uOczsGsOh8ydwYNc4WplDr/BY73ms94JsR8uVQpqB0jCWT+0Tlp1wShMmoqVzCr2D8MkdQHwnkHGQKBAm3px1BlIMkW9PTlNqOc4cy2S7c0d3PA6U5kBwYIZP25B/ynhONZ8q2HvjjCxNVQBI+JS2Tk/CF12hJzRNfEPri/JtuSgtPHQoTsfrmb4PuponbWaYhPuBvGkvegS0bkpBixhT+1mBjvlTLnc8thtGv/YfOMYzn7cvh3GHQ/hmudrpAYDe5gWAxZV1nJpbwcnTK1he6ao9MYNc7NWimzIqQerR8/l847V78LqX7MeubRMlJ1oUBVZWVvRCFKh2yGn+6OhodAfRRCvb/Px87eOjVbzgUZn0DsLiU9AgAGk43jYSBACg2+3qV3AwIBBYXZ1OB51Op0Sb0tltfn4ePnk6yXMw+OzRRfzFZ0/hodn16CSRzlkPCUHSd+whpeUcAGjnDgd2j+HQvglctHscrVwCgsN6z5MdTu4ESDbZx1f+uoBdvCaRB4/houBvJlvnT4SOn1ZCZXCgk8ye66xd87nG9W2fyitBli/mh2DikSFDwU9DOXi6c4ALL7tl/DSV2Mz2eetErX2NwYIMqeSz5dHUON06vip9mp/QD9KnjpxTllF4x1fK1CJ0zPnySKSzwzE8QeuT4GRsY21MzwL48Ropp70DkOFA6RWUL+VjfpeUJ3h7eENHXBI1zB2A2hX0qj7v6Wkf7wHvMb+0jpNzKzg5t4LVtZ6WR+4cWG0MIlgRpYw416KrMzAx2sarXrAXN73oAmyaDB9lAWIHbYNAxqt2ps423QA0BoGUVvbn5+fhGt4jqOKpGkYSmiqIggC4cf0QQcDSer4TkI/KSISsm1i2+1VBIJWdbhIEAHpJrUrP544t4s8/cxIPnJI7Ay4mt7kPF9YVXccQJnxpdqAOnVYIWrnDRbvHcej8cVy0ewydlkO3D6z3PFZ7UGfrHL15LMM3Il+cKVgiHGlQp87t6pheJoopjZe5iD6eYaKiPVltmagUoh30uT5LY5weMnN7r1eQBYcvSuW5camdcAcCetLJ050SOT1anluUUflk4puXJmCvQnpZIjtXp07UliMpr6f5EXhPyxgXFPTIaRMf0VLlFgVFWBl2oSXIaFFCGQMnHgfv6KoekGEakqUW0TgNuTc2KDjjkEbO2lM92s8fWvBSWyY7bluuLy1/dcpXDtxett2oAEJG5YwbkspDlwPSjmpO4QHHz/N7YG5hDSfnVnBibhnrdgkHr1WeACFsUIjIGjPKAjXXA1unOrjpxRfgVc/fh7GRNoDY6aeOVBZoE4frODCkzjjdJAg00aTb6dOn4fiJoVarVRkIUnnpncAgKAUBAPAVQUDy6zYbBDwHAscfOEhprTwJAoPkW/zp06ejfInGKY/3Hv98/xL+/B9O4b7H5CM2Akkn4ZOk5tB0oXJOU7ZAOwcu3DOOQ/vG8Zy94+jkdLG23gd6hcNaj04agJw0v4wPcANDx/bNcBCgawdxV+CP4tAxtT9fdTPokb1iBT13DUdvcjr+2I5LruCYLfw4WdXRBBWhY/nqCDRoUPn0UUDxPtxZS06JQZySOAHrLJ1disY4KsmIrvwll/lK+shorg9+QUPKaWTb+qBhNmm94DwFD8gYfTIWbm0VJ++5HTRf6s3Ikh8T3OVD61FwBd1p2PYToPoPQQVer0lCKrTEQO0Fb/ji+ov1U2CnZSA8llbWMTu/htn5FZxeXEevF1sUX/mHoG0IWLBJS4gG8gr6PdvG8Orn7cIrnrcfnQ4583QDyg7brtLpOBCkdwRVfFV3AlV0dpM7AdnS1Uer+G0QGAYqgwAATE5ONt4JpJsNApBOwEY1BYKRkZHSnYDFp3meg4DFgStCAkEV35cfXsVf/sMsvvIwrUlknYB1BmVIOll1nzPZgztxK3fYu20EM+eN4sCuEezeOoLMAb2C1jDqFo7fkOZGdOCgQALEuQPyhBEdi1n2TgDyNBBTqROWK2VbLBmOUISUg67Qwc7UuQy+4LFeKZd+spXdNJtF7WHGsAO5lIaORZ/aJ28LsR6QoxJbIVfebK7spe2oxRFfx75dr+DZAr3ilf4j9RrdFRh57KypIBVX5kLvuV5BXtZLGJM7AVZAYsJLUipen7ZRzaFd0sCQlJ/0BH3S0elOSqionKF8JF/f+PUemcvkPjDQ2WBme0jhARRYW+/h1Ok1zC6sYm5+DWvr/MF2bXd7nkjPMFDKthlnekdA8Jw9k/i2F+zG1RduRpZlmJiY0Ct6cDtUbYKzdwKyZVmGPM8br9SrgkAVnd3SICBDUKWlH8wmQWBYaAwCsvLcMFuv5hvDYpgEAoAcg2xVQSClSXH2TkA2qaB0LkJkZVmGsbExfP7oadz5jyfwD1+bN6XFwE5Y7koNBBV9WhC28wtZp5Xhgp0jmNk5iot2jeK8LfQ2X68PdAsaQur1yXnpm8qAuE8NDpRPih3onIeTUCJ1kdjDdVfY4SLJt1fc8OZKnIdSUnk8bwDETheO25OdegreVFfsPGGcEteXXuGykyxoQto+5w4f+GSPfmxQi+23ztMGSUJU0GvtC1mgI/tYvySJHlEn9a99VfNlJyRedrgCpD69CRaETiZu9QPs3E8Qgr3Wk5cJXGMvRV8pOdmQGOhRwHmg2+thdn4NpxbWcGpuFcurNLYfDBbGiuxKdI2TDwQVGYGyJN4Dz79kK15x7Xm4eG/8/d3x8XENAnYDqp1s+kaubPIUT7r0g2yjo6NDfQDe6k2DgGx2aCi1s91uY3Jy0tRNM7jTp097iSoWJAgA1FGrNotLh4Ps1jQ0JEFgWD2+YjjI7ksgSHmyZIG7ucV13PmPJ/A3/3wKswvr5T6VdiPP3qemV8bOPTgNQ1ADJNB2+omRDDPnjeLC80Zx4e4RbJ1soSg8ukWG9T7Q7dOYs84BANGVni47ISrkLDAF8Op8xIr4ylJ2iJro5cqfnEV8mor0KGjwuHt8JctWeRN0zJVpqD82QYdDgv1e7Q9OSdD2ClViDhU/BC+xk1hFY6JP97l8KkgmyDlf+qDwACY/dJSiQp4dHoruhKQArA5sf8iv0CtoU34ise0E2pdhGtNf46d9pLzSPo7fIAb1L+fR7xWYXVzDqdOrmD29jvmltbgObPErTx9LUAGlbC53XXBI9Ek97dk2im++cgdeesVOTI7RRW3qbIe5E7D59k4gpc/zvPJKHQDGxsY2/H6BzAmkPHVzBOAXwDYUBOQbw2kgsEEAoE6oHa/CUadBIKUTA9NJ3Ko7gToZssnEcLoJZFmGrvkqmuSNjY2VZBeFx+eOnsZd/3QSnz82HyYcS502hSSnnhAAdfpw0tV03ggCYnIsx75tHdp2dHD+Nnp2uN/36HqPPt8tAOT4HHPSTxjmcHrlHCYcpdq8Z8vUufgwJl7hdGJzrZNkp5EMNxnRxGv3OWhk6ow4FSdu3milauEKs07V0x5nw8m4ehJEPDcspeQQI3vFHrmyFnu4XvVY9AlPEebB4+EWoTH6o3xOeUdsBkKwhdypSfFNsJUApkGEmUmP1cfBS4JEYemdtgC0Hu2wo8fSchenF9d5W8P8Et/ZMztXq0qLnbykBpJsyyfnSSWUxJUyMNLO8fyDW/DNV+7AhbvDI555nhOHCQRug3cCQDwxXEUrQzZS94JPg0AVb7rJnYCAxaWBQGDDQWB2dtZL5fR1hbRyEBDwFc7XmyDQRCOG2kncNAg08Quu7k7A5uV5Hg1BpXcCVfynFtbxN/98En/zzydxaoHXIqnoZFXZ4bCmE1v6CnFphpKJrzJo54Dtm1q4YHsH+7aNYP+ONnZuacMXQLcABwUPWTpdfR3YMQLsDcLEbnAe7EDZWYghZafBQYNz1AmwgoQ9dlI+eA3O1nEVsU9Tc8UeVZy5Yvdy1asK+Zbc2OujK12w7bF9EgRVn8t0uCUeJrG67XBOrM+C6NUxf1YsZF71yjGnybEwesf1KPrk4sXaCbBNxCc14KM5GlqB1tZ8v9/H7Pw6Ti+sY46d/lqXHv31Ff1R+EwDBHm1h/Y8MQQCNeK0vBV3BBfvmcJLLtuKFxzaipF29cfcZchG2scNcSeQ5vX7fX0nKqUVejt2L/kSBOr4qnTNz9OwdR2dBAIZ/cCZBgGw04QJBHVBAOAOmzjRbreLhYWFkmNN6aQAckcwMjLS+LJYlax0YriKXipL7gjyPK+8E6g6LgqPzx07jb/+7HF84YFlmgQt9clyDgmJDwMQwnb+ir5dy5ci7MnoHNDKgb1bO7hgRwcXbKdt82ROQaFPQaFbOAoM0TAJpXTB6Wh6z9PTH17UMx0AUmaOPZsnT5vQsJShN9Ui8lSuc3oFKsMNYpfeAZhHJa1eufQOSw8HPUIX6ROBCI+ERvSG1iFePZPG1M0dFYuzze+rnqrxzKx2WvuZRne4XuXQ0ww2TZCbO6GK+ie1tj7k4WBTLrWX8sXxew8sLNFY/tzCOmYX1rG02i8bKgWNUoO1/bGERTmnWVz9eRIIAAdMj7fxTVeeh5c/dzd2TLdLyzIAZQcqw9PiJ6ruBKr4JE+CQJqfHqdzBOmdQMqXbuD5zzQ/pZGAI4HgjIMAkkDQFAQErBO1QUCcakojmxjf7/dLdwLCm/JYXDoxXEUPU8Hdbhd5zSqnKa89Xlpawsn5NfzPL8/jY186jcXV/lCdNiKooQ9ABKUrm1q+GoTN5pNxfCTD/h0dzJzXwfnb2ti/o4N226HHQaFfOHQLcjC9gtpEmk6GQwC64iz4UVTBi3ZNNZ8NkCtTsUeu9MVZJHzwoQbS094jXOGqeH5NQqwsUJg5CHbSIsWj5DxVjy9CUGDDvOEz5MwfgomVp8HLtJ8TOx09jZReu6ptIQmp5psrfhm2MvUpEMorlU7aAJk78VhZ7WFhpYvF5S4WlrtYWO5jdl4enQ52wfZH49ybISGw4krSpfSGoIYvRYhdV120FTdevQvXX75Tz/P1ZIE2oNo5OzM0VBSF+rqUporPNUwMC9g8O0fQ9HRQyiebBIEqvAUbCM4qCICFOY5ag4IAQJ3LmyBg81Knao+lEHme651ASpvyyCZBIM2vynNmaVa5E0hpqvIAYGlpSaNrvyjw1UdW8dlji/j8fUs4vRxuv4i5rvMSlFyApa/kq0ZY/hhbTa/AJ/P0eIbt0y1sn2pj+3SObdNtbJvKsX2qBQ+HXgH0zbBSvwAtQCZX0my41pno1WNVpzue6eTpIoAf0eSxbutkSHyIEiI/fkkqnACqx16JcwV5Ry/heVDbWnqpP5LqzDGFFbqyNsM8PEYu6q0T9t7Ug9hboc+mBDJHQY/Ekl7RLwxUVm9lcXkc+EYD4IUlgF7hsbTSxfxSF4srPSws9bC40sXCck/nFUhGQ3+shITAHnK91PfHCsGlQyq3TS3kmcPl+zfjBYe24/mHtmPTRKfkQNcrvuFb5UBVJjvosbExvWqv47F5VXcCTfSip91uY2xsrJK2is9VTAwLvgokEIBHcoYF1+12S81eFAXW1+vW4KkGl3yoIHWoaZ7nyeherxfNEQziATDUnYOAHK+vr6PQD1FU86XH7TZ9KSjFF4XHVx5ewqfvPY3PfPU05pbsqobVnbjuXAgQI5S89kqsWaDlE7ua6AFgy0SObVMtbJ9uYdtUC9umads6kaMALZBXFIUGh76n1SoL79kRkkJZMwbsLOkpGK4//hErqF6FnsevCaFuyvI4flNV+DzsU0jhDkblB3GcJvqkWsyVesQrfFx/HnYsPsi1MdIldwDq1D1CGU35BGXUAabdXEYKQv8C1rrk4OeXu1hc7uE0O/ullabn8SPEAIgJyv0phRrBSXa1XdV8I+0Ml++fxnOfsxnXXLQF46Plq3W732q1omEdi6s6djxU0+v1SjR1Ohw7dfENg+RLPsxcaJqf0lv82Bh9sCblaYJutxvN7w4C58W7JbC8vBxNrA6CVquFiYmJksOs2ixudXUV6+vrOkdQxZfmTU9PV+Y35fV6PayurkZPDaU8aTo2NqaRNaWV/aLwuPfhRXzqK3P49FdP04RyRZ+W7m87f0RWQ186iwSbOJ3QTNX0CiW0tauaK3PA5GiG6fEWNo3nmB7PsGmihenxHFNjOTaNZZgYzQBkHBjICRZw6PEIWl+WXWAF9hFEl2Xh6RcxwAe7COgEUH7OV3tFntB6phAH66mEHnwHws5MUl8KJlyvxk6rj47ZJpUQCDwoWKiTk4TvVMhS4hRwfBvT7RVYXuthea2P5RVO1/pYXu1jZY229R7NoYgVJWeaHJbBEpTvdMp8MX1K4E1wiLHlnFK2QU+M5njuxdvwvEu24eDuUWQufpIHqHbO4CcNZbjF4gYdr66u6h1/FT7Nk+GWOrq6fLlTSd8jENoqni1btihuWBBfZyeLm6A2CMjjnnL1PAjsOJQ4yXSrwq2srGgAqHvRK82TIDCIzh73ej29hbPBrYpeQIJAFb5O19ceWcbH/ulRfO6+JcwumUaorUI6C6wTdkhORkkNfa1ARpdPyhp6gZLYsl0RlOzzmB7LMT3ewtR4hunxHNNjOabGc0yN5hhpO3TaDp08Q7udAfyECi2JTE7Xc1AF6A3VwpPTLABaadOHUuhoDGfQqEnwYtFTT16CTXjqyesEbqgwW8bYiYexfgoaDhTiaALWwYf2QnCmdEj8+jZ4t4e1nsd6t8DSag/Lq30srZKTX1rtYWW1j16/qrVshZcPU6B2Mxcd5Q5RAzGBHtXSCyQEVkxtf6S9LZMdPO+SbXj+we248sItAMgZLiwsoGW+uyv5dfvykIl1opau7lie9JFz2OJTHvAqnRMT5dVFU9lpnizPDx5tSfFVPFu2UH1sBHq9HpaXl6PJ4iZoDAI9/mzkMLcW6WRElYNMN3ADrK6u6uSJ6Kqilf2N3AnIcbfbxdLSks55VAWC9Hh8fBx5zfpJdXwA9D2GB0518ZmvzuNz9y3hxEK3/g4gymhGaG7jHUCZL0V7HTZJhgtSKIkrZZRyxb5kJ6JvtxxG2xlG2hlGOxkFiZbDCOeNtB3nZRhtZ2i1HPLMIc88WlkLWUarqbYyh6zl9NsL0NGa8IKah3n5CXprQMcF7Yf6pFVf+/0C/cKj2/fwhUOv6KNfePR7QN97rK732Zl7rPcKrHcLWjq826cX+rp9zVvr0oWUDQ41tW0bqLI5S/Uc8VUiKiEOErXNZKCGoNbcektH2jkuvWAal89sxhUzm3HBzuBQgeAAFxYW4Aasl2P3Ow0fe7H76fHy8jL6/b6e61U0As68kZvSVPHZTUY9ZFJadNXRA8DmzZtV97DQ49Ub0qeG6mBgEAA7+EGC0iAgYB1llfOUIACe2JBAUEePs7gTWFpagjeNbO88LL3sj4+PDxwOqtq3T0nlvNz1I3Pr+MrDK/jyg8u499FVrKwlj3ckJ5eeOiVnX6JIEQSMDifncPSRYpNhg1elFM2opQAqy1VbwGrQclXb084lWAC57tNxK8/IkRce/b5nZ0/HvT5twT5jV31xFOwVtzPDR4NBCxTpseWK1Sc5ZYIIAjohGMCXEkTVUdlcNRbz4aHzp3H5/s24bGYTDp2/CQA5Pkmr9u3S9HJHkNLYfRkOsvkpXXoMHvqWINNK3sIVsPxVdwIpTVX+2tqaPsKaBoKUR+BsggDMgz5NF/JDBQEMEQjqgoCAOEW7ge8E7O2YDL+kk8VWRt2dQHps8+ROQI7BjdMUcCYmJgYOB1Xtywseki+BQGgK7/HAyTXc89AK7nl4BceO08s41Scln0UJov6krKZXqEEP5eQjRJxhj6rJSphG8MaZNt6pCNRUyECt5QqshCCnYnhlGGD6yMxG9sTyhNBixa4SfWWDVEuwdwTV1dEsMK3+87eP4pJ9k7hk3ySufs4OjI+GL3NJaver8sSRSb69I7B8sl+1Nk+V3PRYgoAcSyCooz+TOwEAURAQPeIjLJ2Fsw0CYFsyXuW0CoYOAuBHquoEDQoCAJ3YqeNMg4CFuqGhTZs2RccpTdWxBAGLB1dQXSAYdjgo3bffO5B8CQQprfceeauDr5/s4ov3L+CL9y/i6KPL6IcZywQ8KhE2O3EylJYExVASlwwXxOiSvkFO3pKRsygJSFliYEYfDWM1cJUVVqNL2jknoR8E3k6sDgVGT2V7pZBg6gkBIGm/YeYE4hoZHBRi2Lm5g0P7JnHJ3glcsm8SE+ZJHlmWPnWSaZruy3CQzU8dtKUfdmI4xS0tLUXBBebOo4r+bO8EbJ7UiwShFM5FEADrqwsEGwoCaAgEwwQBAXGCnp8OWllZifLARvtkYlrww94J2ONut4vl5eUSXkD0WNy5GA6SfPCtmQ0EktoP6wDAyloP9zy0hC/ev4gv3L+Ah06tBXoY38bHBIrRnAgSdMlJDOSzAsp6SrmVfPXgTXCQth8KIj0V2XXag8IUA1TxW/pKgSnEEnzN8FUZmMLqMQwlu5oIGqB05zeQLxBsmWzj/O2juGDnOC7YPoqZ88YxNd7W4VwgdtA2CKS4un0kw0GSgidm0yt1mC932fw6+fZY5gRSfDo0JPhzdScg+eJjqgLBuQoCYJuqAsGGgwBqAsFGgoCAN3cCqSO1zsBuGGJOoOq4a9Y2sngLaSCwdwIpT9O+HQ5K8dIINi/9ulrKu7pe4KuPLOK+4ys4+ugy7ju+gpML62g6a33JZ/lG+rJ3iTNKTqPEVxIQy2ew5GRfM71CwuiHdqoMXJ91UJJTrsBGsFfcwtYMSX0lehKsUV9BX2FfyE6CfA19GYhgy2QHB3ZNYOa8CVy4exIX7BhDjvBClk1lIjK9gpZlGeQ45UvzZD8d0rB466AlPx0OsvTpsd1fXl5Gz7wrYPFVcxFVdwKpzKrj9E7Aggw7y3kvcC6DAIw9NuCcURCAmcQVOJMgAKD2TkD2rcGSNz09HR2nPFXHUjEWLzQW7BCUvDVdJbNpX9Y2kvw0tYEAfGVhl9OuS+3+0lofX7pvFvcdX8HXT6zh/pNrOL3cx8CzvISmjOGHV2xGNdoBFTGhJKAamMwPO+wj4O2VfUPQSiHiq4cgp2J4ZRhgequumV0ropKwVL1pSQcXPJLgvce26Q5mziOHL05/cix+QaufLJ6Wpo6vNiUQuIogYGmb8mQFgjp8u92OnPfZDAelAcXS2qeGcA7uBOqgKhCc6yAAts3eEZxxEEBi9NkEAXk6SGSlDk9AgoG9E0j56o7tnECKE/Dc0FI58jq5lVm1n+aly1oI2Dw7WZx+YjOVV5dK55XjxdU+7ntsDfc9toL7T6zjgZNrWFiVl4qCHZXgkTgNyqh1wpbeAYOcvCVzpTuAej4FZvRnFRxMdq12zvHVzrcOvLkDqFBXAbEeq65abYKpJwSA6A4gDVpTYy2ct7mD83dOYteWEezdMY6ZnROYGg/f161LBwUBmCdSpF/KKp1VtNZJpnn2gypVeCRPDVUNB9n99Fj2ZTioCiebDNmAdcqXu+pkV+VZX1cHQitlejyCAFiPBIKzCgIwgSDP87MOAgLiAK0jlPyiKLBpEz1iltLUHcMMB1XhUj2OO/tGhoNsXtXEsKWTfQkE6ZzAsGkaBKrSpdU+Hlvo4dG5dZxY6OPEQg+PzK7hsfl1FEXsLCrBI3E2pYxSrgNMTKimT8HbK2QNEhuARE/Jnip6VVhFQBD4ec/yDQXE522QqFcXNFpCw1BfrpjAAdg+3cF5mzvYuamDXVtGsGtLB+dtHsH4CF3YWEfWlNr9ouKDKmkqm9wRVM0J1PHZPJkYrsNLnpyj6ctiliY9tvvpcFAdn1wQZllW+pB7Fb09Ro2vqwLh8d4/bkEArCfLsrMPAuBKyfMcExMTKWogNFWMT4KB46uLM50YtncCFle1n2UZRkZGKoeDqujtvv3oTRXepjkvLpUuojdMOkwQkDTj8Vq5Uur3Czw2v46HT63i0bl1PDxL6SOzq7xaqod1NwOHVzSjlgKwWOvsaSclrQYW4M9kTqBBT1zaxK4hFNgrbumnw4EWaAPOPuR0Whl2bx3Fzk0d7JhuYdfmEZy3uYMdmzpot8LVq3VGsj8oCFTlDRMEbJrzEu5pEJC0Kc8OB1Xh7X6L1w3a6HAQGiaGq2RkvH6/XPCm+PTYQpOvS0H45YJ3IzBsEBA4J0EAXDmTk5PRbdMwMEzF+CQYTE5OavS3jq7qWPbtxHCKq9sfHR2tnLAdtJ9+70D201T22+02RkZGIFBFU5XKFYzNT2ls6nh1WLl7q+Nb6/Zx4vQ6Ti52cXJ+HY+dXsXJ+TXMLvUxu9jF/HJfPxIjzsgehVybUcI0gjfOtPFORcCXbiUoe5DWhL4Ogpzy8MpQwPSRmQ3smQMmx1rYPNHG5ok2tky2sXmyjc2THT3eMtXBJD+KaZdRrgLrpASqrtDr6CXdaBBwyXIOKU7SqrxBcwLpvqzSKT6oiqZqP70TSOnkWPLkTkDqLqWvg2F8XQqTQyzpn8KGg0C6lLTARpX3NrhokYAdxxsE4hRnZ2fheNxM8qqcmcW1Wi39noDFNe3L8JGM3Vv5VfSSTk1NlfKa6FdXV1Hwyq1WT8qXpukjrDatyuv1erp+SYqropf9EfPNB4ET8+s4tbCOUxwoTi6sY1b3u1jvxY+7eYRY4OQOoDpsVAMz+mHnBMoKq9El7ZyT0A8CP+RTQZ2Ww8RoCxOjOabGWtg00caWyQ42T5DDnx7PMTHiMD0aHItA3T7MZ1rraKyjEljkpQVsu6Z0aSrnUZrflErQqBpySVO7Pz09XcqropN9WSm42+3W0lTtT0xMRKuC1tHJcb/fj9YBsrgm2IivE5ibm9NhtWFho/Oz5zQILC4uIue3+mzHaoIzqZjZ2VndrwoEqRPzPP5et8pp3f7S0hK6/EEaCQSp7DT1NcNVKZ1N5Qqh1WpFq5zaVMDmNwUByyf7PbOwlK23lC7NqwoCdXbJ/vGT8zi12MVq12NxtYeV9QJrXVpzZ3mtwGq3wOo6pWs9j5W1Amu9AivrBS3fkMivBQ9zp1GRbdKYoDo4CJT4Lb0DRloZxkcyjI/kmBjJMdZxvJ9hbCTH+EiGiZEcW6fpGfrJsTamx+PzKXUczky8ps45Bcvr+Gr7TIKAM2P3VXRpaod9U5xN7b4Mt7QaXvSqypMgMIhO9tfX17G6ulr7HkHd/uTkJNrtMCleRyf7/X4fi4uLpaHiQXAmvm5ubk71DhsIvuFBANxRhg0EZ1oxFqTBbYOkjZNlmXbeOrp0X4bEfMXSD6l8m1/19FKa2v21tTW9Tcz5HQxp8CpegTMNAt4sz2E7Vh3vmQSB9Fa+iV4g4w98gJ90WuEllFe7tHhbwVu/IP6+p8fuer0C/aIAkKHXL3h1UlqRtPC0TEdRUJpnDq3cYWJsFK2c9lu5QzvPKG3RonQ558mxL3rw/R5arQyjneDMUpDyCqTj4RbSPHEwy8vLgHnyRerK0qf7wwYBuy/nqzgZbx6DTFPZHzYI2HRlZUXryz7WmdKmeZs2bSrlVdFJnn0ZS+pOIOWz++LrJL+OTrYer0OGJ9DXie5hAsGTIgiADbHDDnVwNhUD0xGaAoHn4SC5E6ijS/cXFxejK3O5Uq+ilRRmwq2JzqY2CIgee+eR8si+rG2UyqtKkQQBmIBjdaQ8/iyDgEDagVN+mEnEKqiiR+JgPAfrOgdtYUMniRlzF6jSI33RQtMX+lJ6lwQBZ9bL8cZBC87un00QAAdgC1X04PP6TIKAdfzWQae0zjhemRS1eVV0kq6vr0cvY6V3BFV8LhkOsvl1x99IX+eGCAQbDQIbm8XdAPR6PWTmc2ePF8jJIVdbolMqzB6f7X6/30en0ynhLV2anx5XbUJj9bTb9Bp+1ZbSn+kmTjPnJ5Tqtio9TTx1uLr8s91svXv+IlxKc6abtVn0OD4RRY9tj3RL5VXJbdo8XxS0Wq0Szm5NuobZUv60HCl+I1vKK2Wqwklemp8eV+WlfHIeVfkGScEBsE6e3a+DJ9LXwQS0cwWPq9X9fv8JqZyC305MG7uqITeyX7XZQNDEU5WX4ppoiqJAq9Uaylk0yRm0ga8chtFjt43qBF89y8m/UX119FV2SCBwFY5MtpQn3YYJjsO0URNuWDoJ1oMCwdlsjh2LlHuYOkq3tF83yUiDdVX7pGm6P0xeURRRW1bpqZJhdQ8DT7SvO5d6smELeabwREVJuWUWPXUNPMx+VZ7dL4pCb72beNKtCVe1yRVTk4PY6OYqToIz0bMRWtmkXZqcWZPcJly6eX4TeyM82ZDO327izDbCsxFa2WAcdIo70y3tB9mQbWT5bVq31dHJ3ZS1IaWpklMns45X+nednpRP6DYK3yhfd7aQSdR/POGJqhy5XbJ60gauavR0sx2litbxcIC9I6iiGwZXtwlPk4NO5abHw2xSxmGuas/FJjYO42Sqto3YZx30sFsqY9CW8/sq57ruqmQ9HnqqtqY2qjsnht1cMs6enkeWLs1rwtk82be6JODkNUNDlv5s4Bvp684Ush5/QvJcVEATyMRQzq9eP15gh4ZSGLbzpPtVebZj1dFVyUg3oRH7Uh7HT21sxEmlMury0k1une1V0zB8w2zWdpg3L1O6c72lww5nug2qhyoHPWx7bWSTvmDrbpBtZ7KB7zzSIZuUbtitqS9VDbFaPptW4dK8qr7rkkCQ8pxLeDL4uo3A/w9ha3YQ9nIAtAAAAABJRU5ErkJggg==;" parent="_9igIO5fBCOPrin5odHY-25" vertex="1">
          <mxGeometry x="356.52" y="53.5" width="66.96" height="80" as="geometry" />
        </mxCell>
        <mxCell id="_9igIO5fBCOPrin5odHY-34" value="9" style="ellipse;whiteSpace=wrap;html=1;aspect=fixed;fillColor=#d5e8d4;strokeColor=#82b366;" parent="_9igIO5fBCOPrin5odHY-25" vertex="1">
          <mxGeometry x="140" y="80" width="27" height="27" as="geometry" />
        </mxCell>
        <mxCell id="LD5Ol6cWUQSVc5vYyNdD-3" value="Mult AZ" style="text;html=1;align=center;verticalAlign=middle;whiteSpace=wrap;rounded=0;" parent="_9igIO5fBCOPrin5odHY-24" vertex="1">
          <mxGeometry x="190" y="70" width="60" height="30" as="geometry" />
        </mxCell>
        <mxCell id="_9igIO5fBCOPrin5odHY-36" style="edgeStyle=orthogonalEdgeStyle;rounded=0;orthogonalLoop=1;jettySize=auto;html=1;flowAnimation=1;" parent="_9igIO5fBCOPrin5odHY-23" source="_9igIO5fBCOPrin5odHY-38" target="_9igIO5fBCOPrin5odHY-40" edge="1">
          <mxGeometry relative="1" as="geometry" />
        </mxCell>
        <mxCell id="_9igIO5fBCOPrin5odHY-37" value="URL" style="edgeLabel;html=1;align=center;verticalAlign=middle;resizable=0;points=[];" parent="_9igIO5fBCOPrin5odHY-36" vertex="1" connectable="0">
          <mxGeometry x="0.0339" relative="1" as="geometry">
            <mxPoint as="offset" />
          </mxGeometry>
        </mxCell>
        <mxCell id="_9igIO5fBCOPrin5odHY-38" value="Cloud Front" style="outlineConnect=0;dashed=0;verticalLabelPosition=bottom;verticalAlign=top;align=center;html=1;shape=mxgraph.aws3.cloudfront;fillColor=#F58536;gradientColor=none;" parent="_9igIO5fBCOPrin5odHY-23" vertex="1">
          <mxGeometry x="67" y="525" width="70" height="80" as="geometry" />
        </mxCell>
        <mxCell id="_9igIO5fBCOPrin5odHY-39" style="edgeStyle=orthogonalEdgeStyle;rounded=0;orthogonalLoop=1;jettySize=auto;html=1;flowAnimation=1;" parent="_9igIO5fBCOPrin5odHY-23" source="_9igIO5fBCOPrin5odHY-40" target="_9igIO5fBCOPrin5odHY-42" edge="1">
          <mxGeometry relative="1" as="geometry" />
        </mxCell>
        <mxCell id="_9igIO5fBCOPrin5odHY-40" value="API - GTW -EXT&lt;br&gt;Limite xxxx" style="outlineConnect=0;dashed=0;verticalLabelPosition=bottom;verticalAlign=top;align=center;html=1;shape=mxgraph.aws3.api_gateway;fillColor=#D9A741;gradientColor=none;" parent="_9igIO5fBCOPrin5odHY-23" vertex="1">
          <mxGeometry x="290" y="520" width="80" height="90" as="geometry" />
        </mxCell>
        <mxCell id="_9igIO5fBCOPrin5odHY-41" value="Cognito - Autenticação&amp;nbsp;" style="outlineConnect=0;dashed=0;verticalLabelPosition=bottom;verticalAlign=top;align=center;html=1;shape=mxgraph.aws3.cognito;fillColor=#AD688B;gradientColor=none;" parent="_9igIO5fBCOPrin5odHY-23" vertex="1">
          <mxGeometry x="516.15" y="535" width="60" height="60" as="geometry" />
        </mxCell>
        <mxCell id="_9igIO5fBCOPrin5odHY-42" value="JW TOKEN" style="sketch=0;outlineConnect=0;fontColor=#232F3E;gradientColor=none;fillColor=#DD344C;strokeColor=none;dashed=0;verticalLabelPosition=bottom;verticalAlign=top;align=center;html=1;fontSize=12;fontStyle=0;aspect=fixed;pointerEvents=1;shape=mxgraph.aws4.sts_alternate;" parent="_9igIO5fBCOPrin5odHY-23" vertex="1">
          <mxGeometry x="306.15" y="340" width="47.69" height="60" as="geometry" />
        </mxCell>
        <mxCell id="_9igIO5fBCOPrin5odHY-43" value="" style="endArrow=classic;startArrow=classic;html=1;rounded=0;flowAnimation=1;" parent="_9igIO5fBCOPrin5odHY-23" source="_9igIO5fBCOPrin5odHY-40" target="_9igIO5fBCOPrin5odHY-41" edge="1">
          <mxGeometry width="50" height="50" relative="1" as="geometry">
            <mxPoint x="520" y="710" as="sourcePoint" />
            <mxPoint x="570" y="660" as="targetPoint" />
          </mxGeometry>
        </mxCell>
        <mxCell id="_9igIO5fBCOPrin5odHY-44" value="Artefatos do Front" style="sketch=0;outlineConnect=0;fontColor=#232F3E;gradientColor=none;fillColor=#7AA116;strokeColor=none;dashed=0;verticalLabelPosition=bottom;verticalAlign=top;align=center;html=1;fontSize=12;fontStyle=0;aspect=fixed;pointerEvents=1;shape=mxgraph.aws4.bucket;" parent="_9igIO5fBCOPrin5odHY-23" vertex="1">
          <mxGeometry x="28.539999999999964" y="630" width="38.46" height="40" as="geometry" />
        </mxCell>
        <mxCell id="_9igIO5fBCOPrin5odHY-45" value="" style="endArrow=classic;startArrow=classic;html=1;rounded=0;flowAnimation=1;" parent="_9igIO5fBCOPrin5odHY-23" source="_9igIO5fBCOPrin5odHY-38" target="_9igIO5fBCOPrin5odHY-44" edge="1">
          <mxGeometry width="50" height="50" relative="1" as="geometry">
            <mxPoint x="240" y="800" as="sourcePoint" />
            <mxPoint x="290" y="750" as="targetPoint" />
          </mxGeometry>
        </mxCell>
        <mxCell id="_9igIO5fBCOPrin5odHY-46" value="JWT" style="sketch=0;outlineConnect=0;fontColor=#232F3E;gradientColor=none;fillColor=#232F3D;strokeColor=none;dashed=0;verticalLabelPosition=bottom;verticalAlign=top;align=center;html=1;fontSize=12;fontStyle=0;aspect=fixed;pointerEvents=1;shape=mxgraph.aws4.saml_token;" parent="_9igIO5fBCOPrin5odHY-23" vertex="1">
          <mxGeometry x="300" y="441" width="38" height="38" as="geometry" />
        </mxCell>
        <mxCell id="_9igIO5fBCOPrin5odHY-47" style="edgeStyle=orthogonalEdgeStyle;rounded=0;orthogonalLoop=1;jettySize=auto;html=1;entryX=0;entryY=0.5;entryDx=0;entryDy=0;entryPerimeter=0;flowAnimation=1;" parent="_9igIO5fBCOPrin5odHY-23" source="_9igIO5fBCOPrin5odHY-41" target="_9igIO5fBCOPrin5odHY-28" edge="1">
          <mxGeometry relative="1" as="geometry" />
        </mxCell>
        <mxCell id="_9igIO5fBCOPrin5odHY-48" value="Glue&lt;br&gt;via ETL&amp;nbsp;" style="sketch=0;points=[[0,0,0],[0.25,0,0],[0.5,0,0],[0.75,0,0],[1,0,0],[0,1,0],[0.25,1,0],[0.5,1,0],[0.75,1,0],[1,1,0],[0,0.25,0],[0,0.5,0],[0,0.75,0],[1,0.25,0],[1,0.5,0],[1,0.75,0]];outlineConnect=0;fontColor=#232F3E;fillColor=#8C4FFF;strokeColor=#ffffff;dashed=0;verticalLabelPosition=bottom;verticalAlign=top;align=center;html=1;fontSize=12;fontStyle=0;aspect=fixed;shape=mxgraph.aws4.resourceIcon;resIcon=mxgraph.aws4.glue;" parent="_9igIO5fBCOPrin5odHY-23" vertex="1">
          <mxGeometry x="1250" y="550" width="60" height="60" as="geometry" />
        </mxCell>
        <mxCell id="_9igIO5fBCOPrin5odHY-49" value="EventBridge&lt;br&gt;Schedule xx:xxhs" style="sketch=0;points=[[0,0,0],[0.25,0,0],[0.5,0,0],[0.75,0,0],[1,0,0],[0,1,0],[0.25,1,0],[0.5,1,0],[0.75,1,0],[1,1,0],[0,0.25,0],[0,0.5,0],[0,0.75,0],[1,0.25,0],[1,0.5,0],[1,0.75,0]];outlineConnect=0;fontColor=#232F3E;fillColor=#E7157B;strokeColor=#ffffff;dashed=0;verticalLabelPosition=bottom;verticalAlign=top;align=center;html=1;fontSize=12;fontStyle=0;aspect=fixed;shape=mxgraph.aws4.resourceIcon;resIcon=mxgraph.aws4.eventbridge;" parent="_9igIO5fBCOPrin5odHY-23" vertex="1">
          <mxGeometry x="1390" y="553.48" width="53.04" height="53.04" as="geometry" />
        </mxCell>
        <mxCell id="_9igIO5fBCOPrin5odHY-50" style="edgeStyle=orthogonalEdgeStyle;rounded=0;orthogonalLoop=1;jettySize=auto;html=1;entryX=0;entryY=0.5;entryDx=0;entryDy=0;entryPerimeter=0;flowAnimation=1;" parent="_9igIO5fBCOPrin5odHY-23" source="_9igIO5fBCOPrin5odHY-48" target="_9igIO5fBCOPrin5odHY-49" edge="1">
          <mxGeometry relative="1" as="geometry" />
        </mxCell>
        <mxCell id="_9igIO5fBCOPrin5odHY-51" value="Trigger" style="edgeLabel;html=1;align=center;verticalAlign=middle;resizable=0;points=[];" parent="_9igIO5fBCOPrin5odHY-50" vertex="1" connectable="0">
          <mxGeometry x="0.0833" y="2" relative="1" as="geometry">
            <mxPoint as="offset" />
          </mxGeometry>
        </mxCell>
        <mxCell id="_9igIO5fBCOPrin5odHY-52" style="edgeStyle=orthogonalEdgeStyle;rounded=0;orthogonalLoop=1;jettySize=auto;html=1;flowAnimation=1;" parent="_9igIO5fBCOPrin5odHY-23" source="_9igIO5fBCOPrin5odHY-53" target="_9igIO5fBCOPrin5odHY-55" edge="1">
          <mxGeometry relative="1" as="geometry" />
        </mxCell>
        <mxCell id="_9igIO5fBCOPrin5odHY-53" value="CLOUD WATCH / ALARME / METRCS" style="outlineConnect=0;dashed=0;verticalLabelPosition=bottom;verticalAlign=top;align=center;html=1;shape=mxgraph.aws3.cloudwatch;fillColor=#759C3E;gradientColor=none;" parent="_9igIO5fBCOPrin5odHY-23" vertex="1">
          <mxGeometry x="1295" y="250" width="50" height="60" as="geometry" />
        </mxCell>
        <mxCell id="_9igIO5fBCOPrin5odHY-54" style="edgeStyle=orthogonalEdgeStyle;rounded=0;orthogonalLoop=1;jettySize=auto;html=1;flowAnimation=1;" parent="_9igIO5fBCOPrin5odHY-23" source="_9igIO5fBCOPrin5odHY-55" target="_9igIO5fBCOPrin5odHY-57" edge="1">
          <mxGeometry relative="1" as="geometry" />
        </mxCell>
        <mxCell id="_9igIO5fBCOPrin5odHY-55" value="SNS" style="sketch=0;points=[[0,0,0],[0.25,0,0],[0.5,0,0],[0.75,0,0],[1,0,0],[0,1,0],[0.25,1,0],[0.5,1,0],[0.75,1,0],[1,1,0],[0,0.25,0],[0,0.5,0],[0,0.75,0],[1,0.25,0],[1,0.5,0],[1,0.75,0]];outlineConnect=0;fontColor=#232F3E;fillColor=#E7157B;strokeColor=#ffffff;dashed=0;verticalLabelPosition=bottom;verticalAlign=top;align=center;html=1;fontSize=12;fontStyle=0;aspect=fixed;shape=mxgraph.aws4.resourceIcon;resIcon=mxgraph.aws4.sns;" parent="_9igIO5fBCOPrin5odHY-23" vertex="1">
          <mxGeometry x="1295" y="160" width="50" height="50" as="geometry" />
        </mxCell>
        <mxCell id="_9igIO5fBCOPrin5odHY-56" value="" style="html=1;verticalLabelPosition=bottom;align=center;labelBackgroundColor=#ffffff;verticalAlign=top;strokeWidth=2;strokeColor=#0080F0;shadow=0;dashed=0;shape=mxgraph.ios7.icons.mail;" parent="_9igIO5fBCOPrin5odHY-23" vertex="1">
          <mxGeometry x="1220" y="160" width="30" height="16.5" as="geometry" />
        </mxCell>
        <mxCell id="_9igIO5fBCOPrin5odHY-57" value="Push notification&amp;nbsp;" style="sketch=0;pointerEvents=1;shadow=0;dashed=0;html=1;strokeColor=none;fillColor=#505050;labelPosition=center;verticalLabelPosition=bottom;verticalAlign=top;outlineConnect=0;align=center;shape=mxgraph.office.communications.push_notification_service;" parent="_9igIO5fBCOPrin5odHY-23" vertex="1">
          <mxGeometry x="1210" y="40" width="50" height="58" as="geometry" />
        </mxCell>
        <mxCell id="_9igIO5fBCOPrin5odHY-58" value="3" style="ellipse;whiteSpace=wrap;html=1;aspect=fixed;fillColor=#d5e8d4;strokeColor=#82b366;" parent="_9igIO5fBCOPrin5odHY-23" vertex="1">
          <mxGeometry x="350" y="498" width="27" height="27" as="geometry" />
        </mxCell>
        <mxCell id="_9igIO5fBCOPrin5odHY-59" style="edgeStyle=orthogonalEdgeStyle;rounded=0;orthogonalLoop=1;jettySize=auto;html=1;flowAnimation=1;" parent="_9igIO5fBCOPrin5odHY-23" source="_9igIO5fBCOPrin5odHY-35" target="_9igIO5fBCOPrin5odHY-48" edge="1">
          <mxGeometry relative="1" as="geometry">
            <Array as="points">
              <mxPoint x="1060" y="580" />
            </Array>
          </mxGeometry>
        </mxCell>
        <mxCell id="_9igIO5fBCOPrin5odHY-60" value="S3" style="outlineConnect=0;dashed=0;verticalLabelPosition=bottom;verticalAlign=top;align=center;html=1;shape=mxgraph.aws3.s3;fillColor=#E05243;gradientColor=none;" parent="_9igIO5fBCOPrin5odHY-23" vertex="1">
          <mxGeometry x="1286" y="365" width="68" height="70" as="geometry" />
        </mxCell>
        <mxCell id="_9igIO5fBCOPrin5odHY-61" style="edgeStyle=orthogonalEdgeStyle;rounded=0;orthogonalLoop=1;jettySize=auto;html=1;flowAnimation=1;" parent="_9igIO5fBCOPrin5odHY-23" source="_9igIO5fBCOPrin5odHY-35" target="_9igIO5fBCOPrin5odHY-60" edge="1">
          <mxGeometry relative="1" as="geometry" />
        </mxCell>
        <mxCell id="_9igIO5fBCOPrin5odHY-62" style="edgeStyle=orthogonalEdgeStyle;rounded=0;orthogonalLoop=1;jettySize=auto;html=1;entryX=0.5;entryY=1;entryDx=0;entryDy=0;entryPerimeter=0;flowAnimation=1;" parent="_9igIO5fBCOPrin5odHY-23" source="_9igIO5fBCOPrin5odHY-60" target="_9igIO5fBCOPrin5odHY-53" edge="1">
          <mxGeometry relative="1" as="geometry" />
        </mxCell>
        <mxCell id="_9igIO5fBCOPrin5odHY-63" value="11" style="ellipse;whiteSpace=wrap;html=1;aspect=fixed;fillColor=#d5e8d4;strokeColor=#82b366;" parent="_9igIO5fBCOPrin5odHY-23" vertex="1">
          <mxGeometry x="1354" y="350" width="27" height="27" as="geometry" />
        </mxCell>
        <mxCell id="LD5Ol6cWUQSVc5vYyNdD-4" value="Lambda - Trigger" style="outlineConnect=0;dashed=0;verticalLabelPosition=bottom;verticalAlign=top;align=center;html=1;shape=mxgraph.aws3.lambda;fillColor=#F58534;gradientColor=none;" parent="_9igIO5fBCOPrin5odHY-23" vertex="1">
          <mxGeometry x="566.0000000000001" y="637" width="33" height="33" as="geometry" />
        </mxCell>
        <mxCell id="_9igIO5fBCOPrin5odHY-64" value="" style="endArrow=classic;startArrow=classic;html=1;rounded=0;flowAnimation=1;" parent="_9igIO5fBCOPrin5odHY-1" target="_9igIO5fBCOPrin5odHY-38" edge="1">
          <mxGeometry width="50" height="50" relative="1" as="geometry">
            <mxPoint x="-2120" y="350" as="sourcePoint" />
            <mxPoint x="-2460" y="270" as="targetPoint" />
          </mxGeometry>
        </mxCell>
        <mxCell id="_9igIO5fBCOPrin5odHY-65" value="Solicitação&amp;nbsp;" style="edgeLabel;html=1;align=center;verticalAlign=middle;resizable=0;points=[];" parent="_9igIO5fBCOPrin5odHY-64" vertex="1" connectable="0">
          <mxGeometry x="-0.2415" y="-3" relative="1" as="geometry">
            <mxPoint as="offset" />
          </mxGeometry>
        </mxCell>
        <mxCell id="_9igIO5fBCOPrin5odHY-66" value="LDAP/base cliente&amp;nbsp;" style="outlineConnect=0;dashed=0;verticalLabelPosition=bottom;verticalAlign=top;align=center;html=1;shape=mxgraph.aws3.traditional_server;fillColor=#7D7C7C;gradientColor=none;" parent="_9igIO5fBCOPrin5odHY-1" vertex="1">
          <mxGeometry x="-1410" y="740" width="46.5" height="63" as="geometry" />
        </mxCell>
        <mxCell id="_9igIO5fBCOPrin5odHY-67" value="1" style="ellipse;whiteSpace=wrap;html=1;aspect=fixed;fillColor=#d5e8d4;strokeColor=#82b366;" parent="_9igIO5fBCOPrin5odHY-1" vertex="1">
          <mxGeometry x="-2196" y="363" width="27" height="27" as="geometry" />
        </mxCell>
        <mxCell id="_9igIO5fBCOPrin5odHY-68" style="edgeStyle=orthogonalEdgeStyle;rounded=0;orthogonalLoop=1;jettySize=auto;html=1;flowAnimation=1;entryX=0;entryY=0.79;entryDx=0;entryDy=0;entryPerimeter=0;" parent="_9igIO5fBCOPrin5odHY-1" source="_9igIO5fBCOPrin5odHY-66" target="_9igIO5fBCOPrin5odHY-17" edge="1">
          <mxGeometry relative="1" as="geometry" />
        </mxCell>
        <mxCell id="_9igIO5fBCOPrin5odHY-69" value="&lt;font style=&quot;font-size: 14px;&quot;&gt;&lt;b&gt;Ambiente&amp;nbsp; Starlnsurance&lt;/b&gt;&lt;/font&gt;" style="text;html=1;align=center;verticalAlign=middle;whiteSpace=wrap;rounded=0;" parent="_9igIO5fBCOPrin5odHY-1" vertex="1">
          <mxGeometry x="-1250" y="320.75" width="210" height="30" as="geometry" />
        </mxCell>
        <mxCell id="_9igIO5fBCOPrin5odHY-70" style="edgeStyle=orthogonalEdgeStyle;rounded=0;orthogonalLoop=1;jettySize=auto;html=1;flowAnimation=1;" parent="_9igIO5fBCOPrin5odHY-1" edge="1">
          <mxGeometry relative="1" as="geometry">
            <mxPoint x="-2053" y="808.25" as="sourcePoint" />
            <mxPoint x="-2103" y="93.25" as="targetPoint" />
            <Array as="points">
              <mxPoint x="-1963" y="808.25" />
              <mxPoint x="-1963" y="168.25" />
              <mxPoint x="-2103" y="168.25" />
            </Array>
          </mxGeometry>
        </mxCell>
        <mxCell id="_9igIO5fBCOPrin5odHY-71" style="edgeStyle=orthogonalEdgeStyle;rounded=0;orthogonalLoop=1;jettySize=auto;html=1;flowAnimation=1;startArrow=classic;startFill=1;exitX=0;exitY=0.21;exitDx=0;exitDy=0;exitPerimeter=0;" parent="_9igIO5fBCOPrin5odHY-1" source="_9igIO5fBCOPrin5odHY-17" target="_9igIO5fBCOPrin5odHY-41" edge="1">
          <mxGeometry relative="1" as="geometry" />
        </mxCell>
        <mxCell id="_9igIO5fBCOPrin5odHY-72" value="SAML" style="sketch=0;outlineConnect=0;fontColor=#232F3E;gradientColor=none;fillColor=#232F3D;strokeColor=none;dashed=0;verticalLabelPosition=bottom;verticalAlign=top;align=center;html=1;fontSize=12;fontStyle=0;aspect=fixed;pointerEvents=1;shape=mxgraph.aws4.saml_token;" parent="_9igIO5fBCOPrin5odHY-1" vertex="1">
          <mxGeometry x="-1420" y="540" width="38" height="38" as="geometry" />
        </mxCell>
        <mxCell id="_9igIO5fBCOPrin5odHY-73" style="edgeStyle=orthogonalEdgeStyle;rounded=0;orthogonalLoop=1;jettySize=auto;html=1;flowAnimation=1;entryX=0.5;entryY=1;entryDx=0;entryDy=0;entryPerimeter=0;exitX=0;exitY=0.5;exitDx=0;exitDy=0;exitPerimeter=0;" parent="_9igIO5fBCOPrin5odHY-1" source="_9igIO5fBCOPrin5odHY-15" target="_9igIO5fBCOPrin5odHY-17" edge="1">
          <mxGeometry relative="1" as="geometry" />
        </mxCell>
        <mxCell id="_9igIO5fBCOPrin5odHY-74" value="" style="rounded=0;whiteSpace=wrap;html=1;fillColor=#f5f5f5;fontColor=#333333;strokeColor=#666666;" parent="_9igIO5fBCOPrin5odHY-1" vertex="1">
          <mxGeometry x="-710" y="-620" width="260" height="340" as="geometry" />
        </mxCell>
        <mxCell id="_9igIO5fBCOPrin5odHY-75" value="Análise de documentos" style="outlineConnect=0;dashed=0;verticalLabelPosition=bottom;verticalAlign=top;align=center;html=1;shape=mxgraph.aws3.users;fillColor=#D2D3D3;gradientColor=none;" parent="_9igIO5fBCOPrin5odHY-1" vertex="1">
          <mxGeometry x="-633" y="-500" width="66" height="63" as="geometry" />
        </mxCell>
        <mxCell id="_9igIO5fBCOPrin5odHY-76" value="&lt;b&gt;&lt;font style=&quot;font-size: 14px;&quot;&gt;BackOffice&lt;/font&gt;&lt;/b&gt;" style="text;html=1;align=center;verticalAlign=middle;whiteSpace=wrap;rounded=0;" parent="_9igIO5fBCOPrin5odHY-1" vertex="1">
          <mxGeometry x="-640" y="-610" width="80" height="40" as="geometry" />
        </mxCell>
        <mxCell id="_9igIO5fBCOPrin5odHY-77" value="Data&lt;br&gt;encryption&lt;br&gt;" style="sketch=0;outlineConnect=0;fontColor=#232F3E;gradientColor=none;strokeColor=#232F3E;fillColor=#ffffff;dashed=0;verticalLabelPosition=bottom;verticalAlign=top;align=center;html=1;fontSize=12;fontStyle=0;aspect=fixed;shape=mxgraph.aws4.resourceIcon;resIcon=mxgraph.aws4.data_encryption_key;" parent="_9igIO5fBCOPrin5odHY-1" vertex="1">
          <mxGeometry x="-1061" y="220" width="30" height="30" as="geometry" />
        </mxCell>
        <mxCell id="_9igIO5fBCOPrin5odHY-78" style="edgeStyle=orthogonalEdgeStyle;rounded=0;orthogonalLoop=1;jettySize=auto;html=1;flowAnimation=1;" parent="_9igIO5fBCOPrin5odHY-1" source="_9igIO5fBCOPrin5odHY-48" target="_9igIO5fBCOPrin5odHY-17" edge="1">
          <mxGeometry relative="1" as="geometry">
            <Array as="points">
              <mxPoint x="-940" y="240" />
            </Array>
          </mxGeometry>
        </mxCell>
        <mxCell id="_9igIO5fBCOPrin5odHY-79" value="2" style="ellipse;whiteSpace=wrap;html=1;aspect=fixed;fillColor=#d5e8d4;strokeColor=#82b366;" parent="_9igIO5fBCOPrin5odHY-1" vertex="1">
          <mxGeometry x="-2130" y="-40" width="27" height="27" as="geometry" />
        </mxCell>
        <mxCell id="_9igIO5fBCOPrin5odHY-80" value="4" style="ellipse;whiteSpace=wrap;html=1;aspect=fixed;fillColor=#d5e8d4;strokeColor=#82b366;" parent="_9igIO5fBCOPrin5odHY-1" vertex="1">
          <mxGeometry x="-1710" y="92.5" width="27" height="27" as="geometry" />
        </mxCell>
        <mxCell id="_9igIO5fBCOPrin5odHY-81" value="5" style="ellipse;whiteSpace=wrap;html=1;aspect=fixed;fillColor=#d5e8d4;strokeColor=#82b366;" parent="_9igIO5fBCOPrin5odHY-1" vertex="1">
          <mxGeometry x="-1447" y="757.75" width="27" height="27" as="geometry" />
        </mxCell>
        <mxCell id="_9igIO5fBCOPrin5odHY-82" value="6" style="ellipse;whiteSpace=wrap;html=1;aspect=fixed;fillColor=#d5e8d4;strokeColor=#82b366;" parent="_9igIO5fBCOPrin5odHY-1" vertex="1">
          <mxGeometry x="-1860" y="-180" width="27" height="27" as="geometry" />
        </mxCell>
        <mxCell id="_9igIO5fBCOPrin5odHY-83" value="7" style="ellipse;whiteSpace=wrap;html=1;aspect=fixed;fillColor=#d5e8d4;strokeColor=#82b366;" parent="_9igIO5fBCOPrin5odHY-1" vertex="1">
          <mxGeometry x="-1458.5" y="100" width="27" height="27" as="geometry" />
        </mxCell>
        <mxCell id="_9igIO5fBCOPrin5odHY-84" value="8" style="ellipse;whiteSpace=wrap;html=1;aspect=fixed;fillColor=#d5e8d4;strokeColor=#82b366;" parent="_9igIO5fBCOPrin5odHY-1" vertex="1">
          <mxGeometry x="-1510" y="-207" width="27" height="27" as="geometry" />
        </mxCell>
        <mxCell id="_9igIO5fBCOPrin5odHY-85" value="10" style="ellipse;whiteSpace=wrap;html=1;aspect=fixed;fillColor=#d5e8d4;strokeColor=#82b366;" parent="_9igIO5fBCOPrin5odHY-1" vertex="1">
          <mxGeometry x="-1110" y="-120" width="27" height="27" as="geometry" />
        </mxCell>
        <mxCell id="_9igIO5fBCOPrin5odHY-86" value="12" style="ellipse;whiteSpace=wrap;html=1;aspect=fixed;fillColor=#d5e8d4;strokeColor=#82b366;" parent="_9igIO5fBCOPrin5odHY-1" vertex="1">
          <mxGeometry x="-633" y="-270" width="27" height="27" as="geometry" />
        </mxCell>
        <mxCell id="_9igIO5fBCOPrin5odHY-87" value="13" style="ellipse;whiteSpace=wrap;html=1;aspect=fixed;fillColor=#d5e8d4;strokeColor=#82b366;" parent="_9igIO5fBCOPrin5odHY-1" vertex="1">
          <mxGeometry x="-890" y="65.5" width="27" height="27" as="geometry" />
        </mxCell>
        <mxCell id="_9igIO5fBCOPrin5odHY-88" style="edgeStyle=orthogonalEdgeStyle;rounded=0;orthogonalLoop=1;jettySize=auto;html=1;flowAnimation=1;startArrow=classic;startFill=1;" parent="_9igIO5fBCOPrin5odHY-1" source="_9igIO5fBCOPrin5odHY-60" target="_9igIO5fBCOPrin5odHY-74" edge="1">
          <mxGeometry relative="1" as="geometry" />
        </mxCell>
        <mxCell id="_9igIO5fBCOPrin5odHY-89" value="" style="rounded=0;whiteSpace=wrap;html=1;fillColor=#f5f5f5;fontColor=#333333;strokeColor=#666666;" parent="_9igIO5fBCOPrin5odHY-1" vertex="1">
          <mxGeometry x="-2233" y="646.25" width="200" height="250" as="geometry" />
        </mxCell>
        <mxCell id="_9igIO5fBCOPrin5odHY-90" value="" style="rounded=0;whiteSpace=wrap;html=1;" parent="_9igIO5fBCOPrin5odHY-1" vertex="1">
          <mxGeometry x="-2213" y="661.25" width="160" height="220" as="geometry" />
        </mxCell>
        <mxCell id="_9igIO5fBCOPrin5odHY-91" value="Usuário" style="outlineConnect=0;dashed=0;verticalLabelPosition=bottom;verticalAlign=top;align=center;html=1;shape=mxgraph.aws3.users;fillColor=#D2D3D3;gradientColor=none;" parent="_9igIO5fBCOPrin5odHY-1" vertex="1">
          <mxGeometry x="-2193" y="756.25" width="66" height="63" as="geometry" />
        </mxCell>
        <mxCell id="_9igIO5fBCOPrin5odHY-92" value="&lt;b&gt;Concessionária&amp;nbsp;&lt;/b&gt;" style="text;html=1;align=center;verticalAlign=middle;whiteSpace=wrap;rounded=0;" parent="_9igIO5fBCOPrin5odHY-1" vertex="1">
          <mxGeometry x="-2163" y="661.25" width="60" height="30" as="geometry" />
        </mxCell>
        <mxCell id="LD5Ol6cWUQSVc5vYyNdD-1" style="edgeStyle=orthogonalEdgeStyle;rounded=0;orthogonalLoop=1;jettySize=auto;html=1;entryX=0;entryY=0.5;entryDx=0;entryDy=0;flowAnimation=1;" parent="_9igIO5fBCOPrin5odHY-1" source="GUIoMzabyHf0ShyfHkNu-0" target="GUIoMzabyHf0ShyfHkNu-2" edge="1">
          <mxGeometry relative="1" as="geometry" />
        </mxCell>
        <mxCell id="GUIoMzabyHf0ShyfHkNu-0" value="RDS" style="shape=image;verticalLabelPosition=bottom;labelBackgroundColor=default;verticalAlign=top;aspect=fixed;imageAspect=0;image=data:image/png,iVBORw0KGgoAAAANSUhEUgAAANQAAADSCAYAAAAyh+4FAAAAAXNSR0IArs4c6QAAAARnQU1BAACxjwv8YQUAAAAJcEhZcwAADsMAAA7DAcdvqGQAAHUcSURBVHhe7b17vKVlcSZaX1+Vi6B0996NMSZRQEHobpxkMmJMYsJFZ8aTTEw0CqIkZ87xfo+XJGfM5CigKHJRM5nxAt7wmrsgJJGTxOSM+QndjeA9SFR6797d0AjNpbtxnT+qnqqn6n2/tXc3yOjvUHuvtb633qeqnqrve+v71tprrzX8wjO/PBERGcRkGEQmE31ksfEgIhPARGQIS8LpjBswrkz3cBOZ2CPTyDgXI5JxS+DveXRwnfxbXLOho8F4U516uGq/PzjU3f1PqadrK/8puMQ/JiowD0f0lZf7pTg9nIslmI4f3ihEuS6okwOS6+yPebXE+sdDgonI9q9+QJbJZCIymcjEHE6wPZnIZDIRMT3jRCYyMQPgYC8Tm4Om4iYiE7MHbsI424ZH4BRlc8ZLqfRwU/jrpOoIl/gTPsIwjvhTHODUR+GV+ES+2Ej8zT7yzbioAWEJp3bEn+KnOIbr8scjIif+Ev5HcA1/wqU4+GH+xMfINjjng1qjLrahMc3OH4lPGDS8Gj7OI3hFnWCjsow7Nx4HW4HoagNPmMbxwyCDLX7gwirW72BDfTAbMwgUwNAGjr1lC4uW/FsMYpLgA/H3SOzfHFJX4jm2EaoTA51/hHR3g5SCUUaORRSqkzs3DHwNwvUEivDT6jkgmyyDAYFrjocA5nq67/CLOE7QhuAFJNAEc6LO3/lEXQYFIJCbuXm3nizEH/bT6kmiuLBf/hOPf/GbCmZEwi31j0VlsCuoHpkkTl4v+Vqh7Gh6lE8TboR/FxcIH7V7oSsN/3BAqJAUbWg0jUQ9x8Ts++VaVJT/0qX1388T0uKnS4Nfaj370yQKGOwKb1z69YwlFLJ75xZZVpVYmoBj9eEmeLy/O07yfx86jhFhX25jSnVb+OOROg5w7B7SdnD2nwglH8A5f49DJqhZt56I4wDHwS7jbcQOnCPxJ9z0etqtnrFG66k4D29UKqHxeiIbR5KPKfVkvNVF7TjnQLgm0xqpZ3EglqdIPIdy4etSu+6cCF2zogO4HXC6GdfQgWuvWekaFD/pmjVwsAk+FppwzTU384El81cFHBkPmBt/m/K5IOg4zCX+FMeAhiv8Uz3BQ0eJv9eT8w2cPyAOsIRTO+I/sZjMh3ANfzGd51v5G45u8NDlz3jCqV3h3+PT4++4iGOBHAc7dUF8CKcPmVfiY5F7/CcTPIfKLcnudQn6aq4dKeGpgw37+5zKflJHKmI4IRx7yxYWzf3jhj7TSZfPIIjEXVCgCEOecxvDNf4NE/fZ3SClYJRR5GtRiBfLeD2B9wCOE8JFeGSTpTmDhLeMJhzmLJL7RRwuVOADqbgEc6Dzh3/HmTU7SP479WT/jsKW2U+rp8kwiCzzlU0rXGzFQde7iTeAbIuVmvDWBty/YXSz9R2dIDrGpOFjoR0XGPhFHHDQTgOcQhN/xzEv9gX/1qUSLnMLvOXC/t1v2Lf+Uc+Mm2DO9Fag5KNyAQ514lgVF/4NYyEaPCKzr57/gkP+jAGuqSfln/D7XU/NPupJMRxnrsE4+WAb26Z6MmZZLOQ4AyWpnal0n4Sj3mbDtjNZVwi7jNPuEVO+RTieAy94IEUAzEpv5qF2JsrTzVxNMXs1EqtLfa7g0LBRjrlOios69QQ41EmSV4zycwWMPRbhgqjNuf/AOZ+Ea+s06ETmH4kl3CD1uVfxj0dLJPxHnZKBKGn3X+vJULdsn1OJ2WZkOGYMbNyXwQcRWWaLv6xo9AubnJROw53J9IxDJ0grm3C5ExTcRLtJ0EAnANy6gSmcMuHAy/k3uCn8dVJ1hEv8CR9hGEf8KQ5w6qPwSnwiX2wk/mYf+WZc1ICwhFM74k/xUxzDdfnjEZETfwn/I7iGP+FSHPwwf+JjZBuc80GtURfb0Jhm54/EJwwaXg0f4zERsTOULT9dabmzYNtXKG71OVUs2Vi1jqNpX+3JgDqGWudOU8S6hBCOvWULi5b8WwxikuC951TJvzmkOvFc6mD1zG+bzj9C0n4oBaOMHIsoVCd3bhj4GuQBeE5Vj4cA5nq67/CLOE7QhuAFJNAEc6LO3/lEXQYFIJCbuXm3nizEH/adeg4isvzRj3tR9+9Qg63RxveoBFHqH4vK8ODfqeCAUCEp2tBoGol6jonZ98u1qCj/pUvrv58npMVPlwa/1Hr2p0kUMOzH36l279yiZygRaZ8DeF8o0nQc6grQEY7N5L50nOT/PnQcI8K+3MaU6rbwx+OQc+ZasLQdnP0nQskHcM7f45AJatatJ+I4wHGwy3gbsQPnSPwJN72edqtnrNF6luPOqFRC4/VENo4kH1PqyXiri9pxzoFwTaaV6il4DiUS15wT4WtDvyAND3xdatedajNyDe043UxxDNdesyoOcdpr1sDBJvhYaMI119zMB5bMXxVwZDxgbvxtyueCoOMwl/hTHAMarvBP9QQPHSX+Xk/ON3D+gDjAEk7tiP/EYjIfwjX8xXSeb+VvOLrBQ5c/4wmndoV/j0+Pv+MijgVyHOzUBfEhnD5kXrARkXinBNblYKtOdbTEXbBeCS+djpTw1MGG/X1OZT+pIxUxnBCOvWULi+b+cYs+06TLZxCqUeigCEOecxvDNf4NE/fZ3SClYJRR5GtRiBfLeD2B9wCOE8JFeGSTpTmDhLeMJhzmLJL7RRwuVOADqbgEc6Dzh3/HmTU7SP479WT/jsKW2ZuK3m2OlYpbWdm0woU7xshNvAFk2/BNeGsD7t8wutn6RseITmO2BTOZcKcJDPwiDjhopwFOoYm/45gX+4J/xaBO7Y05Wy7s3/2Gfesf9cy4CeZMbwVKPioX4FAnjlVx4d8wFqLBIzL76vkvOOTPGOCaelL+Cb/f9dTso54Uw3HmGoyTD7URf6fEyIprOlO7VFPH0dUND+wVS5jmzCD6DfUKNiw4cAq8bRGO58ALHkgRALPSm3monYnydDNXU8xejcTqUp8rODRslGOuk+KiTj2J/RW4jNbIXHeMPRbhgqjNuf/AOZ+Ea+s06ETmH4kl3CD1uVfxj0dLJPxHnZKBKGn3X+vJULdsn1OJ2WZkOEZoPUPpEqWVSqtUF39Z0egXNgkc7MheTM84dAKsbLcxXO4EBWccg4Z2oYBbxzCFUyYceDn/BjeFv06qjnCJP+EjDOOIP8UBTn0UXolP5IuNxN/sI9+MixoQlnBqR/wpfopjuC5/PCJy4i/hfwTX8CdcioMf5k98jGyDcz6oNepiGxrT7PyR+IRB8JpM6N3mvNJ8/VoHMKWuwtxZsB12dqvPqTBhGsfv93Mqtc6dpoh1FiEce8sWFi35txjEJMF7z6mSf3NIdeI5tpF65rdN5x8haT+UglFGjkUUqpM7Nwx8DfIAPKeqx0MAcz3dd/hFHCdoQ/ACEmiCOVHn73yiLoMCEMjN3LxbT5ZguvzRx+jfoQZ0jsBMFeAXgZEE0RRnERke/DsVHBAqJEUbGk0jUc8xMft+uRYV5b90af3384S0+OnS4Jdaz/40iQIG+jvVnbdskWW88HV/DMkbtprnAN4XipjDZGc2riMcm8l96TjJ/33oOEaEfbmNKdVt4Y/HIefMtWBpOzj7T4SSD+Ccv8chE9SsW0/EcYDjYJfxNmIHzpH4E256Pe1Wz1ij9SzHnVGphMbriWwcST6m1JPxVhe145wDgft4tzlWpl88ttesem1L16qEc+HrUrvuVJtOHMTia1aOY7j2mlVxiOPXuYmXO7DfiDOxMXDNNTfzgSXzVwUcGQ+YG3+b8rkg6DjMJf4Ux4CGK/xTPcFDR4m/15PzDZw/IA6whFM74j+xmMyHcA1/MZ3nW/kbjm7w0OXPeMKpXeHf49Pj77iIY4EcBzt1QXwcJ7JsdGU2HcNWqk2prsXFeiW8dDpSwkcPURx1gNGOhDn7SR2piOGEcOwtW1g0948b1anC+QxCNQodFGHIc25juMa/YeI+uxukFIwyinwtCvFiGa8n8B7AcUK4CI9ssjRnkPCW0YTDnEVyv4jDhQp8IBWXYA50/vDvOLNmB8l/p57kf1msaHSCsrJp5etKxa2sbFrhwh1j5CbeALJt+Ca8tQH3bxjdbH2jY0SnMduCmUy40wQGfhEHHLhO3pmYv+OYF/uCf8WgTu2NOVsu7N/9hn3rH/XMuAnmTG8FSj4qF+BQJ45VceHfMBaiwSMy++r5LzjkzxjgmnpS/gm/3/XU7KOeFMNxGj/ey8cr21cxBrEEvUv0OlNqBSa1M5Xuk3DuPcIGK+oVbFhw4BR42yIcz4EXPJAiAKhLoNRXwkWebuZqitmrkVhd6nMFh4aNcsx1UlzUqSexvwKX0RqZ646xxyJcELU59x8455NwbZ0Gncj8I7GEG6Q+9yr+8WiJhP+oUzIQJe3+az0Z6pbtcyrIMluw1n9oxVlnwIpGq0AviC7Q6QBmb0DrBNRpyD7FsTl0AuFuQDg1K7y8W1guTkPzCrhu544DlM1V/g1uCn+dVB3hEn/CRxjGEX+KA5z6KLwSn8gXG4m/2Ue+GRc1ICzh1I74U/wUx3Bd/nhE5MRfwv8IruFPuBQHP8yf+BjZBud8UGvUxTY0ptlBPxF9lS+v0JEORjgd4icaiS7s3FmwHXYUZ7TTUAez5xQ+7RySAXUMtc6dpoh1FiEce8sWFi35txjEJMFTB0Yk9m8OqU48xzZSz/y26fwjJO2HUjDKyLGIQnVy54aBr0EegOdU9XgIYK6n+w6/iOMEbQheQAJNMCfq/J1P1GVQAAK5mZvDfhBZ/uhj/s/u/0OFhANa1+FxRIBfBEYyEmcRGR78OxUcECokRRsaTSNRzzEx+365FhXlv3Rp/ffzhLT46dLgl1rPzvTuW9Ln8g2WLkb2UzsTlj5Zqbo8B/C+UKTpONQVoCMcm8l96TjJ/9I6DnDZf/hVvMXo1Yn543HIOXMtWNoOzv4ToeQDOOfvccgENevWE3Ec4DjYZbyN2IFzJP6Em15Pu9Uz1mg9y3FnVCqh8XoiG0eSjyn1ZDzX5SnP2KINz1GDdaBi1vlwdJtox2ae3Wbc7LqVcuovHNZ4bOxiZuowpI/b8uW7ZcsNd5F/m7B0c/78oGeEdNmVAVk7DDJZypcXSOy4aXXScSB81OCaDR0Nxr/h27fXfCt/kqJv9pcpnvP0h0Jj+nhI9a/SqBuFCqm/9M175bpv3mvqcpwuUifnswjOR73jxzYWvnGpLSieoYe+oUkh0O4ITDQK2XjcQ+X8P3h00f9g5dJP3SKXfvrWlJkIP4zwb/JX+7bBVBzUqoiotlUDNfUc29HhiYENn7pRxuG/g+s4Gj+QIKGfecQyed8fHF4BP1DZfsv35bfffGcollzPsmHA/aunNqyFb1za+Vy+sh2vfuDVlXhVJeF1JnC9V0vspZEzf2Mt2DxgopSDm1heSIg5Jv6O43zVl+rMb6mTmUR9qE6VS6qP44x34hQ2gbdc2L/7DfvWP/ZXxk0wZ3orUPJRuQCHOhmpB1TWPWKZPOExyzz/Nl+VmqfzZ/x+19Ozp3dK1GtbU0AF3ECLfxAMwhAWg197Bg7dYeNxBzn+gRLlgWvd0PmWEXX+yU63UCcyRHKuRo2k1tMKUmOrmmLWDmrSfa7g0LBRjhTHcc6sK7G/ApfRGhm7G0zaejrDB1yOf8xyZZ/qmelEXYw/4VCnzF8ThLapZ/Ht75TwFSdoMNDZJn4IpzAHOE7V6AK9DvDAS3QXy8WpIH/i73lQZyKc1wmOG1zkrxGcQNTCzalOhmN8hGEc8ef9Zjj1UXglPpEvNhJ/s498My5qQFjCRXYPrGg5Rvh7XQxLdWr4W50MqD4KzuuJWuuvDE/5j5vN2paarzjdGEaedKZFDL2pdbr6MxkG+dwnH1+Urcwt7K2q+yRX/t3tcsmnbunwCsasH36knlPxGO725zkA+5+O89GU51QzRyyTs192WKPfH3E+Nl73iPaLYqp85LP3yGVX7qmJqNR6Vv48Me14cFzZGER2fOODMvzcf9isa6sGHDugWoWrc8CKMxkGufpTx1ZtI3MLe+U3X/TNUDQHYta7lEQH+7tKeyCWDX9Y5FWxQuD+r5MFqPk2OJO633qv6vUIVv6uc4OES/ybVzErrsO/wZlU/p16Hv/YFXL2Sw9hWFc+csU98tEr91S1SuVT+fuw8KkLr3Xg+h3f+BDey6dwvemP1OcAPouR/RBuEAQKQ8fTc4ClyOzalfLRdz8mPW+I2BaHCCKs83L8g3+nYh/AOX+PQyaoWbeeiOMAx8Eu423EDpwj8Scc1/P4o1YuaTGJVP/22Hvu6YgwGK8nsnEk+cj1lMGeQwlfG/q1J11LTnCHa2i+9uRrc50Ts1ecufBr26XL7NqV8pF3/ZRG7sVBLOeV4wCnZgAELudh7jx/d2C/ESfXyXxBjIjzgSXzVwUcGQ+Yo6YIb3NB0HGYS/wpjgENV/ineoKHjhJ/ryfnGzh/QBxgCad2xH9iMZkP4cDr+MeukLNfcrCnsqhY/pqvqXr8dSL4GE7tCv9uPTv8Tb8MKzU6UqxgX5lY2g6INeudJa33tMRtzuIwZgmSzlTmL/vIfhVHeYx2JMzZT+pIRdCBCMfemg6W/ONGdarwpp4RA5C2nvHoNoZr/Bsm7rO7QUrBKKPI16IQL5bxegLvARwnhIvwar/Uy7xGzKHzp4ygRZx+PQOpuASjFODV/Js+PpfPH3PH8E5GjwlfcGgSDd5XNK12kg98bEE2X7+7qkX4TIUY5oM7jeowrx0jOGUM8tRNwvlNvatdzoUxE6pTzlf9Ig44cJ3MJPN3HPNiX/CvGE2/clebwFsu7N/9hn3rH/XMuAnmTG8FSj4qF+BQJ45VcZPJRJ5w1PKpi+kNF90h87d8v6p93yb/YEjcObbj4YE5Uf4JP1JPkYksS0vROkaMaGXXlWqK7somH966CNeT+R175dx3bZPN19Nfu0nqcypJXiOOz1nYYAV8abEFh24ZeNsiHM+Z2mJzqyUA6hIo9ZVwtZ6spph5J7h0nys4NGyUY66T4qJOPQEOdZLkFaP83Atjj0W4IGpz5v+Eo1bIOS89NCaKvPHi3XLdN+8dYdpxSDPGqNSzmOHREvFpqlMysFygWUZLOFYedybqLDpneNfZJn4IpzAHOK4rE5Ft83vk3Iu/u/iZijqJcBzvNMTLu03g0E0SL+9MlguakedP/D2PXp3Ul4sRybgp/HVSdYRL/AkfYRhH/CkOcOqj8Ep8Il9sJP5mH/lmXNSAsIRTO+Jv+Cc8doWcPWUxveGiO2Tr1/ca/56Av+bNN6QTdSr8CafmGHf4g7fH0ayEP9scSyx1ltRIqIPRSo2OZDe7BiaXYUMruSeDiMwt7Fv6mWq003AH3t/nVGodDa7Tt2sHLg03W1i05N9iEJMEb8781b85LB0Yj2wjVCcGOv8I6e4GKQWjjByLKFQnd24Y+Bpk8edUJxy1Us552fTFdN039vk4IrGE51BpYOfP+5jxtZ5Gz/mTdy4nJuBL3ymB1YguRds65JXaYjI+43xlM74jbLPkM1XDs8RJc31+3kWthWWfZG8/jGnrlPMIjNokfKnnKH+NWnDVv2Ik4fo3dNPk3/229omPANf6zZjWNm5mj8wmE30BYspiev1Ft8vWr+81n8azgkRS7B4H3VbbihvH925hn+uTvsEwOg4vcV+VvhgDl1aqz2JkP7UzZSMXxUacue375NyLl3imikYhwnHuc8fJvsM/1wleyJziSK2TEWFfbmNKdVv443GQ8lwpfLEMZg9c9p8IJR/AOX+PQyaoWbeeiOMAx8GO8ccftUrOefnD2HmSN1x0u3zp6/siSq1nEfhtr2DG6pmPO1AOT4Hr1zPqJPhMCV1c6BjaqXGz/hgdjDoLVqW2i8DJJDoQr16FjfYWxTpkItu2L/FMRR1HOI6SIV7UmQiHeJaw43IeI3WybXhs62S+IEbE+cCS+asCjowHzFFThLe5IOg4zCX+vN/IruGf6gkeOkr8vZ6cb+D8AXGAnYgc/9iVcs7Lp5yZLrxdtn5tn+UK/4U/C9HM/CPPyNdMevwZTzjUCfy1BsQHnymBFckrLS3Z1JE6eMJh+cKTdxa36wvWvpmb7j48p3IJvyLoSJTHaEfCnP2kjlSkduBUp2ph0dw/blSnCm/qGTEAIYKhS74D1/g3TNxnd4OUglFGka9FIV4stZ4nHL1SznnFlDPThbfLdV/f19ZzQDYdSfUMHgltDnkOGUGLOP16BlJxBBvwybGCrhfbvvLKtqt8pS6CL7iR3iI6Qzh3dWDPqaR0JtWxb+aUMcgTnbW9qXe1oy5VMFwnxsAv4oAD18lMMn/HMS/2Bf9R58w7bAJvubB/9xv2rX/UM+MmmDO9FSj5OP6oFVMv815/wfdk69fs1Tzi7HE8uyLMA5GZP0glXcYh/zZfC8GcKH/dsP+H0nVHK9WW3iCdzmSrMeENlzqfKXore5oAUTvTfp2pTJfpgG0aJlZ+z4YFB06Bty3C8Rz4wwMpAmBWejMPtZ6dzhpqipl3gkv3uYJDw0Y55jql42FEYn8FLqM1sp6Z7J3oHXn9BXpmCqIq9XgYE36uIx5VHST+kVjCDVKfexUeeByAJhxe5cPqxepEZ9E5X8LRabgzOQ5zhnedbZL/rhBOUseIDrDkMxXZi9PhTkO8OI7hkL8Ryjjkgs5U6oRteGzrpL5cjEjGTeGvk6ojXOJP+AjDOOJPcYBTH4VX4hP5YiPxN/vIV3EnHL1i+mJ65/fkuq/vMTviT/FLWo04f8/DGI7UE7eKa/gTLsXBj+Wo7zanzjLakWwTa7LtGISnpW0L2XFY/Y0QTof4iUYy7O+ZarTTRGb7/5zKuKU6FbF6SrdO1cKiJf8Wg5gkeHPmr/7NIdWa59hGqE4MdP4RkvZDKRhl5FhEMbsTjl4l57xi/HMmXn/B9+S6b+j/wKkvD6A+ECenNSrtq3LleAhgrifvY2JSA8f+ysj45FjvAOVmHQervm7rkFdqi8n4kfZCHPLKb29LPlM1PLXTtLxK/pyHb0+rk3Vm72jVP2JQB08YtUn4Jv8R/hq14Kp/xUjC9W+aQvHvflv7xEeAy5jjj1rkMu+dt8nWr+2hOJF/k6/HakXxwTPVc+TW+i9nqkXxdJPuNxhifbrKFmZ0HF7iWJmBD1zuJOF3TDRMDoCt+hzgwb9TFf54HKxWhGP3kLaDs/9EKPkAzvl7HDJBzQaRDUevknNfOeXM9M7bZOvX90Y93TdcRp26iZAAN72edqtnrNF65uMOVCohYJbZeowH7kzeccTWf+DCjDsTULF6RU3dYKS5iDjMiRgPm/MuEHwe/DsV4nTqZFM+FwQdh7nEn/cb2TX8Uz3BQ0fAnXDUKjln6mLaZa/mER/U1OmiTsSf6LEA1/AX09F+zfwjz8gX5sTJ8kx4xumCyisNw9wxdCJ1Ll6y1JHCG+EJxy6qpKmmY1gcm1LdfXhO5RJ+RdCRKI/RjoQ5+3G6qUoGJv6GY2/ZwqK5f9yinlQWmyT+VKPQQRGGPOc2hmv8Gybus7tBSsFk0DPTq5awmEzG6wkKHsAfqjj/DqA5I5ObhCYc5vQWfhGn1nPI32AYK7DfMfK2d4Ky7Sr8pLm8qpO4f4NU/0bMefjUgT2nktKZVMe+KVbqfJEn6tTe1HvU02wLZkJ1yvmqX8QBh1xPhSb+jmNe7Av+FaPpV+5qE3jLhf2737Bn/ycctVLOmbKYXnf+Ltn61b0ah/YrfFQuwKFOeqteiU/aX7Gfkn9EZv7kP3QZh/wZ4zj9O1R0gLSybaLpTNY9HO8ObNZcJLzhUudrJHpA6kxoXYSCeqDw+3WmMl2iY3F8zhwHK+Cp9UNZOytN+RbheA784YEUAUBdAqW+Eq7trKGmmCM7oftcwaFhoxxznRSnzE44epWc++qHO77K68/fJdfZmSkzseyMAJi09XRAI3w8gI9tEqatk9InvI25VsANUp97hf9B/w6FJoQVbTd/iNXL3Sk6hi9h1fmjLV7qLN4xusL+FQdeDR/hjgHIfpypyF44jvkDf6VNcQyH/BMv4JCz5Y+8En/Po1cn9eViRDJuCn+dVB3hEn/CRxjGEX+KA5z6KLwmEzn+6JVTF9Pr3rFLtuDVvJSvGLtcdx0bknCwqxJcuJ4j/D0PizxST9wqruFvmDhDUafhJe1z+CkdKQNVK4QLbwXfkUGsU7pFnQyd85FoJMP+nqlGOg2yEPDhPJxDMqDOatxSnYrUDpzqVC0sWvJvMYhJgveeUyX/5hCFK3NsI1QnBjp/U204ZpW89dWPCFyR179jl2z92h7QC/5Up2DB+9R+iC6xaaSpZz3zOE6BwDXHQwBzPXkfmzbiiAwnnfrPuizdS4AmCMxScAAOvc8vqwCSofP5azrRKFyt/qGuOBPTr1+3Ul73kiNl43H9T8158HP/DD+2nyF1v3U+9++Eo1fJW19zRMKx/M7bb5XrvrbHSDUJmhD/B/hz/3SiKlQ032n1NBkG2Xnjh/kbDGPNDWI6tiVc3NvNDAYFpKR0k/GBy9zCLywG6XQmECYrVefnAIv9nerSj+8QgZ1HV/E4RHC0TsYxgIGL++o/tVA3c3OKI7VORoR9uY0p1W3hj8ch5yzUfVnaDs7+EyGZ3/l9md+pXydT5XVpMUHycyXPAbNKDADHwS7jo04cw/HuKXDT62m3esYarWccdyKDLH/UY/5z/gbDYRCxDpRXMrPgobmqZ6g8HRv04J0xtwDrQBibtnaKmGjH1sBu332vbLl+tzz2Jx8is+tWOeTcd90sV1x9WzKDNHHaDRta3p6HTzCqsW/q5A6KgT/YGaHmWXCuxfdThaZ7hSBiB1cTvnGYED4i3O47vy//tPluedKmh8ghB8V7BX7n7bfIdV/b25zRykYaLnrcuRif5vBpFM1D5Z+k6JvjISbKWOSuXdfFJV+zox1Yx3igxHMFEm408ZJoHbvbBmdSE292BCYGmV23Ul734iNl43EHybnv2iZXfG5XW6jG0MT0zicStvl+/rWes+tWyMyalTK7dqXMrFkuIoPMrF0hs2tX6Pyale5mZo3qqszviM9UEBGZ27FP5hdUN7/jXpnfGdtbvnK3gip/bNV8K/+xA28k/2EYZN0Ry+Wtr3mEzByxXF739ltk69f2ZBxttGXL/hp8PT4LrRpn2vGQ/UO91IVT+JN+x40fluGkU7+gL080hnmjSShPx4ZFavA9HMnUAtRx8j+CK3HWr1spM2tXyZYb+peA1b5b4MHvii74r1+3UmbWrJANx+pX9mw89qGy4djybX4PkMzv2CdbvnKPiIhs/crdutC+quMQ3WFNvk09TeoBNfiWiIjMrFkuM0csT3+0hdnU46EMR4+HEfvmeBjB8YPzb3Z0G3gQkYlfevJEjHd+6yP0ogTN9xdOHeOhtyNIUxIahsWedJI+XZKM4EpBlE/nEqmOIXSA+DgTDL3hsKMnIrJ+7SqZWbtCNhz7UNl47EH/yxbPUgWL7Lqv3iNzO/bJ1q+WD9cfyb+tZ7OhI1qYeUFMt98fHI4H958PwGJnw8p/Ci7xj4kKzEMR2fGtj8hw0ilf0AVVCfnQEhkrUBtZ73sLM7km++S/doyMc23tqCM4EGndNg7z2KSJY3twdu0qOfXnHyZn/vr4q1s/CjK/Y59c+Q+75cp/vEvmd+zr7M5enQLhowbXbOio8yph2igE2jMV+UuujU9vP085njxc5Q8p+uZ4iAnZeeNH2ku+0QCVEEZ14YzgxgvUANK4rUdVkN7UfT4mNfCgHbkpVIPTv2Gd+vOH/cgvop7M79gnW756j1z3lT1y5ed3N/l7XZu61LEC23qWjTIO/9NxPho97hxRHkaOu5HjqeVfDU3ouNvxrY/I8KRTvjCR+qpeL3JJLGDTcQCOF4AAJFMLkBWu3t8CdPlDiv7M31gjz//1NUl3X2RuYa/ML+yTOXuhAV8wh0vW7TvsZWiiwS9WzKxdKSIis6abXbti9MWM/ZX5HfvkNW/dkc9YS6xT9wzU25E+TQeu39GedDPdGJor0h4uAOGt4kwq/yUfdyq88HZ+66N0yReIZpgI+UTZ8Ie6svu40NYE+jgoGj4VFwCf7h8QU+zJbv26VfKONz1KZu0A3h/Botl8w50yv+NemVvYK1u+fJcI5w1w3UjjKX/GKPxn1q6U2TX66uEJx6zW53ePe0gGLUHmd+yTKz9/p3zoz2+vR7CI1XMqfx/mejb8m6Hh637O003+7Qmhjwvt0uoJIuWwauohuOR70sn/c6Lj/SnQlB3cDHVj/wtEC6EhtoQdHBPteEkF0i/XPv9Nj876KTK3sFc+e/X3ZMsNd8lmXzj38UByB8XAH+yMUPkX3MyaFbLh8Q+RDY97iJzy5P67R3py5ed3y3nvvXVKnTJBHzW4ZkNHvTNa3kjDAz/uoG4UzUOXP2TKcaev8jVnqOYIUHXd0TyRxnioHaOPG028JFrH7rbBmVT+zY7ARKMQkYmsX7dKPvLux5S5VrCILv3kTtoRlIkPC59az5RnsZ/Gf8S+bTAZN7NmhZzy5IPllCcfvOil4gf/7Ht6piKJtAqhkfwbPnWjjMN/B9dxNF5PSNaP1rM9EE1d6+kTvrnzWx+NM1QGHMBzqppQnuZMrMBjBahjDKcUoI6XcgZqCpwPkI+++7Eyu65/maeL6Db5wCd2ZpqD3xVd4d9LJIjqfaoPZVJwDf8urnNGJz4za1bIGb9y2NQz19vfe6t89vO7yW3hDzG984mEbb6f/6LHQxmOHg8j9s3xMIJraTaGBij8RWTnTR/Fd+yq4eDv3TISuCfjQQEy+E/g0mIiXNwbaiC8O7BZc5Hwhss5qAKqxId8OGHCQT2k8PHerY3HHTS6mC75xA55zou+KZc0iwls05BYgYUFdbuMA6fA2xbheM75U50a/6hLoNSX4eZ37JPz3nuLnPHabc27MSAnn3SQ2bHzkHz8ZP9MSDnmOqXjYURifwUuoy07IwAmbT0dkBw0xwPzSbjCH9OW7LKJiIjY/3jQTbUS/xMiesNm/F9I4PA/LArAA/6fxH4m5sPG7sBs4QNhYRf+PaDpIk74Vxx4NXyk8Le7iQUdewHilW/6V/nAx3eYTSeO+QN/pdirE6yIF3DIxfJHZom/59Grk/pyMSIZ1+c/v7BXXnPOglz5D+3/k82sWR787dEIig45T+JPcYBTH4VX4hP5YiPxN/vIN+OiBoQlnNoRf4qf4hiuyx+PiGyY9lvgm3fZwpUifGWOdiTXuJVQZxntSLaZOsvUjhE49W+3IXDkXWQQmZ1Z6TrnI95czO0gGzr/8rH5+jtl8/V35ji1Th6w1ommvWMmg5JHrVOR2oFLw80WFi35txjEBDK/c59sbd6epJeFeIleaTlBERE55aSD5NJzZ+WMZxwadTUc6hTGxB98yN3ARAnnIzqehOrEmbCvQbieQBF+Wj3peGLhM5VyUswyXnH9GzpGrPbpeFq9Zp87QLlZF2Gf2b/Z4qeDafgQbmbtKjnzWevksj86Si77o6Nlw3EHWWfJOL7NrmufpG887iA589ePaLBxE8s1dFyDhOU8fHtanbhjBqatE3XwhFGbhG/yV/uZI5bLGf9b/3PHA1f9T+T4Y1bLzJrlcvozDpVLzpmRV73gcDn5SQ9NWMUHRwEPit/iaVva+PUW9az1wc3svZ6L4XOd4uTWw6dvMIwVR0OsW9XhnjrOYEvUO4Gv7ATzJe+dIFTeYQYFIJCbZXzgkn/yKyKyft1qecGzZ+Rjf3y0vODZ6/zfNzY+4eAUAFt8xh2T5//GWvnoex4rG59wcLajXASP3BJtqLRLncTOsg4MXNxX/6mFupmbUxypdTIi7GuwPww/71cPkw+ed+TUV/00LeJv2xuOWe2YmTXL5ZSTDpJXn/VwufScGTnjGYfK7JrlziOi6wg+xP0T/5ym24zXM44nAzgOdhlvI3bgHAPnUabUcxCR4Um//P/GBSIAk86rQvVlw3bDhoNIfZWwi8sbQ32VJ0/HBj2o//wqzMYnHCJvePmPpf9/Ypnbvkee/X98LRQlTxkGeecfPNoW3rjMLeyVSz6+IFdc/b2k3786cR4+wajGvqmTOygG/jDIZMrfqWbW6svnz/vV8U8pguQXLezgEpGTTzpYXvNb458lIfiXkq/eIx/+i9tlbse9LZ/KH6Mfob9T7bzpspEFNc0wJrK67mieSGM8HOjLyAVgD4stJJZX/P6NzX/yMp/z/+ujR/91vsrcwl7ZfP2dsvWGu/r/tNitJ2Uykn9Tz1SPYl/4Z2ntZ9Ysl1N/7hA55ecOmXo2qnLGa7fZW6Jyw331bz1cTjlpafWa33mvbP3qPXLVP96l73S3dBZtRGXsVejhOo7G6wnJ+tF6tgeiqQf9O9S/+6V/mkDRwbUe7YA48AUxHYeCNPgeTkQ2HX+IvOHlj1rSQoK8/7LtcsnHtpe6B693/tefWPQMNSa8wLYt7JUtvHAHvys6zfPA60mZFNzs2hX+9qMNj3+obHj8/r8NCXLGa27u/Ku7LtBTnnywnHLSQfu1QK/8/J3y4b+4w/4xkvh38l/0eCjD0QUxYt+ukz6upRmGO2/6qJ2heivJmCTDniyWOE+kMR5qZ/KICZcSn4isn1klb3j5o2Tj8YcAMFXmtu+RK/52l1zxuV0yt53+B6hUcpBBz1AHuKCq4E2vm6+/S+YX9sr8jr0yt12//wjv9Usykn86kHLBbNGsTG+Qva+Lpyd6htrn4etxMbNmhWx43Go5/phV+3XGuurzd8qH/uIOEfOX/QMZcfIwjosyUYaBw/Hp/ks9s50N6/Hbwd1y02V0huoUSKQb0dR1ITQbNrRExgrUuDd8b2Ha5gt+c1Ze8JzZ0E+Rue175PK/uVU+8LHtSd/wJz69M9Tm63fL3Pa9ctovLv5cY38Fi05EZH4hDljM1b+LzaxdIWIL6f6W+R37ZMuX75ZTfq5tVGe85maZ71zyibT7eXbNCjn5pIPklJMOtn/5ny51YdXjwUeLPacqx1N7pmqPJx6U/tpTNA9YN3qGsgXVFMikOfAqLjyWYQeXN3RUF84ITgaR2XWr5MKzH7uky7vNX9otZ1/wHZlf2NPyzysp9KY+v7OgrvjcLjn34ptldmaVnPnra+W0Xxz/epYfRZnfsU8++/d3yIf+9DbZ8LiHyNveMFMh6ZLP9zO2mv2t45k1y2XDMavl9Gc8bEkL66p/vEs+9Oe3y/Zbvt89jn2jjJ3PIjgfjR53jigPdWGa0PF0y02XyfIf+8nffpNqKk4dLC6aChKKjekSsMqwiAHPes6svOX3fkoOOXj6Trn2ujvk5b/7Tfnkn++Q23fX6/2eaHymfdpTH94s2m/ceLf8wxe+J3fs/r78wxdul89evUu+8a175I7d35fH/uT9e2n1QMncjn3y6Su+J2/74x3ywT/dJVvtg11m1q7onqE+/dnbZfedeqC7NLsvHwC77/y+fONf98o/bb5b/uXbe+WQg5ZNfZ71mEetlCdteogc/NAhvWjRCSRSow2NppHBnjKMi9lbuOnesty160t6hrIFpoKIdSk2ZyCfYFRj13QCnygb/pDPiLOzq+QNr3i0bFrkudLm6+6Qsy/4tsxtt8unEg6Khk/FDUP3kg9nqJCwx/v+Tv2Fw2TjcQfLxuP0A1p+2GRuYZ9c+ff6rvEP/om9ItnJf8PjHiLnjZ2h8LJ53c9+XNT93B5Pp5x00KJnLL8E/Et9G1T4B6LGyRvNfs7Taf/pw34+p2rOWIPs/NePyvDvnvqPtgDtjwo+vfQCqbpeGjYbNlTPPUIZJzI7s0ouOvtomZ0Zv8Sb275H3v+RObn8b25VBeXv/Bti0/m/8w9/sl1Qf7tLzrn4u76nWrfZ3+y6lbawBtlw3EEyuxbjH7zMLeyT+R17ZcsNd4sMIltuuFu2fEX/PysVSMT2Q/471YbHP0TOe0P7HPX0V39Xtu+8t+z+fj1F4u9UvTrNrFkuJz/poNF3ZUCu+se75O3v31X2X8iiz6nKcCnHHW9093NzPOmDvijxVLxsXnElEMT0w+iCa1qJqkc7Rh3rw4nHHyoXnHNUnivy/o/Myfs/Oi/S40+J9sZOs8FNW1A3N3Q7Cm0YTYPRLbzAMLtOP6NPBpGZNaqbWbsyuQOWX7TQ8T7Pdzv9G73+N3BkJsIP9UCC1PwH2fD41d0Fdcarb/bP/nOpxwO2aqB6PBh+du0KOf0/HionnzTebOZ33iuvO+8Wmdt5L9PMG2XsfHq4zoJojs9Cv8bp1XOnLiicoSAWsRagHiAx0Rnft79TbTrhULlwymKam98jZ7/zJrnmujs6BahjDNsC6EQFDnLB6IL6LmlynEizBjBZSj0Hvyu6wr+XSMk/HyAUqeAa/jLoGeqN7YI6/dXf9Uu+JdfTPDf5Ftzpzzh06tlqfue98jtv2ynzt9zbzT/n28mzDEf5j9iH/3HcLf96Gb2XD+pB7wbDDqPv3q7vweJ3nzM+v/lJ/SsGnoEblrCYrr3uDvmN37perr1ut1q7A4tsoZw/otT3YJnC+ROfaeK5mb8IX95VDaE6DYJ62lTFUfxap8DnS3M4dv40HbAgmn252mJzQq2A4WCDlG49HpKaYvZqJCIf/os75MzXz9vL8q3MHLFc3vraI4xjrpO6jDr1JPZXracj1Iflr5hePR2QHCCtZTKR9LKHv4vWOhbebYt31hLQcULvxvV35Zo9cObNN+OdvIGbXbdy6mJ634e3ycte/3WjC15O1HkgzmQCVOFv9qqzTfxwjlUMJ1L42x1qZwTNplfPsDe3CQf+SrGtE/I3QhmHXJxGrhO24dEpE26sBoGbwl8nVUe4xJ/w4Xsicwv75LXn7ZAP/nl+fyRk5ojl8oGz15qPwj/xiXyxkfI0+8g346IGhCWc2hF/qtkyXWmx1HxlxlrUhTjSgbFqHUs4tWMkdxY+o+ndReceA3AjL3/91+UDH5kb70i2mTpLaiSEd2LckezWydEldavodTBRt6V1cy086kid3KzWiaadQzIoeUT+7CvA0Pbq1LVQ4TpRPRN6UDLsK2wCUuuEre077pW/tr9F9WTmiOXy6hccHvwjJO2HUjCuJ7BgRnUKFtnXIFxPoAjv9eTv2PVOQtvoeGnMncBWZmc+2bPPxr/eLjxn/NW8t5x/k1yz9fbGBv4mhUOXP346mMqnLwVf/NUbfKKL9eLkm0E7PjwH3JiLb0enbG/oq5OEaesUHbwrlUPKf4S/Ri24gpkoRkPomerKz++WD/5Z/0x18pMeKscfvTL8M3/mWHLEGahiEp5r25l3e69ntu1/x24sVOt83Anyak/AzrWt2sWa1uUclsMgsmnDobLphENdx/KW82+Sy6/a6Q0BTJwPOFLHYWKIGfjAEQ2aHRcNkwNgqznjcj1ZmjrlXITjlDopbc8g4nAYwsV99c91ghcyZ39VjAj7gg3s1G3hj8ch58y1YNm+8/ty1T+Nn6le/QK8BazW025Uf40DSx2M1xO0HeA42GW8jcxYv2N3IroyrYOZQiR11jgjKRyr0oHWMTCXO4ZoA3WceZPJROSNr/qJ8EPyvg/dLJdftUOxZuJ8vEP2+MdNGRGf0llETRMfUzTi/M3e85XIcwIIxTEFgM5f48Fm8TqpO7IxXHA+gDrZdvDJdBsxIs4HlsxfFXYzjm5u/G3K50rgyWQi8wv75Mp/vLP/L/l26Qe7yj/Xs+TbrWfURc08QccJYwmndhpLz1C2umJh8nKOlRkjxYw+36gd2HDu30eDnHX6kbJ+Jv7bE3Lt1tvl/R/exhFVbJg7hk5E1ETUcWrXwRMutrPMrluVtU0Htjg2pboWx9HjvlOnhK/1dLZBOTSGw5z9OI1UJQMTn0H/NjQuFs394xb1bNLtPaeKpq6PTT1Vtu+4V/+w25GTn/RQOeFx+jShrSfvh1KwVE9wMWbEi2W8nsDrvT+Hala2r3CsaOhoVdNNvAGQbQc3maBj6PhpJ/c/eP99H77ZOkHw4E6T/BMO28wh8zEVfgpXsVhVNj7hYDntFw/X8HaX/FOdPE/jmfyb78S/c5NePd1/+J0gNvs3DOrU3tR71NNs7bH3Pj6R4JLrbzGaeio08Xcc82Jf8K8YDanPqd7+PnsnTJGT/91BXhf3734jTusf9cw45OL8ab/CR74RbiKyzFe2r9RYcbGOQ3SlcicIXEKbw+gE/BxDtf/+lDXds9Nnrtohm7fqH21H+dgEe8SWdg7DuwObNRcJbzhqkF15/rPXyQuetS53JrQuE69FrefYGZ3qNAjqaVMVRxVAWOfv+NJiCw6cAm9bg37L4tt/90jZ8Pix77hKB4ir1DumjE2tZz0ekpr492okIlu/tqd76XfCMatKJiWO84g69ST2V62nI9SHJYqMuZ6iz6G486F7SNPBINEJMAWcreIAOi75J9zG4/svRLz/Q9syH1F/amc3f4iOM6HulPkjh/DhnclxxJ/SYJldt0qe/+x1ctl/O1pOe+rDnVfDR6wuXE/4xw3SrWfYC+g09bR43TrBingBh5ydxkRm1i6X5/3qw+VD5//4Iv+UqP68TmK8mnpO4a+TlscIf8JD5hb2yVWfb799cuaI5XL80fHqMGoMj84r8Ym6YCPxN3vgUCfgogaENarxybG0NtEkbGGnruEr09cscP0OrBrCE+7pp7RfD3P5VTtk2/w95Yymd+g03BN8Dj9jHck2U2dJDZfwZNaT2XWr5PUvfaR87L8dLc9/ln2ikjmC6Xg9S+u27bCzG9VJ7ZhXZLb/z6nUehhE1q9bIc/7T4+QD7/z0fK8X5v+ISssqa6IlvxbDGKS4OlMhT0SuEHMIdVpEOl8nanKGc+gxmwmvp8jJO2HUjCuJ7BgNnbcka9B4spnWXQMrDTqZLyyvZPQtuN4bHisabalW/1/I8i1W/XrUyq+3gITHaN7s5zYZ5d/yr+y6gufsS77o6PkzN9Yu6TP/WMOCNbyqjeDdnw0+4Diehed6Bdjn/D4h8gZ/+nh8tcffox8aD8Xklh351jKocO/yX+Ev0z8OAlc9a+Y+R36AS+tMD44un+Kz76Tf69Vi0n4FKvM+zsleOXZNlZ0rMvoOAS3zsSdIK/2BKS59bPtcycRkWu33pE7kzn2TgC/pdFjAgjnAx/UcZiYbjI+OO6PzK5bJS949jp55x/+pFz2346R17/kkXLaUw+XTU84WGbXrWzPuGORSp3YxnWEYzNNL+q0Ht+4+MxHyDt+/5Hy4QsfLe/4/UfKmc98hNvtrwwITfXM+wFVBN74E67LH49DzplrISL+JdwsM0esKP4ToVLPwt/jkInk50qeA/nQURxPjvnZn/9768fOJstQ//9n0FNCqqKE8xgpvuKGQWQykaefulZ+9zU/ledE5Mmn/rNuuFnHvr6bvYvLG5k/SbUfRC5482Oaf2ic275n9Ky6FJnbvlfmtu/Rf8WYiGy54U7tutv3ytzCHplrPqyl2dCRvWt7Pf8byLqV6V9AZtetkI32LfQHInML+7ovnZ/+yn+VuYX8zYq6H8Y/968p9zDI5D78P9UpTz5YXn1We1Y99bf1nz8dX/1Nref98/9Ut3znYzL87M//g54nC4HWEBONwtWceIszMf1vnfFIOeuMR9ZZefJp/4yKJP34gqhjPBzovzvogqqfpnT539wqH7hsu5z2S4fLC57d/jfr/Slz2/c2+7N+UMsPQuYW9smVf3e7bPnyXfL23zuyTsvpr/x259s5vOA07vy7RoOD2urvC8e2mv2l4xOOWS1v+532ube/Uz12uE64u/rvI2WjjN1LD9dxNAwit3z74/g7lPj1oGBbN+gaMV+DOp5wqutfg4oh4WjbXHvq3jZ/j05L8e8cyTd+CKd2gYMPxmE78s3bGr8v2+bvkQ98dF6e9b9/Rd7/0XnZ/CX7hJ77WfDPh3z7QcqWG+6St/7Rdnnuy78ll3zqltH8vZ6ok+2rtL+sgKmevf1l0Kb+6q3ECczsEf1/m59b2Jdswqfk49M5IDTNhRIsGtwEc+DvOL0tG5prW78z3aD3fu0Za7g5W2BFN8+pYBGyjT8bz2T9zGo5cmZ1wZdrbXOsXiNOw4dwcW+ogfDuwGaZZBHMzW3fIx+4bLu8/PdulGf/56/K+y+bl81far8C5odV5hb2ypYb7pJLPnmL/NJzviGv+r+/K1f+3e1em9ESeD0D09Q/FAGo9Td9qrUdYOw31BFz3cjnUDTPUZP/CKQcKY7jnFlX4vgPXEZr7ZZ5B+AzCHf6sgLRVNCbSKE+fIVjCjjrACZz2/QTdqrMzKxq+YCTdQx1R3wMp3YA4CE6zoS6U+aPHDLHLDRn9jKZyLb5PfKBj26Xl//ev8iz/vNX5ZwLvyOX/+2tP1QLbG5hr2y+4S655JM75VX/9TvynJd+S171h9+RSz+1M+rkHdhq1hOvJzCGt7HPcQ29royLeObW97PCg0Hdz70Pdtn61XsKLuKpz+AzQZzKP/HRPIxYy5+OJ83XrCYiw88+xV6USKs5rmFtFKu3LuLS0oclPvdaP7NaPvmhjUknIvKZK3fIW95+YyicQOFTAyT+pK7PvUZwMT3IO9/Svihx+d/cKudc8O3GPvxDHQr+xg+9jFtlLyLo4/0tcwt79exzvX4gy5Yb7rLPmSCGpZ4QrtOGYx/afw71in/1z68Y3c/dOt9/z6kufets8zFkV37+TnnH+24dOS7qGO7ux+dUtnHrtz8mw799yt9NoGJEPhA7TxKLwwjYHGFd+2EY5KLzHi8nbsifI7Bt/h555hlbQjGofdqBvT1ZEk18WAqO6SHfC85+bGdB3SJnX/BtH48eUK3C1bksgy8usedNwKfnTNWdiMwv7E2vCm6+/k6P63ljsvKpddIXXVOdNhz7UHnH77cvGD33FTfJ/MK9Mpn2qlghcH/UCXLKkw+W1/xW+5L/ee+9Va76x/ZdFCJtnO6rej2Clb/rmgTd4NbvfFyGn33K301i4TAAuJyhBtjPl0lTXN+DsmnDw+Ti8x6fDUTkzef9i/3bhvQcNsPE3yfKRuLfTjPugrf0F9Q5F3y78ReiioZPxTX1HFn40+yrndWzh+Nhv07uyca2oH6vXVCnv+Km5mVzMGkXzhT+pYG5ouJ4KCJvfd062fC49u+Xp571nRbfHHfNhg117FUYxeWNXj1v+c7H8U4J8WtCXE8KXYMawHEi5dp2IgIPpHCcXsdiyjxMJrJtrv886qwzHhnXrCPX2iDk9Mo1tPMP4o4TugZ2d8x/RDQH4OjanOIoH/bf4Q9yqIUU/omPEwTQ/Ws82HTiIJbzKnEMh3gKwEQrTZ1gZ3VBnEmqk8bMTogPLJm/KuBIZDKREx63uruYrvz8bs/DCIoOUSeL4eWg/UZ2Df9Uz5Jvt56Ktc+UiAWoQ1XoarUZw0F0Zdo9QZLCtfHqmbsZBpmb3yOfuXKBsCrrZ1b7H33x6o2wfx9FnMGGwQqzGYeh8/fch7Z7V0kvYhF+wB0A4UlRzAcT+WWu8XpmHEeP+06dEp74DEt7719PcDw0qFrPVKdqYdEMAFyqU4UPQ/dST0Tkqs/r9x7XOkVs+Dad5V+BbT15P5SCpXoiX9Us8xWKFYcfrDyfsxWLbV+pgUkr21d44BCHfb/30u8YtSxPP2WNPP3kNYWH2WtrCP/OMXcMzgOZodMwx5SvdZquOP+2TlGfvF1xVr4Wv1/1LPw7NwGy2IZvwnfq2ZOwk1LPzDFiRJ0Yk+tvPkudnMZkIm973drmhQixtyFt+bK+wpf9azXF6tTemLN4XdSu8Ce/2T/qGTiRiSyLtawSK9t+0kpNd44TwvlCpo7Dop0pOsHc/B5589v+pcJEROSs5z3SX7RAB+b+4Pfcmcyx8x/jQ7i4D999ac+0HiXTcF5QJT7kwwkTDupUTzoDJTGg8+n8LcdxlF2tU+AtaEfUf0wHLIhmX6622OkACQDqEij1NYic8SuHyYbH9f+l5EN/dpulTzF7NRKryw/471QigyzTViDWz7B6o7PE6gPMAY7DCp9YZ1A4OpMr1IevcExN5Jott8m1W9pPuFk/s1re+JqflPX2tym+CfMBJ+bPfAyHLtLwR2eyPLqCnMwHwsIu/AdWdREH/hv+lY8U/naH2nE9MTZzsunEsTnwV4ptnQzUSMrZaSB/4u959OqkMZPTBqeYk598sJzxK/2vDfrgn94mW75S//6k/jhfSMYRf6oTcOqj8Er1jHyxgVroJ8diyYp1YGokpg0YVinhdBi9Dis/3AIFX9yRRObm7hk9S62fWS0Xnfd4ewdFdBph/z7izjLWkVzjVkKdeqTB+UecOX/zF96og1Gcpp5D4FIowulwrJ6ptfp22FGcWic3q3WiaXLdiOP4yiV8ZZwhmzpVC+NoAOBO/blD5LW/3f94hC1fuUc+ZB8x5jVK/s0h1Ynn2Ebqmd82nT9syN3ARAkn3c/l823uGDGnt1jZvt3gysqGXltUwU3k5rm75c1v+ybSSrJ+ZrVceN7j5GlLeE7V+u/fMv/gOYGiclgXZ8ke/5o/Yxo+nTo1+Kae+Qa8GiuHJk66jcTxudD33mku0tYp+bYfxmQ+Gr/mpJjM//RfOUxeM7KY5nfskw/+6W2B16glTvWvGEm4/k1TIFvna/wbfLZd5n2QOg5LrGz7SSs13TlOaEX7Qva+kENoZ9KZz3x2YfRFivUzq+Ws5z1SfsveoZ79I4Ldc2cyAs6fKHNjwgQhkszOrJILzz6KExKhmFB7lOrfZzGyn6aeOYDj6xnXsyliDpOdRzcd4dhMBpGNxx4kv/PC9osCXAwHr+w7/POOVy3H1v3W1mlmzQo5742z8rxfHf/a1fP+xy36xXCVPx6HnDPXgmWgOjknA2aLWs/CP6epnykRnUWsDdmj6Mr0VWtjX8nW8dzGcMKdABCKYwrH6SrXqfde+p3pi+qMR8rFb3tc0zHEGPtE5c98jIfny/zdvpVNxx8iH/8fx8rTfukRJV/qYJ5n8DJixMer2ecPcsZX1WP1LHzdDvFg04mDWDKRmTUr5cxfO0Le8X/9WPhqpK1T5FF5eSD7BR8LTbjJZCIza1bI2984O/oChIjIa86ely1fudtouyPjoeJ1simfK3UK/sYF07zfyK7hn+qJYCLLf+zHX/AmrDNfabxBD0DlzoJlTSD3NtKBqbMgAGPwAkV9WxJk/exqefopa+SQQ1bI5uvuaJ8riMUhQhi2nSXjZBB52slHdD+NSUTkkEOWy8/97GHytF9+hNyx+175xo13B/8ol+qSggHU8bieHKjUaf/qKVYTWOk41clkdt0q+bWnP1z+8LVHLvqFcJ++/Da5487vi1hY5Ww/dDykKIRj/uAlMsjzfvXh8gevWCeHHNR8GYzLa8/eLlu/co/6SumqAirsXZylVBc4N8Pj4HvAcciDgW09OV9N6O7v3SDLH/mo578pRZBBROI7cxsKoUgSeNtqcFnh+C5uop8tMWVRHXrICjlxw8Nkdma1fP2bd8rtd+C9bYU/NiqhOqS3kjztl8cXFOSQg21h/dIj5LE/+VC5Y/e9Mje/Z7ROUZ8iVWFEGnzFLbmercyuXSnP/PcPlzN/fY28+PnrFl1IkE99ZpfsvtO+n6kllITraQYVod9D9bvr5aQnjsef37FP3nTBdtli3/8LGepbyGKio+gcz4sUKvCFvw/b+t99+w0y/NuTrp7kHWEbaRxUcqEavwyw6foeLwemB9eW92Ctn32IXHTe40c/g0LsDbWXX7lD3vch/g5ckxK44c8TJheec5SMfdb6NJnbvkeuve4O2Xzdbplb2CObr7tjNE+ROCvtfz0776WsY8igb7Zdv26lbDj2INlw3EFLXkBVnvvSb9m7zRMhe6BxPnIbnH5s2SPklKeMfKCmyZYv3y2vOWdeJL3VzwLUfG3M4fW46+AmrX2LazZ0RMdnXTe3fvcTMvzMSVfbBWCbuBtMKRBc14XQ4qDe/zdHrp9dLRefd+zURSW2sD5z5Q553we/2/JpN2yoY09zELnwnKMPaEFVmdu+R7bN75G57Xtky5d2y7bte/SzJebt281FRuvU8B/B1Xqut38T2fCEg2R27SrZeNxB99u/ijznpd+S+YW9zYGUpBwwvJ9n166QU55yqDzvP7WfCVHl0j/ZJR/8E/4I5n7+/TqNH0+ZXUqExsR/dGE2G7Lr5k+OnaEoZDGMAmV9xkVC4a3iTArRsTPa+tmHyNNOWSO/9bxpT5pV0hnLCRQ+NQDx752hrr3uDtm89XZ5wXPXJ/2ByhwW1/Y9MhGRef8P5qH7mRIy1M+V0DPP7IzqNh6Xv8L0QGVuYa9svv4uOe0X2kttPUPph8zUHcQLRxU+I7Nrl8spP/ewJX1k2fyOffK2P95Bl3i6x/oLJylsXPZzOR4rzoejx0Udw13bsG/97idl+JknfW7iwLxRNuuBPpKQKXKBOwkV+5RQZUr262dXy+++9jGjz61YcMa6/KodMjevB+4QgTKY4l10bnuGuvyqnfKW82+S2dlV8rRfOkLOup8W1g+LzC3slSuuvk0u/cRO2XDcQXL+f3lUhchzXnKjLiiRvJ/tAEtiDeCUpxwqZ/5a/42tVS799K1y6Z/sSvu/Pe5MWoWr8+HTw3UafoMzKXpdSP3/p7JLPltQINQcb2SYEToa7UwmJcPR5wAj9m0n0D141vN+bElnK7GFde2W2+Xyq3bItdflD1Zp+IvIhb0F9de6oLCD18+skk3HHyKn/fIRzf9O/ajI3MJe+ezVt8lnP3eb/yeuiMjG4w6Sd/QW1EtvlPnm487y8TC7ThfRqU952PgfiIvMLeyT8/54QTZ/+e4pxx3U+/+UQcxNd+HY8dTgm+Ou2bChjgcRufXmT9AZygFlwx/28zlV01kqDuolFkjsGXyMZHZ2tTz9lLVLXlhii+v9H7pZPjPlHxinnaFcKK/ZmVVy4gmHyMYnHCqzttB+WGVu+1654updsuWGO/U/fUv+wzBMP0Mt2BmKDqSJPXc75SmHypnP7L/DoSdzC/vkyr+/XS791K2jx9MBNeB0+Ew/nsA/4I3DfAIZXZgjl3y8ENIB3iSQx4Hq4dqE2gWHiUbh6rHE18+sXvLzKxGRt7z9RvnMVTuTjvPtnqGwoDp1qolgUW08/hCZXbdK1s+suk8fknkgMrddD/zN198pcwt7ZMv1vIA6z0mI/+gZ6iU32ufy5ePhHb//Y7Lh2LFv7GgFn/936adjIY0eDyPHU8O/wUGtCt9NI8djHTu+iyvrwS55b/3uJ2T46Sf97QSKXOCykcb7cQYyBR+w3YSKvdPu4lr7YRhkdkb/4LvYwjrp1C9MXRAXvfWY7oJ68/nfioYB6eXfnHHjzbWb7BtHNh6vLyJgoa23+aUsvDl7AQOLBp9IO7ewV+a277VPXFpqPU3Kgjr/TT+epkVEnvOSf+l+wu3GYw9a5B0WKnMLe+Wzf6dnpOZ4KHzrOFA9XOd4aI5PTDSK/gJtcCamdz5xAMmtN/sZajyhMMz6JiHg63OSyisANj2S+Ih9N/GksDPWqWvl6Z3vn2o/VSkHGAaRC8/tL6jeJZ/zd32uR66T0W0uSdo8ReolyQiuW8/OJVIdQ+gAwXjjsQ+Vd3QX1I3pZXPwml27Uj58Uf9rXcUW0pW2kCghk5yX82+Oi+n5Z1y7wDhPhFf/HdzIc6qsaDZk182fpE+OpfdW6S3e6yT8HibCwU5Bajgxe+DwvicgCOA4tRt7r5or1Afx0ing4r1V2+bvkfdd+h156au/LG8+71/Sv9l/5qodLR9wAv8RUbsO//Setin1tHnEmVCdmL8RM13ECf+Ff+VjXFM9Yef5mtg4aMJDR8rxoBQnsm37Htl8g350GWRuYa9c8smd8tyX3STPfdlNcsknb/HaaB6gkeuEbTBq66QxXYxIxkX+GoHyRC3cnOpkOMZHGMYR/xJHPzlWxHoDrcJBbz436KJlVF6kajCQXdzghaySf/hVJJpBuPVIQBT/iqldBH+PevN5N8qvn7FF3vfB78rmrbc7zv37KFWgETXziKqzO+dvdYImA4m/1xNThKc4TT3tvWfkMmyWVE8naMrsC3G64hOR2WDvfbv0k/qcdG5hr7z1PfPy3JfdJJd+6lZ/ESPnUetUxOop3TpVC+Of/FsMzBFaJ4m/R2L/5pDqxHNsI+U9kvrJsRKdD9vaCawbYM5vtmLJjjHoBO6b/dtc4NEVKi7iJ/9GrOFSbmIdA7Y3z90t7730Ow0OHJP/jtQcMv8+B/jL+BH+Jf9xfL9ODb74qzfg1Tjq5PMd6cYxDnPb98pTn/U1ec5Lb5Qr/h/9fyX1E5jxOsVxwpict8avOSmm5d/mP8JfoxZc9a8YrUGOn27xDYa8SvFuW6zAvOErlbuN6AAdh8Xx+KGFH/Cw8a7SdCb0hRxCOxPxr+8yZmD3/1ooJt1Xcf5A5AbmRIFwPhYLHsJBmGV84JJ/8guLQXr1zAEcb500ZpFNEXZYJGK3uPkd+u4O58Vx2J1NAAFc4E3rCnghc4ojla7lz77cxpTqNhs6frBaEY7dQwazBw6ulsVKjY4+mQh6simtPdmK1q5DHcM7i9rpcg6cqtAx0E2iY7iN4YQ7ASCJj2KA0y6CKfNg9gQ0/piDKnCY68ksPtfCmDj/IG46xOF8FRf82cw8go/jiD/FmUyMv/vv8ffkVCeRp5kTHycI4OgfZJs4iOW8ShzDIZ4l7LicR+XlDuw34kxSnYKXkcx8YMl1UgUcGQ+Yo6YIb3NB0HGYA3+ZTGSZLfe8QnUrdzBbit5ZaOy2jA2D7N88izcImzFcuHBk6SykcG0+qyqufU7lks5U+RpYBpH3ffC7jBYRkU0nHCpnnX4ksQJdj6hiQ64TcL16YiPq2cETTh+45oEj750ObHFsSnUtTmSQU3+h/x+z+G6oFIf8iqCelAflz5b5+HmAn1NVeFPPiAFIrRPPuedhwOfy0YrDqvZOYysbC9px8eg23kEyBn6jY5B/n4s4YnG101AM8538Ew5xsm/gouMwt4qbTPTFjJ6cdfqR8oLnrldcycN7IfJk/5xH4sr1Yf5tnUbxBWfla/FLqOfM2hVy/h/8ePffO664Op4XTSYj9XT/4Vc5ZYxuR53am3pXu5wLYyaTqBNjcv0tRqmTmWT+jmNe7Av+FaPps0986pH4UsMazivblqOuwryRVyppqeOwBN5+aOEHPGzApO1M0XFYtDMR/yFwCW0OnQ89x5ib3+P/4FjlrNOPlE9ccryc9dwjnUGXj004f1ehnoZ3BzZrLhLecKmzmgIq4Aap9fQAjoMa9Vy/bqWc+ay1ctl7juouJhGRK6++zXxzTBKL43MWNlgB7weZATMOnAJvW4TjOVNb7HSABAB1CZT6SrhaT1ZTzLwTXBzz0z/7N7pcE4vWcKh/sOUJtveH+k4EN0gPutH5S3WDgzr+kBd82j/E1bHT6OLa/I+cfYhc+LZjmj8Ms2ybv0cuv2qnXP7XO/O72UUy/07+3XomCjn/xL/jr9ZpKfXc+ISD5bRfPFxO+8X+JR7k3HfdLFdc3X5uovTijNQThYk8fIJRjX1Tp8Z9zkuPu84ftjv5i3T4I0C1r/yLXkRk17ZPYUGFaID+29OTpARqgShk0nOBsj7jIqHwVnEmhVfLBxNVodIUlHDrZ1bLJy49wcfTZG5+j3zmr3fI5ut2p7Nb94DIG2k4yn/Evqlnowj97LqVvnie/6x1BdCXK66+Tc69+OapddJx3hhSAyvHQyfB6XVqj6f9q9N+NuwU1bZqoMpfRG7d9ikZ/s2//esJFFEARoZrt1zKe/+azVoA8pdEFbnAnYSKvbNsDqi+fcM/JtJw/exD5Hdf8xOy6YTF//8Ksm1+j2zeertMRGTzl+7Il5C9/JszbsV1+Df1xIQq8J7A056q/9T3tKcevqT3CbJ84GMLcskn8K78IjVwcyBmvUvJf/B3+kzHxUOn4VdcOlyn14kUrp7Kv+wPDzcMdoayBdUYVkKubxgngwiQ9RkX9pFAxZmUDL2gle+IfbNwYg9WoD6M8D/r9CO731q/VJmb3yPbtt8jc/P2LvDrdIHNbd9j3zescfDGV0g9IGbX2SWoj1fJxifEG23Xz8T4QGXz9bvl3Iu3jfzncK3T9HryMO1nnugcT+1xVzbS+MDe+xd8lsCf800Tkf+u8TNUSiUMy7BfoLLhD5Rwr1Jp/AMokOQnw06j4qhAWW3vZj/5iPu0sPZH5ub3+LvUHwiZ275XrvjcLvnAxxaoniZNnZoNHTUNrNmwoY5jP/gEoxr75rhzB8XAHw6gAafdbwF69nZIIfyuuU/TGcpxTYT2AM8VMBweApcO8CaBPA5UD9cm1C44TDQKV089QCDNji64QWT9utWyacPD5GknHyH1Xek/aqKL6Fb57Oduk23b97ZlaRV6PDQLp+JMuvUsx0NnR+bjJwVq7Q3XcdPgRvk3OKhVEVFtqwbyM9TPXDVhQ58fPaDCNQMbgnUjjffjDGSKXOBOQsXeWXZxrX3DPyY64+B/5Oxq2XTCofK0k9f8yCyuue175Iq/3SXXXr9btuDb6mueS66nyVLqOfhd0el+9eOhtzJ8qBvN8VD41nGgerjO8dAcn5hoFL5A/TnUZNI5JTZjPNSFE1QZhw2fLfomIeBHO5NJAGx6JPER+2ZHF38u5jD4V4AJ6dfPrJb1s6tk4/GHyqYT9PbDIHPb98jmL+32S7r0PK1bzyUcDxCqk487l8xtPct+Trj2eErHQ96BDQ4vWkw/7qCOpwym6C6whn/nuNg192k6Q0GqYU2w4Hi4vwXyhKcUCEyahdDgoI4CBZ/xAvmwUyCdaAiaui7MZkPEPqVpdma1vlhw/KH+n7nrZ1bfr8+P4jMA9aPJ5hf2yLZ5/PduQ6vlv+R6kr7iOtLEGalne9z5BKMa+7yf2YEblIeRhjGSf8MfAar9MMht2z4lw0//zFWT7oEEqQfeEB1AFU0FQu8J1AIRxaTnAmV9xkVC4a3iTAx34oaHye/+zmPlpa++QW6eu6eh2ypUmoJWnBMofHq4vCEiIutnV8nsOv3uKxGR2VksMtXMrluVziiDDPqq4KAvWsRczd/41Ho2CtIz/8afSZOXnpFQp9e9eL1sPO4gec6Ly/d9VV6pTuV46BxPQbvy6tgbruOmwcG+2c8NDmpVRFTb8udQP33lhIHV0IejB0q4ZmBDsN0om7UA5C+JKnKBOx2D7E/ceJi86x3HiYjItrl75CWvup7er9e3b/jHRGe89BdtnP9oPcsG0Zt6QFX+TT0x0ShcnfdXxZmYvsf/dS8+Uk77Rf3GwbmFvfKbL6Lv+6p2Re+S8jJedjwlKbh46DT8ikuH6/1Xp11zn8a7zUMJ4kO5SX33tk0AHdglvvfP33alP+I0KAaNgGO6AQ8bRADuibSYBB/r/I7j/GOdh0HvQHPovJ/Lgem9fzmHwNd6mioydcpcTkwA4Xzgg+pkgdws4wOX/JNfWAzSq2cO4Hh6r2PEDBwvJrEvJPjoux+TbCK2xVlKnYxjAAMX99U/1wleyJziSK2TEWFfbmNKdVv4282/BR4ysW1/F60taH+3rc6qkt+Jazi8Q1fwvt2YMJwqEFY1ioOdBXScquzHYxo+AI4D/00bHiYX02KCrJ9dLRe/XfXxTmLQNA8pX+aPOagChznnxPxTPUu+zN/jcL6Kgx3f3CP4OI74Uxzlw/47/EEO+Urhn/hM5MxfX5MWE2R27Ur5yLt+ymw6cRatk3G1eJaw43IelZc7sN+Ik+tkviBGxPnAkvmrAo6Mh24O/+anr1KtrbYBEz+gS55BBvm9Nx4jQ7lk+6vLt8s11+6igNwOiFfR+0yJ98SNh8vF57eLCfKSV10v12z5njsKPiaVP6RTpzzfzz/nWybSGA9Lq+co/26d8kO/niaV/5RLo9l1K+V1Lx7/fqm5hb3tcypIt56USUwkszOf+QiZWbsiEd/65bvks393R2s/jX+TvwZsj/+Kgzr475r7tAxPtOdQkYZt1chNgccOqPDEQCb4Pz//C9lGRP7wLV+Vv7x8LhJqCjCSkCnigBrkxI0Pk3e98/gKdHnxq66Xazff1uc/kn9bYJ/ojJfeYHr8k/TyX/Q5VUu0rScmKlAdh/8RXImzft1Ked1Ljhz90oL6nKpbz8Hviq7wn4h8+KKfKF+eIHLJp27RjyqLNOJ4buqSx4Hq4TrHQ6eeu+b/RD9TAroBd4T6gTynGhG2Eb9EzQYYDfgp17Ynbjps6mJ6iS0meKgyDHrnXA7g/6kyfj+eK3AEwsW9oQbCuwObNRcJb7h8TBT+zId8OGHCQT1Q+LmFfXLuu7bZp9O2Up9TSfIacXzOHAcr4P0gawTcW/9BNPtytcXmehIAdQmU+ko41ce3wNsKpYtR1fl1Y+/aFrjeta2p6BrYr21HpL22lfBtHvO1La6J1emmjYfJu85/QvEa8uJXfkm+uPm2lk/Nt/I3Ms21tuGUV76pNnAN/9F6AoAHxEG+nXoqUeeBOBOqU+Jv9qqLOOFfceDV8JHC3+62ze+Rcy/+rmy+3v72VWQpz6mgmV6n5NYl5WzbyCzx9zx6ddKYyWmD6/OfTESWobOKL0ZedrSSm1d5eCHTlrUIX9HeMaLTjIliOx1MiakPc+z+zfOJGw+Td087M73yerl28/eckyS3wQsZZv+KaS8PwZHwTT0ZSbnVenrHc41bCXXqgXCpnrbp/A0X3ghPcZp6jp6RA6dD/OR67teZqtbJA9Y60TRxaMRxtU49nCGbOlUL42gA4CJ7shvoDJVughVnq7DOU8foYVJn8Y4Bu5H2whjYk67lEx1j02LPmV5xnXxx867MA/bVv5JvuZSbUP7d+rA9+2z892+Bsc7awcBfxlf/ZoufDqbh06lTgy/++LbkM1WyG4njc4QdO4Yqju3thzFtncqx6hi1Sfgmf8XY5/LFissr1ZYdWpBox8Ac36R2cFrR6j1Wdl/ybHQNY0Udh+WJGw+Td18w/l+1L37ll+SazfHv295Vms4UHYdDaGci/tOeA/Bc8o8Idp/qaapa/wxzokA4H/igOlkgN8v4wCX/5BcWg3CnN18gTFaqzmfcue375NyLl3im8ugqHmdKnUaFcHFf/XOdVMuxdb+N1MmIsC/YiIgs07NRrGBfmXRtqK1Dxed8pfI1JHDaCdANhHCBKeI4RaaO4Z1FwrdM9AWIKYvpRS+/Tl+KZz5qnPmbP8Rp8kUHgp1O5FwoT8db/v16Rp6aG9ez5Ou8iI/vr8AFfzaLOJoDcMSf4igf9t/hD3LIVwp/87dt+xLPVGQvHGdKnfpyAHWy7fE6mS8PUfjA0jD6qUe2YEWi05ia1q7N49E6iC/0hCQbXe5kF1NJzJF3Fho3/geREzcdPv3M9Irr5Not+mqeSPiHpA5GkKRwrfFhN/WMzJLOVJ3nCj4K+8gXrDCbcRhynYCLqGwWuPBf8ITTh9qBYUFi+9+HiGNTqrsPz6lcwq8I6pkAJMTH07Efp5uqZGDibzgzt2m2MI7uPzP0d0rUDhAdx7qQ62I7dFjf1EHoMXWMac0l4dh/dIzJRF/Nm7aYXvTyrfLFa3dRHszZtr0jUQzK3/GEA/+wiZsYEo4y/xLHknX/pk/193wDp3aBc/+cR+LqSZHOVNX/GL7grHwtfko9D+Q5lfTq6f6rB8iUeqabYqOekUvD33GByfW3GMpWlvk6pBWnw3xNDIgqYsUe2HOqvoT/2ODYg4g8cdPh8p4LNyQ7lhe/fKtcs/m2Tmcit8RivDOpfRXtTFEXrREsCrBzprJohC+d3hw7/zE+hIt7Qw2Edwc2ay4S3nC8u6CAKvEhH06YcFBzPffrTGW6TAdsF5NykBkB50/TzJpxPBfZRZ0a/8RrmfUB6jS2slO3aTsGxOeAJRzmzGGs7K5wxyh8RDvBpo2Hy7svXOzMdFvwN7uGP/OxjcRfgcQnOHtncprAcb49/ovVEzyM12g9AcAD4iBf85H4WxybR5wJ1SnxN3vVRZzwrzjwavhI4W93Sz5Tkb1wHKrnqFD+iZfX3nKx/JFZ4u959OqkvjgecOLPoUR8LdqC84XYXNvmNhYrOXXgPJe2in0I+p8PnYfIIE888XB5z0XjZ6YXvXyrXHPtbdTh+Ub8ESP5R3TjT5CkcF+RJ25Sz8iO13vHNvVkZFSgqaefQVzjVlI7sCmbehKTegZJeIrT1HP0jBw4HeIn13O/zlS1Th4wRc5Cxwzjch61TkX8TNWrU7WwaKaid0pEB8Iq11t0Je46imF8i5lwp2F8R7z7OYeIf+LGw+TdUy7zXviyLXLNNfGcKfGnvOLG/G27weX8HW/EMq761xyRf7c+bM8+G//9W+bf5wB/GV/9m23Jfxzfr1ODb+oZtyWfqZJdjtMVzsVxYT9ep/YMNGny1vg1J8WojUxElkUf4ZUdC5xXpXcc19nSxPIU7WCY49tYB4cENl/nn3ji4fKeizdWuMuLXrZVrr32NuWqgdJ8cLUfohvwsPFaNJ0p6sQhtPNFXaY+B+C55B8R7D7V01S1/hnmRIFwPvABa3cQZhkfuLy7wi8sBunVMwdwfDnj3ue/U/WkVyfjyBjg4r765zrBC5lTHOE6DSLL8soU66vaCbTT2MouHceR3jpgZnNYxYTDXE+AQzcQ+zvTey4aX0wvfOkW+eK1t7b8PQ/zlfhHN9E5BzhOKn/zhzhNvt7lzE4ncr7A+RxUY/XUm9NL9ST+QdxxGofzVVzwZ7OIozkAR/wpjvJh/x3+IId8pfA3f/fp71Q9aepkXIm/Pyy1TrYNj22dzJfFinebj3QkbPoirNe2PmPzeKSOzKt7TMJOt0/c9HB5z8WbCirkRS/bItds3uXdSNg/EgJx5i9SOovNMFFgcE+QpHBtPqsqbsoZOZ2pOs8VfBT2aPwWLfAFh6Hz99y5UmwWuPBf8ITTB6554Mi77cjQjNXzgJ9TjYjiKA/Kny0jX/uh46HxX+uZ6sQWg33HLq9s7wRYgbaSaWWnm61dxQBnPhLOFj1Wc5GwW/wy74Uv2SxfvObWFDN3mojd8Hcc35izbXtHohiUv+MJhzjZN3CKDD6lPhzH6u7+TZ/qX/KI/RU49895JK6eFOlMVf2P4QvOytfip9TzQJ5T9YV9MyfiPFbPdDNfXk+zLZgJ1QkOl9XOpNessaZ9HRJOh/ma2JHqxDTqz9WEbcQmn3ji4VPPTC986Wa5ZvMuN+DYcVOi6Dgsga+dyeaKzXhnijqxaD2jLm09Cdg5U1k0wpdOb46d/xgfwsW9oQbCuwObNRcJbziiYc4jYuJDPpww4aDmeu7XmapOuhAfcxyswMKChknCgVPgbYtwPAf+uI/v2PXFGCsTK1WEOqupUleyjqFzbmhmNgeszxSZiDxxkcu8F77kWrnmml3eNZyP9DoG8fc8qDPhZ0IcxfzCxnBqF/zhF3GafIGzseKiTgYs/BerJ3gYL+ZjOLUDAA+Ig3zNR+JvcWwecSZUp8Tf7FUXccK/4sCr4SOFv90t+UxVJ1zc+yJ1Ukzi5bW3XCx/ZJb4ex65TqLfAq9rLLqFrcFeR+I5aOq1bTaKlUwduCcnbjpc3vOuaYtps1xz7W2hMAKIHB2PuhRjwZ/s4kb8YZX8w69ViyBJ4b5wHzehOrEgpmObejKScktnNL1TM9e4ldQObMrwFibO3+uJKcJTnKaeo2fkwOkQP7meSz1TTZdaJ8qDjhlmmPOodSpi9ZRSJ9F3m0f3Sau06LBSJ7YkfWU2trZW2bbx1cp/+Pfrq8rlhS+5Vr54za3mGz4jfvXvvAxbMYk/5cX2gbftBpfzd3xTz36NBD2yy7/Ys8/Gf/+W+fc5wF/GV/9mW/Ifx/fr1OCbesZtKWeq2fJ5EpLOQJVXyZ/z8O1pdYrjhDFNnfjd5r4200q11Upr2tci4XRIHcd1Yss31nivS08TXUy7Mh+iEAExa3PcbYwoOg5LcLUfohvwsPFaUGcyTUSnEFrPqAufpRMTc+hzyT8i2H2qp6kiU8VlmBMFwvnAB9XJArlZxgcu78rwC4tBevXMARxfzriL/Z2qJxHb4iylTsYxgIGL+7iZBSngRW/L7FIQ/ZJWnnaWvDKB006gncZWduk4jvQWBbPYXkxe+OJr5YtftFfzwBDdhHjZhOGQxxT+Kd/K3zgCHwDHifOwaA0fxQAn1MFgo7rABX/MQTVWT705PeZjPMAr8fc4nK/igj+bRRzNATjiT3GUD/vv8Ac55CuFv/lb7O9UVTKdpdTJuBJ/f1hqnWwbmOHETZ9R77b8Bvp4JFLXdsQG/qB2PVz+3L8v/M9fLphW/vKvtqXP6XP/jihxgmjWm2ybu+d+/dw/rlOeaBSunl5PE6pTt54xkdX1Y8V4Io3xcKAfc1YABYeHp9lXkVa9SxOu87FiOiEza1fKab9wuMyuay/zWC75xA655BM7s7Jbz3TAd/Nv6pnyLPaGu23hT2XYtPGvJlDkArMDHtuw+Vy1Pq5JSAb55y8svqDub/nv7/uW/I/33+RM2gUxwt8UucDtAqv2nm8X19q39fSJzviH+3P/Ztetko/998dlwAMgH/j4Dv9O4G49B78rusx//+upW7ct/Gnnc/l8Q2cGAwDXvorjjBynw/IqFLv9XyDO37iJX2JnQom/5Y/aBjxskCFwkW/UiUXrGXVp60nA9JyK68n4/XiuwBEIF/eGGgjvDmzWXCS84eox+EDLIKhnjGMy8qQhVQl4Ooih5HqmY5xAhlk2kSnXhnYNjOtMxQYurj3NCa6J/Zqyfw29bdtdTuWBEuSJa+LEP+VL/G1c+buN4dSufQ4Q9VR7NY866RRwUScDRj1LLRs+4MT8mY/h1A4APCAO8jUfib/FsXnEmVCdEn97eKBlbmEv7YN+naCZXidYUZ289pYzyk51mgjeyzeI95q8rLGmY2X6em46EnUAamzorEDIMMhf/OXNbPiACPKMfkSpgrTlmfhHVukek+ELP1GXcOuRop7Jv2Lay8OI6dimnoyk3MqrZuL7yzVuJbUDmzK8hYnzN1x4IzyZPZByxdW3OZ9unZxXrRNN+z5NBuW4qHUyDP8/VLpRx0nbvEqLznsVOgE6WGM7kb/8y23yx//9m3LzA3im4q7lvIxvcO7wp7zYPvC23eBy/o5v6tmvEXPO+HpTjuP++7fMv88B/jK++jfbkv8DKXPb98or/8tNi+St+6OfR8k/5RGY8Tr5eUqGEzf81WSCFZjEFLSqxXCTvHY7uM63eTQ4kxJ4GAaZ/Mh/52+H/4j9UJ88D4Pu+Wpf61n5+zCPG/4+UTYS/3a64kJ7X17c6eCaeiLfBpgeQm1x2G5KPXnYr5N7sjEe2jrdtvBn9k4J7qy6iFUnE/VlY+B0ZSsOnUnQARRsk+pPp+vKh1s3NDObYz6Gw5w5tJgRZ+J2ikn8HaeKqfzxaDhVgT9iGj4Ajmv4N3wUA5zmhinzkPJl/piDaqyeenN6qZ7EP4g7TuNwvooL/mwWcTQH4Ig/xVE+7L/DH+SQrxT+iY8TBND9azzYdOIglvMqcQyHeAoIXM5Dw/tnSvi1sS/eQUd1wQKnDzay7YT1GceJaMdI17YlAOOk9yph2ZJBnYdd+E3dxhy1/APl6CEZZP/mWegamiZc2nqyWwICV92MPKcSsTnf7DxX8FHY5/1F+ILDkOsEXK+e7jH5L3jC6QPXPHDk3XZkaMbrmXEcPe47dUr4Wk9n65RJYzjM2Y9NLV8/85w3OX6KDHaKkwFLN2Z6MoxdGlYxdbhtAqiUgwuo1muxt6HzHxN3pAatfyLakcB7wA4ijyZtWi1/aOul4agU/u6uWNbh2CVPFUqvz8c01f8YviqMSIOvuKJwfIPrS7eeU2yT/149ReSe3V+VZVXvK9sWvo4wxxuBE8INQ+04ZkU4HWrHaPyrE9OoP1fTTWoHT/6pM1H3CP+xAQ/ZvzpSO4pBI+5MjX+yGa9n1IlF60n8m3oSsHOmsmiEL53eHDv/MT6Ei3tDDYR3BzZrLhLecLy7oIAq8SEfTphwUKd61uMBQnVS3xyz4KgCtU6Bt6BuFzgZ8MmxQteGtjF+zYoVGjhcZyo2cHHtaU5wTWxxPEb32hZmNte9tgWud21LfCxo4s987BpYc+jwxyOulQmndvBifpmP202rp9qreYe/kYl8zSbxX6ye4GG8RusJAB4QB/lOqafNI86E6pT4m73qIk74Vxx4NXyk8Le7iQe1OLCnPMOmE8fmwF8p9uoEK+KlyeKTY2Opx2qsHcNGaVkDz9ed5qHXkXgOmnptW7oMRrkD57m0ZUTCP2aj07gJzxlfRjlaiTku+TfPgTer5B9+uZ7s1iNFPZN/xfQ6MGI6tqknIym3Wk/fX65xK/G68BmZKxUmzt/riSnCU5ymnqNn5MDpED+1nk7QlNlXilPr5Ga1TjRNxwwZeMjls+t+802YpnXN2K44vjHsy2DX6KRJoyqLui0H1zi+zNhwWOw5lWSKrX+bHEkj8B6wg8ijfj0bhWrtOcDiovbj/vuS+U8RSq/vtp//OL6KGjb4pdFaDEYyEmcRGexVeZFB7rnzK/qZEt2OAwMZ9P5AOw7h+B4AREwdx3XSdBzuKnyT2sGT//A7gKPb5Q14iFyNFdWJxfH4IboBDxuvxaL1tM1B74DDWaXA3KHPJf+IYPepnqaKTBWXYU4UCOcDH1QnC+RmGR+45J/8wmKQXj1zAMfXM65nU6SpU85FOM5S6mQcIf6pR34NKnbzB91orlnrNTThcJ2pl5WBi2tPc4JrVsKNXdtCfK57bQtcvbYt19AWNPF3nCqm8sej4VQF/ohp+AA4ruHf8FEMcJobpsxDypf5Yw6qsXrqzemlehL/IO44jcP5Ki74s1nE0RyAI/4UR/mw/w5/kEO+UvgnPk4QQPev8WDTiYNYzqvEMRziiX6mBFZkdBpbitwIfE0OWK3UaVgcV92MdCRsYqq5ti0BGIdO47oGJdZp2C78pg5mjlr+1M0YGwbZv3mWVM+AhwtHel3CLQGBq27qGZmldmCup5u4J8Pp0KIFvuAw5DoB16une0z+C55w+sA1Dxx5tx0ZmvF6ZhxHj/tOnRK+1tPZOmXcL5+d+c03+TInGWzN5aTHZXjw71QFlyXwHrCDyKNJm1bLH9re31W6Uvi7u2JZhw/+naq6TDKIyD13fdW+Y9c7MV+zWmdoEh/03nA6whxvBA5uBiOKncL3AISvek3Mbj1S6ip8k9rBk//wi5wBIQeOY7VrqU4sga/1JLdkM17PqBOL1pP4N/UkYOdMZdEITwTdP/Ef40O4uDfUQHh3YLPmIuENx7sLCqgSH/LhhAkHdapnPR4gVCf1zTELjipQ6wRZ5teGfs2KS0e7pgyA44SubQ2qOsJhw6+5MYXrV7+0nSgTv7YlPojRvbaFmc11r22BI/4Ux/lY0MSf+VBdUCf1Rb7NcII4+EFM4uU2hlO7afVUezXv8Dcyka/ZJP6L1RM8jNdoPQHAA+Ig3yn1tHnEmVCdEn+zV13ECf+KA6+GjxT+djfxoBYH9pRn2HTi2Bz4K8WIIxPhT46lDiCmw4YCHKfa2jFslJY18HzdaR56HYnnoKnXtqXLYJQ7cJ5LW0Yk/GPWmYUJz3nHC5SjlZjjkn/zHHizSv7hl+vJbj1S1DP5V0yvAyOmY5t6MpJyq/WsxwNZideFz8hcqTBx/l5PTBGe4jT1HD0jB06H+Kn1dIKmzL5SnFonN6t1Cszy2XXP1vfyBdaWZJZGTZx64vjGsC/Dg3+n6iDyqF/PRqHaB/9ONVWAXwRGMhKH5J47v0bvlDAZ7G7RjuN4tT/gjkM4vgcAEZ1PIMxt7jjcVfgmtYMn/+EXOQNCDhwn6i7w5gh1YnE8fohuwMPGa7FoPW1z0DvgcFYpMHfoc8k/Ith9qqepIlPFZZgTBcL5wAfVyQK5WcYHLvknv7AYpFfPHMDx9Yzr2RRp6pRzEY5T6jTwt8Druutds5ZrUMPFA+zKNatfG2NJB0592WUp4WAnYk7o2jT49K9tIT7HfAyHOXNoMSPOxO0Uk/g7ThVT+ePRcKoCf8Q0fAAc1/Bv+CgGOM0NU+Yh5cv8MQfVWD315vRSPYl/EHecxuF8FRf82SziaA7AEX+Ko3zYf4c/yCFfKfwTHycIoPvXeLDpxEEs8JeJvdtcl5yuWlt0vBoxjU6jAwKpZdwbDp2GxXHVzUhHwiammmvbEoBx6DSua1DirSXswm/qYOao5U/djLFhkP2bZ0n1DHi4cGTeJ6xwbd5viitnZJbagbmebuKeDKdDixb4gsOQ6wRcr57uMfkveMLpA9c8cOTddmRoxuuZcRw97jt1SvhAL59d+5tvmjQgAO2BFjAE6pz0uAwP/p2q4LIE3gN2EHk0adNq+UPb+7tKVwp/d1cs6/DBv1Pp36EEyqHZEJ5DJ4gFbZ2hEPC1ajj25lCKMxgAOL1mVSTfAxC+6jUxu/VIqavwTWoHT/7DL3IGhBw4jtWupTqxBL7Wk9ySzXg9o04sWk/i39STgJ0zlUUjfOn05tj5j/EhXNwbaiC8O7BZc5HwhuPdBQVUiQ/5cMKEgzrVsx4PEKqT+uaYGTfg2zf0WhKdqL021Glcs2LarikD4Di1G7tmpTiGU1+mwfWrX9pOlLBf2xIfxOhe28LM5piP4TBnDi1mxHE+FjTxZz5UF9RJfZFvM5wgDn4Qk3i5jeHUblo91V7NO/yNTORrNon/YvUED+M1Wk8A8IA4yHdKPW0ecSZUp8Tf7FUXccK/4sCr4SOFv91NPKjFgT3lGTZtnAm+HyrWnIkuWV3PtjRTB7BpdBoDOE61tWPYqAkVcWyr+A+ke6fO0lzbli6DUe7AeS5tGZHwj1lnFiY85x0vUI5WYo5L/s1z4M0q+Ydfrie79UhRz+RfMb0OjJiOberJSMqt1rMeD2QlXhc+I3OlwsT5ez0xRXiK09Rz9IwcOB3ip9bTCZoy+0pxSp0GEVk+szb/HWrAx2CxkmXAklxEPepAxfGNYV+GB/9O1UHkUb+ejUK1D/6daqoAvwiMZNC/Q8GAF+Yg3Bp8w+b0zlf4WMdxvNofcMchHN8DgIjOJxDmNncc7ip8k9rBk//wi5wBIQeOE3UXeHOEOrE4Hj9pP6Q7xwn8T62nbQ56BxzOKgXmDn0u+UcEu0/1NFVkqrgMc6JAOB/4oDpZIDfL+MAl/+QXFoP06pkDOL6ecT2bIk2d2Eb0s82le80a15Z+HWo4ncY1a7kGNVw8wK5cs1IcbR2BU18jfBScrm0zn/ba1gzNzOaYj+EwZw4tZsSZuJ1iEn/HqWIqfzwaTlXgj5iGD4DjGv4NH8UAp7lhyjykfJk/5qAaq6fenF6qJ/EP4o7TOJyv4oI/m0UczQE44k9xlA/77/AHOeQrhX/i4wQBdP8aDzaKsTNUpwP4is4babWXaXQaHRCIIgzS6UgkjqtuRjoSNjHVXNuWAIxDp3FdgxLrSGwXflMHM0ctf+pmjA2D7N88S6pnwMOFI0sHJoVr835TXDkjs9QOzPV0E/dkOB1atMAXHIZcJ+B69XSPyX/BE04fuOaBI++2I0MzXs+M4+hxr3USEVk+s+ZZUz+Xb6gfOUsz/kALGAJ1TnpcEKf11zccHvw7VQeRR5M2rZY/tJ2/q/Sl8Hd3xbIO/3/wd6o9d+Fz+QaxO1rZvc6UN9IcOkEsaOsMhYCvbMOxN4cyHwMAp9esiuR7AMJXvSZmtx4p5cg3qR08+Q+/yBkQcuA4VruW6sQS+FpPcks24/WMOrFoPYl/U08Cds5UFo3wpdObY+c/xodwcW+ogfDuwGbNRcIbjncXFFAlPuTDCRMO6lTPejxAUp0G+o7ddE0Z155xzYpOhGtKvfklqV+zYtquXQPguOy/XrNSHMOpL9Pg+tUvbSeaGPMHH8Sw61udc0MzsznmYzjMmUOLGXGcjwVN/JkP1QV1Ul/k2wwniIMfxCRebmM4tZtWT7VX8w5/IxP5mk3iv1g9wcN4jdYTADwgDvKdUk+bR5wJ1SnxN3vVRZzwrzjwavhI4W93Ew9qcWBPdfr/ADxGofVU6PoNAAAAAElFTkSuQmCC;" parent="_9igIO5fBCOPrin5odHY-1" vertex="1">
          <mxGeometry x="-1370" y="-370" width="67.64" height="67" as="geometry" />
        </mxCell>
      </root>
    </mxGraphModel>
  </diagram>
</mxfile>
